# Blender 4.1.1
# www.blender.org
mtllib WoodSpoon_LowPoly.mtl
o WoodSpoon_LowPoly
v 0.064039 0.000715 -0.011857
v 0.064633 0.000931 -0.011700
v 0.066944 0.000217 -0.009927
v 0.067217 0.000477 -0.010263
v 0.063865 0.000511 -0.011502
v 0.066272 0.001178 -0.010540
v 0.063694 0.001587 -0.011503
v 0.065570 0.001461 -0.010439
v 0.068681 -0.000167 -0.008134
v 0.068557 0.000284 -0.008951
v 0.066438 0.000109 -0.009319
v 0.069936 0.000190 -0.006187
v 0.069319 0.000540 -0.006836
v 0.065420 -0.000169 -0.005440
v 0.069488 -0.000380 -0.006273
v 0.070257 -0.000446 -0.003550
v 0.069445 -0.000704 -0.003129
v 0.069954 0.000163 -0.004208
v 0.066607 0.001233 -0.009301
v 0.065830 0.001400 -0.008063
v 0.066917 0.001055 -0.005667
v 0.060685 0.001021 -0.013379
v 0.060473 0.001408 -0.013111
v 0.061139 0.000787 -0.013087
v 0.058854 0.000806 -0.013173
v 0.057913 0.001344 -0.013286
v 0.056741 0.001055 -0.013005
v 0.059029 0.000663 -0.011987
v 0.063569 0.000317 -0.010337
v 0.061954 0.000467 -0.010390
v 0.061225 0.001763 -0.011869
v 0.057512 0.001697 -0.012695
v 0.058030 0.000435 -0.006762
v 0.057523 0.002506 -0.009247
v 0.055019 0.000627 -0.011255
v 0.056415 0.001372 -0.012652
v 0.054415 0.000484 -0.009215
v 0.051850 0.000965 -0.009099
v 0.052408 0.000547 -0.009092
v 0.051688 0.001381 -0.009134
v 0.051882 0.001889 -0.009096
v 0.054285 0.002213 -0.010077
v 0.051490 0.002821 -0.007512
v 0.055857 0.002329 -0.010093
v 0.062650 0.000239 -0.007566
v 0.061034 0.000062 -0.004157
v 0.061038 0.002236 -0.007676
v 0.058868 0.002492 -0.008483
v 0.058142 0.002524 -0.006792
v 0.054763 0.000222 -0.005583
v 0.052568 0.000314 -0.008146
v 0.050797 0.002576 -0.007848
v 0.051923 0.003001 -0.006653
v 0.052226 -0.000114 -0.003708
v 0.051205 0.003118 -0.004973
v 0.053274 0.002873 -0.004110
v 0.069968 -0.000366 -0.002279
v 0.067924 -0.000434 -0.005249
v 0.069634 -0.000805 -0.000914
v 0.068909 -0.000723 0.000857
v 0.068494 -0.000311 0.000483
v 0.068552 -0.000881 0.000143
v 0.066548 -0.000511 0.003581
v 0.065615 -0.000517 -0.000583
v 0.065590 -0.001059 0.004651
v 0.067191 0.000756 -0.003635
v 0.067283 -0.000971 0.003291
v 0.065245 -0.000851 0.005011
v 0.061199 -0.000067 -0.001848
v 0.061065 -0.000276 0.000332
v 0.057728 0.000102 -0.002234
v 0.060140 -0.000333 0.002098
v 0.061761 0.001799 -0.004265
v 0.064152 0.001400 -0.003878
v 0.062139 0.001163 -0.000146
v 0.064911 0.000760 -0.000847
v 0.060547 0.001083 0.001768
v 0.057850 0.001619 0.001258
v 0.057875 -0.000144 0.000555
v 0.056100 -0.000261 0.001723
v 0.053453 -0.000451 0.001579
v 0.054687 -0.000064 -0.001370
v 0.052393 -0.000576 0.003191
v 0.050923 -0.000852 0.002349
v 0.055869 0.002441 -0.002781
v 0.057758 0.001949 -0.001119
v 0.053071 0.002442 -0.000678
v 0.059270 0.000843 0.003894
v 0.055086 0.001947 0.001403
v 0.056363 0.001391 0.003442
v 0.061547 -0.000665 0.005425
v 0.063364 -0.000231 0.004796
v 0.060844 -0.000107 0.005598
v 0.061744 -0.000425 0.005540
v 0.062523 -0.000772 0.004905
v 0.059594 -0.000570 0.006116
v 0.058031 -0.000474 0.004950
v 0.058165 -0.000120 0.006428
v 0.057685 -0.000528 0.006149
v 0.054675 -0.000507 0.004372
v 0.051767 0.000058 0.003164
v 0.057955 0.000275 0.006016
v 0.051337 0.001119 0.002811
v 0.051245 0.000568 0.002947
v 0.051824 0.001638 0.002523
v 0.049813 0.000014 -0.007243
v 0.047541 -0.000187 -0.005921
v 0.046977 -0.000071 -0.006193
v 0.045556 -0.000699 -0.005213
v 0.049289 -0.000437 -0.002258
v 0.046664 -0.000819 -0.002827
v 0.050068 0.000708 -0.007830
v 0.049353 0.001813 -0.007591
v 0.048460 0.002364 -0.006866
v 0.048724 0.002911 -0.006181
v 0.048280 0.000362 -0.006825
v 0.046490 0.001373 -0.006360
v 0.044796 0.000697 -0.005821
v 0.044910 0.002573 -0.005145
v 0.044125 -0.000954 -0.005122
v 0.043106 -0.000628 -0.005050
v 0.042908 -0.001724 -0.004435
v 0.043559 -0.001668 -0.003648
v 0.041001 -0.002374 -0.004240
v 0.039718 -0.003360 -0.003092
v 0.038343 -0.003714 -0.002976
v 0.042804 0.000114 -0.005191
v 0.043470 0.001137 -0.005429
v 0.044524 0.001631 -0.005621
v 0.042365 0.002540 -0.004630
v 0.041505 0.000864 -0.005027
v 0.037500 0.001707 -0.004376
v 0.032692 0.002203 -0.003609
v 0.034747 0.002773 -0.003308
v 0.037580 0.002398 -0.004032
v 0.033242 -0.003593 -0.002877
v 0.031250 -0.002660 -0.003562
v 0.033208 -0.001992 -0.003929
v 0.033598 0.001773 -0.004037
v 0.028440 0.000508 -0.004055
v 0.032037 0.001373 -0.004141
v 0.033976 0.000681 -0.004349
v 0.023995 0.002901 -0.002500
v 0.038666 -0.003963 -0.001478
v 0.039826 -0.003548 -0.001508
v 0.051624 -0.000461 -0.000596
v 0.048900 -0.000842 0.000354
v 0.046846 -0.001073 -0.000108
v 0.047779 -0.000722 0.001358
v 0.047177 -0.001006 0.000684
v 0.045948 -0.001081 0.000641
v 0.046877 0.003137 -0.002108
v 0.048845 0.002681 -0.000378
v 0.048105 0.001272 0.001613
v 0.047154 0.002548 0.000182
v 0.049132 0.002167 0.001057
v 0.046655 0.000157 0.001275
v 0.046449 0.001601 0.000997
v 0.044143 0.002304 0.000087
v 0.042979 -0.002233 -0.000641
v 0.043444 -0.001900 0.000032
v 0.042121 -0.002501 -0.001605
v 0.044927 -0.001506 -0.001115
v 0.041761 -0.002469 -0.000058
v 0.040251 -0.003280 -0.000701
v 0.037496 -0.002105 0.000202
v 0.042845 -0.001706 0.000227
v 0.045536 -0.000618 0.000840
v 0.044383 -0.000061 0.000822
v 0.038810 0.002303 -0.000155
v 0.042853 0.001822 0.000387
v 0.044916 0.001159 0.000848
v 0.041544 0.001270 0.000507
v 0.041224 -0.000420 0.000469
v 0.036526 -0.004087 -0.002133
v 0.031339 -0.004038 -0.002239
v 0.035096 -0.004056 -0.001413
v 0.035773 -0.003784 -0.000964
v 0.030981 -0.003967 -0.001664
v 0.028965 -0.003414 -0.000376
v 0.022894 -0.003438 -0.001153
v 0.033515 -0.003035 -0.000167
v 0.034545 -0.000699 0.000569
v 0.038136 -0.001380 0.000323
v 0.037253 0.001697 0.000443
v 0.035447 0.002538 -0.000228
v 0.025848 -0.002893 0.000325
v 0.032900 -0.002242 0.000358
v 0.024203 -0.000868 0.001248
v 0.025937 -0.001905 0.000879
v 0.031783 0.002855 -0.000268
v 0.028753 0.001850 0.000792
v 0.033965 0.001881 0.000412
v 0.029194 0.000743 0.000886
v 0.032876 0.001540 0.000613
v 0.024606 0.000854 0.001197
v 0.045091 0.003156 -0.004445
v 0.049085 0.003184 -0.003628
v 0.040718 0.003019 -0.003976
v 0.038722 0.003063 -0.003344
v 0.031616 0.003017 -0.002203
v 0.042945 0.003428 -0.002701
v 0.040208 0.003345 -0.002712
v 0.045102 0.002835 -0.000675
v 0.033621 0.003310 -0.001461
v 0.041667 0.003264 -0.001790
v 0.035582 0.003177 -0.001116
v 0.039270 0.002881 -0.000878
v 0.031825 0.003239 -0.001221
v 0.028743 0.003214 -0.000779
v 0.025991 0.002675 0.000169
v 0.025242 0.003112 -0.001836
v 0.028047 -0.003400 -0.002822
v 0.021318 -0.003063 -0.002614
v 0.026816 -0.002638 -0.003433
v 0.021464 -0.001998 -0.003502
v 0.027718 -0.001764 -0.003828
v 0.024688 -0.001859 -0.003780
v 0.026552 -0.003541 -0.002500
v 0.019893 -0.003190 -0.002204
v 0.018439 -0.000764 -0.003841
v 0.024587 0.000953 -0.003876
v 0.024396 -0.000133 -0.003977
v 0.018785 0.001147 -0.003684
v 0.022702 0.001686 -0.003428
v 0.014160 -0.003048 -0.001766
v 0.015130 -0.002875 -0.002432
v 0.017311 -0.001637 -0.003524
v 0.015952 -0.000876 -0.003878
v 0.015492 -0.002550 -0.002832
v 0.014743 -0.003099 -0.001238
v 0.018548 0.002282 -0.002830
v 0.015543 -0.000141 -0.003833
v 0.014811 0.000576 -0.003671
v 0.016048 0.001390 -0.003380
v 0.011123 -0.002557 -0.002844
v 0.008424 -0.002861 -0.002612
v 0.010305 -0.002900 -0.000970
v 0.005092 -0.002939 -0.001698
v 0.006149 -0.001529 -0.003205
v 0.011053 -0.001574 -0.003366
v 0.006287 -0.002671 -0.002859
v 0.009582 0.001621 -0.002877
v 0.013901 0.002154 -0.002686
v 0.011871 0.001989 -0.002460
v 0.012041 0.001022 -0.003416
v 0.010731 0.000461 -0.003512
v 0.006461 0.001161 -0.003156
v 0.004408 -0.002904 -0.002348
v -0.000776 -0.002893 -0.002477
v 0.005049 0.001616 -0.002285
v 0.009218 0.002081 -0.000993
v 0.023575 -0.003279 -0.000374
v 0.020648 -0.002766 0.000549
v 0.018865 -0.003229 -0.001507
v 0.027744 -0.000667 0.000968
v 0.018659 0.000658 0.001539
v 0.018013 -0.002875 -0.000112
v 0.021133 -0.002375 0.000892
v 0.015669 -0.002319 0.001126
v 0.015057 -0.002571 0.000615
v 0.016036 -0.001982 0.001352
v 0.021025 -0.001535 0.001223
v 0.020398 -0.000856 0.001386
v 0.012625 -0.000930 0.001843
v 0.018951 0.002576 -0.000485
v 0.017721 0.002430 0.000432
v 0.023471 0.002753 -0.000089
v 0.017475 0.002271 0.000834
v 0.022776 0.001675 0.000940
v 0.013468 0.002096 0.000889
v 0.015975 0.001205 0.001407
v 0.011749 -0.002659 0.000265
v 0.012525 -0.002180 0.001579
v 0.007707 -0.002258 0.001606
v 0.005915 -0.002585 0.000721
v 0.007236 -0.002909 -0.000621
v 0.010393 0.002136 -0.000031
v 0.009314 0.001941 0.001060
v 0.007338 0.001542 0.001442
v 0.012002 0.000917 0.001697
v 0.004103 0.001626 0.001162
v 0.011091 0.000342 0.001890
v 0.001910 -0.002797 0.000392
v 0.005038 -0.002891 -0.000726
v 0.005148 -0.001855 0.002018
v 0.002282 -0.000403 0.002204
v 0.006562 -0.001126 0.002093
v 0.001183 -0.002238 0.001952
v -0.001473 -0.002606 0.001297
v 0.006323 0.001898 0.000424
v 0.000979 0.001315 0.001565
v 0.004727 0.000896 0.001728
v 0.000093 0.001459 0.001054
v 0.006010 -0.000110 0.002097
v 0.002934 0.000441 0.001987
v 0.000072 0.000449 0.002285
v 0.022243 0.002732 -0.002517
v 0.016715 0.002472 -0.001322
v -0.001360 -0.003063 -0.001653
v -0.000836 -0.002661 -0.002741
v -0.006761 -0.002418 -0.002700
v 0.000296 -0.001967 -0.002957
v -0.001245 0.000952 -0.003052
v 0.002283 0.000801 -0.003095
v -0.004515 0.001168 -0.002687
v 0.001659 0.001617 -0.001053
v -0.006223 0.000846 -0.002776
v -0.006378 0.001146 -0.002293
v -0.004967 0.001292 -0.001189
v -0.005214 -0.003145 -0.001361
v -0.009902 -0.003054 -0.002418
v -0.010843 -0.003165 -0.002081
v -0.010036 -0.002338 -0.002741
v -0.007613 -0.000028 -0.002836
v -0.008726 0.000678 -0.002760
v -0.011132 0.000968 -0.002504
v -0.015012 -0.003084 -0.001749
v -0.013818 -0.003085 -0.000232
v -0.015734 -0.002184 -0.002639
v -0.012880 -0.000049 -0.002712
v -0.016650 0.000423 -0.002513
v -0.015303 0.000854 -0.002245
v -0.018136 0.000629 -0.002317
v -0.018699 -0.003075 -0.001714
v -0.020442 -0.002802 -0.002236
v -0.017127 -0.003169 -0.000178
v -0.022016 -0.003120 -0.000882
v -0.013873 -0.002944 -0.002428
v -0.021425 -0.003016 0.000315
v -0.024594 -0.003048 -0.001187
v -0.020935 -0.002217 -0.002563
v -0.023793 -0.001720 -0.002561
v -0.020498 -0.000178 -0.002703
v -0.020499 0.000799 -0.001263
v -0.022079 0.000267 -0.002519
v -0.025038 0.000198 -0.002238
v -0.024570 0.000672 -0.001618
v -0.001288 -0.003036 -0.000561
v -0.001483 -0.002839 0.000392
v -0.004911 -0.003014 0.000032
v -0.000477 -0.001719 0.002216
v -0.002242 0.000153 0.002310
v -0.004434 -0.001717 0.002292
v -0.004303 0.001076 0.001917
v -0.007097 0.000053 0.002429
v -0.006991 -0.000814 0.002515
v -0.007064 -0.003114 -0.000162
v -0.006324 -0.002609 0.001664
v -0.008981 -0.003188 -0.000093
v -0.010675 -0.002439 0.002343
v -0.011636 -0.002113 0.002583
v -0.006172 0.000607 0.002309
v -0.009786 0.001078 0.001871
v -0.009100 0.000955 0.002183
v -0.009767 0.001082 -0.000132
v -0.012879 -0.000488 0.002814
v -0.013025 -0.002910 0.000896
v -0.015137 -0.002656 0.001703
v -0.015884 -0.002276 0.002444
v -0.010831 -0.001584 0.002672
v -0.017258 -0.001527 0.003052
v -0.013467 0.001050 0.001772
v -0.015050 0.000815 0.002528
v -0.016420 -0.000941 0.003036
v -0.018714 -0.003136 0.000169
v -0.020156 -0.002628 0.001816
v -0.025164 -0.002984 0.000373
v -0.023546 -0.002296 0.002581
v -0.026258 -0.001664 0.003221
v -0.021614 0.000762 0.000537
v -0.016217 0.000918 0.000157
v -0.020297 0.000728 0.002373
v -0.022360 -0.001084 0.003206
v -0.022890 -0.000513 0.003205
v -0.021161 0.000396 0.002862
v -0.028616 -0.002794 -0.001495
v -0.029158 -0.002376 -0.002003
v -0.028794 -0.001827 -0.002340
v -0.033445 -0.002877 -0.000539
v -0.026662 -0.000723 -0.002453
v -0.026595 0.000452 -0.002023
v -0.029712 -0.000396 -0.002343
v -0.027951 0.000154 -0.002186
v -0.028503 0.000544 -0.001998
v -0.030342 0.000153 -0.002062
v -0.034531 -0.002591 -0.001527
v -0.034360 -0.001795 -0.001881
v -0.034379 -0.001059 -0.001953
v -0.036220 -0.002827 -0.000858
v -0.033821 -0.000140 -0.001973
v -0.029613 0.000467 -0.001492
v -0.030848 0.000481 -0.002014
v -0.032958 0.000307 -0.001664
v -0.030660 0.000372 -0.000408
v -0.036565 0.000158 -0.000017
v -0.036228 0.000009 -0.001911
v -0.036911 -0.002822 0.000040
v -0.040669 -0.001876 -0.001572
v -0.041488 -0.002504 -0.000113
v -0.045213 -0.001937 -0.001030
v -0.035899 -0.000503 -0.002040
v -0.039829 -0.000151 -0.001838
v -0.037032 0.000134 -0.001668
v -0.043423 -0.000330 -0.001362
v -0.042045 -0.000132 -0.000848
v -0.043967 -0.000143 0.000729
v -0.043864 -0.001676 -0.001391
v -0.046628 -0.002268 0.000243
v -0.048740 -0.001671 -0.001047
v -0.048710 -0.002141 0.000184
v -0.047538 -0.002213 0.001303
v -0.044409 -0.001093 -0.001576
v -0.045379 -0.000347 -0.001197
v -0.047083 -0.001085 -0.001360
v -0.048432 -0.000477 -0.001224
v -0.047819 -0.000266 -0.000478
v -0.050699 -0.000366 -0.000942
v -0.047170 -0.000226 0.001149
v -0.027559 -0.002836 0.001137
v -0.027825 -0.002151 0.002972
v -0.029672 -0.002840 0.001154
v -0.029322 0.000455 0.002974
v -0.027536 0.000554 0.000647
v -0.024961 0.000486 0.002880
v -0.036059 0.000065 0.003480
v -0.029650 -0.000506 0.003391
v -0.030942 -0.001633 0.003252
v -0.029294 0.000289 0.003140
v -0.029206 -0.003048 -0.000029
v -0.034211 -0.002796 0.000607
v -0.031138 -0.002210 0.002690
v -0.032967 -0.002747 0.001332
v -0.036419 -0.002672 0.001381
v -0.034034 -0.002414 0.002095
v -0.035498 -0.002047 0.002894
v -0.034261 -0.001840 0.003191
v -0.033356 0.000310 0.001805
v -0.033035 0.000272 0.003048
v -0.038666 -0.002087 0.002646
v -0.039187 -0.002509 0.001663
v -0.039237 -0.001740 0.003127
v -0.042503 -0.001928 0.003063
v -0.036411 0.000315 0.003164
v -0.037814 -0.001344 0.003376
v -0.038145 0.000186 0.001772
v -0.043587 -0.000126 0.002969
v -0.039603 0.000026 0.003346
v -0.039916 -0.000231 0.003479
v -0.041018 -0.002587 0.000782
v -0.044304 -0.002435 0.000879
v -0.042547 -0.002316 0.002462
v -0.044535 -0.001942 0.002580
v -0.047965 -0.001906 0.002508
v -0.043753 -0.000822 0.003462
v -0.045384 -0.001307 0.003171
v -0.048981 -0.000409 0.002971
v -0.046643 -0.000572 0.003373
v -0.047905 -0.001475 0.003006
v -0.049325 -0.001138 0.003278
v -0.050413 -0.000768 0.003277
v -0.052399 -0.001974 -0.000215
v -0.052351 -0.002153 0.001032
v -0.053656 -0.001887 0.000058
v -0.052992 -0.001991 0.002351
v -0.051034 -0.001012 -0.001056
v -0.052814 -0.001509 -0.000644
v -0.052169 -0.000699 -0.000946
v -0.052532 -0.000606 -0.000606
v -0.052936 -0.000844 0.001580
v -0.053807 -0.001470 -0.000174
v -0.053729 -0.001118 0.000294
v -0.053859 -0.001477 0.001315
v -0.051016 -0.000507 0.002634
v -0.053513 -0.001370 0.002994
v -0.050514 -0.000355 0.001201
v -0.053307 -0.001771 0.002975
v -0.051860 -0.001742 0.002891
v 0.057490 0.002449 -0.004853
v 0.039566 -0.001862 -0.004302
v 0.037638 -0.001386 -0.004273
v 0.031007 -0.001185 -0.004093
v 0.036178 -0.001298 -0.004245
v 0.037475 0.000750 -0.004578
v 0.036102 0.000147 -0.004508
v 0.028256 -0.001165 -0.004039
v 0.034890 0.000656 0.000603
v 0.009883 -0.000920 -0.003524
v 0.003178 -0.000144 -0.003170
v 0.000253 -0.000936 -0.003066
v -0.003715 -0.000248 -0.002942
v -0.015534 -0.000882 -0.002696
v -0.025024 0.000628 0.001856
v -0.026525 0.000518 -0.000799
v 0.057596 0.000231 -0.004511
v 0.063495 0.000495 0.002003
v 0.036042 -0.003001 -0.003490
v 0.034966 -0.002302 -0.003813
v 0.029444 0.002538 -0.003219
v 0.039221 0.000041 0.000437
v -0.011048 0.001029 -0.001375
v -0.005337 0.001196 0.000772
vn 0.5028 -0.3805 -0.7762
vn 0.0916 -0.9405 -0.3271
vn 0.2513 -0.7301 -0.6355
vn 0.5027 -0.3805 -0.7762
vn 0.2513 -0.7300 -0.6356
vn 0.4066 0.4198 -0.8115
vn 0.0289 -0.9724 -0.2314
vn 0.2512 -0.7301 -0.6355
vn 0.0915 -0.9406 -0.3271
vn 0.4066 0.4197 -0.8115
vn 0.4622 0.7869 -0.4088
vn 0.4622 0.7869 -0.4089
vn 0.4065 0.4198 -0.8115
vn 0.1647 0.9572 -0.2381
vn 0.1649 0.9571 -0.2382
vn 0.1667 0.9846 -0.0534
vn 0.7432 0.4696 -0.4766
vn 0.0521 -0.9825 -0.1791
vn 0.5027 -0.3804 -0.7762
vn 0.0520 -0.9825 -0.1791
vn 0.7432 0.4695 -0.4766
vn 0.9546 -0.0137 -0.2977
vn 0.3381 0.9399 -0.0470
vn 0.9546 -0.0136 -0.2977
vn 0.0916 -0.9406 -0.3270
vn -0.0577 -0.9934 -0.0991
vn 0.0520 -0.9825 -0.1790
vn -0.0817 -0.9935 -0.0793
vn 0.2234 -0.9617 -0.1587
vn 0.0520 -0.9824 -0.1791
vn 0.2233 -0.9617 -0.1587
vn 0.9545 -0.0136 -0.2978
vn 0.7728 -0.6298 -0.0779
vn 0.7728 -0.6298 -0.0778
vn 0.0321 -0.9962 -0.0808
vn 0.3246 0.9362 0.1350
vn 0.7728 -0.6299 -0.0778
vn 0.4622 0.7869 -0.4087
vn 0.3381 0.9399 -0.0471
vn 0.2550 0.9669 -0.0086
vn 0.4622 0.7870 -0.4087
vn 0.7432 0.4696 -0.4767
vn 0.2551 0.9669 -0.0086
vn 0.9546 -0.0135 -0.2977
vn 0.3246 0.9362 0.1349
vn 0.0038 -0.9806 -0.1961
vn -0.0577 -0.9298 -0.3636
vn 0.2639 0.2947 -0.9184
vn 0.2639 0.2948 -0.9184
vn -0.0942 0.4393 -0.8934
vn 0.1031 0.8775 -0.4684
vn 0.2640 0.2948 -0.9184
vn -0.0578 -0.9298 -0.3636
vn -0.4547 -0.5033 -0.7348
vn -0.0943 0.4393 -0.8934
vn 0.4066 0.4198 -0.8114
vn 0.2513 -0.7300 -0.6355
vn 0.2639 0.2949 -0.9184
vn 0.1032 0.8775 -0.4684
vn 0.1648 0.9572 -0.2381
vn 0.2513 -0.7301 -0.6354
vn 0.0290 -0.9724 -0.2315
vn 0.0039 -0.9806 -0.1961
vn 0.2638 0.2948 -0.9184
vn 0.2512 -0.7300 -0.6355
vn 0.0290 -0.9724 -0.2314
vn -0.0537 -0.9944 -0.0915
vn -0.0481 -0.9964 -0.0697
vn -0.0079 -0.9978 -0.0658
vn -0.0194 0.9542 -0.2985
vn -0.0943 0.4392 -0.8934
vn -0.0161 -0.9978 -0.0649
vn -0.0079 -0.9978 -0.0657
vn 0.0684 0.9750 -0.2113
vn -0.0194 0.9542 -0.2984
vn 0.0306 0.9825 -0.1836
vn 0.0906 0.9946 -0.0500
vn -0.4546 -0.5034 -0.7348
vn -0.4011 0.6446 -0.6508
vn -0.4547 -0.5034 -0.7348
vn -0.1316 -0.9608 -0.2439
vn -0.4011 0.6447 -0.6508
vn -0.0195 0.9542 -0.2985
vn -0.5063 -0.4934 -0.7072
vn -0.1316 -0.9609 -0.2438
vn 0.0155 -0.9976 -0.0675
vn -0.1552 -0.9283 -0.3379
vn -0.4547 -0.5034 -0.7347
vn -0.5849 0.0124 -0.8110
vn -0.5064 -0.4933 -0.7072
vn -0.5850 0.0123 -0.8109
vn -0.5064 -0.4934 -0.7072
vn -0.1316 -0.9608 -0.2438
vn -0.5850 0.0125 -0.8110
vn -0.4917 0.4285 -0.7581
vn -0.1473 0.9138 -0.3786
vn -0.0484 0.9680 -0.2464
vn -0.0262 0.9703 -0.2406
vn -0.0661 -0.9950 -0.0749
vn 0.1055 0.9931 0.0521
vn 0.1485 0.9884 0.0304
vn 0.0529 -0.9957 -0.0765
vn 0.0164 -0.9859 -0.1667
vn -0.5064 -0.4934 -0.7073
vn -0.2824 0.7964 -0.5348
vn -0.0484 0.9679 -0.2464
vn -0.1474 0.9137 -0.3786
vn 0.3245 0.9362 0.1350
vn 0.6558 0.7092 0.2587
vn 0.3720 -0.9255 0.0706
vn 0.6557 0.7093 0.2587
vn 0.3721 -0.9255 0.0707
vn 0.2700 0.9418 0.2001
vn 0.6557 0.7093 0.2588
vn 0.6929 0.5881 0.4172
vn 0.2700 0.9418 0.2000
vn 0.6929 0.5882 0.4171
vn -0.0789 -0.9936 -0.0805
vn 0.0320 -0.9962 -0.0808
vn 0.5024 -0.7757 0.3820
vn 0.3720 -0.9255 0.0707
vn 0.6930 0.5880 0.4172
vn 0.3721 -0.9255 0.0706
vn 0.5025 -0.7756 0.3821
vn 0.2565 0.9295 0.2649
vn 0.6929 0.5882 0.4172
vn -0.0838 -0.9928 -0.0858
vn -0.0873 -0.9929 -0.0812
vn -0.0501 -0.9986 -0.0156
vn 0.3296 0.5135 0.7922
vn 0.5024 -0.7757 0.3819
vn 0.3294 0.5137 0.7922
vn -0.0501 -0.9986 -0.0155
vn 0.5024 -0.7756 0.3821
vn -0.0663 -0.9952 -0.0724
vn -0.0550 -0.9950 -0.0837
vn -0.0060 -0.9974 -0.0724
vn -0.0630 -0.9946 -0.0827
vn 0.1353 0.9823 0.1292
vn 0.1554 0.9772 0.1443
vn 0.1336 0.9848 0.1107
vn 0.1441 0.9752 0.1681
vn -0.1200 -0.8904 0.4391
vn 0.0718 -0.9974 0.0116
vn 0.0980 -0.9925 -0.0732
vn 0.1645 0.9486 0.2704
vn 0.1668 0.9665 0.1952
vn 0.0712 0.9771 0.2007
vn 0.0520 0.9524 0.3003
vn 0.0353 -0.8535 0.5199
vn 0.3295 0.5136 0.7922
vn 0.0353 -0.8535 0.5200
vn -0.0838 -0.9928 -0.0857
vn 0.1904 0.9301 0.3142
vn 0.1845 0.8637 0.4691
vn 0.1845 0.8636 0.4691
vn 0.2205 0.0353 0.9748
vn 0.3295 0.5135 0.7923
vn 0.3294 0.5136 0.7923
vn 0.2205 0.0354 0.9748
vn 0.0354 -0.8535 0.5199
vn 0.0091 -0.9611 0.2759
vn -0.0837 -0.9928 -0.0858
vn 0.2204 0.0354 0.9748
vn 0.0089 -0.9612 0.2759
vn 0.0353 -0.8534 0.5200
vn -0.2381 0.3117 0.9199
vn 0.0090 -0.9612 0.2758
vn 0.0089 -0.9612 0.2758
vn -0.0221 -0.9973 -0.0695
vn -0.3106 -0.7136 0.6279
vn 0.1844 0.8636 0.4692
vn -0.0135 0.8712 0.4907
vn -0.2382 0.3116 0.9199
vn 0.0979 -0.9925 -0.0732
vn -0.0223 -0.9982 0.0561
vn -0.1200 -0.8904 0.4392
vn -0.3832 -0.2833 0.8791
vn -0.0224 -0.9982 0.0561
vn -0.3107 -0.7136 0.6279
vn 0.1441 0.9752 0.1682
vn 0.0520 0.9524 0.3002
vn -0.3980 0.1113 0.9106
vn -0.3106 -0.7137 0.6278
vn -0.2381 0.3116 0.9199
vn -0.3076 0.5008 0.8090
vn -0.2382 0.3117 0.9198
vn 0.0519 0.9524 0.3003
vn -0.1240 0.8255 0.5506
vn -0.3980 0.1114 0.9106
vn -0.2382 0.3117 0.9199
vn -0.3076 0.5008 0.8091
vn -0.1240 0.8255 0.5507
vn -0.3075 0.5008 0.8091
vn 0.2379 -0.9415 -0.2386
vn -0.1655 -0.5143 -0.8415
vn 0.0941 -0.9791 -0.1802
vn 0.2379 -0.9415 -0.2385
vn -0.0267 -0.6033 -0.7970
vn 0.1000 -0.9888 -0.1112
vn 0.2307 -0.9640 -0.1321
vn 0.0942 -0.9791 -0.1801
vn -0.1551 -0.9283 -0.3379
vn 0.0481 -0.9911 -0.1241
vn 0.0165 -0.9859 -0.1668
vn -0.5065 -0.4933 -0.7072
vn -0.4916 -0.2834 -0.8234
vn 0.0166 -0.9859 -0.1667
vn -0.3392 -0.3178 -0.8854
vn -0.4718 0.0102 -0.8816
vn -0.4916 0.4285 -0.7581
vn -0.4719 0.0102 -0.8816
vn -0.3305 0.6031 -0.7260
vn -0.3305 0.6032 -0.7259
vn -0.2824 0.7963 -0.5349
vn -0.4916 0.4286 -0.7581
vn -0.2823 0.7964 -0.5348
vn -0.1484 0.9116 -0.3834
vn -0.1656 -0.5143 -0.8415
vn -0.3394 -0.3177 -0.8854
vn -0.2823 0.7964 -0.5349
vn -0.1485 0.9116 -0.3834
vn -0.2745 -0.1437 -0.9508
vn -0.3393 -0.3177 -0.8854
vn -0.1079 0.9095 -0.4015
vn -0.2458 0.6478 -0.7210
vn -0.0268 -0.6033 -0.7971
vn -0.1671 -0.2874 -0.9431
vn 0.2379 -0.9416 -0.2385
vn 0.2861 -0.8905 -0.3537
vn -0.0267 -0.6034 -0.7970
vn 0.3356 -0.9310 -0.1437
vn 0.2862 -0.8905 -0.3537
vn 0.2861 -0.8905 -0.3538
vn -0.0055 -0.5765 -0.8171
vn -0.0267 -0.6033 -0.7971
vn -0.0055 -0.5764 -0.8171
vn 0.3425 -0.9161 -0.2082
vn 0.0261 -0.8209 -0.5704
vn -0.1283 -0.1584 -0.9790
vn -0.2537 0.1635 -0.9534
vn -0.2745 -0.1436 -0.9508
vn -0.1078 0.9095 -0.4015
vn -0.1487 0.4664 -0.8720
vn -0.3008 0.3504 -0.8870
vn -0.0661 0.6357 -0.7691
vn -0.0624 0.8312 -0.5525
vn -0.1008 0.6384 -0.7631
vn -0.0308 -0.6601 -0.7505
vn -0.0208 -0.5257 -0.8504
vn -0.0370 -0.4582 -0.8881
vn -0.0371 -0.4582 -0.8881
vn -0.0209 -0.5257 -0.8504
vn -0.0275 -0.3478 -0.9372
vn -0.0406 0.0419 -0.9983
vn -0.0493 0.2061 -0.9773
vn -0.0548 0.0100 -0.9984
vn -0.0331 0.2426 -0.9696
vn -0.0572 0.4770 -0.8770
vn 0.1420 -0.9790 0.1462
vn 0.3425 -0.9162 -0.2081
vn 0.3872 -0.9203 -0.0558
vn 0.0886 -0.9910 -0.1002
vn 0.1030 -0.9887 -0.1091
vn -0.2797 -0.4816 0.8306
vn 0.0227 -0.9929 0.1170
vn -0.2797 -0.4817 0.8305
vn 0.1922 -0.9801 -0.0495
vn 0.0532 -0.8060 0.5895
vn 0.0227 -0.9929 0.1171
vn -0.2798 -0.4815 0.8306
vn 0.0575 0.9820 0.1799
vn 0.0935 0.9857 0.1399
vn -0.1774 0.5956 0.7834
vn -0.1240 0.8254 0.5507
vn -0.3032 0.1723 0.9372
vn -0.2919 -0.0626 0.9544
vn -0.1774 0.5957 0.7834
vn -0.3032 0.1724 0.9372
vn -0.0309 0.9063 0.4216
vn -0.0333 0.9067 0.4204
vn 0.0312 0.9628 0.2683
vn -0.0741 0.7433 0.6648
vn -0.0494 0.5176 0.8542
vn -0.0740 0.7433 0.6648
vn -0.1774 0.5956 0.7835
vn 0.3508 -0.9312 0.0986
vn 0.3049 -0.9494 -0.0751
vn 0.2472 -0.9316 0.2663
vn 0.3768 -0.9220 -0.0894
vn 0.3508 -0.9313 0.0985
vn 0.2472 -0.9317 0.2663
vn 0.0942 -0.6404 0.7622
vn 0.3508 -0.9313 0.0986
vn 0.3048 -0.9494 -0.0751
vn 0.1385 -0.7893 0.5982
vn 0.0271 -0.4518 0.8917
vn 0.1385 -0.7892 0.5983
vn -0.0217 -0.2984 0.9542
vn 0.0942 -0.6404 0.7623
vn 0.2471 -0.9317 0.2662
vn -0.1480 -0.3167 0.9369
vn -0.0218 -0.2984 0.9542
vn 0.1922 -0.9801 -0.0494
vn -0.1636 0.1430 0.9761
vn -0.0553 0.0547 0.9970
vn -0.0400 -0.1230 0.9916
vn -0.1192 -0.1036 0.9875
vn 0.0260 -0.8210 -0.5704
vn 0.1421 -0.9790 0.1462
vn 0.0268 -0.9868 -0.1599
vn 0.0268 -0.9868 -0.1600
vn -0.0452 -0.9575 -0.2849
vn 0.0261 -0.8210 -0.5704
vn -0.0116 -0.9606 0.2776
vn 0.3873 -0.9203 -0.0557
vn 0.0335 -0.7076 0.7058
vn 0.1384 -0.7893 0.5982
vn -0.0452 -0.9575 -0.2848
vn -0.0401 -0.9647 0.2604
vn -0.0453 -0.9575 -0.2849
vn -0.0157 -0.8879 0.4597
vn -0.0400 -0.9647 0.2605
vn -0.0115 -0.9606 0.2777
vn -0.0630 -0.9920 0.1098
vn 0.0335 -0.7075 0.7059
vn -0.0060 0.7450 0.6670
vn 0.0198 0.2524 0.9674
vn -0.0494 0.5177 0.8542
vn 0.0322 -0.6375 0.7698
vn 0.0526 -0.3243 0.9445
vn 0.0603 -0.1188 0.9911
vn 0.0495 -0.3242 0.9447
vn 0.0389 0.4729 0.8802
vn 0.0634 0.0349 0.9974
vn 0.0474 0.0951 0.9943
vn 0.0534 0.0980 0.9938
vn 0.0634 0.0350 0.9974
vn 0.0390 0.4729 0.8802
vn 0.0046 0.9988 -0.0479
vn 0.0733 0.9912 0.1103
vn 0.0520 0.9986 -0.0118
vn -0.1486 0.4664 -0.8720
vn -0.0815 0.8922 -0.4442
vn -0.1009 0.6384 -0.7631
vn -0.0744 0.9049 -0.4191
vn -0.0744 0.9049 -0.4190
vn -0.0624 0.8312 -0.5524
vn -0.0319 0.9487 -0.3146
vn -0.0623 0.8312 -0.5524
vn -0.0406 0.7396 -0.6718
vn -0.0319 0.9487 -0.3145
vn 0.0178 0.9667 0.2553
vn 0.0575 0.9820 0.1798
vn -0.0335 0.9884 -0.1480
vn -0.0177 0.9997 -0.0141
vn 0.0178 0.9667 0.2552
vn 0.0301 0.8861 0.4626
vn -0.0005 0.9989 0.0465
vn 0.0381 0.7740 0.6320
vn -0.0177 0.9997 -0.0142
vn -0.0005 0.9989 0.0464
vn -0.0201 0.9653 0.2602
vn 0.0138 0.7835 0.6213
vn -0.0489 0.9982 -0.0341
vn -0.0201 0.9654 0.2601
vn -0.0419 -0.7029 -0.7101
vn -0.0524 -0.7614 -0.6461
vn -0.0491 -0.6107 -0.7903
vn -0.0456 -0.5405 -0.8401
vn -0.0491 -0.6107 -0.7904
vn -0.0716 -0.9617 -0.2646
vn -0.0475 -0.9988 -0.0076
vn -0.0524 -0.7615 -0.6461
vn -0.0311 -0.9691 -0.2448
vn -0.0475 -0.9988 -0.0075
vn -0.0332 -0.3510 -0.9358
vn -0.0455 -0.5404 -0.8402
vn -0.0229 -0.1793 -0.9835
vn -0.0201 0.0225 -0.9995
vn -0.0325 0.0976 -0.9947
vn -0.0331 0.2425 -0.9696
vn -0.0173 -0.8794 -0.4757
vn -0.0311 -0.4522 -0.8914
vn -0.0298 -0.3449 -0.9382
vn -0.0250 -0.5865 -0.8096
vn -0.0311 -0.4523 -0.8913
vn -0.0456 -0.5404 -0.8402
vn -0.0303 -0.9930 -0.1143
vn 0.0106 -0.5794 -0.8150
vn -0.0250 -0.5866 -0.8095
vn -0.0173 -0.8794 -0.4758
vn -0.0035 -0.9795 -0.2013
vn 0.0107 -0.5794 -0.8150
vn -0.0303 -0.9930 -0.1144
vn -0.0389 -0.1876 -0.9815
vn -0.0175 -0.4204 -0.9072
vn -0.0114 -0.4917 -0.8707
vn -0.0415 0.5494 -0.8345
vn -0.0520 0.7265 -0.6852
vn -0.0559 0.9214 -0.3846
vn 0.0059 -0.9769 -0.2136
vn 0.0078 -0.9328 -0.3603
vn -0.0466 0.9575 -0.2847
vn -0.0601 0.9942 -0.0890
vn -0.0700 0.9659 -0.2491
vn -0.0427 0.4804 -0.8760
vn -0.0466 0.9575 -0.2848
vn -0.0520 0.7265 -0.6851
vn -0.0630 -0.9920 0.1097
vn -0.0386 -0.9427 0.3315
vn -0.0400 -0.9646 0.2605
vn -0.0213 -0.8675 0.4970
vn 0.0137 0.7834 0.6213
vn 0.0171 0.5729 0.8194
vn 0.0390 0.4731 0.8802
vn -0.0368 -0.9576 0.2857
vn -0.0631 -0.9920 0.1098
vn 0.0401 -0.4906 0.8705
vn -0.0213 -0.8674 0.4971
vn 0.0042 -0.8587 0.5124
vn -0.0367 -0.9576 0.2856
vn -0.0235 -0.9786 0.2043
vn -0.0089 -0.9464 0.3228
vn -0.0234 -0.9786 0.2042
vn -0.0367 -0.9576 0.2857
vn -0.0089 -0.9464 0.3229
vn 0.0338 -0.6139 0.7887
vn 0.0553 -0.3527 0.9341
vn 0.0041 -0.8587 0.5124
vn 0.0529 -0.0959 0.9940
vn 0.0535 -0.0976 0.9938
vn 0.0553 -0.3526 0.9341
vn -0.0597 0.9931 0.1009
vn -0.0423 0.9853 0.1655
vn -0.0483 0.9778 0.2041
vn -0.0139 0.7832 0.6216
vn 0.0171 0.5729 0.8195
vn -0.0423 0.9853 0.1656
vn 0.0180 0.4415 0.8971
vn 0.0469 0.1683 0.9846
vn 0.0214 0.4744 0.8800
vn -0.0235 -0.9786 0.2042
vn -0.0115 -0.9982 0.0597
vn 0.0021 -0.9613 0.2754
vn 0.0275 -0.8537 0.5201
vn 0.0363 -0.1204 0.9921
vn 0.0275 -0.8536 0.5201
vn -0.0171 0.8640 0.5032
vn 0.0181 0.4415 0.8971
vn -0.0028 0.4852 0.8744
vn 0.0535 -0.0975 0.9938
vn 0.0469 0.1682 0.9846
vn 0.0388 0.0767 0.9963
vn 0.0181 0.4414 0.8971
vn 0.0389 0.0767 0.9963
vn 0.0039 -0.9870 0.1610
vn 0.0192 -0.9938 0.1096
vn 0.0116 -0.9999 -0.0098
vn 0.0253 -0.9717 0.2350
vn 0.0141 -0.9672 0.2535
vn 0.0470 -0.3458 0.9371
vn 0.0275 -0.8536 0.5202
vn 0.0316 -0.7011 0.7123
vn 0.0227 -0.9488 0.3152
vn 0.0362 -0.1203 0.9921
vn 0.0297 0.0337 0.9990
vn 0.0211 -0.1057 0.9942
vn -0.0642 0.9957 0.0670
vn -0.0601 0.9942 -0.0889
vn -0.0539 0.9981 -0.0293
vn -0.0504 0.9484 0.3130
vn -0.0029 0.4853 0.8744
vn -0.0172 0.8640 0.5032
vn 0.0170 0.2452 0.9693
vn 0.0363 -0.1203 0.9921
vn 0.0170 0.2451 0.9693
vn 0.0487 0.3790 0.9241
vn 0.0323 0.2730 0.9615
vn 0.0297 0.0338 0.9990
vn 0.0093 0.4856 0.8741
vn 0.0197 0.7084 0.7055
vn 0.0488 0.3790 0.9241
vn -0.0135 0.9080 -0.4189
vn -0.0695 0.8459 -0.5288
vn -0.0610 0.9962 -0.0614
vn -0.0489 0.9982 -0.0342
vn -0.0611 0.9962 -0.0613
vn 0.0169 -0.9972 -0.0724
vn 0.0116 -0.9999 -0.0099
vn -0.0133 -0.4337 -0.9010
vn -0.0174 -0.1479 -0.9889
vn -0.0286 -0.1341 -0.9906
vn -0.0385 0.8737 -0.4849
vn -0.0415 0.9900 -0.1348
vn -0.0428 0.3188 -0.9469
vn -0.0331 0.3857 -0.9220
vn -0.0427 0.3187 -0.9469
vn -0.0414 0.9900 -0.1348
vn 0.0078 -0.9328 -0.3604
vn 0.0051 -0.8364 -0.5481
vn -0.0132 -0.4337 -0.9009
vn -0.0099 -0.9984 -0.0563
vn 0.0051 -0.8365 -0.5480
vn 0.0170 -0.9997 -0.0148
vn -0.0119 -0.1018 -0.9947
vn -0.0215 -0.0255 -0.9994
vn -0.0174 -0.1478 -0.9889
vn -0.0315 0.2103 -0.9771
vn -0.0386 0.9001 -0.4340
vn -0.0428 0.3187 -0.9469
vn -0.0077 -0.9987 0.0499
vn -0.0055 -0.9976 -0.0686
vn -0.0099 -0.9984 -0.0562
vn -0.0387 0.9001 -0.4340
vn -0.0222 0.3011 -0.9533
vn -0.0334 0.9895 -0.1409
vn -0.0166 -0.9849 -0.1724
vn -0.0402 -0.8292 -0.5574
vn -0.0257 -0.6692 -0.7426
vn -0.0002 -0.9942 0.1071
vn -0.0191 -0.9987 -0.0468
vn -0.0166 -0.9849 -0.1723
vn -0.0192 -0.9987 -0.0468
vn -0.0403 -0.8292 -0.5574
vn -0.0191 -0.9987 -0.0467
vn 0.0083 -0.9697 0.2441
vn -0.0169 -0.9815 0.1908
vn -0.0402 -0.8292 -0.5575
vn -0.0201 -0.9888 -0.1481
vn -0.0431 0.8908 -0.4523
vn -0.0323 0.9983 -0.0477
vn -0.0154 0.0288 -0.9995
vn -0.0530 0.4535 -0.8897
vn -0.0222 0.3012 -0.9533
vn -0.0529 0.4536 -0.8896
vn -0.0307 0.9703 -0.2401
vn -0.0323 0.9983 -0.0478
vn 0.0209 -0.9940 0.1071
vn 0.0227 -0.9488 0.3151
vn 0.0189 -0.9736 0.2276
vn 0.0209 -0.9940 0.1070
vn 0.0169 -0.9997 -0.0147
vn 0.0169 -0.9972 -0.0723
vn 0.0216 -0.9798 0.1986
vn 0.0272 0.0783 0.9966
vn 0.0433 -0.1760 0.9834
vn 0.0316 -0.7010 0.7124
vn -0.0043 0.8494 0.5278
vn 0.0271 0.0783 0.9966
vn 0.0323 0.2731 0.9615
vn 0.0303 0.2000 0.9793
vn 0.0505 -0.0090 0.9987
vn 0.0216 -0.9799 0.1986
vn 0.0362 -0.9816 0.1874
vn 0.0170 -0.9997 -0.0147
vn 0.0434 -0.1761 0.9834
vn 0.0310 -0.5472 0.8364
vn 0.0194 -0.8028 0.5960
vn 0.0299 0.4599 0.8874
vn 0.0280 0.3853 0.9224
vn -0.0042 0.8494 0.5278
vn 0.0018 -0.9649 0.2625
vn -0.0077 -0.9987 0.0500
vn -0.0257 -0.9408 0.3379
vn 0.0049 -0.9103 0.4138
vn -0.0002 -0.9942 0.1072
vn 0.0049 -0.9103 0.4139
vn 0.0194 -0.8027 0.5960
vn 0.0310 -0.5473 0.8364
vn 0.0560 -0.1002 0.9934
vn 0.0318 -0.3111 0.9498
vn 0.0448 0.1949 0.9798
vn 0.0450 0.0303 0.9985
vn 0.0561 -0.1002 0.9934
vn 0.0031 -0.9121 0.4101
vn 0.0041 -0.9494 0.3142
vn 0.0032 -0.9121 0.4100
vn 0.0310 -0.5473 0.8363
vn 0.0317 -0.3112 0.9498
vn 0.0072 -0.7662 0.6425
vn 0.0072 -0.7663 0.6424
vn 0.0032 -0.9120 0.4101
vn 0.0173 -0.1985 0.9799
vn -0.0282 0.9988 0.0391
vn -0.0309 0.9863 0.1621
vn 0.0229 0.5425 0.8398
vn -0.0378 0.9993 0.0068
vn -0.0269 0.9993 -0.0262
vn 0.0212 -0.0334 0.9992
vn 0.0310 0.2169 0.9757
vn -0.0022 -0.9897 0.1430
vn -0.0022 -0.9897 0.1429
vn -0.0174 -0.9979 0.0624
vn -0.0537 -0.5939 -0.8027
vn -0.0281 -0.2811 -0.9593
vn -0.0379 -0.9117 -0.4090
vn -0.0379 -0.9117 -0.4091
vn -0.0537 -0.5940 -0.8027
vn -0.0297 -0.9898 -0.1396
vn -0.0378 -0.9117 -0.4090
vn -0.0501 0.6586 -0.7509
vn -0.0432 0.8908 -0.4523
vn -0.0501 0.6586 -0.7508
vn -0.0307 0.9702 -0.2402
vn -0.0331 -0.0536 -0.9980
vn -0.0594 -0.1960 -0.9788
vn -0.0442 0.1043 -0.9936
vn -0.0215 0.3527 -0.9355
vn 0.0180 0.6838 -0.7294
vn -0.0501 0.6585 -0.7509
vn -0.0501 0.9746 -0.2183
vn 0.0180 0.6838 -0.7295
vn -0.0215 0.3526 -0.9355
vn -0.0640 0.5157 -0.8544
vn -0.0502 0.9746 -0.2183
vn -0.0519 -0.7639 -0.6432
vn -0.0575 -0.9732 -0.2225
vn -0.0575 0.0497 -0.9971
vn -0.0420 0.4727 -0.8802
vn -0.0502 0.9746 -0.2184
vn -0.0276 0.9995 -0.0138
vn -0.0401 0.9896 -0.1384
vn -0.0275 0.9995 -0.0138
vn -0.0640 0.5158 -0.8543
vn -0.0507 0.9850 -0.1649
vn -0.0401 0.9896 -0.1385
vn -0.0405 0.9992 0.0014
vn -0.0507 0.9850 -0.1648
vn -0.0410 0.9989 -0.0245
vn -0.0504 -0.1599 -0.9858
vn -0.0575 0.0496 -0.9971
vn -0.0650 -0.2377 -0.9692
vn -0.0419 0.4727 -0.8802
vn -0.0220 0.5184 -0.8548
vn -0.0774 -0.8929 -0.4436
vn -0.0552 -0.2890 -0.9557
vn -0.0220 0.5184 -0.8549
vn -0.0472 0.0117 -0.9988
vn -0.0695 0.1631 -0.9842
vn -0.1022 0.7483 -0.6554
vn -0.0470 0.9957 -0.0795
vn -0.0696 0.1632 -0.9841
vn -0.0470 0.9957 -0.0794
vn -0.0439 0.9987 -0.0244
vn -0.0696 -0.9844 -0.1617
vn -0.0624 -0.9753 -0.2118
vn -0.0775 -0.8929 -0.4435
vn -0.0650 -0.7577 -0.6494
vn -0.0242 -0.9819 -0.1877
vn -0.0624 -0.9753 -0.2117
vn -0.0278 -0.9866 0.1605
vn -0.0242 -0.9820 -0.1876
vn -0.0733 0.0943 -0.9928
vn -0.0532 -0.3291 -0.9428
vn -0.0733 0.0944 -0.9928
vn -0.0654 -0.0691 -0.9955
vn -0.0488 0.7648 -0.6425
vn -0.0481 0.5884 -0.8071
vn -0.0272 0.9959 -0.0864
vn -0.0489 0.7648 -0.6425
vn -0.0656 0.9833 -0.1699
vn -0.0271 0.9959 -0.0863
vn -0.0374 0.9992 0.0171
vn 0.0002 -0.9557 0.2943
vn 0.0119 0.5396 0.8418
vn 0.0142 0.6898 0.7238
vn 0.0310 0.2170 0.9757
vn 0.0143 0.6898 0.7238
vn 0.0178 0.1683 0.9856
vn 0.0099 -0.0852 0.9963
vn 0.0018 -0.2446 0.9696
vn 0.0172 -0.1985 0.9800
vn 0.0099 -0.0851 0.9963
vn 0.0173 -0.1984 0.9800
vn -0.0242 -0.9936 0.1106
vn -0.0297 -0.9898 -0.1395
vn -0.0077 -0.9512 0.3085
vn -0.0133 -0.9123 0.4094
vn -0.0274 -0.9646 0.2624
vn -0.0141 -0.9590 0.2832
vn -0.0164 -0.9399 0.3412
vn -0.0164 -0.9398 0.3412
vn -0.0187 -0.8876 0.4603
vn -0.0133 -0.9122 0.4094
vn 0.0009 -0.3443 0.9389
vn -0.0186 -0.8875 0.4604
vn -0.0368 0.9979 0.0535
vn -0.0290 0.9994 -0.0161
vn -0.0132 0.9807 0.1948
vn -0.0124 0.8652 0.5013
vn -0.0124 0.8653 0.5012
vn -0.0132 0.9808 0.1948
vn -0.0417 0.9977 0.0528
vn 0.0178 0.1682 0.9856
vn 0.0042 -0.8902 0.4556
vn -0.0161 -0.9737 0.2275
vn 0.0042 -0.8902 0.4555
vn -0.0414 -0.9589 0.2808
vn -0.0161 -0.9737 0.2274
vn -0.0075 -0.7010 0.7131
vn -0.0318 -0.6036 0.7967
vn 0.0053 -0.2179 0.9760
vn -0.0317 -0.6035 0.7967
vn -0.0418 0.9977 0.0528
vn -0.0378 0.9982 -0.0476
vn -0.0540 0.9936 0.0996
vn -0.0527 0.6801 0.7313
vn -0.0418 0.9977 0.0529
vn 0.0177 0.1682 0.9856
vn -0.0043 0.0163 0.9999
vn -0.0527 0.6801 0.7312
vn 0.0177 0.1683 0.9856
vn -0.0527 0.6800 0.7313
vn -0.0412 -0.9965 0.0729
vn -0.0631 -0.9925 0.1048
vn -0.0696 -0.9844 -0.1616
vn -0.0317 -0.6036 0.7966
vn -0.0639 -0.9063 0.4178
vn -0.0414 -0.9589 0.2807
vn -0.0631 -0.9925 0.1049
vn -0.0277 -0.9866 0.1605
vn -0.0278 -0.9866 0.1606
vn -0.0639 -0.9063 0.4177
vn -0.0082 -0.9183 0.3958
vn -0.0277 -0.9866 0.1606
vn -0.0318 -0.6035 0.7967
vn -0.0238 -0.1748 0.9843
vn -0.0581 -0.5925 0.8035
vn -0.0317 -0.6036 0.7967
vn -0.0581 -0.5926 0.8034
vn -0.0540 0.9821 0.1803
vn -0.0391 0.3443 0.9381
vn -0.0581 -0.5925 0.8034
vn -0.0011 -0.5856 0.8106
vn -0.0239 -0.1748 0.9843
vn -0.0390 0.3443 0.9380
vn -0.0391 0.3443 0.9380
vn -0.0035 -0.3680 0.9298
vn -0.0390 0.3443 0.9381
vn -0.1063 0.3335 0.9367
vn -0.0242 -0.9819 -0.1876
vn -0.0517 -0.9349 -0.3511
vn -0.0343 -0.9981 0.0515
vn -0.4074 -0.9067 -0.1094
vn -0.0518 -0.9349 -0.3511
vn -0.0344 -0.9981 0.0515
vn -0.1266 -0.9833 0.1307
vn -0.4075 -0.9066 -0.1093
vn -0.0969 -0.1237 -0.9876
vn -0.0656 0.9833 -0.1700
vn -0.1775 -0.4946 -0.8508
vn -0.0517 -0.9349 -0.3512
vn -0.0970 -0.1237 -0.9876
vn -0.2864 0.1832 -0.9404
vn -0.0657 0.9832 -0.1700
vn -0.2442 0.9693 -0.0283
vn -0.0657 0.9833 -0.1699
vn -0.0272 0.9959 -0.0863
vn -0.1774 -0.4945 -0.8509
vn -0.2863 0.1833 -0.9404
vn -0.7742 0.1508 -0.6148
vn -0.2442 0.9693 -0.0282
vn -0.7742 0.1506 -0.6148
vn -0.9636 -0.2449 0.1069
vn -0.5676 0.8233 0.0072
vn -0.2443 0.9693 -0.0282
vn -0.3118 0.9432 0.1151
vn -0.1064 0.3335 0.9367
vn -0.0035 -0.3679 0.9299
vn -0.1063 0.3334 0.9368
vn -0.1880 0.9652 0.1816
vn -0.4293 0.6996 0.5712
vn -0.0026 -0.8714 0.4905
vn -0.0765 0.9965 0.0344
vn -0.0540 0.9821 0.1804
vn -0.1064 0.3334 0.9368
vn -0.9636 -0.2449 0.1068
vn -0.7742 0.1507 -0.6147
vn -0.4294 0.6996 0.5712
vn -0.4074 -0.9067 -0.1093
vn -0.1265 -0.9833 0.1306
vn -0.5178 -0.7951 0.3157
vn -0.5179 -0.7950 0.3158
vn -0.0027 -0.8714 0.4906
vn -0.4294 0.6996 0.5711
vn -0.5180 -0.7950 0.3157
vn -0.5179 -0.7950 0.3157
vn -0.3118 0.9432 0.1152
vn 0.1353 0.9824 0.1292
vn -0.0883 -0.3069 -0.9476
vn -0.0576 -0.2481 -0.9670
vn -0.0758 -0.1484 -0.9860
vn -0.0275 -0.3477 -0.9372
vn -0.0386 -0.1723 -0.9843
vn -0.0303 -0.2501 -0.9678
vn -0.0849 0.1644 -0.9827
vn -0.0758 -0.1483 -0.9860
vn -0.1480 -0.3166 0.9369
vn -0.1192 -0.1036 0.9874
vn -0.0218 -0.2983 0.9542
vn 0.0127 0.8495 0.5274
vn 0.0404 0.7330 0.6790
vn 0.0384 0.0089 0.9992
vn 0.0127 0.8496 0.5273
vn -0.0285 -0.0916 -0.9954
vn -0.0284 -0.0916 -0.9954
vn -0.0229 -0.1792 -0.9835
vn -0.0434 0.2968 -0.9539
vn -0.0415 0.5493 -0.8346
vn -0.0309 0.4036 -0.9144
vn -0.0365 0.4039 -0.9141
vn -0.0434 0.2968 -0.9540
vn -0.0415 0.5494 -0.8346
vn -0.0508 0.1158 -0.9920
vn -0.0552 -0.0644 -0.9964
vn -0.0449 0.0074 -0.9990
vn 0.0401 -0.4905 0.8705
vn 0.0450 -0.2871 0.9568
vn 0.0554 -0.3526 0.9341
vn 0.0554 -0.3525 0.9342
vn 0.0529 -0.0958 0.9940
vn -0.0504 0.9485 0.3129
vn -0.0475 0.9949 0.0886
vn -0.0286 -0.1340 -0.9906
vn -0.0389 -0.0163 -0.9991
vn -0.0451 0.9990 0.0061
vn -0.0539 0.9981 -0.0294
vn -0.0415 0.9900 -0.1347
vn 0.0212 -0.1057 0.9942
vn 0.0324 0.2730 0.9615
vn 0.0014 -0.9922 0.1249
vn 0.0201 -0.9499 0.3120
vn -0.0275 0.9996 -0.0019
vn -0.0655 -0.0692 -0.9955
vn -0.0378 0.9993 0.0069
vn -0.0389 0.9992 0.0093
vn -0.0303 0.9990 0.0333
vn -0.0401 0.9991 -0.0131
vn -0.0538 -0.9943 -0.0915
vn -0.0538 -0.9944 -0.0915
vn -0.0577 -0.9934 -0.0990
vn -0.0857 -0.9929 -0.0821
vn -0.0661 -0.9950 -0.0750
vn -0.0571 -0.9958 -0.0720
vn 0.1808 0.9824 0.0470
vn 0.1666 0.9846 -0.0534
vn 0.2144 0.9741 0.0712
vn 0.1713 0.9797 0.1040
vn 0.2187 0.9633 0.1559
vn 0.1714 0.9797 0.1040
vn 0.1648 0.9571 -0.2382
vn 0.1031 0.8775 -0.4683
vn -0.0577 -0.9298 -0.3635
vn -0.0261 0.9703 -0.2406
vn -0.1474 0.9137 -0.3787
vn -0.4916 0.4286 -0.7580
vn -0.0817 -0.9935 -0.0792
vn -0.0660 -0.9950 -0.0749
vn 0.1485 0.9885 0.0304
vn -0.0085 -0.9972 -0.0740
vn -0.0571 -0.9958 -0.0721
vn -0.0162 -0.9978 -0.0649
vn 0.0305 0.9825 -0.1836
vn 0.0294 0.9958 -0.0871
vn -0.0483 0.9680 -0.2464
vn 0.0294 0.9958 -0.0870
vn 0.0530 -0.9957 -0.0765
vn 0.0480 -0.9911 -0.1241
vn 0.0165 -0.9859 -0.1667
vn 0.0639 -0.9949 -0.0778
vn 0.0877 -0.9926 -0.0834
vn 0.0926 0.9934 0.0673
vn 0.0295 0.9958 -0.0870
vn 0.0926 0.9934 0.0674
vn -0.0858 -0.9929 -0.0821
vn -0.0873 -0.9929 -0.0811
vn -0.0664 -0.9952 -0.0724
vn -0.0790 -0.9936 -0.0805
vn 0.2564 0.9296 0.2649
vn 0.1963 0.9649 0.1746
vn 0.1904 0.9569 0.2194
vn 0.2700 0.9419 0.2001
vn 0.3295 0.5136 0.7923
vn -0.0059 -0.9974 -0.0724
vn -0.0221 -0.9969 -0.0762
vn -0.0630 -0.9946 -0.0826
vn 0.1440 0.9815 0.1262
vn 0.1903 0.9569 0.2194
vn 0.0389 -0.9961 -0.0787
vn 0.0980 -0.9925 -0.0733
vn 0.0877 -0.9927 -0.0834
vn 0.0979 -0.9925 -0.0733
vn 0.1184 0.9848 0.1269
vn 0.0711 0.9771 0.2008
vn 0.1844 0.8636 0.4691
vn 0.1904 0.9301 0.3141
vn 0.1903 0.9569 0.2195
vn -0.0134 0.8713 0.4906
vn 0.1646 0.9486 0.2704
vn -0.0220 -0.9973 -0.0695
vn 0.0388 -0.9961 -0.0787
vn -0.0223 -0.9982 0.0560
vn -0.0222 -0.9982 0.0561
vn -0.0135 0.8713 0.4906
vn -0.3832 -0.2833 0.8792
vn 0.0941 -0.9791 -0.1801
vn 0.0999 -0.9888 -0.1111
vn -0.4915 -0.2835 -0.8235
vn -0.3393 -0.3178 -0.8854
vn -0.4915 -0.2834 -0.8235
vn -0.1484 0.9116 -0.3833
vn -0.3512 0.0424 -0.9353
vn -0.3513 0.0424 -0.9353
vn -0.3304 0.6031 -0.7260
vn -0.3007 0.3504 -0.8870
vn -0.2744 -0.1436 -0.9508
vn 0.3425 -0.9162 -0.2082
vn 0.3357 -0.9310 -0.1437
vn 0.3426 -0.9162 -0.2081
vn -0.0055 -0.5764 -0.8172
vn -0.0883 -0.3070 -0.9476
vn -0.2744 -0.1437 -0.9508
vn -0.1282 -0.1585 -0.9790
vn -0.1350 0.1996 -0.9705
vn -0.1282 -0.1584 -0.9790
vn -0.3305 0.6031 -0.7259
vn -0.3008 0.3505 -0.8869
vn -0.2458 0.6478 -0.7211
vn -0.3008 0.3505 -0.8870
vn -0.2537 0.1635 -0.9533
vn -0.1351 0.1997 -0.9705
vn -0.1350 0.1997 -0.9705
vn -0.0988 0.3076 -0.9464
vn -0.0815 0.8922 -0.4441
vn -0.0849 0.1645 -0.9827
vn -0.0308 -0.6602 -0.7505
vn -0.0717 -0.9617 -0.2647
vn -0.0420 -0.7029 -0.7101
vn -0.0519 -0.5551 -0.8302
vn 0.0260 -0.8209 -0.5705
vn -0.0520 -0.5551 -0.8301
vn -0.0520 -0.5551 -0.8302
vn -0.0370 -0.4581 -0.8881
vn -0.0576 -0.2482 -0.9670
vn -0.0575 -0.2482 -0.9670
vn -0.0493 0.2060 -0.9773
vn -0.0988 0.3075 -0.9464
vn -0.0572 0.4771 -0.8770
vn -0.0419 -0.7028 -0.7101
vn -0.0386 -0.1722 -0.9843
vn -0.0285 -0.0915 -0.9954
vn -0.0217 -0.3302 -0.9437
vn -0.0208 -0.5256 -0.8505
vn -0.0217 -0.3303 -0.9436
vn -0.0209 -0.5256 -0.8505
vn -0.0660 0.6357 -0.7691
vn -0.0406 0.7396 -0.6719
vn -0.0624 0.8311 -0.5525
vn -0.0421 0.5690 -0.8213
vn -0.0660 0.6358 -0.7690
vn -0.0405 0.7396 -0.6718
vn -0.0421 0.5690 -0.8212
vn 0.1000 -0.9888 -0.1111
vn 0.0717 -0.9974 0.0116
vn 0.0228 -0.9929 0.1170
vn -0.2919 -0.0627 0.9544
vn -0.2797 -0.4815 0.8306
vn 0.0312 0.9629 0.2682
vn -0.0008 0.9182 0.3962
vn 0.0312 0.9628 0.2682
vn -0.0333 0.9067 0.4205
vn -0.0741 0.7434 0.6648
vn -0.0309 0.9062 0.4217
vn 0.3873 -0.9203 -0.0558
vn 0.3769 -0.9220 -0.0893
vn 0.0271 -0.4517 0.8918
vn -0.0217 -0.2983 0.9542
vn -0.1191 -0.1036 0.9875
vn -0.0400 -0.1231 0.9916
vn 0.0261 -0.1416 0.9896
vn 0.0076 -0.0304 0.9995
vn -0.0008 0.9181 0.3963
vn -0.0309 0.9062 0.4216
vn -0.0740 0.7434 0.6648
vn -0.1191 -0.1037 0.9875
vn -0.1637 0.1429 0.9761
vn -0.0061 0.7450 0.6670
vn -0.0552 0.0547 0.9970
vn -0.0493 0.5176 0.8542
vn 0.0260 -0.8209 -0.5704
vn 0.1420 -0.9790 0.1463
vn 0.0487 -0.5959 0.8016
vn 0.0261 -0.1417 0.9896
vn 0.0526 -0.3244 0.9445
vn 0.0485 -0.0633 0.9968
vn 0.0403 0.7330 0.6790
vn 0.0198 0.2525 0.9674
vn 0.0456 0.6035 0.7960
vn 0.0199 0.2524 0.9674
vn 0.0076 -0.0303 0.9995
vn 0.0456 0.6035 0.7961
vn 0.0322 -0.6374 0.7698
vn 0.0671 -0.0717 0.9952
vn 0.0403 0.7330 0.6791
vn 0.0381 0.7740 0.6321
vn 0.0390 0.4730 0.8802
vn 0.0456 0.6036 0.7960
vn 0.0485 -0.0632 0.9968
vn 0.0671 -0.0716 0.9952
vn -0.1078 0.9095 -0.4014
vn 0.0046 0.9988 -0.0480
vn -0.1079 0.9095 -0.4014
vn -0.0815 0.8923 -0.4441
vn 0.0045 0.9988 -0.0480
vn -0.0335 0.9884 -0.1481
vn -0.0744 0.9050 -0.4190
vn -0.0318 0.9487 -0.3145
vn -0.0318 0.9487 -0.3146
vn -0.0405 0.7397 -0.6717
vn -0.0135 0.9079 -0.4189
vn -0.0135 0.9080 -0.4188
vn 0.0733 0.9912 0.1104
vn -0.0004 0.9989 0.0465
vn -0.0491 -0.6106 -0.7904
vn -0.0332 -0.3511 -0.9358
vn -0.0309 0.4035 -0.9144
vn -0.0461 0.8078 -0.5876
vn -0.0695 0.8458 -0.5289
vn -0.0420 0.5691 -0.8212
vn -0.0309 0.4037 -0.9144
vn -0.0462 0.8078 -0.5876
vn -0.0250 -0.5865 -0.8095
vn -0.0456 -0.5404 -0.8401
vn -0.0230 -0.1793 -0.9835
vn -0.0298 -0.3450 -0.9381
vn -0.0326 0.0976 -0.9947
vn -0.0434 0.2967 -0.9540
vn -0.0309 0.4035 -0.9145
vn 0.0106 -0.5793 -0.8150
vn -0.0175 -0.4204 -0.9071
vn -0.0114 -0.9981 0.0597
vn -0.0035 -0.9795 -0.2012
vn -0.0114 -0.9982 0.0597
vn -0.0036 -0.9795 -0.2013
vn -0.0114 -0.4918 -0.8707
vn -0.0365 0.4038 -0.9141
vn -0.0366 0.4038 -0.9141
vn -0.0699 0.9659 -0.2491
vn -0.0427 0.4805 -0.8760
vn -0.0365 0.4040 -0.9140
vn -0.0035 -0.9795 -0.2014
vn -0.0114 -0.4918 -0.8706
vn -0.0215 0.0207 -0.9996
vn -0.0331 0.3856 -0.9221
vn -0.0215 0.0206 -0.9996
vn -0.0331 0.3855 -0.9221
vn 0.0322 -0.6374 0.7699
vn 0.0450 -0.2871 0.9569
vn 0.0603 -0.1187 0.9911
vn 0.0172 0.5729 0.8195
vn 0.0137 0.7835 0.6213
vn 0.0670 -0.0716 0.9952
vn 0.0534 0.0981 0.9937
vn 0.0255 0.3664 0.9301
vn 0.0255 0.3665 0.9301
vn -0.0311 -0.9691 -0.2447
vn -0.0461 0.8079 -0.5876
vn -0.0610 0.9962 -0.0613
vn 0.0469 0.1681 0.9846
vn -0.0115 -0.9981 0.0598
vn 0.0040 -0.9869 0.1610
vn 0.0039 -0.9869 0.1610
vn 0.0141 -0.9672 0.2536
vn 0.0554 -0.3527 0.9341
vn 0.0338 -0.6139 0.7886
vn 0.0339 -0.6139 0.7887
vn -0.0610 0.9963 -0.0613
vn -0.0466 0.9956 0.0807
vn -0.0466 0.9956 0.0808
vn -0.0138 0.7832 0.6216
vn 0.0180 0.4414 0.8971
vn -0.0115 -0.9981 0.0597
vn 0.0469 -0.3457 0.9372
vn 0.0362 -0.1204 0.9921
vn -0.0171 0.8640 0.5031
vn -0.0641 0.9957 0.0671
vn -0.0504 0.9484 0.3129
vn -0.0642 0.9957 0.0671
vn -0.0029 0.4852 0.8744
vn -0.0421 0.5691 -0.8212
vn -0.0406 0.7397 -0.6718
vn 0.0137 0.7835 0.6212
vn -0.0201 0.9654 0.2602
vn -0.0483 0.9777 0.2041
vn -0.0424 0.9853 0.1655
vn -0.0448 0.0074 -0.9990
vn -0.0291 -0.0331 -0.9990
vn 0.0052 -0.8365 -0.5480
vn 0.0215 -0.9799 0.1986
vn -0.0332 0.3856 -0.9221
vn -0.0466 0.9575 -0.2846
vn -0.0287 -0.1340 -0.9906
vn -0.0292 -0.0332 -0.9990
vn -0.0388 -0.0163 -0.9991
vn -0.0291 -0.0332 -0.9990
vn -0.0428 0.3186 -0.9469
vn 0.0014 -0.9922 0.1248
vn -0.0257 -0.6692 -0.7427
vn -0.0389 -0.0162 -0.9991
vn -0.0316 0.2103 -0.9771
vn -0.0345 0.9987 -0.0366
vn -0.0215 -0.0254 -0.9994
vn -0.0232 0.0361 -0.9991
vn -0.0315 0.2102 -0.9771
vn -0.0386 0.9001 -0.4339
vn -0.0147 -0.1190 -0.9928
vn -0.0055 -0.9976 -0.0687
vn -0.0003 -0.9942 0.1071
vn -0.0281 -0.2810 -0.9593
vn -0.0334 0.9895 -0.1408
vn -0.0082 0.0255 -0.9996
vn -0.0154 0.0287 -0.9995
vn -0.0147 -0.1189 -0.9928
vn -0.0282 -0.2810 -0.9593
vn -0.0282 -0.2811 -0.9593
vn 0.0315 -0.7011 0.7124
vn 0.0201 -0.9498 0.3121
vn 0.0433 -0.1761 0.9834
vn 0.0194 -0.8028 0.5959
vn 0.0196 0.7084 0.7055
vn -0.0476 0.9949 0.0887
vn -0.0475 0.9949 0.0887
vn -0.0042 0.8494 0.5277
vn -0.0348 0.9977 0.0589
vn 0.0487 0.3791 0.9241
vn 0.0505 -0.0091 0.9987
vn 0.0279 0.3852 0.9224
vn 0.0324 0.2731 0.9614
vn 0.0197 0.7084 0.7056
vn -0.0043 0.8493 0.5278
vn 0.0215 -0.9798 0.1986
vn 0.0200 -0.9499 0.3120
vn 0.0018 -0.9649 0.2626
vn -0.0348 0.9977 0.0588
vn -0.0451 0.9990 0.0062
vn -0.0116 0.9946 0.1027
vn -0.0043 0.8494 0.5277
vn -0.0116 0.9946 0.1028
vn 0.0299 0.4599 0.8875
vn 0.0280 0.3852 0.9224
vn 0.0448 0.1948 0.9798
vn 0.0448 0.1950 0.9798
vn -0.0256 -0.9408 0.3379
vn 0.0230 0.5425 0.8397
vn 0.0230 0.5425 0.8398
vn 0.0450 0.0304 0.9985
vn 0.0083 -0.9697 0.2442
vn 0.0042 -0.9494 0.3142
vn -0.0170 -0.9815 0.1908
vn 0.0212 -0.0335 0.9992
vn 0.0317 -0.3111 0.9498
vn -0.0310 0.9863 0.1620
vn 0.0120 0.5396 0.8418
vn 0.0229 0.5425 0.8397
vn -0.0309 0.9863 0.1620
vn 0.0120 0.5397 0.8418
vn 0.0143 0.6899 0.7238
vn 0.0120 0.5397 0.8417
vn -0.0201 -0.9888 -0.1480
vn -0.0593 -0.1961 -0.9788
vn -0.0378 -0.9117 -0.4091
vn -0.0441 0.1042 -0.9936
vn 0.0179 0.6838 -0.7294
vn 0.0180 0.6839 -0.7294
vn -0.0442 0.1042 -0.9936
vn -0.0441 0.1043 -0.9936
vn -0.0574 0.0497 -0.9971
vn -0.0574 0.0496 -0.9971
vn -0.0276 0.9995 -0.0137
vn -0.0650 -0.2378 -0.9691
vn -0.0594 -0.1961 -0.9788
vn -0.0537 -0.5939 -0.8028
vn -0.0392 -0.9978 0.0533
vn -0.0242 -0.9936 0.1105
vn -0.0420 0.4726 -0.8803
vn -0.0472 0.0116 -0.9988
vn -0.0544 0.9941 -0.0935
vn -0.0552 -0.2891 -0.9557
vn -0.0775 -0.8929 -0.4436
vn -0.0695 0.1631 -0.9841
vn -0.0695 0.1632 -0.9841
vn -0.0221 0.5184 -0.8548
vn -0.0696 0.1631 -0.9841
vn -0.0533 -0.3290 -0.9428
vn -0.0696 0.1631 -0.9842
vn -0.0553 -0.2890 -0.9557
vn -0.1023 0.7483 -0.6554
vn -0.0469 0.9957 -0.0794
vn -0.0489 0.7647 -0.6425
vn -0.0489 0.7648 -0.6424
vn -0.0774 -0.8929 -0.4435
vn -0.0651 -0.7577 -0.6494
vn -0.0654 -0.0692 -0.9955
vn -0.0532 -0.3290 -0.9428
vn 0.0002 -0.9557 0.2944
vn -0.0077 -0.9512 0.3084
vn 0.0071 -0.7663 0.6424
vn 0.0173 -0.1985 0.9800
vn 0.0143 0.6898 0.7239
vn -0.0303 0.9990 0.0334
vn -0.0368 0.9979 0.0536
vn -0.0369 0.9979 0.0535
vn 0.0172 -0.1984 0.9800
vn -0.0124 0.8654 0.5010
vn 0.0178 0.1685 0.9855
vn 0.0143 0.6899 0.7237
vn 0.0008 -0.3443 0.9389
vn -0.0133 0.9808 0.1948
vn -0.0290 0.9995 -0.0161
vn -0.0377 0.9982 -0.0476
vn 0.0053 -0.2179 0.9759
vn -0.0140 -0.9590 0.2831
vn -0.0392 -0.9978 0.0534
vn -0.0140 -0.9590 0.2832
vn -0.0187 -0.8875 0.4604
vn -0.0076 -0.7010 0.7132
vn 0.0053 -0.2180 0.9759
vn -0.0540 0.9936 0.0995
vn -0.0237 -0.1748 0.9843
vn -0.0238 -0.1747 0.9843
vn -0.0391 0.3442 0.9381
vn -0.0011 -0.5857 0.8106
vn -0.0082 -0.9182 0.3959
vn -0.0011 -0.5855 0.8106
vn -0.0581 -0.5924 0.8035
vn -0.0343 -0.9981 0.0514
vn -0.0650 -0.7576 -0.6494
vn -0.0970 -0.1236 -0.9876
vn -0.0482 0.5884 -0.8071
vn -0.1775 -0.4945 -0.8509
vn -0.0765 0.9965 0.0343
vn -0.2865 0.1831 -0.9404
vn -0.1775 -0.4945 -0.8508
vn -0.7743 0.1506 -0.6146
vn -0.3117 0.9432 0.1151
vn -0.0027 -0.8714 0.4905
vn -0.0082 -0.9183 0.3959
vn -0.1265 -0.9833 0.1307
vn -0.0342 -0.9981 0.0515
vn -0.1880 0.9652 0.1815
vn -0.0082 -0.9182 0.3960
vn -0.0026 -0.8714 0.4906
vn -0.9637 -0.2448 0.1069
vn -0.3118 0.9431 0.1151
vn 0.2144 0.9741 0.0713
vn 0.1963 0.9649 0.1745
vn 0.1904 0.9569 0.2195
vn 0.1645 0.9486 0.2703
vn -0.0519 -0.5551 -0.8301
vn -0.0303 -0.2500 -0.9678
vn -0.0217 -0.3302 -0.9436
vn -0.0284 -0.0915 -0.9954
vn -0.0406 0.0418 -0.9983
vn -0.1636 0.1429 0.9761
vn -0.3031 0.1723 0.9372
vn 0.0270 -0.4517 0.8918
vn 0.0484 -0.0633 0.9968
vn 0.0335 -0.7076 0.7059
vn -0.0389 -0.1875 -0.9815
vn -0.0212 -0.8675 0.4971
vn 0.0214 0.4744 0.8801
vn 0.0316 -0.7011 0.7124
vn -0.0216 0.0207 -0.9996
vn -0.0232 0.0360 -0.9991
vn -0.0119 -0.1017 -0.9947
vn -0.0345 0.9987 -0.0365
vn -0.0377 0.9993 0.0069
vn 0.0303 0.1999 0.9793
vn 0.0934 0.9857 0.1399
vt 0.089233 0.498823
vt 0.095258 0.503390
vt 0.057608 0.544572
vt 0.058036 0.534036
vt 0.064016 0.548365
vt 0.072060 0.502441
vt 0.041366 0.535942
vt 0.060471 0.507201
vt 0.108526 0.477229
vt 0.124191 0.473000
vt 0.136673 0.446811
vt 0.117027 0.448904
vt 0.104824 0.510987
vt 0.166069 0.525257
vt 0.148101 0.457019
vt 0.173811 0.425945
vt 0.179105 0.436908
vt 0.162912 0.423618
vt 0.074079 0.485410
vt 0.036890 0.589399
vt 0.033279 0.628403
vt 0.030557 0.594624
vt 0.016817 0.636642
vt 0.023529 0.594941
vt 0.006085 0.650696
vt 0.083824 0.554962
vt 0.081577 0.580703
vt 0.051940 0.624198
vt 0.050735 0.285187
vt 0.024865 0.329327
vt 0.038559 0.287286
vt 0.142519 0.644720
vt 0.037997 0.348318
vt 0.100131 0.305164
vt 0.101417 0.330786
vt 0.047951 0.267743
vt 0.057302 0.266743
vt 0.017697 0.264797
vt 0.076271 0.235210
vt 0.130695 0.200422
vt 0.086820 0.200907
vt 0.119660 0.197616
vt 0.136012 0.205145
vt 0.139129 0.213886
vt 0.110911 0.250056
vt 0.168389 0.223120
vt 0.099869 0.273672
vt 0.130624 0.571692
vt 0.130250 0.330865
vt 0.097258 0.370706
vt 0.026493 0.164706
vt 0.075029 0.143498
vt 0.156188 0.160514
vt 0.167668 0.209895
vt 0.061276 0.728114
vt 0.070720 0.713315
vt 0.072098 0.742652
vt 0.074514 0.763639
vt 0.054239 0.746616
vt 0.106484 0.762302
vt 0.097821 0.774366
vt 0.079841 0.794272
vt 0.124395 0.803464
vt 0.140365 0.803221
vt 0.171049 0.865678
vt 0.067439 0.831969
vt 0.154701 0.829003
vt 0.163947 0.831012
vt 0.073095 0.911222
vt 0.108476 0.901590
vt 0.091272 0.965239
vt 0.142208 0.907569
vt 0.213690 0.363934
vt 0.197597 0.437219
vt 0.162048 0.333551
vt 0.246906 0.383388
vt 0.067524 0.001395
vt 0.082235 0.010979
vt 0.063967 0.028068
vt 0.267738 0.812576
vt 0.242496 0.844460
vt 0.230556 0.800289
vt 0.300876 0.836105
vt 0.279578 0.855969
vt 0.190278 0.864710
vt 0.186552 0.830730
vt 0.212246 0.861093
vt 0.200375 0.859824
vt 0.220404 0.881367
vt 0.242702 0.890298
vt 0.216275 0.912040
vt 0.240885 0.907656
vt 0.250014 0.888919
vt 0.190774 0.997663
vt 0.227292 0.960960
vt 0.220751 0.998662
vt 0.661582 0.084123
vt 0.656364 0.080543
vt 0.662522 0.048228
vt 0.670239 0.004852
vt 0.665598 0.087556
vt 0.673614 0.000093
vt 0.676183 0.004894
vt 0.669918 0.085566
vt 0.686695 0.036750
vt 0.675174 0.083365
vt 0.558511 0.175712
vt 0.543853 0.159194
vt 0.546930 0.152375
vt 0.560264 0.193203
vt 0.596453 0.126275
vt 0.591321 0.158293
vt 0.115382 0.180990
vt 0.156683 0.176212
vt 0.186960 0.148893
vt 0.181745 0.159211
vt 0.177938 0.186724
vt 0.200543 0.183492
vt 0.210314 0.197762
vt 0.533425 0.144040
vt 0.539092 0.186367
vt 0.274326 0.165881
vt 0.514830 0.188999
vt 0.503685 0.189519
vt 0.506790 0.146139
vt 0.556375 0.206589
vt 0.572413 0.207551
vt 0.582536 0.197650
vt 0.578053 0.231124
vt 0.596165 0.245683
vt 0.598993 0.263121
vt 0.547517 0.211138
vt 0.535005 0.203357
vt 0.518252 0.220145
vt 0.528844 0.190135
vt 0.527979 0.338942
vt 0.517796 0.314688
vt 0.523096 0.278901
vt 0.602809 0.325145
vt 0.590569 0.350993
vt 0.581635 0.305686
vt 0.579481 0.327915
vt 0.554724 0.388839
vt 0.540582 0.345659
vt 0.546844 0.321223
vt 0.553762 0.436423
vt 0.533828 0.327088
vt 0.616989 0.257737
vt 0.616364 0.243190
vt 0.615010 0.096465
vt 0.632535 0.127301
vt 0.650700 0.100446
vt 0.649078 0.139523
vt 0.641543 0.147967
vt 0.630967 0.153510
vt 0.642688 0.163522
vt 0.287657 0.208540
vt 0.269510 0.343758
vt 0.255465 0.300504
vt 0.675502 0.152891
vt 0.671719 0.130183
vt 0.658722 0.152646
vt 0.690092 0.143530
vt 0.680979 0.116952
vt 0.697007 0.123993
vt 0.688969 0.182361
vt 0.684542 0.199342
vt 0.626813 0.201880
vt 0.618898 0.177652
vt 0.637132 0.195731
vt 0.613592 0.213085
vt 0.635224 0.216587
vt 0.626540 0.236684
vt 0.650041 0.269601
vt 0.642678 0.202923
vt 0.650212 0.168077
vt 0.671786 0.172392
vt 0.680721 0.215854
vt 0.661733 0.221446
vt 0.659188 0.181777
vt 0.611502 0.284706
vt 0.614082 0.347553
vt 0.621615 0.301207
vt 0.627800 0.292678
vt 0.621736 0.351506
vt 0.640149 0.375075
vt 0.633390 0.449608
vt 0.700163 0.247690
vt 0.693952 0.268119
vt 0.652594 0.412619
vt 0.655191 0.326436
vt 0.681489 0.430793
vt 0.666541 0.410987
vt 0.708967 0.372235
vt 0.695234 0.368052
vt 0.699897 0.322122
vt 0.702022 0.424136
vt 0.321355 0.165207
vt 0.247127 0.222840
vt 0.207922 0.237623
vt 0.512396 0.241244
vt 0.509979 0.267313
vt 0.510109 0.354767
vt 0.526805 0.379392
vt 0.722661 0.193909
vt 0.715016 0.210804
vt 0.711936 0.147643
vt 0.727765 0.226690
vt 0.730117 0.308506
vt 0.721478 0.285381
vt 0.731464 0.330727
vt 0.720017 0.333130
vt 0.497230 0.332040
vt 0.497607 0.354218
vt 0.732763 0.368989
vt 0.725312 0.404277
vt 0.515718 0.433123
vt 0.497511 0.392447
vt 0.607473 0.388589
vt 0.615005 0.470130
vt 0.596806 0.404871
vt 0.596809 0.470176
vt 0.613662 0.406274
vt 0.631573 0.498919
vt 0.621786 0.487166
vt 0.589010 0.431601
vt 0.584657 0.508586
vt 0.567708 0.437791
vt 0.580831 0.544511
vt 0.622339 0.545293
vt 0.598354 0.520761
vt 0.589612 0.538489
vt 0.615408 0.541507
vt 0.631998 0.556357
vt 0.619942 0.594479
vt 0.627371 0.626991
vt 0.611471 0.655940
vt 0.606155 0.596622
vt 0.625856 0.653327
vt 0.559575 0.541349
vt 0.564774 0.619601
vt 0.550514 0.568684
vt 0.634280 0.675546
vt 0.637464 0.738786
vt 0.567095 0.675263
vt 0.540486 0.628497
vt 0.552838 0.593485
vt 0.577084 0.656262
vt 0.643170 0.440729
vt 0.657750 0.475800
vt 0.729309 0.508338
vt 0.650576 0.508213
vt 0.664315 0.469414
vt 0.669281 0.535748
vt 0.638150 0.548842
vt 0.662291 0.543579
vt 0.676500 0.573649
vt 0.674310 0.531055
vt 0.684818 0.477147
vt 0.692166 0.571130
vt 0.512868 0.512091
vt 0.504472 0.528927
vt 0.498605 0.458200
vt 0.732057 0.557055
vt 0.734321 0.504814
vt 0.716166 0.576645
vt 0.705744 0.496447
vt 0.716013 0.528080
vt 0.645455 0.602596
vt 0.659801 0.584104
vt 0.679815 0.632282
vt 0.696391 0.644992
vt 0.734620 0.607594
vt 0.730448 0.632187
vt 0.709681 0.588390
vt 0.652321 0.639638
vt 0.652934 0.666639
vt 0.641449 0.666701
vt 0.668904 0.703650
vt 0.669870 0.654714
vt 0.689259 0.662997
vt 0.689091 0.711533
vt 0.682630 0.744244
vt 0.710752 0.695857
vt 0.698081 0.730901
vt 0.529546 0.666183
vt 0.558816 0.718394
vt 0.525401 0.694565
vt 0.513468 0.656708
vt 0.514762 0.631732
vt 0.709798 0.650445
vt 0.720644 0.687020
vt 0.723553 0.721822
vt 0.512206 0.689689
vt 0.527398 0.732802
vt 0.510674 0.712305
vt 0.525998 0.446931
vt 0.530254 0.468207
vt 0.527578 0.537391
vt 0.647744 0.745129
vt 0.633376 0.739912
vt 0.636366 0.812203
vt 0.623613 0.726906
vt 0.591045 0.788743
vt 0.590411 0.812029
vt 0.597278 0.809066
vt 0.590559 0.748853
vt 0.647355 0.849727
vt 0.652037 0.861013
vt 0.654844 0.792146
vt 0.638394 0.852564
vt 0.609266 0.825109
vt 0.602428 0.839563
vt 0.601089 0.868781
vt 0.675681 0.895323
vt 0.659101 0.910803
vt 0.613375 0.934951
vt 0.605843 0.919758
vt 0.448953 0.740844
vt 0.459683 0.713671
vt 0.479492 0.796377
vt 0.422445 0.765416
vt 0.438107 0.689230
vt 0.418369 0.740705
vt 0.418215 0.698268
vt 0.444405 0.647864
vt 0.246412 0.743916
vt 0.263979 0.707544
vt 0.247850 0.786724
vt 0.623100 0.980543
vt 0.619507 0.999907
vt 0.611934 0.953327
vt 0.259049 0.642299
vt 0.660330 0.743360
vt 0.671802 0.745034
vt 0.670591 0.787141
vt 0.722758 0.750013
vt 0.703414 0.778913
vt 0.534762 0.796622
vt 0.517906 0.774715
vt 0.516090 0.746601
vt 0.316277 0.996650
vt 0.324936 0.920376
vt 0.334490 0.921714
vt 0.670252 0.813423
vt 0.337152 0.962256
vt 0.363113 0.846118
vt 0.366550 0.865509
vt 0.541015 0.854185
vt 0.531176 0.820150
vt 0.687958 0.884791
vt 0.679288 0.935005
vt 0.699054 0.909442
vt 0.708754 0.917976
vt 0.373278 0.781232
vt 0.354155 0.859201
vt 0.360177 0.760527
vt 0.341094 0.830886
vt 0.351186 0.773417
vt 0.382003 0.670861
vt 0.392204 0.717693
vt 0.379029 0.605895
vt 0.368768 0.626274
vt 0.308082 0.818608
vt 0.321937 0.713790
vt 0.321173 0.797349
vt 0.292940 0.692018
vt 0.284995 0.776718
vt 0.356502 0.682590
vt 0.347684 0.672854
vt 0.419643 0.640528
vt 0.427740 0.574281
vt 0.462538 0.575178
vt 0.470692 0.705371
vt 0.451783 0.583825
vt 0.437837 0.506909
vt 0.242605 0.681050
vt 0.246859 0.633881
vt 0.477440 0.659483
vt 0.472971 0.580667
vt 0.492024 0.613889
vt 0.247541 0.587037
vt 0.252590 0.609225
vt 0.254558 0.578696
vt 0.251049 0.546482
vt 0.454674 0.489087
vt 0.443151 0.462182
vt 0.495027 0.564424
vt 0.495974 0.498380
vt 0.504005 0.553515
vt 0.262160 0.559859
vt 0.257506 0.537541
vt 0.261889 0.500194
vt 0.279371 0.542413
vt 0.289844 0.448940
vt 0.479927 0.490472
vt 0.468380 0.491709
vt 0.253134 0.486456
vt 0.259053 0.449870
vt 0.448660 0.318195
vt 0.459263 0.390959
vt 0.495463 0.459759
vt 0.487567 0.465707
vt 0.488521 0.402382
vt 0.274733 0.338970
vt 0.281627 0.361483
vt 0.263383 0.396173
vt 0.309609 0.332649
vt 0.432578 0.377664
vt 0.426554 0.295135
vt 0.448548 0.261413
vt 0.426945 0.261888
vt 0.408490 0.280585
vt 0.466542 0.330263
vt 0.457259 0.339336
vt 0.461629 0.287253
vt 0.477508 0.313143
vt 0.284761 0.258981
vt 0.296112 0.269813
vt 0.280222 0.307896
vt 0.293189 0.223123
vt 0.321912 0.282192
vt 0.408100 0.604572
vt 0.331579 0.700075
vt 0.331477 0.639228
vt 0.345171 0.462074
vt 0.351114 0.564783
vt 0.369993 0.548504
vt 0.419800 0.494015
vt 0.408696 0.567620
vt 0.383747 0.541869
vt 0.407667 0.513738
vt 0.407655 0.458311
vt 0.394870 0.495369
vt 0.381162 0.470735
vt 0.374558 0.489870
vt 0.332353 0.569456
vt 0.316570 0.503014
vt 0.336339 0.509911
vt 0.336164 0.569954
vt 0.338950 0.456004
vt 0.386182 0.421714
vt 0.403506 0.413881
vt 0.391625 0.359955
vt 0.376742 0.412462
vt 0.380475 0.360536
vt 0.368503 0.434525
vt 0.319171 0.426451
vt 0.346184 0.341487
vt 0.346512 0.405339
vt 0.351310 0.400653
vt 0.418245 0.385022
vt 0.416464 0.331886
vt 0.386916 0.327512
vt 0.387494 0.273100
vt 0.362100 0.340029
vt 0.372073 0.314138
vt 0.354933 0.255647
vt 0.359269 0.293350
vt 0.376321 0.273770
vt 0.369595 0.250881
vt 0.363999 0.233470
vt 0.432595 0.203370
vt 0.412294 0.203958
vt 0.428189 0.183108
vt 0.391115 0.192950
vt 0.468922 0.264812
vt 0.455258 0.224174
vt 0.466695 0.228324
vt 0.442390 0.196386
vt 0.456974 0.205346
vt 0.460099 0.198226
vt 0.446294 0.179588
vt 0.034699 0.677817
vt 0.053295 0.683287
vt 0.049712 0.690388
vt 0.073636 0.688671
vt 0.057926 0.695304
vt 0.046737 0.718672
vt 0.080037 0.704513
vt 0.353205 0.222833
vt 0.371584 0.185710
vt 0.381273 0.210763
vt 0.328323 0.229075
vt 0.100951 0.688818
vt 0.090943 0.673407
vt 0.100936 0.680946
vt 0.383218 0.187883
vt 0.123717 0.675045
vt 0.339710 0.190851
vt 0.219707 0.757405
vt 0.572696 0.249522
vt 0.568206 0.273986
vt 0.551183 0.294209
vt 0.571861 0.355569
vt 0.568045 0.291899
vt 0.543299 0.277944
vt 0.709263 0.241292
vt 0.709566 0.288605
vt 0.686354 0.298112
vt 0.574731 0.389537
vt 0.572583 0.554522
vt 0.559732 0.507134
vt 0.570798 0.588734
vt 0.580228 0.603611
vt 0.599115 0.611660
vt 0.598247 0.693777
vt 0.675676 0.470013
vt 0.535893 0.741976
vt 0.607621 0.777500
vt 0.573986 0.797731
vt 0.672654 0.836553
vt 0.691210 0.802969
vt 0.578691 0.934693
vt 0.554144 0.905304
vt 0.570652 0.857323
vt 0.272627 0.611839
vt 0.314707 0.637849
vt 0.295511 0.595735
vt 0.169731 0.481899
vt 0.186027 0.597431
vt 0.058485 0.468271
vt 0.080109 0.430652
vt 0.000479 0.467482
vt 0.028050 0.403194
vt 0.131145 0.702316
vt 0.133267 0.673513
vt 0.193282 0.690123
vt 0.025517 0.389578
vt 0.015279 0.248448
vt 0.223589 0.594290
vt 0.181267 0.653241
vt 0.218428 0.651560
vt 0.177774 0.235756
vt 0.029087 0.128878
vt 0.060775 0.076590
vt 0.104447 0.109915
vt 0.203420 0.273833
vt 0.020907 0.761348
vt 0.242095 0.523264
vt 0.172511 0.740857
vt 0.192285 0.786713
vt 0.138225 0.947113
vt 0.223483 0.688752
vt 0.140902 0.403123
vt 0.172437 0.964578
vt 0.097759 0.059222
vt 0.028838 0.028936
vt 0.203738 0.323299
vt 0.696358 0.057563
vt 0.535705 0.123263
vt 0.209015 0.160744
vt 0.528189 0.166382
vt 0.539468 0.228047
vt 0.532067 0.278702
vt 0.589962 0.291733
vt 0.583329 0.394988
vt 0.546206 0.460541
vt 0.698176 0.170635
vt 0.657518 0.261157
vt 0.671638 0.245909
vt 0.642846 0.319694
vt 0.671342 0.304440
vt 0.702478 0.308338
vt 0.680285 0.387473
vt 0.491123 0.218576
vt 0.498598 0.250566
vt 0.542369 0.512356
vt 0.587498 0.705959
vt 0.714736 0.444916
vt 0.525882 0.616170
vt 0.507940 0.581247
vt 0.724777 0.664657
vt 0.732538 0.434257
vt 0.611246 0.728450
vt 0.649673 0.898404
vt 0.587925 0.869849
vt 0.615116 0.888692
vt 0.641650 0.921213
vt 0.664753 0.954418
vt 0.643977 0.983574
vt 0.626993 0.920186
vt 0.510860 0.683918
vt 0.504940 0.706924
vt 0.508702 0.637693
vt 0.703312 0.855214
vt 0.550792 0.806304
vt 0.317298 0.936227
vt 0.546451 0.861636
vt 0.316262 0.890942
vt 0.546184 0.924584
vt 0.505724 0.591697
vt 0.429134 0.450850
vt 0.265088 0.437647
vt 0.481531 0.344544
vt 0.301425 0.194517
vt 0.231507 0.638962
vt 0.021060 0.093215
s 0
usemtl WoodSpoon_LowPoly
f 4/1/1 3/2/2 1/3/3
f 4/1/4 1/3/5 2/4/6
f 5/5/7 1/3/8 3/2/9
f 4/1/1 2/4/10 6/6/11
f 6/6/12 2/4/13 7/7/14
f 7/7/15 8/8/16 6/6/11
f 4/1/4 10/9/17 9/10/18
f 9/10/18 3/2/2 4/1/19
f 9/10/20 10/9/21 12/11/22
f 10/9/21 13/12/23 12/11/24
f 3/2/25 11/13/26 5/5/7
f 9/10/27 14/14/28 11/13/26
f 15/15/29 9/10/30 12/11/24
f 15/15/31 12/11/32 16/16/33
f 16/16/34 17/17/35 15/15/29
f 12/11/32 18/18/36 16/16/37
f 6/6/38 13/12/39 10/9/21
f 19/19/40 13/12/39 6/6/41
f 10/9/42 4/1/4 6/6/11
f 8/8/16 19/19/43 6/6/41
f 12/11/44 13/12/23 18/18/45
f 24/20/46 25/21/47 22/22/48
f 22/22/49 26/23/50 23/24/51
f 22/22/52 25/21/47 26/23/50
f 25/21/53 27/25/54 26/23/55
f 2/4/56 1/3/57 22/22/58
f 22/22/49 23/24/59 7/7/60
f 2/4/13 22/22/49 7/7/60
f 1/3/61 5/5/62 24/20/63
f 24/20/63 22/22/64 1/3/65
f 5/5/66 29/26/67 24/20/63
f 24/20/46 30/27/68 28/28/69
f 32/29/70 23/30/51 26/31/71
f 33/32/72 28/28/73 30/27/68
f 31/33/74 32/29/75 34/34/76
f 31/33/74 34/34/76 48/35/77
f 27/36/78 36/37/79 26/31/55
f 27/36/80 25/38/47 35/39/81
f 26/31/55 36/37/82 32/29/83
f 38/40/84 27/36/78 35/39/85
f 37/41/86 39/42/87 35/39/85
f 27/36/88 40/43/89 36/37/82
f 38/40/90 40/43/91 27/36/54
f 39/42/87 38/40/92 35/39/93
f 40/43/94 41/44/95 36/37/82
f 42/45/96 43/46/97 44/47/98
f 14/14/28 45/48/99 11/13/26
f 48/35/77 49/49/100 47/50/101
f 33/51/72 50/52/102 37/41/86
f 39/42/87 106/53/103 38/40/104
f 52/54/105 43/46/106 42/45/107
f 16/55/33 18/56/108 57/57/109
f 59/58/110 17/59/35 16/55/34
f 16/55/33 57/57/111 59/58/112
f 18/56/36 61/60/113 57/57/111
f 59/58/112 57/57/114 60/61/115
f 57/57/111 61/60/116 60/61/117
f 59/58/110 62/62/118 17/59/119
f 67/63/120 59/58/121 60/61/122
f 59/58/123 67/63/124 62/62/118
f 63/64/125 60/61/126 61/60/113
f 62/62/118 95/65/127 64/66/128
f 67/63/124 65/67/129 62/62/118
f 63/64/125 68/68/130 67/63/131
f 68/68/132 65/67/133 67/63/134
f 69/69/135 64/66/128 70/70/136
f 70/70/136 71/71/137 69/69/135
f 95/65/127 72/72/138 64/66/128
f 86/73/139 75/74/140 479/75/141
f 86/73/139 78/76/142 75/74/140
f 83/77/143 84/78/144 81/79/145
f 78/80/142 88/81/146 77/82/147
f 78/80/142 89/83/148 90/84/149
f 91/85/150 65/67/129 68/68/151
f 65/67/133 91/85/152 95/65/153
f 92/86/154 93/87/155 68/68/151
f 93/87/156 94/88/157 68/68/158
f 68/68/159 94/88/160 91/85/152
f 91/85/161 96/89/162 95/65/163
f 94/88/164 96/89/165 91/85/166
f 94/88/164 98/90/167 96/89/168
f 96/89/169 97/91/170 95/65/127
f 96/89/169 99/92/171 97/91/170
f 93/87/172 102/93/173 98/90/174
f 81/94/175 100/95/176 83/96/177
f 101/97/178 83/98/143 100/99/179
f 99/100/180 101/97/178 100/99/176
f 97/91/170 99/92/180 100/95/176
f 96/89/169 98/90/167 99/92/171
f 78/80/181 90/84/182 88/81/146
f 104/101/183 99/100/184 98/102/185
f 102/103/173 103/104/186 98/102/187
f 102/103/173 90/105/188 105/106/189
f 104/101/190 98/102/191 103/104/192
f 102/103/173 105/106/193 103/104/194
f 109/107/195 108/108/196 107/109/197
f 109/107/198 120/110/199 108/108/196
f 110/111/200 111/112/201 107/109/202
f 39/42/203 51/113/204 106/53/205
f 38/40/206 112/114/207 40/43/91
f 106/53/208 107/115/202 116/116/209
f 40/43/89 113/117/210 41/44/211
f 113/117/212 114/118/213 41/44/211
f 114/118/214 52/54/215 41/44/216
f 43/46/97 52/54/217 115/119/218
f 107/109/197 108/108/219 116/120/220
f 52/54/221 114/118/214 115/119/222
f 118/121/223 116/120/224 108/108/196
f 115/119/222 114/118/214 197/122/225
f 119/123/226 197/124/225 114/125/214
f 120/110/227 121/126/228 108/108/196
f 109/107/229 122/127/230 120/110/231
f 123/128/232 122/127/233 109/107/229
f 122/127/234 124/129/235 120/110/236
f 124/129/237 125/130/238 126/131/239
f 120/110/236 124/129/237 121/126/228
f 127/132/240 128/133/241 118/121/242
f 197/124/243 119/123/226 130/134/244
f 130/134/244 129/135/245 128/133/241
f 133/136/246 134/137/247 135/138/248
f 136/139/249 137/140/250 498/141/251
f 498/141/252 137/140/253 138/142/254
f 140/143/255 141/144/256 142/145/257
f 222/146/258 139/147/259 141/144/256
f 144/148/260 125/130/261 145/149/262
f 110/111/200 146/150/263 147/151/264
f 84/152/144 149/153/265 150/154/266
f 83/98/143 149/153/267 84/152/144
f 150/154/266 148/155/268 147/151/264
f 150/154/266 151/156/269 148/155/268
f 151/156/269 150/154/270 149/153/271
f 152/157/272 89/158/148 87/159/273
f 158/160/274 103/104/192 105/106/275
f 154/161/276 157/162/277 104/101/190
f 103/104/192 158/160/278 154/161/279
f 155/163/280 156/164/281 153/165/282
f 159/166/283 171/167/284 158/160/274
f 156/164/281 159/166/285 158/160/286
f 160/168/287 163/169/288 161/170/289
f 162/171/290 163/169/288 160/168/291
f 161/170/292 164/172/293 160/168/294
f 163/169/295 123/128/232 111/112/201
f 164/172/293 165/173/296 160/168/294
f 166/174/297 165/173/298 164/172/293
f 167/175/299 164/172/300 161/170/301
f 168/176/302 167/175/303 151/156/269
f 161/170/292 148/155/304 151/156/269
f 151/156/269 167/175/299 161/170/292
f 171/167/284 172/177/305 158/160/286
f 173/178/306 174/179/307 169/180/308
f 126/131/309 144/148/310 175/181/311
f 175/181/312 176/182/313 126/131/314
f 144/148/260 177/183/315 175/181/311
f 165/173/296 144/148/310 145/149/316
f 178/184/317 144/148/260 165/173/318
f 175/181/311 177/183/315 176/182/319
f 177/183/315 179/185/320 176/182/321
f 177/183/315 180/186/322 179/185/323
f 178/184/317 180/186/322 177/183/324
f 179/185/320 181/187/325 176/182/313
f 166/174/297 178/184/326 165/173/298
f 170/188/327 185/189/328 171/167/329
f 187/190/330 180/186/322 178/184/317
f 188/191/331 189/192/332 190/193/333
f 192/194/334 194/195/335 195/196/336
f 196/197/337 194/195/338 192/194/339
f 202/198/340 198/199/341 55/200/342
f 130/134/343 199/201/344 197/124/225
f 135/138/345 134/137/247 200/202/346
f 200/202/347 134/137/348 201/203/349
f 134/137/350 499/204/351 201/203/352
f 202/205/340 206/206/353 152/207/354
f 202/205/340 203/208/355 206/206/353
f 203/208/355 205/209/356 206/206/357
f 206/206/353 205/209/356 207/210/358
f 207/210/358 209/211/359 191/212/360
f 205/213/361 201/203/352 209/214/362
f 210/215/363 211/216/364 191/212/360
f 210/215/363 191/212/360 209/211/359
f 201/203/352 212/217/365 209/214/359
f 209/214/362 212/217/365 210/218/366
f 213/219/367 214/220/368 215/221/369
f 216/222/370 215/221/371 214/220/368
f 219/223/372 255/224/373 214/220/374
f 220/225/375 214/220/368 255/224/376
f 218/226/377 216/222/378 221/227/379
f 223/228/380 233/229/381 222/146/382
f 220/225/375 227/230/383 214/220/374
f 228/231/384 229/232/385 221/227/379
f 230/233/386 228/231/387 216/222/388
f 227/230/383 220/225/375 226/234/389
f 233/229/381 221/227/379 229/232/385
f 227/230/383 236/235/390 230/233/391
f 227/230/392 237/236/393 236/235/394
f 227/230/383 226/234/395 237/236/393
f 240/237/396 241/238/397 242/239/398
f 235/240/399 243/241/400 244/242/401
f 242/239/398 249/243/402 250/244/403
f 251/245/404 252/246/405 245/247/406
f 248/248/407 251/245/408 243/241/409
f 181/187/410 219/223/372 176/182/313
f 181/187/325 179/185/323 253/249/411
f 180/186/322 253/249/411 179/185/412
f 180/186/322 254/250/413 253/249/411
f 180/186/322 187/190/330 254/250/413
f 211/216/414 269/251/415 192/194/416
f 254/250/413 258/252/417 181/187/418
f 259/253/419 254/250/420 187/190/330
f 254/250/413 260/254/421 258/252/417
f 255/224/376 258/252/422 231/255/423
f 261/256/424 231/255/423 258/252/417
f 226/234/389 255/224/373 231/255/425
f 258/252/426 260/254/421 261/256/427
f 260/254/421 274/257/428 261/256/427
f 254/250/413 262/258/429 260/254/430
f 264/259/431 265/260/432 262/258/433
f 266/261/434 267/262/435 268/263/436
f 271/264/437 269/251/438 267/265/439
f 281/266/440 257/267/441 272/268/442
f 231/255/443 238/269/444 226/234/389
f 231/255/423 261/256/427 273/270/445
f 261/256/424 274/257/428 273/270/445
f 274/257/428 275/271/446 273/270/445
f 265/260/432 288/272/447 274/257/428
f 274/257/428 288/272/447 275/271/448
f 279/273/449 281/266/450 271/264/437
f 279/273/449 280/274/451 281/266/450
f 265/260/452 257/267/453 283/275/454
f 257/267/453 281/266/455 283/275/456
f 277/276/457 285/277/458 239/278/459
f 284/279/460 285/277/458 276/280/461
f 288/272/447 286/281/462 275/271/463
f 275/271/448 289/282/464 290/283/465
f 288/272/466 287/284/467 342/285/468
f 291/286/469 252/246/470 307/287/471
f 282/288/472 280/289/473 279/290/474
f 295/291/475 288/272/476 283/275/454
f 295/291/477 287/284/467 288/272/476
f 296/292/478 297/293/479 287/284/480
f 293/294/481 292/295/482 296/296/483
f 143/297/484 298/298/485 212/217/365
f 298/298/485 299/299/486 212/217/487
f 299/299/488 266/261/434 212/217/365
f 249/243/402 300/300/489 250/244/403
f 300/300/489 249/243/402 239/278/490
f 301/301/491 302/302/492 303/303/493
f 306/304/494 309/305/495 251/245/404
f 308/306/496 306/304/494 304/307/497
f 308/306/498 309/305/499 306/304/494
f 250/244/500 312/308/501 301/301/502
f 313/309/503 312/308/504 311/310/505
f 314/311/506 315/312/507 302/302/508
f 316/313/509 317/314/510 308/306/511
f 319/315/512 318/316/513 313/309/514
f 317/314/515 322/317/516 323/318/517
f 325/319/518 326/320/519 329/321/520
f 327/322/521 328/323/522 325/319/523
f 325/319/518 328/323/524 326/320/525
f 328/323/526 366/324/527 330/325/528
f 326/320/529 328/323/522 331/326/530
f 324/327/531 335/328/532 323/329/517
f 334/330/533 336/331/534 322/317/516
f 322/317/535 336/331/536 324/332/531
f 324/327/531 338/333/537 335/328/538
f 285/277/458 284/279/460 339/334/539
f 290/283/540 340/335/541 284/279/460
f 339/334/542 311/310/543 300/300/544
f 339/334/539 340/335/541 341/336/545
f 343/337/546 344/338/547 342/285/468
f 342/285/468 344/338/547 289/282/548
f 297/293/479 343/337/546 342/285/468
f 345/339/549 343/340/550 297/341/551
f 343/342/546 346/343/552 347/344/553
f 341/336/554 348/345/555 311/310/556
f 344/346/557 352/347/558 351/348/559
f 355/349/560 353/350/561 345/339/562
f 358/351/563 327/352/521 319/315/564
f 359/353/565 360/354/566 327/352/567
f 360/355/568 351/348/569 352/347/570
f 361/356/571 362/357/572 352/347/558
f 357/358/573 365/359/574 361/356/575
f 327/322/521 366/324/527 328/323/524
f 360/355/568 369/360/576 367/361/577
f 369/360/578 360/355/566 352/347/579
f 362/357/580 421/362/581 352/347/558
f 352/347/570 421/362/582 369/360/583
f 362/357/580 370/363/584 421/362/581
f 363/364/585 373/365/586 364/366/587
f 371/367/588 363/364/585 372/368/589
f 374/369/590 365/359/574 375/370/591
f 330/325/528 368/371/592 328/323/524
f 368/371/593 430/372/594 331/326/530
f 326/320/529 378/373/595 332/374/596
f 331/326/530 377/375/597 326/320/529
f 326/320/529 377/375/598 378/373/599
f 380/376/600 377/375/601 331/326/530
f 336/377/534 337/378/602 324/327/603
f 337/378/604 338/333/605 324/327/603
f 333/379/606 379/380/607 381/381/608
f 384/382/609 382/383/610 337/378/611
f 385/384/612 382/383/613 384/382/614
f 384/382/614 386/385/615 385/384/616
f 377/375/601 380/376/600 387/386/617
f 387/386/617 380/376/600 390/387/618
f 383/388/619 391/389/620 386/390/615
f 385/384/621 386/385/615 392/391/622
f 386/385/615 393/392/623 392/391/624
f 386/385/625 394/393/626 393/392/627
f 395/394/628 392/391/624 393/392/623
f 393/392/623 394/393/629 395/394/628
f 396/395/630 395/394/628 394/393/629
f 389/396/631 383/388/632 388/397/633
f 394/393/629 391/398/634 397/399/635
f 387/386/617 401/400/636 399/401/637
f 399/401/637 389/396/631 388/397/633
f 397/402/638 402/403/639 403/404/640
f 405/405/641 406/406/642 403/407/643
f 406/406/644 407/408/645 396/395/630
f 400/409/646 409/410/647 401/400/648
f 401/400/648 409/410/647 410/411/649
f 411/412/650 410/411/649 409/410/647
f 409/410/651 412/413/652 411/412/653
f 413/414/654 403/404/640 408/415/655
f 413/414/656 415/416/657 414/417/658
f 416/418/659 417/419/660 414/420/661
f 418/421/662 417/419/660 416/418/659
f 417/419/663 419/422/664 407/408/645
f 368/371/592 367/361/577 420/423/665
f 368/371/592 420/423/665 430/372/594
f 376/424/666 425/425/667 375/370/668
f 425/425/669 426/426/670 375/370/668
f 427/427/671 428/428/672 370/363/673
f 375/370/591 427/427/674 370/363/675
f 430/372/594 431/429/676 380/376/677
f 422/430/678 432/431/679 433/432/680
f 434/433/681 431/429/676 435/434/682
f 435/434/682 431/429/676 433/432/680
f 435/434/683 436/435/684 434/433/681
f 432/431/679 436/435/684 435/434/683
f 432/431/685 437/436/686 436/435/687
f 423/437/688 395/394/628 438/438/689
f 423/437/688 439/439/690 429/440/691
f 426/426/670 429/440/692 439/439/690
f 439/439/693 444/441/694 426/426/695
f 440/442/696 441/443/697 434/433/681
f 440/442/698 452/444/699 441/443/700
f 442/445/701 443/446/702 440/442/696
f 445/447/703 443/446/704 442/445/701
f 444/441/705 446/448/706 407/408/645
f 447/449/707 448/450/708 444/441/709
f 426/426/710 449/451/711 445/447/703
f 444/441/705 448/450/712 426/426/695
f 426/426/713 448/450/714 449/451/711
f 450/452/715 451/453/716 400/409/717
f 452/444/699 443/446/718 453/454/719
f 452/444/720 453/454/719 451/453/721
f 409/410/651 451/453/716 412/413/722
f 453/454/719 412/413/723 451/453/721
f 453/454/724 454/455/725 412/413/726
f 443/446/727 455/456/728 456/457/729
f 443/446/730 456/457/731 453/454/719
f 447/449/707 457/458/732 458/459/733
f 453/454/719 456/457/734 459/460/735
f 455/456/736 458/459/737 459/460/735
f 458/459/738 460/461/739 459/460/735
f 458/459/740 457/458/732 461/462/741
f 410/411/649 411/412/742 462/463/743
f 463/464/744 411/412/742 412/413/726
f 463/464/744 464/465/745 462/463/746
f 463/464/747 465/466/748 464/465/749
f 416/467/659 466/468/750 418/469/751
f 467/470/752 410/411/649 462/463/753
f 466/468/754 468/471/755 418/469/756
f 468/471/755 469/472/757 418/469/758
f 417/419/759 418/421/758 419/422/664
f 466/468/750 467/470/760 468/471/755
f 468/471/761 471/473/762 469/472/763
f 462/463/743 464/465/749 467/470/752
f 467/474/752 464/475/749 471/476/764
f 471/476/764 473/477/765 472/478/766
f 471/476/764 472/478/766 469/479/767
f 469/479/767 472/478/766 470/480/768
f 458/459/733 461/462/769 460/461/770
f 461/462/771 474/481/772 475/482/773
f 460/461/770 461/462/769 478/483/774
f 476/484/775 474/481/772 457/458/732
f 457/458/776 474/481/772 461/462/777
f 464/475/745 473/477/778 471/476/779
f 473/477/765 475/485/780 472/478/766
f 464/475/781 465/486/782 477/487/783
f 477/488/784 465/466/748 478/483/774
f 461/462/769 475/482/773 478/483/774
f 478/489/785 475/485/786 477/487/787
f 477/487/788 475/485/780 473/477/765
f 474/481/772 470/490/789 475/482/773
f 78/80/142 77/82/147 75/491/140
f 89/158/148 86/73/790 87/159/273
f 480/492/791 481/493/792 485/494/793
f 138/142/794 482/495/795 483/496/796
f 142/145/257 484/497/797 485/494/798
f 154/161/279 158/160/274 172/177/305
f 168/176/799 169/180/800 167/175/801
f 170/188/327 208/498/802 186/499/803
f 208/498/802 207/210/358 186/499/803
f 191/212/360 186/499/803 207/210/358
f 195/196/336 487/500/804 185/189/328
f 207/210/358 208/498/805 206/206/353
f 218/226/377 221/227/379 486/501/806
f 223/228/380 486/501/807 221/227/808
f 234/502/809 235/240/810 224/503/811
f 246/504/812 235/240/810 234/502/813
f 243/241/400 235/240/814 246/504/812
f 247/505/815 233/229/381 488/506/816
f 301/301/491 303/303/493 242/239/398
f 488/506/816 489/507/817 247/505/815
f 259/253/818 263/508/819 262/258/820
f 262/258/821 263/508/819 264/259/822
f 282/288/823 307/287/471 294/509/824
f 303/303/825 315/312/507 491/510/826
f 310/511/827 307/287/828 309/305/829
f 342/285/830 287/284/467 297/293/831
f 350/512/832 348/345/555 349/513/833
f 372/514/589 363/515/585 356/516/834
f 413/414/654 408/415/655 415/416/835
f 371/367/836 494/517/837 493/518/838
f 424/519/839 493/518/838 494/517/837
f 11/13/26 29/26/840 5/5/7
f 9/10/20 11/13/26 3/2/25
f 29/26/841 11/13/842 45/48/99
f 58/520/843 15/15/29 17/17/119
f 45/48/844 14/14/28 46/521/845
f 20/522/846 19/19/40 8/8/847
f 20/522/846 21/523/848 19/19/40
f 47/524/101 20/522/846 8/8/847
f 21/523/848 13/12/23 19/19/40
f 13/12/23 21/523/848 18/18/36
f 74/525/849 21/523/848 20/522/846
f 66/526/850 21/527/848 74/528/851
f 7/529/852 23/30/853 31/33/74
f 30/27/68 24/20/46 29/26/841
f 48/35/77 7/529/60 31/33/74
f 25/21/854 24/20/63 28/28/69
f 32/29/70 31/33/74 23/30/853
f 25/38/47 28/530/69 35/39/85
f 37/41/86 35/39/85 28/530/73
f 32/29/70 42/45/96 44/47/855
f 36/37/82 42/45/107 32/29/70
f 42/45/856 36/37/82 52/54/217
f 52/54/215 36/37/79 41/44/857
f 69/531/135 46/521/845 14/14/858
f 29/26/841 45/48/859 30/27/68
f 47/524/860 8/8/847 7/7/60
f 7/529/60 48/35/77 47/50/101
f 33/32/72 30/27/68 45/48/99
f 495/532/861 33/32/72 46/521/845
f 45/48/99 46/521/862 33/32/863
f 71/533/137 495/532/861 46/521/845
f 49/49/100 479/75/141 47/50/101
f 37/41/86 28/530/73 33/51/72
f 32/29/75 44/47/855 34/34/76
f 44/47/855 43/46/97 34/34/864
f 53/534/865 34/34/76 43/46/866
f 48/35/77 34/34/76 53/534/867
f 37/41/86 50/52/868 51/113/204
f 39/42/87 37/41/86 51/113/869
f 51/113/204 50/52/868 106/53/870
f 33/51/72 495/535/861 50/52/868
f 82/536/871 54/537/872 50/52/868
f 56/538/873 48/35/77 53/534/874
f 56/538/875 479/75/141 49/49/100
f 48/35/77 56/538/875 49/49/100
f 62/62/118 58/539/876 17/59/119
f 18/56/36 66/526/850 61/60/113
f 14/14/858 58/520/876 64/540/877
f 69/531/878 14/14/858 64/540/128
f 62/62/118 64/66/128 58/539/843
f 67/63/134 60/61/115 63/64/125
f 65/67/129 95/65/127 62/62/879
f 63/64/880 61/60/113 76/541/881
f 63/64/880 76/541/881 496/542/882
f 61/60/883 66/526/850 76/541/881
f 74/528/851 76/541/881 66/526/850
f 63/64/880 92/86/154 68/68/884
f 69/531/135 71/533/885 46/521/845
f 70/70/136 79/543/886 71/71/885
f 72/72/887 70/70/136 64/66/128
f 72/72/887 79/543/886 70/70/136
f 76/541/881 74/528/851 73/544/888
f 73/545/888 479/75/141 75/74/140
f 76/541/881 75/491/140 496/542/889
f 496/542/882 75/491/140 77/82/147
f 71/71/885 79/543/886 80/546/890
f 82/536/871 81/79/891 54/537/892
f 81/79/893 146/547/263 54/537/872
f 81/79/893 82/536/871 80/548/890
f 85/549/894 86/73/790 479/75/141
f 85/549/894 479/75/141 56/538/875
f 86/73/139 85/549/894 87/159/273
f 78/76/142 86/73/790 89/158/148
f 156/164/281 90/105/188 89/550/895
f 156/164/281 89/550/895 153/165/282
f 105/106/189 90/105/149 156/164/281
f 95/65/163 97/91/170 72/72/138
f 94/88/157 93/87/896 98/90/167
f 92/86/897 63/64/880 496/542/898
f 88/81/146 93/87/155 92/86/154
f 102/93/899 93/87/155 88/81/900
f 72/72/887 97/91/901 79/543/886
f 97/91/901 80/546/902 79/543/886
f 100/95/903 80/546/902 97/91/901
f 81/94/891 80/546/890 100/95/904
f 90/84/149 102/93/905 88/81/146
f 101/97/906 99/100/184 104/101/183
f 106/53/870 54/537/892 146/547/263
f 110/111/200 107/109/907 106/551/870
f 106/551/870 146/150/263 110/111/908
f 107/109/202 111/112/201 109/107/229
f 123/128/232 109/107/198 111/112/201
f 106/53/208 112/114/909 38/40/92
f 106/53/208 116/116/910 112/114/909
f 112/114/911 116/116/224 113/117/212
f 40/43/89 112/114/911 113/117/210
f 43/46/97 115/119/912 53/534/867
f 117/552/913 113/117/210 116/116/224
f 114/118/213 113/117/210 117/552/914
f 114/125/915 117/553/913 129/135/916
f 116/120/224 118/121/917 117/553/913
f 162/171/290 123/128/232 163/169/295
f 124/129/235 122/127/233 125/130/918
f 125/130/261 122/127/233 123/128/919
f 162/171/290 125/130/920 123/128/919
f 121/126/228 124/129/921 480/492/922
f 121/126/228 118/121/923 108/108/196
f 117/553/913 118/121/917 129/135/916
f 128/133/241 129/135/916 118/121/917
f 121/126/228 127/132/924 118/121/223
f 131/554/925 128/133/241 127/132/926
f 114/125/927 129/135/928 119/123/929
f 119/123/929 129/135/930 130/134/244
f 128/133/931 131/554/932 130/134/244
f 480/492/922 127/132/924 121/126/228
f 484/497/797 131/554/933 127/132/926
f 132/555/934 135/138/345 130/134/244
f 199/201/935 130/134/343 135/138/345
f 131/554/933 132/555/934 130/134/244
f 132/555/934 131/554/933 484/497/936
f 136/139/937 176/182/313 213/219/367
f 219/223/938 213/219/939 176/182/321
f 124/129/921 497/556/940 480/492/922
f 124/129/237 126/131/941 497/556/942
f 480/492/922 497/556/943 498/141/944
f 480/492/922 498/141/944 481/493/945
f 136/139/249 498/141/251 497/556/943
f 498/141/944 483/496/796 481/493/946
f 138/142/254 483/496/796 498/141/252
f 480/492/791 485/494/793 127/132/924
f 484/497/797 127/132/926 485/494/798
f 142/145/257 141/144/947 484/497/797
f 484/497/936 139/147/259 132/555/948
f 135/138/248 132/555/934 139/147/949
f 139/147/949 133/136/246 135/138/345
f 484/497/936 141/144/256 139/147/259
f 136/139/937 213/219/950 137/140/253
f 142/145/257 485/494/798 482/495/951
f 142/145/257 482/495/951 486/501/952
f 482/495/795 138/142/254 217/557/953
f 213/219/950 215/221/369 137/140/250
f 138/142/254 137/140/954 217/557/955
f 137/140/956 218/226/377 217/557/955
f 133/136/957 499/204/958 134/137/959
f 222/146/382 141/144/947 140/143/255
f 225/558/960 139/147/949 222/146/258
f 133/136/961 139/147/949 499/204/962
f 139/147/949 225/558/963 499/204/962
f 111/112/201 148/155/268 163/169/295
f 147/151/264 148/155/268 110/111/200
f 111/112/201 110/111/964 148/155/268
f 84/152/965 147/151/264 146/150/263
f 84/78/144 146/547/263 81/79/891
f 150/154/966 147/151/264 84/152/144
f 157/162/967 149/153/265 101/97/906
f 83/98/177 101/97/906 149/153/271
f 149/153/265 168/176/302 151/156/269
f 168/176/799 149/153/968 157/162/967
f 153/165/969 89/550/148 152/207/272
f 153/165/969 152/207/272 204/559/970
f 153/165/971 204/559/970 155/163/280
f 101/97/906 104/101/183 157/162/277
f 104/101/190 103/104/192 154/161/279
f 105/106/193 156/164/972 158/160/274
f 159/166/973 156/164/972 155/163/974
f 161/170/292 163/169/295 148/155/268
f 162/171/290 145/149/975 125/130/920
f 165/173/298 145/149/975 162/171/976
f 165/173/298 162/171/290 160/168/291
f 167/175/299 166/174/977 164/172/300
f 174/179/307 166/174/977 167/175/978
f 169/180/979 174/179/980 167/175/299
f 184/560/981 174/179/307 500/561/982
f 204/559/983 159/166/973 155/163/984
f 170/188/327 159/166/985 204/559/983
f 208/498/805 204/559/970 206/206/353
f 170/188/327 204/559/983 208/498/802
f 168/176/302 157/162/967 169/180/986
f 169/180/308 157/162/277 172/177/987
f 172/177/305 171/167/284 173/178/306
f 170/188/988 171/167/284 159/166/285
f 173/178/989 185/189/328 500/561/982
f 173/178/306 171/167/990 185/189/328
f 126/131/991 125/130/261 144/148/310
f 126/131/991 176/182/321 136/139/937
f 144/148/992 178/184/317 177/183/324
f 182/562/993 178/184/326 166/174/297
f 188/191/331 166/174/977 184/560/994
f 188/191/995 182/562/993 166/174/297
f 183/563/996 188/191/331 184/560/994
f 186/499/997 185/189/998 170/188/327
f 193/564/999 185/189/1000 186/499/803
f 183/563/996 500/561/1001 185/189/328
f 183/563/996 487/500/804 195/196/336
f 195/196/336 185/189/998 193/564/1002
f 182/562/993 188/191/995 187/190/1003
f 256/565/1004 188/191/331 183/563/996
f 193/564/999 186/499/1005 191/212/1006
f 191/212/1006 192/194/1007 193/564/1008
f 195/196/336 194/195/338 183/563/1009
f 192/194/339 195/196/336 193/564/1002
f 194/195/335 196/197/337 256/565/1010
f 115/119/912 197/122/1011 53/534/865
f 53/534/867 202/198/340 55/200/342
f 197/122/1011 202/198/1012 53/534/867
f 197/124/1013 199/201/1014 202/566/1015
f 202/566/1012 199/201/1014 203/567/1016
f 200/202/347 199/201/935 135/138/345
f 199/201/1014 200/202/1017 203/567/1016
f 200/202/1017 201/203/1018 203/567/1016
f 201/203/1019 499/204/1020 143/297/1021
f 201/203/352 143/297/1022 212/217/487
f 152/157/354 198/199/1023 202/198/340
f 204/559/970 152/207/354 206/206/353
f 203/567/1016 201/203/1018 205/213/361
f 205/209/356 209/211/1024 207/210/358
f 211/216/364 192/194/416 191/212/360
f 215/221/1025 216/222/388 218/226/1026
f 219/223/938 214/220/374 213/219/367
f 218/226/377 486/501/806 217/557/955
f 222/146/382 140/143/255 223/228/380
f 224/503/1027 222/146/382 233/229/381
f 225/558/963 222/146/258 224/503/811
f 232/568/1028 298/298/1029 225/558/1030
f 225/558/1030 224/503/1031 232/568/1032
f 230/233/1033 216/222/1034 214/220/368
f 230/233/391 214/220/374 227/230/392
f 216/222/388 228/231/384 221/227/1035
f 233/229/381 229/232/385 488/506/816
f 241/238/397 488/506/816 229/232/385
f 229/232/1036 228/231/384 230/233/386
f 230/233/386 241/238/397 229/232/385
f 233/229/1037 223/228/380 221/227/808
f 232/568/1032 224/503/811 235/240/399
f 233/229/381 234/502/1038 224/503/1039
f 244/242/401 232/568/1028 235/240/810
f 230/233/386 236/235/1040 241/238/1041
f 237/236/393 226/234/389 238/269/1042
f 237/236/1043 238/269/1044 239/278/490
f 237/236/1045 242/239/1046 236/235/390
f 488/506/816 241/238/397 240/237/396
f 241/238/397 236/235/1040 242/239/398
f 246/504/1047 234/502/1038 233/229/1037
f 247/505/815 246/504/1048 233/229/1037
f 244/242/401 243/241/400 245/247/1049
f 246/504/1047 247/505/815 248/248/407
f 248/248/1050 243/241/400 246/504/1051
f 239/278/490 249/243/402 237/236/393
f 242/239/398 237/236/1052 249/243/402
f 301/301/502 242/239/1053 250/244/500
f 243/241/409 251/245/404 245/247/406
f 307/287/828 252/246/405 251/245/404
f 489/507/817 305/569/1054 248/248/407
f 304/307/1055 251/245/404 248/248/407
f 305/569/1056 304/307/1057 248/248/407
f 219/223/372 181/187/410 255/224/373
f 190/193/333 259/253/419 188/191/995
f 188/191/995 259/253/419 187/190/1058
f 181/187/325 253/249/411 254/250/413
f 263/508/819 190/193/333 189/192/332
f 263/508/819 259/253/818 190/193/333
f 263/508/1059 189/192/1060 264/259/431
f 267/265/439 269/251/1061 211/216/1062
f 189/192/1060 256/565/1063 196/197/337
f 196/197/1064 192/194/1007 270/570/1065
f 189/192/1060 196/197/337 264/259/822
f 270/570/1066 257/267/453 196/197/1064
f 220/225/1067 255/224/373 226/234/389
f 255/224/376 181/187/325 258/252/426
f 270/570/1066 269/251/438 257/267/441
f 232/568/1068 244/242/401 299/299/1069
f 257/267/1070 265/260/452 264/259/822
f 271/264/437 281/266/440 272/268/442
f 231/255/423 273/270/445 238/269/1071
f 277/276/1072 238/269/1071 273/270/445
f 276/280/461 277/276/1073 273/270/445
f 276/280/1074 273/270/445 275/271/448
f 260/254/421 262/258/1075 274/257/1076
f 262/258/433 265/260/432 274/257/1077
f 267/262/435 299/299/1078 278/571/1079
f 299/299/486 244/242/401 252/246/405
f 244/242/401 245/247/406 252/246/405
f 278/571/1079 299/299/1078 252/246/470
f 267/262/435 278/571/1080 271/572/437
f 278/571/1080 279/290/449 271/572/1081
f 288/272/476 265/260/452 283/275/456
f 295/291/477 283/275/454 281/266/1082
f 239/278/490 238/269/1083 277/276/1073
f 277/276/1073 276/280/461 285/277/458
f 275/271/446 284/279/460 276/280/1074
f 275/271/463 286/281/462 289/282/548
f 342/285/468 286/281/1084 288/272/1085
f 278/571/1079 252/246/470 291/286/469
f 279/290/1086 278/571/1080 291/286/1087
f 279/290/449 291/286/1087 282/288/823
f 293/294/481 280/289/473 282/288/823
f 307/287/471 282/288/1088 291/286/1089
f 293/294/481 282/288/1088 292/295/482
f 281/266/1082 280/274/1090 295/291/475
f 293/573/481 295/291/475 280/274/1090
f 296/292/478 295/291/475 293/573/481
f 295/291/475 296/292/483 287/284/480
f 298/298/1029 499/204/962 225/558/1091
f 298/298/1029 143/297/484 499/204/1092
f 298/298/485 232/568/1032 299/299/486
f 210/218/366 212/217/365 268/263/436
f 211/216/1093 210/215/1094 268/574/1095
f 268/263/436 212/217/365 266/261/434
f 267/265/435 211/216/1093 268/574/1095
f 267/262/1096 266/261/434 299/299/1078
f 300/300/544 239/278/490 285/277/458
f 489/507/1097 303/303/825 490/575/1098
f 312/308/1099 300/300/544 311/310/505
f 300/300/489 312/308/1099 250/244/403
f 339/334/542 341/336/1100 311/310/543
f 304/307/1101 306/304/494 251/245/404
f 251/245/1102 309/305/495 307/287/828
f 303/303/1103 491/510/826 490/575/1104
f 491/510/1105 304/307/1055 490/575/1106
f 308/306/1107 304/307/1055 491/510/826
f 348/345/555 350/512/1108 311/310/556
f 312/308/504 302/302/492 301/301/491
f 350/512/1108 313/309/514 311/310/556
f 302/302/508 312/308/1099 314/311/506
f 314/311/506 312/308/504 329/576/1109
f 315/312/507 308/306/1107 491/510/1110
f 315/312/507 316/313/1111 308/306/1107
f 501/577/1112 310/511/827 309/305/495
f 315/312/1113 321/578/1114 316/313/1115
f 501/577/1112 309/305/829 317/314/1116
f 308/306/1107 317/314/515 309/305/495
f 313/309/503 329/576/520 312/308/504
f 350/512/1108 319/315/512 313/309/514
f 329/576/520 320/579/1117 314/311/506
f 329/576/520 313/309/503 318/316/1118
f 329/576/520 318/316/1118 325/580/518
f 319/315/512 327/352/521 318/316/513
f 325/580/523 318/316/513 327/352/1119
f 320/579/1117 329/576/520 332/581/1120
f 316/313/509 321/578/1114 322/317/516
f 317/314/1116 316/313/509 322/317/516
f 317/314/1116 323/318/1121 501/577/1112
f 492/582/1122 322/317/516 321/578/1114
f 323/318/517 322/317/516 324/332/603
f 335/328/532 372/368/589 323/329/1121
f 334/330/1123 320/579/1124 332/581/1125
f 329/321/520 326/320/529 332/374/1126
f 381/381/608 336/583/534 334/584/533
f 381/381/608 337/585/611 336/583/534
f 300/300/544 285/277/458 339/334/542
f 340/335/541 339/334/539 284/279/460
f 275/271/448 290/283/540 284/279/460
f 340/335/541 290/283/540 341/336/545
f 290/283/465 289/282/1127 349/513/1128
f 344/338/1129 351/586/1130 289/282/1127
f 349/513/833 289/282/464 351/586/1130
f 292/295/1131 282/288/472 294/509/1132
f 292/295/482 294/509/1133 345/339/1134
f 502/587/1135 345/339/562 294/509/1132
f 292/295/482 297/341/479 296/296/1136
f 343/340/546 345/339/549 353/350/561
f 344/346/547 343/342/546 347/344/1137
f 353/588/1138 346/343/552 343/342/550
f 297/341/1139 292/295/1140 345/339/1141
f 348/345/555 341/336/545 349/513/833
f 341/336/1142 290/283/540 349/513/1143
f 350/512/832 349/513/1143 358/351/1144
f 351/586/1130 358/351/1144 349/513/833
f 344/346/547 347/344/1137 361/356/571
f 344/346/547 361/356/571 352/347/558
f 356/516/834 502/587/1145 310/511/1146
f 354/589/1147 345/339/549 502/587/1135
f 345/339/1148 354/589/1149 355/349/1150
f 356/516/834 354/589/1147 502/587/1135
f 353/588/1151 355/590/1150 346/343/552
f 347/344/1137 357/358/1152 361/356/571
f 346/343/552 355/590/1150 357/358/1153
f 350/512/832 358/351/563 319/315/564
f 351/586/1130 359/353/1154 358/351/1144
f 327/352/567 358/351/1144 359/353/1154
f 360/354/566 359/353/1154 351/586/1130
f 323/318/1121 372/514/589 501/577/1112
f 355/349/1150 354/589/1149 364/591/1155
f 354/589/1147 356/516/834 363/515/585
f 364/591/1156 354/589/1149 363/515/585
f 364/366/1155 357/358/573 355/590/1150
f 362/357/572 361/356/571 365/359/574
f 375/370/591 365/359/1157 357/358/573
f 360/355/566 366/324/1158 327/322/567
f 360/355/566 367/361/1159 366/324/1158
f 330/325/1160 366/324/1158 367/361/577
f 367/361/577 368/371/592 330/325/528
f 374/369/1161 370/363/675 362/357/1162
f 373/365/1163 371/367/836 493/518/838
f 374/369/1161 362/357/1162 365/359/574
f 376/424/1164 375/370/668 364/366/587
f 364/366/1165 373/365/1166 376/424/1167
f 425/425/1168 376/424/1169 373/365/586
f 328/323/524 368/371/593 331/326/1170
f 379/380/607 333/379/606 332/374/1125
f 379/380/1171 332/374/1126 378/373/595
f 387/386/617 378/373/599 377/375/1172
f 380/376/677 331/326/530 430/372/594
f 334/584/1123 333/379/606 381/381/1173
f 384/592/614 337/585/611 381/381/608
f 338/333/605 337/378/604 382/383/1174
f 335/328/532 494/517/837 371/367/836
f 338/333/605 382/383/1175 385/384/612
f 381/381/1176 379/380/607 383/388/632
f 384/592/614 381/381/1177 383/388/1178
f 386/390/615 384/592/609 383/388/1179
f 392/391/1180 494/517/837 385/384/612
f 378/373/595 388/397/1181 379/380/1182
f 383/388/632 379/380/607 388/397/633
f 388/397/1181 378/373/1183 387/386/617
f 390/387/618 380/376/677 431/429/676
f 398/593/1184 390/387/618 431/429/1185
f 391/389/1186 383/388/1179 402/403/1187
f 394/393/626 386/385/625 391/398/620
f 402/403/1187 383/388/632 389/396/631
f 397/399/635 404/594/1188 394/393/626
f 399/401/1189 388/397/1181 387/386/617
f 387/386/617 390/387/618 401/400/1190
f 400/409/717 390/387/618 398/593/1184
f 398/593/1184 450/452/715 400/409/717
f 401/400/648 390/387/618 400/409/646
f 389/396/631 399/401/637 403/404/1191
f 389/396/631 403/404/1192 402/403/639
f 397/399/1193 403/407/1194 404/594/1188
f 408/415/1195 403/404/1196 399/401/1197
f 405/595/1198 403/404/643 413/414/656
f 396/395/630 404/594/1188 406/406/1199
f 404/594/1188 403/407/1192 406/406/642
f 408/415/655 399/401/1189 401/400/1190
f 405/595/1198 413/414/656 414/417/1200
f 405/405/641 414/420/1200 406/406/642
f 417/419/660 406/406/642 414/420/1200
f 417/419/759 407/408/645 406/406/644
f 416/467/659 414/417/1201 415/416/657
f 408/415/655 401/400/1202 410/411/649
f 410/411/1203 415/416/1204 408/415/1205
f 420/423/1206 367/361/577 369/360/576
f 421/362/582 420/423/1206 369/360/576
f 420/423/1206 422/430/1207 430/372/594
f 422/430/1207 420/423/1206 421/362/1208
f 421/362/581 370/363/1209 428/428/672
f 425/425/1210 373/365/1163 493/518/1211
f 425/425/669 493/518/1211 423/437/1212
f 395/394/628 424/519/839 494/517/837
f 423/437/1213 493/518/838 424/519/839
f 375/370/591 370/363/1214 374/369/1161
f 426/426/695 427/427/671 375/370/591
f 429/440/1215 426/426/1216 425/425/1217
f 423/437/688 429/440/691 425/425/669
f 433/432/680 431/429/676 430/372/594
f 422/430/1207 433/432/680 430/372/594
f 421/362/582 432/431/679 422/430/678
f 433/432/680 432/431/679 435/434/682
f 437/436/686 421/362/581 428/428/672
f 432/431/679 421/362/582 437/436/1218
f 438/438/689 439/439/1219 423/437/1213
f 438/438/1220 444/441/705 439/439/693
f 446/448/1221 444/441/705 438/438/689
f 437/436/686 428/428/672 427/427/671
f 437/436/686 427/427/671 426/426/695
f 445/447/1222 437/436/686 426/426/695
f 398/593/1184 431/429/676 434/433/1223
f 398/593/1224 434/433/1223 441/443/700
f 434/433/1225 436/435/684 440/442/698
f 442/445/701 440/442/696 436/435/684
f 442/445/701 436/435/1226 437/436/686
f 441/443/700 450/452/715 398/593/1184
f 452/444/720 450/452/715 441/443/700
f 440/442/696 443/446/730 452/444/699
f 442/445/1227 437/436/686 445/447/1228
f 443/446/704 445/447/1222 455/456/728
f 455/456/728 445/447/703 449/451/711
f 446/448/1221 396/395/630 407/408/645
f 447/449/1229 444/441/705 407/408/645
f 452/444/720 451/453/721 450/452/715
f 400/409/717 451/453/716 409/410/651
f 449/451/711 448/450/714 455/456/1230
f 458/459/733 455/456/1231 448/450/712
f 458/459/1232 448/450/712 447/449/707
f 459/460/1233 454/455/1234 453/454/719
f 455/456/728 459/460/1235 456/457/1236
f 447/449/1229 407/408/645 419/422/664
f 419/422/664 457/458/732 447/449/1229
f 463/464/1237 462/463/743 411/412/653
f 466/468/754 415/416/1204 410/411/1238
f 415/416/657 466/468/1239 416/467/1240
f 466/468/754 410/411/649 467/470/1241
f 419/422/664 418/421/758 476/484/1242
f 469/596/763 476/484/1242 418/421/758
f 468/471/1243 467/470/1244 471/473/1245
f 469/596/767 470/490/1246 474/481/772
f 478/483/1247 412/413/726 454/455/1248
f 463/464/744 412/413/726 478/483/774
f 465/466/1249 463/464/1250 478/483/774
f 476/484/1242 469/596/763 474/481/1251
f 454/455/1252 459/460/735 478/483/1253
f 478/483/774 459/460/735 460/461/739
f 457/458/732 419/422/664 476/484/775
f 464/475/749 477/487/787 473/477/1254
f 472/478/766 475/485/773 470/480/1255
f 9/10/20 15/15/29 58/520/843
f 9/10/27 58/520/876 14/14/858
f 18/56/108 21/527/1256 66/526/850
f 54/537/892 106/53/870 50/52/868
f 56/538/875 53/534/874 55/200/342
f 73/544/888 75/491/140 76/541/1257
f 85/549/894 56/538/875 87/159/273
f 92/86/897 496/542/1258 88/81/900
f 88/81/1259 496/542/1258 77/82/147
f 126/131/941 136/139/249 497/556/1260
f 485/494/798 481/493/792 483/496/1261
f 482/495/795 485/494/793 483/496/1261
f 137/140/954 215/221/371 218/226/1026
f 217/557/1262 486/501/806 482/495/795
f 486/501/1263 140/143/255 142/145/257
f 223/228/380 140/143/1264 486/501/952
f 172/177/1265 157/162/277 154/161/1266
f 174/179/307 184/560/981 166/174/1267
f 169/180/308 172/177/1265 173/178/306
f 173/178/306 500/561/982 174/179/307
f 184/560/994 500/561/982 183/563/996
f 183/563/1268 185/189/328 487/500/804
f 182/562/993 187/190/330 178/184/1269
f 256/565/1004 189/192/1060 188/191/331
f 194/195/335 256/565/1010 183/563/996
f 242/239/398 303/303/493 240/237/396
f 489/507/817 248/248/407 247/505/815
f 489/507/817 488/506/816 240/237/1270
f 303/303/1103 489/507/817 240/237/1270
f 192/194/334 269/251/438 270/570/1066
f 196/197/337 257/267/453 264/259/822
f 254/250/1271 259/253/419 262/258/433
f 271/264/437 272/268/1272 269/251/438
f 269/251/1061 272/268/1272 257/267/453
f 286/281/462 342/285/468 289/282/1273
f 489/507/817 490/575/1098 305/569/1054
f 490/575/1104 304/307/1055 305/569/1274
f 302/302/508 315/312/507 303/303/1103
f 321/578/1275 315/312/1113 314/311/1276
f 356/516/834 310/511/827 501/577/1277
f 492/582/1122 321/578/1114 314/311/1276
f 314/311/506 320/579/1124 492/582/1122
f 334/584/1123 332/374/1125 333/379/606
f 320/579/1124 334/330/1123 492/582/1122
f 322/317/516 492/582/1122 334/330/533
f 335/328/532 371/367/1278 372/368/589
f 294/509/1133 307/287/471 310/511/827
f 294/509/824 310/511/827 502/587/1135
f 347/344/553 346/343/1279 357/358/573
f 356/516/834 501/577/1112 372/514/589
f 364/366/1156 375/370/668 357/358/573
f 363/364/585 371/367/836 373/365/1163
f 335/328/532 338/333/537 494/517/837
f 338/333/537 385/384/612 494/517/837
f 392/391/1180 395/394/628 494/517/837
f 391/389/1186 402/403/639 397/402/638
f 394/393/629 404/594/1188 396/395/630
f 395/394/628 423/437/1213 424/519/839
f 395/394/628 396/395/630 438/438/689
f 446/448/706 438/438/689 396/395/630
f 47/50/101 479/75/141 73/545/888
f 55/200/342 198/199/1023 56/538/875
f 47/524/101 74/525/849 20/522/846
f 73/544/888 74/528/851 47/597/101
f 71/598/885 50/52/102 495/535/861
f 71/598/885 80/548/902 82/536/871
f 71/598/137 82/536/871 50/52/868
f 87/159/1280 198/199/1023 152/157/354
f 56/538/875 198/199/1023 87/159/273
