# Blender 4.1.1
# www.blender.org
mtllib WoodLadleWhole.mtl
o Cube
v 0.109438 -0.139399 -0.042996
v 0.084846 -0.174625 -0.032290
v 0.109789 -0.142251 0.055291
v 0.084846 -0.174625 0.042209
v 0.013869 -0.106455 -0.033127
v 0.010873 -0.152329 -0.032444
v 0.011899 -0.105191 0.034917
v 0.012240 -0.151811 0.042864
v 0.061803 -0.129671 0.073525
v 0.046662 -0.169106 0.053708
v 0.061545 -0.129601 -0.063687
v 0.046662 -0.169106 -0.043789
v 0.127820 -0.152549 -0.000749
v 0.124055 -0.144712 0.019669
v 0.091056 -0.181478 0.020249
v 0.091054 -0.181776 -0.000586
v 0.002347 -0.096960 0.010314
v 0.002251 -0.097211 -0.004001
v 0.002219 -0.150530 -0.003633
v 0.002222 -0.150233 0.017229
v 0.036651 -0.172423 0.017556
v 0.036648 -0.172720 -0.003335
v 0.059543 -0.134751 0.078842
v 0.107777 -0.148918 0.062749
v 0.059543 -0.134751 -0.068926
v -0.007652 -0.107420 -0.019564
v -0.007652 -0.107420 0.024372
v 0.107776 -0.148918 -0.050163
v 0.124051 -0.145012 -0.001033
v 0.127822 -0.152271 0.018841
v -0.017260 -0.102101 0.011753
v -0.017331 -0.102314 -0.007699
v 0.049665 -0.157697 0.014475
v 0.049663 -0.157891 0.000845
v 0.091153 -0.162433 0.002022
v 0.091155 -0.162238 0.015474
v 0.012296 -0.131131 -0.000819
v 0.012359 -0.130968 0.008483
v 0.046253 -0.152223 0.049557
v 0.046086 -0.152178 -0.039603
v 0.078358 -0.158535 0.039615
v 0.016919 -0.136695 -0.020960
v 0.015765 -0.135793 0.025389
v 0.078352 -0.158546 -0.029609
v 0.030415 -0.160088 0.059371
v 0.025945 -0.121085 -0.057149
v 0.025945 -0.121085 0.063977
v 0.030415 -0.160088 -0.049303
v 0.019434 -0.161625 -0.005636
v 0.019437 -0.161328 0.020745
v 0.028053 -0.115736 -0.050537
v 0.028102 -0.115700 0.057057
v 0.028295 -0.147795 -0.000603
v 0.028328 -0.147617 0.013886
v 0.024322 -0.143168 -0.031020
v 0.024354 -0.143145 0.038894
v -0.019799 -0.081391 0.010988
v -0.019880 -0.081516 -0.001292
v -0.012166 -0.095859 0.020740
v -0.013427 -0.095060 -0.012154
v 0.006303 -0.082148 0.013982
v 0.006195 -0.082294 -0.002977
v 0.006742 -0.094373 0.023545
v 0.007702 -0.094323 -0.016157
v 0.020277 0.075616 -0.003345
v 0.020072 0.075724 0.013504
v 0.030639 0.075355 -0.001194
v 0.030727 0.075465 0.012017
v -0.007331 -0.082231 0.015423
v 0.010364 0.076664 0.000119
v -0.005623 -0.080863 -0.005606
v 0.010431 0.076755 0.009685
v -0.001809 -0.083495 -0.008426
v 0.007156 -0.083662 -0.008460
v 0.003490 -0.092524 -0.003679
v 0.006101 -0.091477 -0.008336
v -0.001745 -0.082781 0.017838
v 0.006615 -0.083664 0.019990
v 0.003854 -0.091317 0.011712
v 0.007130 -0.090657 0.018903
v 0.007506 -0.040813 -0.001496
v 0.018362 0.030380 -0.000663
v 0.018466 0.030466 0.011432
v 0.007600 -0.040715 0.012351
v -0.002666 -0.038230 -0.004959
v 0.009042 0.032941 -0.003931
v -0.014253 -0.035331 -0.000241
v -0.000613 0.035391 0.000383
v -0.014181 -0.035241 0.009680
v -0.000533 0.035468 0.009103
v 0.008668 0.032493 0.013753
v -0.003595 -0.038559 0.014621
v 0.009257 0.098251 -0.006167
v 0.009034 0.098033 0.016227
v 0.014184 0.114159 -0.001300
v 0.014102 0.114270 0.012314
v 0.002976 0.086211 -0.000484
v 0.002633 0.086323 0.011276
v 0.018492 0.087791 0.015111
v 0.032662 0.093928 0.013339
v 0.009494 0.083760 0.010559
v 0.018826 0.087772 -0.004971
v 0.009433 0.083593 -0.000226
v 0.032614 0.093706 -0.002408
v -0.022069 0.126597 0.002044
v -0.022112 0.126686 0.008921
v -0.025386 0.088611 0.001859
v -0.025482 0.088667 0.008353
v -0.005456 0.084842 0.010271
v 0.000294 0.098973 0.014849
v 0.000493 0.099282 -0.005073
v -0.005367 0.084644 -0.001632
v 0.003151 0.119362 -0.002989
v 0.003027 0.119513 0.013959
v -0.014565 0.087401 0.008649
v -0.010512 0.101981 -0.004031
v -0.008281 0.120017 -0.003403
v -0.010678 0.101780 0.013992
v -0.014414 0.087222 -0.000554
v -0.008428 0.120214 0.014423
v 0.013763 0.092912 0.015770
v 0.007115 0.085424 0.010917
v 0.014040 0.093028 -0.005639
v 0.020807 0.112965 0.011900
v 0.007430 0.085274 0.000169
v 0.020825 0.112786 -0.000919
v -0.010763 0.107644 0.014510
v -0.024381 0.113034 0.015003
v -0.006362 0.103821 0.013382
v -0.005008 0.100938 0.013811
v -0.007766 0.099460 0.011506
v -0.023641 0.097874 0.013052
v -0.012853 0.096328 0.010319
v -0.024867 0.096277 -0.003373
v -0.011606 0.098604 -0.001881
v -0.006905 0.099119 -0.002060
v -0.003269 0.100437 -0.005147
v -0.005605 0.104878 -0.002909
v -0.010494 0.110402 -0.004855
v -0.023525 0.112910 -0.004102
v -0.010779 0.109781 0.015369
v -0.005458 0.104447 0.014188
v -0.023427 0.111550 0.014627
v -0.003535 0.100261 0.015036
v -0.007210 0.098380 0.011238
v -0.011847 0.098537 0.010830
v -0.024959 0.095910 0.013025
v -0.023361 0.100386 -0.002772
v -0.012701 0.096364 -0.002280
v -0.006069 0.097270 -0.002420
v -0.004697 0.101080 -0.003708
v -0.004085 0.106008 -0.003694
v -0.010457 0.108225 -0.004059
v -0.024521 0.114233 -0.004855
v -0.022518 0.108228 -0.001210
v -0.023144 0.102926 -0.001229
v -0.018563 0.104100 -0.001292
v -0.024871 0.105726 -0.000848
v -0.023216 0.102696 0.011589
v -0.022875 0.107965 0.011980
v -0.019309 0.103935 0.011804
v -0.025017 0.105477 0.011514
v 0.029511 0.103518 0.013610
v 0.008438 0.084395 -0.000028
v 0.029501 0.103317 -0.002656
v 0.016127 0.090352 0.015440
v 0.008312 0.084547 0.010738
v 0.016433 0.090400 -0.005305
v 0.024301 0.140643 0.014497
v 0.024357 0.140535 -0.003901
v 0.030916 0.137967 0.014166
v 0.030935 0.137810 -0.003655
v 0.029018 0.131911 0.016534
v 0.029016 0.131681 -0.005761
v 0.020759 0.134348 -0.006423
v 0.020670 0.134500 0.017254
v -0.018415 0.106779 0.012094
v -0.023267 0.102507 0.011596
v -0.019799 0.102218 0.011493
v -0.018845 0.102103 -0.001029
v -0.018021 0.107194 -0.001447
v -0.019822 0.129429 0.008921
v -0.024074 0.117596 -0.004166
v -0.024328 0.117652 0.014737
v -0.019008 0.129112 0.002044
v -0.017703 0.118756 -0.004050
v -0.015701 0.117196 0.014671
v -0.026432 0.090511 0.008961
v -0.022490 0.088558 0.008645
v -0.021089 0.092313 0.010254
v -0.026410 0.090819 0.001086
v -0.019086 0.092298 -0.001163
v -0.021311 0.088387 0.001206
vn -0.2306 -0.8079 0.5423
vn 0.1960 -0.8687 0.4549
vn 0.2683 -0.9512 0.1522
vn -0.3500 -0.9321 0.0927
vn -0.4324 0.3268 0.8404
vn -0.5436 -0.5437 0.6394
vn -0.7528 -0.4861 0.4438
vn -0.7370 0.0642 0.6728
vn -0.5179 -0.8521 -0.0758
vn -0.3482 -0.9345 -0.0746
vn -0.2168 -0.8169 -0.5345
vn -0.5248 -0.5722 -0.6302
vn 0.0960 0.0553 -0.9938
vn 0.2204 -0.8717 -0.4376
vn 0.6426 -0.1799 -0.7448
vn 0.4759 0.8656 -0.1556
vn 0.4352 0.8983 -0.0603
vn -0.2048 0.9743 0.0941
vn -0.1132 0.9200 0.3751
vn -0.7896 -0.5903 0.1675
vn -0.9430 -0.2173 0.2521
vn -0.5283 -0.8427 0.1038
vn 0.9510 -0.2398 0.1955
vn 0.6039 -0.1408 0.7845
vn -0.4081 0.2842 -0.8676
vn 0.0593 0.0939 0.9938
vn 0.9828 -0.0192 0.1838
vn 0.4586 0.8390 -0.2928
vn 0.8481 0.4829 0.2177
vn 0.8760 0.4782 0.0630
vn 0.2689 -0.9565 -0.1127
vn -0.9400 -0.1683 -0.2967
vn -0.7758 -0.6193 -0.1206
vn -0.7362 -0.5353 -0.4141
vn -0.7426 0.1212 -0.6587
vn 0.3215 0.9440 0.0738
vn 0.5219 0.7955 0.3080
vn 0.8530 0.4818 -0.2005
vn 0.6832 0.6160 -0.3922
vn 0.9877 0.0054 -0.1560
vn 0.8769 0.4754 -0.0709
vn 0.3020 0.9479 -0.1010
vn 0.3097 0.9361 -0.1666
vn 0.2804 0.8172 0.5035
vn 0.6585 0.6383 0.3988
vn 0.9506 -0.2575 -0.1734
vn 0.2975 0.9442 0.1416
vn 0.4890 0.8574 0.1607
vn 0.4335 0.8983 0.0715
vn -0.5579 0.3253 -0.7635
vn -0.8703 0.1187 -0.4780
vn 0.9399 -0.1227 0.3187
vn 0.7150 0.5796 -0.3910
vn 0.5032 0.5995 -0.6224
vn 0.5652 0.8244 -0.0298
vn 0.2690 0.9623 0.0408
vn 0.5676 0.8231 0.0186
vn -0.0740 0.9263 -0.3694
vn 0.3168 0.7989 -0.5113
vn 0.2706 0.9608 -0.0610
vn -0.2002 0.9734 -0.1112
vn 0.9310 0.2070 0.3006
vn 0.5479 0.6313 0.5489
vn -0.1116 0.7513 0.6505
vn -0.2017 0.3218 0.9251
vn -0.0709 0.7069 -0.7037
vn -0.8642 0.0822 0.4964
vn -0.5887 0.1790 0.7883
vn 0.9656 -0.1880 -0.1798
vn 0.9479 -0.2510 0.1962
vn 0.1874 0.5120 0.8383
vn 0.9903 0.1173 -0.0744
vn 0.7524 -0.1568 0.6398
vn -0.1178 0.0308 0.9926
vn -0.0834 -0.0579 0.9948
vn 0.7680 -0.1713 0.6172
vn -0.1114 0.3718 -0.9216
vn 0.9421 0.1358 -0.3066
vn 0.7931 -0.0624 -0.6058
vn -0.0375 0.0260 -0.9990
vn -0.8197 0.1340 -0.5570
vn -0.8286 0.1371 0.5428
vn -0.1157 0.0371 0.9926
vn 0.7596 -0.0584 0.6478
vn -0.8222 0.1889 0.5370
vn -0.8175 0.0086 0.5758
vn -0.8137 0.1887 -0.5498
vn -0.8061 0.0195 -0.5914
vn -0.0509 0.0198 -0.9985
vn -0.0318 -0.0570 -0.9979
vn 0.7802 -0.1598 -0.6048
vn 0.7853 -0.1706 -0.5952
vn 0.4676 0.4702 0.7485
vn -0.0597 -0.1158 0.9915
vn 0.0138 -0.0439 0.9989
vn 0.2713 0.5006 0.8221
vn -0.3445 -0.7361 0.5826
vn -0.0977 -0.7619 0.6403
vn -0.3890 -0.7555 -0.5272
vn -0.0666 -0.1075 -0.9920
vn 0.0596 -0.0341 -0.9976
vn -0.0345 -0.8055 -0.5916
vn 0.6601 -0.2040 -0.7230
vn 0.6631 -0.1860 0.7250
vn 0.7943 0.4175 0.4413
vn 0.7897 0.4069 -0.4592
vn 0.4819 0.4881 -0.7277
vn 0.2902 0.5275 -0.7985
vn 0.7928 0.0625 -0.6063
vn -0.0258 -0.1233 -0.9920
vn 0.7814 0.0583 0.6213
vn -0.6586 -0.4145 -0.6280
vn -0.6357 -0.4690 0.6132
vn -0.0481 -0.1482 0.9878
vn -0.2185 -0.7279 -0.6499
vn -0.0264 -0.0470 -0.9985
vn -0.0933 -0.3896 -0.9162
vn -0.1705 -0.8212 -0.5445
vn -0.1827 -0.7562 0.6283
vn -0.0841 -0.7902 0.6071
vn -0.5685 -0.5419 0.6190
vn -0.7252 -0.1504 0.6720
vn -0.7025 -0.1177 -0.7019
vn -0.5867 -0.5619 -0.5831
vn 0.1811 0.6266 0.7580
vn -0.0353 -0.1129 0.9930
vn -0.0556 0.2474 0.9673
vn -0.0334 0.9196 0.3914
vn 0.2110 0.6507 -0.7294
vn 0.0142 0.9067 -0.4215
vn 0.2048 0.7333 0.6483
vn 0.2074 0.7433 -0.6360
vn -0.1374 -0.0984 0.9856
vn -0.0747 -0.0631 -0.9952
vn -0.0888 -0.7865 -0.6112
vn -0.1416 -0.7958 0.5888
vn -0.3334 -0.1085 0.9365
vn -0.2112 -0.1263 0.9692
vn -0.1516 -0.0008 -0.9884
vn -0.3591 0.0033 -0.9333
vn -0.2910 -0.0545 -0.9552
vn -0.3299 -0.2122 0.9199
vn -0.1052 -0.1297 -0.9860
vn 0.6584 0.4114 -0.6302
vn 0.6504 0.4066 0.6416
vn -0.4995 -0.6935 0.5192
vn -0.5415 -0.6706 -0.5070
vn -0.0862 -0.1646 0.9826
vn -0.6919 -0.1831 -0.6984
vn -0.6796 0.2915 -0.6732
vn -0.6785 0.2763 0.6806
vn -0.7159 -0.2265 0.6604
vn -0.1643 -0.3025 0.9389
vn -0.1906 -0.3190 0.9284
vn -0.4590 -0.2730 0.8454
vn -0.2196 -0.4918 0.8426
vn -0.0487 -0.3561 0.9332
vn -0.0923 -0.3541 0.9306
vn -0.1943 -0.1802 0.9643
vn 0.0111 -0.2216 0.9751
vn -0.6266 -0.0561 0.7773
vn 0.0658 -0.3979 0.9151
vn -0.8059 -0.2515 0.5359
vn -0.5283 0.4212 -0.7372
vn -0.0750 -0.0748 -0.9944
vn -0.0421 0.1520 -0.9875
vn -0.6574 0.0407 -0.7524
vn -0.4242 -0.0613 -0.9035
vn -0.1626 -0.0662 -0.9845
vn -0.1233 -0.2664 -0.9559
vn -0.1051 -0.2174 -0.9704
vn -0.2290 -0.1992 -0.9528
vn -0.0175 -0.1120 -0.9936
vn -0.0378 0.3334 -0.9420
vn -0.0169 -0.0597 0.9981
vn -0.1603 -0.1907 0.9685
vn -0.8276 -0.2428 -0.5061
vn -0.6171 0.0372 -0.7860
vn -0.4934 0.1464 0.8574
vn -0.6668 0.1293 0.7339
vn -0.7793 -0.2128 0.5894
vn -0.8306 0.0354 0.5558
vn -0.8297 0.0602 -0.5550
vn -0.2312 0.8546 0.4649
vn -0.2326 0.8455 -0.4807
vn -0.5792 0.2823 -0.7647
vn -0.5749 0.2953 0.7631
vn 0.6288 -0.4297 0.6480
vn -0.7663 0.0921 0.6358
vn -0.7620 0.0854 -0.6419
vn 0.6264 -0.4369 -0.6456
vn -0.2104 -0.2679 -0.9402
vn -0.1883 -0.0840 -0.9785
vn -0.7056 0.5719 0.4185
vn -0.7263 0.5600 -0.3985
vn -0.4688 -0.7623 0.4461
vn -0.4835 -0.7766 -0.4039
vt 0.639844 0.555569
vt 0.713281 0.496847
vt 0.774875 0.504739
vt 0.712805 0.613152
vt 0.778859 0.210277
vt 0.867217 0.167819
vt 0.879755 0.210198
vt 0.820436 0.293353
vt 0.738636 0.684248
vt 0.760486 0.638340
vt 0.861460 0.674754
vt 0.849408 0.720432
vt 0.158508 0.088443
vt 0.108054 0.031886
vt 0.203453 0.000000
vt 0.275042 0.033985
vt 0.331510 0.941827
vt 0.296333 0.837882
vt 0.393245 0.824638
vt 0.424448 0.902968
vt 0.603242 0.759283
vt 0.616809 0.647500
vt 0.659388 0.699742
vt 0.617396 0.797717
vt 0.602385 0.587583
vt 0.678476 0.652349
vt 0.968920 0.106629
vt 0.886683 0.103678
vt 0.903727 0.050298
vt 0.974670 0.000000
vt 0.085516 0.148163
vt 0.071889 0.060344
vt 0.772737 0.000000
vt 0.872223 0.029109
vt 0.879755 0.122552
vt 0.764461 0.124071
vt 0.429391 0.143143
vt 0.359674 0.107417
vt 0.408137 0.042544
vt 0.456755 0.065757
vt 0.822430 0.529857
vt 0.882622 0.587919
vt 0.661674 0.821364
vt 0.707002 0.724895
vt 0.786149 0.738571
vt 0.703110 0.812992
vt 0.596221 0.135183
vt 0.533685 0.146146
vt 0.526640 0.069048
vt 0.565349 0.059947
vt 0.465998 0.151327
vt 0.480542 0.071075
vt 0.320012 0.078159
vt 0.293535 0.042960
vt 0.368566 0.000000
vt 0.385867 0.022892
vt 0.968203 0.154319
vt 0.885919 0.154399
vt 0.974760 0.274874
vt 0.903787 0.231660
vt 0.907681 0.689678
vt 0.998792 0.755488
vt 0.959683 0.760848
vt 0.888785 0.688041
vt 0.095995 0.162462
vt 0.070378 0.202254
vt 0.018323 0.221512
vt 0.924528 0.609617
vt 0.901831 0.609840
vt 0.287371 0.058384
vt 0.168276 0.101630
vt 0.988201 0.104662
vt 0.987427 0.155059
vt 0.000000 0.245856
vt 0.013839 0.257463
vt 0.009228 0.298390
vt 1.000000 0.257405
vt 0.999965 0.030924
vt 0.414912 0.154987
vt 0.410105 0.173605
vt 0.396428 0.144319
vt 0.066896 0.242994
vt 0.495745 0.050224
vt 0.503734 0.841127
vt 0.498062 0.932649
vt 0.458648 0.042129
vt 0.416077 0.738154
vt 0.486948 0.720327
vt 0.501896 0.808772
vt 0.391427 0.792707
vt 0.546095 0.851416
vt 0.544095 0.817004
vt 0.441140 1.000000
vt 0.963445 0.280578
vt 0.967012 0.400897
vt 0.885919 0.419866
vt 0.887642 0.339542
vt 0.293535 0.788741
vt 0.320259 0.720327
vt 0.541243 0.918545
vt 0.532712 0.752091
vt 0.968253 0.557160
vt 0.970813 0.503407
vt 0.967012 0.487360
vt 0.885942 0.476054
vt 0.836054 0.784374
vt 0.780649 0.468705
vt 0.764461 0.466928
vt 0.773509 0.449491
vt 0.782046 0.437970
vt 0.074540 0.271747
vt 0.051982 0.278102
vt 0.804651 0.411716
vt 0.829815 0.424282
vt 0.813001 0.467495
vt 0.804651 0.437176
vt 0.466332 0.165661
vt 0.427514 0.154605
vt 0.985161 0.496847
vt 0.998792 0.539995
vt 0.630288 0.842801
vt 0.602385 0.827798
vt 0.484355 0.171488
vt 0.646218 0.244878
vt 0.670848 0.253636
vt 0.636957 0.346995
vt 0.609654 0.342806
vt 0.044769 0.288130
vt 0.423420 0.179619
vt 0.867372 0.460883
vt 0.873026 0.480275
vt 0.860243 0.483618
vt 0.860243 0.456752
vt 0.764461 0.413196
vt 0.798487 0.411716
vt 0.024649 0.810460
vt 0.021924 0.831105
vt 0.000000 0.830524
vt 0.000000 0.783849
vt 0.466874 0.188954
vt 0.483157 0.188580
vt 0.498402 0.165074
vt 0.074278 0.278403
vt 0.106319 0.372962
vt 0.081577 0.383786
vt 0.552259 0.720327
vt 0.582398 0.729057
vt 0.581914 0.787381
vt 0.557557 0.780327
vt 0.723249 0.003989
vt 0.757106 0.004021
vt 0.738365 0.103988
vt 0.709497 0.099335
vt 0.688125 0.000000
vt 0.681219 0.090058
vt 0.696041 0.257533
vt 0.663225 0.347484
vt 0.055312 0.400590
vt 0.557416 0.881705
vt 0.578843 0.887869
vt 0.575742 0.953256
vt 0.552259 0.946457
vt 0.138365 0.553227
vt 0.160145 0.538943
vt 0.217907 0.629163
vt 0.194325 0.639968
vt 0.364727 0.449815
vt 0.395730 0.456433
vt 0.371276 0.565193
vt 0.337424 0.557928
vt 0.182700 0.528634
vt 0.244424 0.622819
vt 0.403486 0.278984
vt 0.438980 0.286556
vt 0.631918 0.427894
vt 0.651025 0.388630
vt 0.662720 0.401394
vt 0.649155 0.432552
vt 0.670641 0.368597
vt 0.682135 0.371851
vt 0.192808 0.661591
vt 0.213534 0.671825
vt 0.204889 0.686641
vt 0.182035 0.666342
vt 0.833391 0.317208
vt 0.861643 0.318248
vt 0.862416 0.328626
vt 0.831506 0.327415
vt 0.293535 0.688901
vt 0.350644 0.701245
vt 0.341066 0.714622
vt 0.295402 0.704822
vt 0.245282 0.714892
vt 0.229336 0.722235
vt 0.261709 0.662738
vt 0.222192 0.657005
vt 0.364079 0.609958
vt 0.323782 0.601091
vt 0.837594 0.299058
vt 0.862666 0.300742
vt 0.863145 0.312005
vt 0.834873 0.310223
vt 0.196637 0.656215
vt 0.664710 0.364073
vt 0.639394 0.375665
vt 0.602385 0.384673
vt 0.138720 0.680165
vt 0.148926 0.698975
vt 0.130241 0.694528
vt 0.122467 0.688333
vt 0.834849 0.364089
vt 0.859018 0.365150
vt 0.852957 0.380350
vt 0.833206 0.381664
vt 0.846953 0.412618
vt 0.854079 0.418867
vt 0.854014 0.450993
vt 0.843994 0.458251
vt 0.707624 0.449469
vt 0.712818 0.428740
vt 0.726005 0.447007
vt 0.735814 0.467922
vt 0.086682 0.783849
vt 0.086682 0.827246
vt 0.062394 0.813944
vt 0.063111 0.797206
vt 0.803385 0.346121
vt 0.768397 0.346154
vt 0.768939 0.326113
vt 0.812486 0.326110
vt 0.685870 0.403898
vt 0.677019 0.448041
vt 0.204609 0.740543
vt 0.183670 0.695392
vt 0.863570 0.345031
vt 0.832334 0.343404
vt 0.156334 0.667050
vt 0.706711 0.368077
vt 0.769732 0.299058
vt 0.815515 0.299058
vt 0.695675 0.407711
vt 0.700554 0.416557
vt 0.177003 0.714508
vt 0.174930 0.700488
vt 0.166291 0.696562
vt 0.706651 0.400556
vt 0.217863 0.664415
vt 0.260356 0.686606
vt 0.317708 0.623328
vt 0.359355 0.632412
vt 0.349732 0.652710
vt 0.316922 0.645504
vt 0.834135 0.313640
vt 0.862396 0.315061
vt 0.194712 0.658810
vt 0.645209 0.382147
vt 0.667660 0.366234
vt 0.609586 0.406852
vt 0.839862 0.460076
vt 0.835979 0.458593
vt 0.835979 0.412588
vt 0.842581 0.411716
vt 0.746655 0.436127
vt 0.713443 0.423637
vt 0.736835 0.420024
vt 0.747039 0.423585
vt 0.699841 0.408310
vt 0.707914 0.403327
vt 0.718866 0.401441
vt 0.714497 0.411502
vt 0.703230 0.414559
vt 0.721867 0.396241
vt 0.727737 0.375145
vt 0.754230 0.403221
vt 0.743769 0.388936
vt 0.758297 0.384750
vt 0.125422 0.715190
vt 0.153317 0.703569
vt 0.137042 0.716435
vt 0.127072 0.720993
vt 0.172079 0.703663
vt 0.172562 0.713355
vt 0.162505 0.721854
vt 0.157913 0.709412
vt 0.165523 0.701525
vt 0.130677 0.746240
vt 0.163746 0.726185
vt 0.151192 0.752440
vt 0.134265 0.753980
vt 0.174353 0.746579
vt 0.739428 0.411400
vt 0.738676 0.414642
vt 0.866555 0.411716
vt 0.875727 0.417891
vt 0.876962 0.436766
vt 0.869126 0.450873
vt 0.748831 0.440236
vt 0.748868 0.406157
vt 0.117170 0.709413
vt 0.132459 0.742955
vt 0.860243 0.451047
vt 0.860243 0.412417
vt 0.747874 0.413020
vt 0.747816 0.413357
vt 0.752520 0.419213
vt 0.100599 0.787855
vt 0.101735 0.819039
vt 0.094161 0.818480
vt 0.092846 0.788405
vt 0.595323 0.720729
vt 0.595766 0.750262
vt 0.588561 0.751828
vt 0.588561 0.720327
vt 0.105187 0.822533
vt 0.100787 0.787821
vt 0.105187 0.783849
vt 0.817947 0.405758
vt 0.772134 0.406011
vt 0.773909 0.393611
vt 0.821225 0.393484
vt 0.258637 0.761228
vt 0.277848 0.750007
vt 0.287371 0.763829
vt 0.272541 0.774286
vt 0.764461 0.379760
vt 0.825343 0.379620
vt 0.607176 0.472815
vt 0.628477 0.480956
vt 0.619279 0.491142
vt 0.602385 0.483542
vt 0.140572 0.725819
vt 0.138040 0.719961
vt 0.124380 0.728103
vt 0.131130 0.731003
vt 0.030813 0.819858
vt 0.030813 0.803732
vt 0.038990 0.803022
vt 0.040560 0.819299
vt 0.157246 0.777894
vt 0.147429 0.778144
vt 0.052433 0.783917
vt 0.056231 0.828765
vt 0.032105 0.783849
vt 0.748328 0.450207
vt 0.748301 0.379310
vt 0.756190 0.379869
vt 0.852149 0.393950
vt 0.831506 0.392205
vt 0.833358 0.387909
vt 0.850408 0.388775
vt 0.111207 0.697206
vt 0.112458 0.691896
s 1
usemtl Material.001
f 10/1/1 21/4/4 15/3/3 4/2/2
f 47/5/5 27/8/8 8/7/7 45/6/6
f 49/9/9 48/12/12 12/11/11 22/10/10
f 25/13/13 28/16/15 2/15/14 12/14/11
f 1/17/16 44/20/19 35/19/18 29/18/17
f 27/21/8 31/24/21 20/23/20 8/22/7
f 45/25/6 50/26/22 21/4/4 10/1/1
f 30/27/23 24/30/24 4/29/2 15/28/3
f 46/31/25 25/13/13 12/14/11 48/32/12
f 24/33/24 23/36/26 10/35/1 4/34/2
f 18/37/27 37/40/30 42/39/29 5/38/28
f 22/10/10 12/11/11 2/42/14 16/41/31
f 32/43/32 26/46/35 6/45/34 19/44/33
f 52/47/36 56/50/39 43/49/38 7/48/37
f 17/51/40 38/52/41 37/40/30 18/37/27
f 7/48/37 43/49/38 38/52/41 17/51/40
f 49/9/9 50/26/22 20/23/20 19/44/33
f 16/41/31 15/3/3 21/4/4 22/10/10
f 51/53/42 55/56/45 40/55/44 11/54/43
f 19/44/33 20/23/20 31/24/21 32/43/32
f 15/28/3 16/58/31 13/57/46 30/27/23
f 28/59/15 13/57/46 16/58/31 2/60/14
f 9/61/47 23/64/26 24/63/24 3/62/48
f 51/65/42 46/31/25 26/67/35 5/66/28
f 52/68/36 47/69/5 23/64/26 9/61/47
f 1/70/16 28/16/15 25/13/13 11/71/43
f 14/72/49 30/27/23 13/57/46 29/73/17
f 32/74/32 58/76/51 60/75/50 26/67/35
f 29/73/17 13/57/46 28/59/15 1/77/16
f 3/78/48 24/30/24 30/27/23 14/72/49
f 5/38/28 64/81/54 74/80/53 76/79/52
f 26/67/35 60/75/50 64/82/54 5/66/28
f 56/50/39 54/83/55 38/52/41 43/49/38
f 35/19/18 44/20/19 40/85/44 34/84/56
f 53/86/57 55/56/45 42/39/29 37/40/30
f 41/87/58 36/90/61 33/89/60 39/88/59
f 34/84/56 33/89/60 36/90/61 35/19/18
f 53/91/57 54/92/55 33/89/60 34/84/56
f 11/93/43 40/85/44 44/20/19 1/17/16
f 3/94/48 41/97/58 39/96/59 9/95/47
f 14/98/49 36/90/61 41/87/58 3/99/48
f 29/18/17 35/19/18 36/90/61 14/98/49
f 37/40/30 38/52/41 54/83/55 53/86/57
f 34/84/56 40/85/44 55/100/45 53/91/57
f 39/88/59 33/89/60 54/92/55 56/101/39
f 7/102/37 27/103/8 47/69/5 52/68/36
f 11/71/43 25/13/13 46/31/25 51/65/42
f 5/38/28 42/39/29 55/56/45 51/53/42
f 22/10/10 21/4/4 50/26/22 49/9/9
f 9/95/47 39/96/59 56/105/39 52/104/36
f 26/46/35 46/106/25 48/12/12 6/45/34
f 8/22/7 20/23/20 50/26/22 45/25/6
f 19/44/33 6/45/34 48/12/12 49/9/9
f 23/36/26 47/5/5 45/6/6 10/35/1
f 61/107/62 69/110/65 77/109/64 78/108/63
f 64/82/54 60/75/50 73/112/66 74/111/53
f 27/113/8 59/116/68 57/115/67 31/114/21
f 18/37/27 75/118/70 79/117/69 17/51/40
f 7/102/37 63/120/71 59/119/68 27/103/8
f 31/24/21 57/122/67 58/121/51 32/43/32
f 17/51/40 79/117/69 80/123/72 7/48/37
f 83/124/73 68/127/76 66/126/75 91/125/74
f 60/75/50 58/76/51 71/128/77 73/112/66
f 74/80/53 62/129/78 75/118/70 76/79/52
f 73/130/66 71/133/77 62/132/78 74/131/53
f 76/79/52 75/118/70 18/37/27 5/38/28
f 69/110/65 57/135/67 59/134/68 77/109/64
f 77/136/64 59/139/68 63/138/71 78/137/63
f 75/118/70 62/129/78 61/140/62 79/117/69
f 79/117/69 61/140/62 78/141/63 80/123/72
f 80/123/72 78/141/63 63/142/71 7/48/37
f 71/128/77 85/145/80 81/144/79 62/143/78
f 57/146/67 89/149/82 87/148/81 58/147/51
f 69/150/65 92/153/83 89/152/82 57/151/67
f 61/154/62 84/155/84 92/153/83 69/150/65
f 91/125/74 66/126/75 72/157/86 90/156/85
f 58/76/51 87/158/81 85/145/80 71/128/77
f 90/159/85 72/162/86 70/161/88 88/160/87
f 88/163/87 70/166/88 65/165/90 86/164/89
f 82/167/91 67/170/92 68/169/76 83/168/73
f 86/164/89 65/165/90 67/172/92 82/171/91
f 90/156/85 89/152/82 92/153/83 91/125/74
f 91/125/74 92/153/83 84/155/84 83/124/73
f 88/160/87 87/148/81 89/149/82 90/159/85
f 86/164/89 85/145/80 87/158/81 88/163/87
f 82/171/91 81/144/79 85/145/80 86/164/89
f 83/168/73 84/174/84 81/173/79 82/167/91
f 62/129/78 81/173/79 84/174/84 61/140/62
f 124/175/93 96/178/96 94/177/95 121/176/94
f 121/176/94 94/177/95 98/180/98 122/179/97
f 125/181/99 97/184/102 93/183/101 123/182/100
f 122/185/97 98/188/98 97/187/102 125/186/99
f 174/189/103 172/192/106 171/191/105 173/190/104
f 123/182/100 93/183/101 95/194/108 126/193/107
f 65/165/90 102/196/110 104/195/109 67/172/92
f 67/170/92 104/198/109 100/197/111 68/169/76
f 72/199/86 101/202/113 103/201/112 70/200/88
f 70/166/88 103/203/112 102/196/110 65/165/90
f 66/126/75 99/205/114 101/204/113 72/157/86
f 68/127/76 100/206/111 99/205/114 66/126/75
f 119/207/115 193/210/118 192/209/117 149/208/116
f 115/211/119 189/214/120 193/213/118 119/212/115
f 143/215/121 140/218/124 155/217/123 160/216/122
f 120/219/125 182/222/128 187/221/127 141/220/126
f 117/223/129 185/226/130 182/225/128 120/224/125
f 95/227/108 113/230/132 114/229/131 96/228/96
f 96/178/96 114/232/131 110/231/133 94/177/95
f 93/183/101 111/234/134 113/233/132 95/194/108
f 98/188/98 109/236/136 112/235/135 97/187/102
f 97/184/102 112/237/135 111/234/134 93/183/101
f 94/177/95 110/231/133 109/238/136 98/180/98
f 113/230/132 117/240/129 120/239/125 114/229/131
f 114/232/131 142/242/138 144/241/137 110/231/133
f 111/234/134 137/244/140 152/243/139 113/233/132
f 109/236/136 115/211/119 119/212/115 112/235/135
f 112/237/135 150/245/141 137/244/140 111/234/134
f 110/231/133 144/241/137 145/246/142 109/238/136
f 168/247/143 123/182/100 126/193/107 165/248/144
f 165/249/144 126/252/107 124/251/93 163/250/145
f 167/253/146 122/185/97 125/186/99 164/254/147
f 164/255/147 125/181/99 123/182/100 168/247/143
f 166/256/148 121/176/94 122/179/97 167/257/146
f 163/258/145 124/175/93 121/176/94 166/256/148
f 154/259/149 128/262/152 184/261/151 183/260/150
f 142/242/138 114/232/131 120/219/125 141/220/126
f 143/263/121 160/266/122 177/265/154 127/264/153
f 130/267/155 118/270/158 146/269/157 131/268/156
f 129/271/159 127/264/153 118/270/158 130/267/155
f 133/272/160 115/273/119 109/238/136 145/246/142
f 147/274/161 188/276/163 190/275/162 133/272/160
f 148/277/164 156/280/167 180/279/166 135/278/165
f 150/245/141 112/237/135 119/207/115 149/208/116
f 151/281/168 116/284/171 153/283/170 138/282/169
f 136/285/172 135/278/165 116/284/171 151/281/168
f 154/286/149 183/289/150 186/288/174 139/287/173
f 139/287/173 117/290/129 113/233/132 152/243/139
f 118/270/158 161/292/176 179/291/175 146/269/157
f 147/293/161 134/296/178 191/295/177 188/294/163
f 129/271/159 142/242/138 141/220/126 127/264/153
f 127/264/153 141/220/126 128/297/152 143/263/121
f 131/268/156 145/246/142 144/241/137 130/267/155
f 130/267/155 144/241/137 142/242/138 129/271/159
f 146/269/157 133/272/160 145/246/142 131/268/156
f 132/298/179 147/274/161 133/272/160 146/269/157
f 135/278/165 149/208/116 134/299/178 148/277/164
f 136/285/172 150/245/141 149/208/116 135/278/165
f 138/282/169 152/243/139 137/244/140 151/281/168
f 151/281/168 137/244/140 150/245/141 136/285/172
f 140/300/124 154/286/149 139/287/173 153/283/170
f 153/283/170 139/287/173 152/243/139 138/282/169
f 143/215/121 128/262/152 154/259/149 140/218/124
f 148/301/164 134/296/178 147/293/161 132/302/179
f 179/291/175 178/303/180 132/298/179 146/269/157
f 161/292/176 162/305/182 159/304/181 178/303/180 179/291/175
f 177/265/154 161/292/176 118/270/158 127/264/153
f 160/266/122 162/305/182 161/292/176 177/265/154
f 159/306/181 162/309/182 158/308/183 156/307/167
f 162/310/182 160/313/122 155/312/123 158/311/183
f 148/314/164 132/316/179 178/315/180 159/306/181 156/307/167
f 100/206/111 163/258/145 166/256/148 99/205/114
f 99/205/114 166/256/148 167/257/146 101/204/113
f 103/203/112 164/255/147 168/247/143 102/196/110
f 101/202/113 167/253/146 164/254/147 103/201/112
f 104/198/109 165/249/144 163/250/145 100/197/111
f 102/196/110 168/247/143 165/248/144 104/195/109
f 172/317/106 170/320/185 169/319/184 171/318/105
f 175/321/186 170/324/185 172/323/106 174/322/103
f 176/325/187 169/319/184 170/320/185 175/326/186
f 173/327/104 171/330/105 169/329/184 176/328/187
f 124/175/188 173/327/104 176/328/187 96/178/189
f 96/228/189 176/325/187 175/326/186 95/227/190
f 95/194/190 175/321/186 174/322/103 126/193/191
f 126/252/191 174/189/103 173/190/104 124/251/188
f 116/284/171 157/332/193 181/331/192 153/283/170
f 156/280/167 158/333/183 157/332/193 180/279/166
f 157/332/193 158/333/183 155/334/123 181/331/192
f 181/331/192 155/334/123 140/300/124 153/283/170
f 180/279/166 157/332/193 116/284/171 135/278/165
f 185/335/130 105/338/195 106/337/194 182/336/128
f 183/289/150 105/340/195 185/339/130 186/288/174
f 184/341/151 106/337/194 105/338/195 183/342/150
f 182/336/128 106/337/194 184/341/151 187/343/127
f 186/288/174 185/339/130 117/290/129 139/287/173
f 187/221/127 184/344/151 128/297/152 141/220/126
f 188/276/163 108/346/196 189/345/120 190/275/162
f 190/275/162 189/345/120 115/273/119 133/272/160
f 191/347/177 107/350/197 108/349/196 188/348/163
f 191/351/177 134/299/178 149/208/116 192/209/117
f 189/214/120 108/349/196 107/350/197 193/213/118
f 193/210/118 107/352/197 191/351/177 192/209/117
