# Blender 4.1.1
# www.blender.org
mtllib WoodSpoonChunk_LowPoly.mtl
o WoodSpoon_LowPoly
v 0.009844 -0.010170 -0.000044
v 0.010743 -0.013416 0.001434
v 0.014900 0.009328 -0.000743
v 0.006442 -0.002882 -0.000962
v 0.008944 0.009300 -0.001404
v 0.014539 0.010148 -0.001402
v 0.015832 0.012974 -0.000537
v 0.018396 0.026644 -0.001501
v 0.009116 0.010593 -0.002160
v 0.005780 0.010486 -0.001354
v 0.008839 0.017495 -0.002192
v 0.018315 0.030810 -0.002627
v 0.023936 0.054030 -0.003935
v 0.015872 0.050810 -0.004664
v 0.014445 0.062486 -0.005403
v 0.008370 -0.023178 0.000794
v 0.008257 0.042190 -0.003317
v 0.010240 -0.018613 0.001233
v 0.009995 -0.018192 0.005009
v 0.010422 -0.008715 0.009946
v 0.013605 0.001807 0.001166
v 0.009477 -0.017400 0.007379
v 0.011832 -0.000004 0.012998
v 0.012081 -0.000336 0.015636
v 0.009299 -0.009178 0.018236
v 0.010257 -0.002522 0.019135
v 0.006345 -0.000068 0.019267
v 0.003577 -0.015241 0.019563
v 0.011654 0.000293 0.019720
v 0.013717 0.009199 0.017675
v 0.013883 0.013367 0.018930
v 0.011349 0.006509 0.019718
v 0.006293 0.002835 0.019319
v 0.009802 0.015499 0.018708
v 0.001042 0.002356 0.017265
v 0.015101 0.014877 0.008498
v 0.017585 0.028202 0.006923
v 0.020383 0.035525 -0.001426
v 0.017247 0.030076 0.016826
v 0.014074 0.018657 0.018791
v 0.009590 0.027494 0.016695
v 0.015606 0.037899 0.016598
v 0.004503 0.023461 0.014831
v 0.003462 -0.022296 0.000052
v 0.000483 -0.015982 -0.000160
v 0.002837 -0.002323 -0.000688
v -0.003888 -0.019654 0.001055
v -0.009414 -0.024211 0.003121
v -0.005367 -0.006254 0.002513
v -0.001272 -0.003449 0.000721
v 0.002657 0.009737 -0.000405
v -0.008906 -0.012983 0.004278
v -0.002913 0.008256 0.002307
v -0.003996 0.009749 0.004650
v -0.007093 -0.001133 0.008167
v -0.004150 0.010910 0.007138
v -0.011116 -0.020591 0.006094
v -0.007408 -0.002194 0.006103
v -0.010712 -0.017521 0.007396
v -0.008486 -0.013561 0.010862
v 0.000118 -0.014569 0.018196
v -0.000233 0.001240 0.015999
v -0.004738 -0.019093 0.015812
v -0.002962 0.001995 0.013748
v -0.010803 -0.027057 0.011002
v -0.005236 0.000049 0.011322
v -0.001437 0.004136 0.015076
v 0.000563 0.021279 0.011844
v 0.002269 0.012102 -0.001069
v 0.003812 0.019445 -0.001119
v -0.001137 0.013324 0.000872
v 0.000693 0.020379 0.000456
v -0.001634 0.020645 0.003546
v -0.001988 0.020175 0.007489
v 0.003522 0.034879 -0.001084
v 0.004090 0.052298 0.002226
v 0.003206 0.038534 0.009399
v 0.003397 0.048023 0.004200
v 0.005400 0.056081 -0.000059
v -0.001263 0.017707 0.010809
v 0.006647 0.042087 0.012003
v 0.026750 0.066846 -0.004573
v 0.024779 0.062005 0.002436
v 0.024492 0.066558 -0.005648
v 0.028702 0.074715 -0.005428
v 0.029387 0.084606 -0.007213
v 0.028631 0.076982 -0.000112
v 0.030215 0.083682 -0.006328
v 0.030016 0.085107 -0.003389
v 0.024854 0.076532 -0.006826
v 0.030194 0.085675 0.002274
v 0.011487 0.062410 -0.004536
v 0.016986 0.074777 -0.006871
v 0.025893 0.089516 -0.008556
v 0.017533 0.082754 -0.008267
v 0.012933 0.078762 -0.007159
v 0.009038 0.063997 -0.003423
v 0.011450 0.073582 -0.005582
v 0.008962 0.074953 -0.004206
v 0.009349 0.081886 -0.006190
v 0.007087 0.088078 -0.007508
v 0.011013 0.088953 -0.009512
v 0.020495 0.048101 0.015405
v 0.018734 0.054736 0.014465
v 0.013535 0.053298 0.013318
v 0.008634 0.041667 0.013473
v 0.016792 0.061458 0.012560
v 0.013124 0.060825 0.011346
v 0.010792 0.060721 0.010037
v 0.006402 0.053905 0.007765
v 0.028241 0.076431 0.010753
v 0.024712 0.062688 0.012924
v 0.027019 0.074802 0.011713
v 0.021249 0.075245 0.010670
v 0.029731 0.088523 0.009620
v 0.010280 0.070367 0.007541
v 0.013833 0.082997 0.007716
v 0.010229 0.080223 0.005722
v 0.024362 0.066862 0.013110
v 0.016468 0.072863 0.010469
v 0.017074 0.084919 0.008690
v 0.007311 0.060209 -0.002165
v 0.007685 0.071157 -0.000829
v 0.007930 0.071375 0.004329
v 0.007545 0.072327 0.001980
v 0.008318 0.081604 -0.004469
v 0.007645 0.079550 -0.001506
v 0.007756 0.079641 0.003046
v 0.006388 0.085262 -0.001757
v 0.006874 0.084055 0.001097
v 0.006838 0.087236 0.003359
v 0.009394 0.086650 0.005064
v 0.003310 -0.099746 -0.013026
v 0.001079 -0.100126 -0.013848
v 0.004809 -0.097625 -0.012871
v 0.001166 -0.096837 -0.014505
v 0.004834 -0.095677 -0.012286
v 0.005004 -0.093937 -0.013429
v 0.005061 -0.083693 -0.009272
v -0.002767 -0.102548 -0.011493
v -0.000619 -0.099950 -0.013187
v -0.004497 -0.102527 -0.012900
v -0.003852 -0.099004 -0.010042
v -0.007870 -0.099745 -0.010287
v -0.000791 -0.091984 -0.013136
v -0.002498 -0.094127 -0.010851
v -0.001475 -0.088060 -0.011544
v -0.007783 -0.102677 -0.011777
v -0.009696 -0.103678 -0.009639
v -0.013594 -0.107629 -0.000217
v 0.001552 -0.102673 -0.000411
v -0.005257 -0.105505 0.000877
v 0.001296 -0.104563 0.007842
v -0.005162 -0.095024 -0.008206
v -0.002069 -0.090347 -0.006686
v -0.004262 -0.093744 -0.004625
v -0.010970 -0.095843 -0.006204
v -0.002537 -0.086290 -0.004161
v 0.003045 -0.101450 0.000088
v 0.002443 -0.097059 0.005802
v -0.011798 -0.105496 -0.008021
v -0.012535 -0.104418 -0.008921
v -0.016876 -0.107153 -0.009362
v -0.018464 -0.106317 -0.009333
v -0.017786 -0.109534 -0.000156
v -0.018769 -0.101801 -0.006384
v -0.018934 -0.107901 0.002705
v -0.019174 -0.103580 -0.005514
v -0.016014 -0.109116 0.002734
v -0.019874 -0.098505 0.002009
v -0.008645 -0.095770 -0.008450
v -0.013311 -0.102173 -0.007409
v -0.010745 -0.094446 -0.004599
v -0.006918 -0.084552 -0.003376
v -0.014233 -0.096223 -0.004799
v -0.019533 -0.094788 -0.003505
v -0.013669 -0.083401 -0.001809
v -0.000301 -0.083708 -0.010565
v 0.003901 -0.082897 -0.009927
v 0.000702 -0.082431 -0.009218
v 0.004079 -0.083849 -0.002546
v 0.002878 -0.083009 -0.003232
v -0.001218 -0.082848 -0.004692
v 0.004091 -0.080943 -0.000563
v 0.003817 -0.079532 -0.001308
v -0.003709 -0.081739 -0.003298
v -0.007088 -0.074289 -0.001629
v 0.004863 -0.064134 0.000883
v 0.003741 -0.064160 -0.000055
v 0.003430 -0.074208 0.008833
v 0.002815 -0.084298 0.009036
v -0.000834 -0.063428 -0.000866
v -0.006687 -0.060251 0.000058
v -0.011941 -0.074014 -0.000467
v 0.003618 -0.084755 0.012094
v 0.003091 -0.076332 0.012495
v 0.002908 -0.083137 0.013770
v 0.001999 -0.103527 0.009154
v -0.001140 -0.105597 0.009985
v -0.005369 -0.107579 0.012012
v -0.011672 -0.108124 0.007095
v -0.005727 -0.105604 0.013444
v -0.004134 -0.101626 0.012000
v -0.011886 -0.105013 0.010870
v -0.008625 -0.103759 0.013346
v 0.001643 -0.096941 0.011726
v -0.000807 -0.097971 0.011679
v -0.002143 -0.093118 0.012817
v 0.001187 -0.093315 0.014112
v 0.001947 -0.086831 0.013105
v -0.009006 -0.101195 0.009353
v -0.003412 -0.085897 0.013999
v -0.012820 -0.102605 0.011001
v -0.015420 -0.095923 0.009112
v -0.015411 -0.108338 0.006355
v -0.017492 -0.105278 0.006496
v -0.019822 -0.102285 0.006580
v -0.016396 -0.104020 0.009663
v -0.017623 -0.102495 0.007992
v -0.021215 -0.093858 0.006015
v -0.015124 -0.101158 0.008551
v -0.020542 -0.095590 0.006994
v 0.003156 -0.085692 0.004367
v 0.000180 -0.085392 0.014263
v -0.005431 -0.079552 0.014405
v -0.003185 -0.075855 0.015280
v 0.000068 -0.075241 0.015686
v 0.003385 -0.066150 0.012106
v 0.001318 -0.071287 0.014738
v 0.000497 -0.069673 0.016105
v 0.003544 -0.064484 0.014321
v 0.001843 -0.066135 0.014992
v -0.022020 -0.087028 0.000090
v -0.017846 -0.075833 0.001826
v -0.017686 -0.081499 0.008683
v -0.009955 -0.075813 0.012913
v -0.022567 -0.085250 0.006003
v -0.019430 -0.073053 0.007040
v -0.019654 -0.075503 0.003162
v -0.011635 -0.059271 0.001737
v -0.015911 -0.059399 0.004067
v -0.013607 -0.065111 0.010708
v -0.019640 -0.072910 0.005079
v -0.015907 -0.058587 0.008724
v -0.015856 -0.054394 0.008039
v 0.000323 -0.061283 0.016840
v -0.001287 -0.060169 0.017349
v 0.005379 -0.053830 0.001515
v 0.004030 -0.054289 0.000620
v -0.000502 -0.051647 0.000155
v 0.006020 -0.037593 0.001330
v 0.006445 -0.041922 0.002123
v 0.002031 -0.039704 0.000641
v 0.003704 -0.059305 0.015191
v 0.002063 -0.057557 0.017975
v 0.003773 -0.056348 0.017874
v 0.004557 -0.047141 0.017571
v 0.002928 -0.046094 0.018848
v 0.004559 -0.044096 0.018751
v 0.006979 -0.029912 0.011462
v 0.007489 -0.021221 0.019540
v 0.008967 -0.024386 0.002014
v 0.007223 -0.015875 0.020242
v 0.001317 -0.026191 0.019156
v -0.004709 -0.043504 0.000907
v -0.002583 -0.037370 0.000634
v -0.013890 -0.051250 0.003794
v -0.009517 -0.045692 0.002298
v -0.016209 -0.055528 0.006089
v -0.011433 -0.029503 0.004099
v -0.002512 -0.043382 0.017737
v -0.006342 -0.050682 0.015682
v -0.005953 -0.037091 0.016341
v -0.009168 -0.030451 0.013312
v -0.022959 -0.083233 0.003868
v 0.030320 0.093184 -0.007548
v 0.027823 0.105686 -0.009784
v 0.030325 0.094190 0.000727
v 0.029705 0.099653 -0.008140
v 0.028394 0.105063 -0.003856
v 0.029555 0.101147 0.000197
v 0.025661 0.110200 -0.010274
v 0.026596 0.108252 0.006291
v 0.021426 0.090362 -0.009536
v 0.022180 0.102142 -0.011718
v 0.016475 0.090737 -0.010755
v 0.018686 0.097575 -0.011983
v 0.017828 0.106964 -0.013215
v 0.023462 0.110851 -0.011542
v 0.024559 0.111223 0.005632
v 0.019407 0.116811 0.003544
v 0.019261 0.116997 -0.012537
v 0.016827 0.119070 -0.011088
v 0.017020 0.120709 -0.010915
v 0.020037 0.128399 -0.012557
v 0.019527 0.129154 -0.013759
v 0.016274 0.120959 -0.000034
v 0.012912 0.092999 -0.011094
v 0.007453 0.093179 -0.010932
v 0.005911 0.098137 -0.012932
v 0.004810 0.090906 -0.008705
v 0.002412 0.094073 -0.011240
v 0.001667 0.092113 -0.008960
v 0.002682 0.105636 -0.015194
v 0.006134 0.111512 -0.015457
v -0.005582 0.100335 -0.014910
v -0.003784 0.092550 -0.011558
v -0.000910 0.092552 -0.009284
v -0.004333 0.091381 -0.010199
v -0.009502 0.090335 -0.010505
v -0.011843 0.097141 -0.013504
v -0.006195 0.103599 -0.015518
v -0.004533 0.109981 -0.016555
v -0.005151 0.106530 -0.015437
v -0.010606 0.105531 -0.013466
v -0.011534 0.103144 -0.014154
v -0.010456 0.108430 -0.013906
v 0.007668 0.115757 -0.015543
v 0.001634 0.118205 -0.015777
v 0.009913 0.121916 -0.011453
v 0.008949 0.118988 -0.014020
v 0.008921 0.121887 -0.010974
v 0.001034 0.119962 -0.015034
v 0.004654 0.120550 -0.013019
v 0.006994 0.120393 -0.010484
v 0.002192 0.121962 -0.013041
v 0.004195 0.121055 -0.006523
v 0.011507 0.130489 -0.013893
v 0.021620 0.140969 -0.017975
v 0.017962 0.140981 -0.017907
v 0.017607 0.143003 -0.017800
v 0.009809 0.128711 -0.005710
v -0.009051 0.115306 -0.016168
v -0.005393 0.118711 -0.015043
v -0.005602 0.122855 -0.011810
v 0.000485 0.124159 -0.007970
v 0.028992 0.089611 0.009724
v 0.024791 0.096464 0.008571
v 0.029190 0.100235 0.007404
v 0.015011 0.093724 0.007204
v 0.011502 0.089796 0.006125
v 0.011895 0.106737 0.005861
v 0.020291 0.106851 0.006713
v 0.011078 0.098564 0.006142
v 0.016201 0.118843 0.003545
v 0.011781 0.111323 0.005247
v 0.009098 0.115689 0.003967
v 0.015804 0.119919 0.000444
v 0.022146 0.136424 0.002912
v 0.017131 0.127504 0.001639
v 0.007934 0.123600 -0.000310
v 0.004174 0.090194 -0.004337
v 0.003835 0.091171 0.001491
v 0.000694 0.093773 0.002325
v 0.003801 0.092700 0.003420
v 0.008226 0.094428 0.005365
v 0.004161 0.095831 0.004450
v 0.005335 0.099282 0.005379
v -0.001461 0.094429 0.003239
v -0.005109 0.093851 0.003216
v -0.008014 0.089797 -0.007823
v -0.010724 0.089386 -0.007813
v -0.010926 0.089628 -0.002499
v -0.009074 0.091284 0.002008
v -0.007854 0.098947 0.004325
v -0.000472 0.101093 0.004810
v 0.000414 0.108444 0.004377
v -0.013302 0.093831 0.001692
v -0.007753 0.101818 0.004660
v -0.010724 0.105340 0.003975
v -0.008091 0.110202 0.003551
v -0.019641 0.103218 0.002274
v -0.018524 0.104893 0.000586
v -0.011500 0.106945 0.002231
v -0.011060 0.112847 0.001708
v 0.006892 0.120145 -0.006293
v 0.006873 0.121375 -0.002236
v 0.005167 0.120722 -0.000908
v 0.007906 0.121308 0.000108
v 0.005934 0.119839 0.002476
v 0.002354 0.122107 0.000284
v -0.002386 0.120397 0.002090
v -0.000758 0.123098 0.000297
v 0.009157 0.129702 0.000288
v 0.012808 0.138637 0.002636
v -0.009749 0.120367 0.000356
v -0.005056 0.123257 -0.001842
v -0.015251 0.122756 -0.001872
v -0.005630 0.124162 -0.008677
v -0.000371 0.124607 -0.003202
v -0.005546 0.124347 -0.005982
v -0.012690 0.125819 -0.007785
v -0.011508 0.124509 -0.004419
v -0.005297 0.116797 0.002872
v -0.012242 0.116695 0.001901
v 0.024475 0.141505 -0.006593
v 0.023853 0.138241 -0.016602
v 0.026076 0.147600 -0.011642
v 0.023755 0.141017 -0.016957
v 0.024696 0.148583 -0.012465
v 0.020831 0.149229 -0.013563
v 0.019571 0.148426 -0.013543
v 0.025313 0.148891 -0.002035
v 0.025742 0.147492 -0.000482
v 0.020296 0.150069 -0.010077
v 0.014352 0.139921 -0.005238
v 0.018520 0.149783 -0.003430
v 0.023025 0.141680 0.005221
v 0.023864 0.141861 0.004680
v 0.024606 0.148268 0.001254
v 0.015452 0.141567 0.003994
v 0.014980 0.144680 0.003513
v 0.020518 0.149469 0.000741
v 0.018323 0.149003 0.000877
v -0.023320 0.096380 -0.012130
v -0.022981 0.099717 -0.013708
v -0.013987 0.102792 -0.013679
v -0.014547 0.107334 -0.013987
v -0.015611 0.105073 -0.014399
v -0.017239 0.109804 -0.014222
v -0.013888 0.110890 -0.015182
v -0.022094 0.101964 -0.013215
v -0.021099 0.106121 -0.013388
v -0.021382 0.104689 -0.013959
v -0.011550 0.112134 -0.016115
v -0.019857 0.116279 -0.016848
v -0.015585 0.120055 -0.015916
v -0.011265 0.122811 -0.013112
v -0.020319 0.110526 -0.013775
v -0.020211 0.111560 -0.014818
v -0.020989 0.114910 -0.015571
v -0.025189 0.113573 -0.016159
v -0.023997 0.124009 -0.017248
v -0.018648 0.123728 -0.015554
v -0.025598 0.127957 -0.016667
v -0.026084 0.118173 -0.017325
v -0.026353 0.122812 -0.017115
v -0.018812 0.092142 -0.009013
v -0.015715 0.091400 -0.004093
v -0.020487 0.092115 -0.007829
v -0.023232 0.093860 -0.010084
v -0.017779 0.092952 -0.001103
v -0.019552 0.094954 0.000403
v -0.029863 0.092533 -0.008731
v -0.028715 0.093555 -0.001479
v -0.022594 0.108139 -0.014432
v -0.029669 0.094574 -0.011436
v -0.028509 0.097999 -0.013088
v -0.031323 0.094237 -0.007343
v -0.031753 0.095368 -0.004006
v -0.031321 0.093631 -0.003091
v -0.024998 0.103920 -0.014784
v -0.026821 0.103843 -0.013352
v -0.024905 0.106388 -0.012984
v -0.025077 0.111788 -0.013469
v -0.026861 0.109630 -0.013872
v -0.027851 0.108808 -0.011231
v -0.026415 0.106907 -0.010856
v -0.027457 0.108135 -0.004845
v -0.028838 0.111983 -0.003981
v -0.028597 0.109233 -0.007214
v -0.030666 0.096579 -0.001146
v -0.026452 0.109625 -0.002861
v -0.020572 0.097814 0.001588
v -0.030072 0.095867 0.000497
v -0.016281 0.109697 0.001803
v -0.015964 0.114500 0.000505
v -0.017921 0.110194 0.000887
v -0.020329 0.109214 -0.000638
v -0.027223 0.103488 0.000685
v -0.021968 0.107530 -0.000177
v -0.027878 0.106956 0.000152
v -0.027276 0.113371 -0.001603
v -0.029838 0.101119 0.000682
v -0.011723 0.124370 -0.011695
v -0.017303 0.126886 -0.012969
v -0.018685 0.129346 -0.008469
v -0.023267 0.129859 -0.015042
v -0.022241 0.132114 -0.011693
v -0.017042 0.127027 -0.005312
v -0.020240 0.125537 -0.003267
v -0.023469 0.132274 -0.006898
v -0.026534 0.125532 -0.002251
v -0.025891 0.131116 -0.005014
v -0.023901 0.133548 -0.008896
v -0.027093 0.117564 -0.009843
v -0.026589 0.114347 -0.004248
v -0.027386 0.124614 -0.009132
v -0.027918 0.120209 -0.000786
v -0.027518 0.117640 -0.000633
v -0.026789 0.129873 -0.006841
v -0.024215 0.132593 -0.013533
v -0.025692 0.132267 -0.009119
v -0.017409 0.119689 -0.000649
v -0.018886 0.113319 -0.000161
v -0.025727 0.115292 -0.002378
v -0.023940 0.116169 -0.000782
v -0.021643 0.122420 -0.001719
v 0.019915 0.038346 0.006062
v 0.021125 0.046683 0.014148
v 0.003277 -0.091711 0.001083
v 0.002178 -0.094698 0.006873
vn 0.3756 -0.1212 -0.9188
vn 0.7959 -0.3111 -0.5193
vn 0.9539 -0.1100 -0.2793
vn 0.0162 -0.0391 -0.9991
vn 0.0005 -0.2601 -0.9656
vn 0.3930 -0.3023 -0.8685
vn 0.9495 -0.2171 -0.2267
vn 0.9282 -0.2033 -0.3117
vn -0.0453 -0.2460 -0.9682
vn -0.1793 -0.0847 -0.9801
vn -0.0837 -0.0443 -0.9955
vn 0.3691 -0.1463 -0.9178
vn 0.6199 -0.1518 -0.7699
vn 0.0128 -0.0808 -0.9966
vn -0.1577 -0.0580 -0.9858
vn -0.3141 -0.0169 -0.9493
vn 0.8750 -0.1585 -0.4575
vn 0.9623 -0.1982 0.1862
vn 0.9780 -0.1671 0.1251
vn 0.9844 -0.1719 0.0367
vn 0.9665 -0.1772 0.1859
vn 0.9808 -0.1797 0.0759
vn 0.8682 -0.4951 -0.0349
vn 0.9684 -0.2476 0.0312
vn 0.8224 -0.1297 0.5539
vn 0.9846 -0.1532 0.0849
vn 0.6120 -0.2239 0.7585
vn 0.2287 -0.0254 0.9732
vn -0.2159 -0.0006 0.9764
vn -0.2678 0.0435 0.9625
vn 0.9688 -0.1601 0.1890
vn 0.5980 -0.2548 0.7599
vn 0.5724 -0.0406 0.8190
vn 0.0590 0.0433 0.9973
vn -0.2457 0.0450 0.9683
vn -0.2103 0.1158 0.9708
vn -0.5109 -0.0707 0.8567
vn 0.9757 -0.1948 0.1002
vn 0.9775 -0.2084 -0.0328
vn 0.8916 -0.1387 0.4311
vn 0.2111 0.0542 0.9760
vn -0.3557 0.1637 0.9202
vn -0.1332 0.1405 0.9811
vn -0.5602 0.1856 0.8073
vn -0.4802 0.1889 0.8566
vn 0.4803 -0.1465 -0.8648
vn 0.0655 -0.0518 -0.9965
vn -0.1543 -0.0172 -0.9879
vn -0.1949 0.0104 -0.9808
vn -0.3324 0.0272 -0.9428
vn -0.5115 0.0671 -0.8567
vn -0.5004 0.0699 -0.8630
vn -0.3831 0.0403 -0.9228
vn -0.3478 -0.1239 -0.9294
vn -0.7929 0.1521 -0.5901
vn -0.6850 0.0971 -0.7220
vn -0.9534 0.1495 -0.2622
vn -0.9543 0.2162 -0.2063
vn -0.9210 0.1962 -0.3365
vn -0.9753 0.1823 0.1248
vn -0.8303 0.1588 0.5342
vn -0.9450 0.2220 0.2401
vn -0.9683 0.2221 -0.1140
vn -0.4340 0.0796 0.8974
vn -0.5766 -0.0266 0.8166
vn -0.6042 0.0968 0.7910
vn -0.8409 0.1280 0.5259
vn -0.7316 0.1418 0.6668
vn -0.8335 0.1971 0.5161
vn -0.6906 0.1413 0.7093
vn -0.7672 0.2185 0.6030
vn -0.3484 -0.1276 -0.9286
vn -0.3242 0.0040 -0.9460
vn -0.6577 0.0429 -0.7521
vn -0.6336 0.0828 -0.7693
vn -0.8977 0.1503 -0.4142
vn -0.9164 0.2281 0.3288
vn -0.6317 0.0492 -0.7737
vn -0.9786 0.1756 -0.1072
vn -0.8233 0.2163 0.5248
vn -0.9461 0.2117 0.2452
vn -0.8876 0.1154 -0.4459
vn -0.7760 0.1796 0.6046
vn -0.6417 0.2082 0.7382
vn 0.8560 -0.2449 -0.4552
vn 0.9735 -0.2167 0.0726
vn 0.2712 -0.1464 -0.9513
vn 0.8483 -0.2380 -0.4729
vn 0.4409 -0.1336 -0.8876
vn 0.9744 -0.2137 0.0694
vn 0.9241 -0.1417 -0.3550
vn 0.9973 -0.0680 0.0278
vn 0.9958 -0.0845 0.0345
vn 0.0854 -0.1248 -0.9885
vn -0.3695 -0.0419 -0.9283
vn -0.0571 -0.1489 -0.9872
vn 0.1957 -0.1494 -0.9692
vn 0.0699 -0.2310 -0.9704
vn -0.2602 -0.2276 -0.9384
vn -0.4735 -0.0758 -0.8775
vn -0.3753 -0.1144 -0.9198
vn -0.7357 -0.0989 -0.6700
vn -0.6478 -0.3059 -0.6976
vn -0.6009 -0.5009 -0.6229
vn -0.2089 -0.3392 -0.9172
vn 0.1457 0.1068 0.9835
vn -0.1540 0.1618 0.9747
vn 0.4481 0.0025 0.8940
vn -0.3612 0.1933 0.9122
vn -0.2709 0.1906 0.9436
vn -0.4223 0.1923 0.8858
vn -0.5635 0.1874 0.8045
vn -0.7944 0.2006 0.5733
vn 0.8838 -0.1078 0.4553
vn 0.8464 -0.1314 0.5161
vn 0.2885 0.0765 0.9544
vn 0.1650 0.1495 0.9749
vn -0.1334 0.1664 0.9770
vn 0.7705 0.0343 0.6365
vn -0.6708 0.1564 0.7250
vn -0.4315 0.1066 0.8958
vn -0.6473 0.0698 0.7590
vn -0.2538 0.1687 0.9524
vn -0.2743 0.1321 0.9525
vn -0.6904 0.0508 -0.7217
vn -0.9747 0.0681 -0.2127
vn -0.8929 0.1297 0.4311
vn -0.9960 0.0665 0.0592
vn -0.8860 -0.2087 -0.4140
vn -0.9877 -0.0886 -0.1289
vn -0.9214 -0.0277 0.3876
vn -0.9291 -0.3477 -0.1257
vn -0.9631 -0.2376 0.1265
vn -0.6494 -0.2290 0.7252
vn -0.5480 0.0122 0.8364
vn 0.5813 -0.6158 -0.5319
vn 0.0767 -0.5308 -0.8440
vn 0.8452 -0.1534 -0.5120
vn 0.9068 -0.4216 0.0056
vn -0.0748 -0.0160 -0.9971
vn 0.9530 -0.1181 -0.2791
vn 0.7411 0.0075 -0.6713
vn 0.8745 0.4415 -0.2009
vn 0.3164 -0.8843 -0.3433
vn -0.4673 -0.0762 -0.8808
vn -0.0248 -0.3548 -0.9346
vn -0.3929 0.3987 -0.8287
vn -0.4204 0.3815 -0.8232
vn -0.4544 0.1824 -0.8719
vn -0.8416 0.1857 -0.5071
vn -0.7920 0.2552 -0.5546
vn -0.5181 -0.0229 -0.8550
vn -0.4792 -0.2386 -0.8446
vn 0.2956 -0.9408 -0.1660
vn 0.3397 -0.9278 -0.1542
vn 0.5946 -0.8040 -0.0009
vn 0.5072 -0.8493 -0.1465
vn -0.3967 0.7323 -0.5535
vn -0.9307 0.2365 -0.2790
vn -0.4604 0.5551 -0.6928
vn -0.3888 0.6070 -0.6931
vn -0.5329 0.1758 -0.8277
vn 0.9901 -0.0440 0.1336
vn 0.9901 0.0020 0.1404
vn 0.2392 -0.8408 -0.4856
vn -0.0326 -0.0012 -0.9995
vn -0.0029 -0.6547 -0.7559
vn -0.6368 -0.1758 -0.7508
vn -0.3249 -0.9435 -0.0650
vn -0.7688 -0.5688 0.2924
vn -0.9888 -0.0445 -0.1424
vn -0.0297 -0.9850 0.1701
vn -0.9878 -0.1162 -0.1032
vn -0.3712 0.6579 -0.6553
vn -0.2516 0.4178 -0.8730
vn -0.1302 0.4709 -0.8725
vn -0.6478 0.2928 -0.7033
vn -0.1439 0.1553 -0.9773
vn -0.2120 0.3463 -0.9139
vn -0.7165 0.1209 -0.6871
vn -0.2587 0.2214 -0.9402
vn -0.5079 0.5387 -0.6722
vn 0.3686 0.7638 -0.5299
vn -0.2108 0.9353 -0.2842
vn 0.9804 0.1918 -0.0457
vn 0.4099 0.7927 -0.4513
vn -0.3904 0.7845 -0.4819
vn 0.9997 -0.0072 -0.0247
vn 0.6858 0.1330 -0.7156
vn -0.0746 0.2295 -0.9704
vn -0.1764 0.1489 -0.9730
vn 0.9320 -0.0096 -0.3623
vn 0.4252 0.0634 -0.9029
vn 0.9956 -0.0331 0.0882
vn 0.9870 -0.1586 -0.0245
vn 0.0467 0.0952 -0.9944
vn -0.2043 0.1014 -0.9736
vn -0.3125 0.1603 -0.9363
vn 0.9430 0.0453 0.3296
vn 0.6535 -0.0838 0.7523
vn 0.9286 -0.3579 0.0977
vn 0.5195 -0.7249 0.4525
vn 0.7936 -0.3835 0.4724
vn 0.1728 -0.8614 0.4776
vn 0.0452 -0.9715 0.2327
vn 0.1282 -0.2702 0.9542
vn 0.0991 0.1040 0.9896
vn -0.3776 -0.5086 0.7737
vn -0.2686 0.1197 0.9558
vn 0.6874 -0.2353 0.6871
vn 0.2052 -0.2288 0.9516
vn -0.2516 -0.2386 0.9380
vn 0.3927 -0.3040 0.8680
vn 0.8226 -0.1740 0.5414
vn -0.2516 0.4245 0.8698
vn -0.3162 0.4240 0.8487
vn -0.1754 -0.1220 0.9769
vn -0.3053 -0.1214 0.9445
vn -0.4044 -0.8127 0.4195
vn -0.6796 -0.5089 0.5283
vn -0.8350 -0.2176 0.5054
vn -0.6113 -0.1387 0.7792
vn -0.6198 0.1606 0.7682
vn -0.9772 -0.1691 0.1288
vn -0.3294 0.2516 0.9101
vn -0.6900 -0.1020 0.7166
vn 0.9907 -0.0723 0.1156
vn 0.1673 -0.0852 0.9822
vn -0.2549 -0.1079 0.9609
vn -0.1255 -0.1307 0.9834
vn 0.2315 -0.0993 0.9678
vn 0.9607 -0.1345 0.2429
vn 0.7887 -0.0389 0.6136
vn 0.4646 -0.1133 0.8782
vn 0.8645 -0.2325 0.4457
vn 0.7458 -0.2012 0.6351
vn -0.8124 0.0777 -0.5779
vn -0.4642 0.2236 -0.8570
vn -0.4262 -0.0353 0.9039
vn -0.4975 0.0186 0.8672
vn -0.8531 -0.0285 0.5210
vn -0.8344 0.1508 0.5302
vn -0.3873 0.1221 -0.9138
vn -0.7331 0.2847 -0.6176
vn -0.6943 0.1679 -0.6998
vn -0.5614 0.0147 0.8274
vn -0.9618 0.2507 -0.1098
vn -0.7011 0.0675 0.7098
vn -0.9361 0.1300 0.3269
vn 0.3662 -0.2116 0.9062
vn -0.1625 -0.1194 0.9795
vn 0.9039 -0.0501 -0.4249
vn 0.3505 0.0360 -0.9359
vn 0.0476 0.0581 -0.9972
vn 0.3493 -0.0673 -0.9346
vn 0.9524 -0.0844 -0.2930
vn 0.0894 0.0041 -0.9960
vn 0.8877 -0.2304 0.3986
vn 0.8789 -0.1209 0.4614
vn 0.7010 -0.2296 0.6752
vn 0.1157 -0.1126 0.9869
vn 0.6185 -0.1469 0.7719
vn 0.9598 -0.1758 -0.2188
vn 0.9866 -0.1333 0.0944
vn -0.2733 0.0031 0.9619
vn -0.2226 0.0375 -0.9742
vn -0.0934 0.0010 -0.9956
vn -0.3530 0.0678 -0.9332
vn -0.3874 0.0733 -0.9190
vn -0.9720 0.1632 -0.1689
vn -0.7296 0.0908 -0.6779
vn 0.2049 -0.3127 0.9275
vn -0.4638 -0.0360 0.8852
vn -0.3226 -0.0305 0.9461
vn -0.5158 0.0189 0.8565
vn -0.6879 0.0749 0.7220
vn -0.9830 0.1621 -0.0868
vn 0.8501 -0.0269 -0.5259
vn 0.7842 0.1930 -0.5897
vn 0.9981 0.0486 0.0366
vn 0.9060 0.1046 -0.4102
vn 0.9305 0.3663 -0.0082
vn 0.9744 0.2216 0.0375
vn 0.7754 0.4515 -0.4414
vn 0.6258 0.4355 0.6471
vn 0.1963 -0.2291 -0.9534
vn 0.3031 -0.1006 -0.9476
vn 0.0541 -0.2498 -0.9668
vn 0.1896 -0.1883 -0.9636
vn 0.2207 -0.0502 -0.9740
vn 0.4172 0.1064 -0.9025
vn 0.5609 0.5400 -0.6275
vn 0.5872 0.7283 0.3533
vn 0.5221 0.5709 0.6336
vn 0.7441 -0.2690 -0.6115
vn 0.6454 0.5889 0.4864
vn 0.6554 0.6166 -0.4361
vn 0.3662 -0.4296 -0.8254
vn 0.8747 -0.4133 -0.2532
vn 0.9167 -0.3318 0.2225
vn -0.0225 -0.2865 -0.9578
vn -0.0918 -0.4605 -0.8829
vn 0.0583 -0.3185 -0.9461
vn 0.0689 -0.5932 -0.8021
vn -0.3410 -0.7487 -0.5685
vn 0.1090 -0.1719 -0.9791
vn 0.1169 -0.0704 -0.9906
vn 0.0258 -0.2803 -0.9596
vn 0.1547 -0.6265 -0.7639
vn -0.2031 -0.9306 -0.3045
vn -0.0190 -0.9889 0.1476
vn 0.3272 -0.9067 -0.2660
vn -0.0031 -0.7693 -0.6389
vn -0.0476 -0.3754 -0.9257
vn -0.1278 -0.0257 -0.9915
vn -0.0675 -0.1167 -0.9909
vn -0.8919 0.1466 -0.4278
vn -0.0989 0.0974 -0.9903
vn -0.1697 0.4461 -0.8788
vn -0.1524 -0.3162 -0.9364
vn 0.1520 0.1336 -0.9793
vn 0.0686 0.2536 -0.9649
vn -0.1659 0.2167 -0.9620
vn 0.1267 0.5909 -0.7968
vn -0.7359 0.4723 -0.4851
vn 0.0469 0.5586 -0.8281
vn 0.3013 0.8875 -0.3486
vn -0.2456 0.9608 -0.1283
vn 0.3029 0.8197 -0.4861
vn 0.4482 0.8921 -0.0567
vn -0.7406 0.0817 -0.6669
vn 0.2121 0.0731 -0.9745
vn -0.2063 -0.1090 -0.9724
vn -0.9466 0.2921 -0.1365
vn 0.0314 0.1130 -0.9931
vn -0.0016 0.4676 -0.8839
vn 0.0939 0.8022 -0.5896
vn 0.3401 0.9276 -0.1548
vn -0.0578 0.1455 0.9877
vn 0.7588 0.2363 0.6069
vn -0.2265 0.0586 0.9722
vn -0.3946 -0.0056 0.9188
vn -0.1258 0.1043 0.9866
vn -0.0403 0.1869 0.9816
vn -0.1803 0.0125 0.9835
vn 0.2189 0.6958 0.6841
vn -0.0888 0.1892 0.9779
vn -0.0741 0.2436 0.9670
vn 0.8626 -0.3774 0.3369
vn -0.0667 -0.1956 0.9784
vn -0.7688 0.1881 0.6112
vn -0.7359 -0.6704 -0.0955
vn -0.7798 -0.5840 0.2258
vn -0.3709 -0.9236 0.0972
vn -0.2826 -0.1215 0.9515
vn -0.4201 -0.4476 0.7895
vn -0.1810 -0.2498 0.9512
vn -0.1486 -0.1644 0.9751
vn 0.0307 -0.9417 0.3350
vn 0.1090 -0.6758 0.7290
vn 0.3059 -0.9514 -0.0357
vn -0.0996 -0.9839 -0.1486
vn -0.0479 -0.9738 0.2222
vn 0.0534 -0.7535 0.6552
vn -0.1309 -0.1789 0.9751
vn -0.0689 0.0460 0.9966
vn -0.0734 0.1095 0.9913
vn -0.2737 -0.4198 0.8654
vn -0.1043 -0.0111 0.9945
vn -0.2786 0.2628 0.9238
vn -0.2445 0.1353 0.9602
vn -0.1960 0.3582 0.9128
vn -0.2495 0.4475 0.8588
vn -0.3842 0.3181 0.8667
vn -0.4342 -0.0295 0.9003
vn -0.2779 0.0734 0.9578
vn -0.2920 0.9400 -0.1762
vn -0.5815 0.8132 0.0210
vn 0.1005 0.9874 0.1222
vn -0.3016 0.6975 0.6500
vn 0.0053 0.6598 0.7514
vn 0.3262 0.8425 0.4286
vn -0.0829 0.4651 0.8814
vn 0.0417 0.7686 0.6383
vn -0.9140 0.2179 0.3423
vn -0.7854 0.1484 0.6009
vn -0.1405 0.5678 0.8111
vn -0.1352 0.8837 0.4480
vn 0.0058 0.5799 0.8147
vn 0.1215 0.9636 -0.2382
vn 0.2285 0.9594 0.1653
vn 0.0410 0.9952 0.0890
vn 0.3553 0.9344 0.0271
vn 0.1163 0.8881 0.4446
vn -0.1032 0.2218 0.9696
vn -0.3464 0.1325 0.9287
vn 0.9575 -0.2856 0.0408
vn 0.7350 -0.3373 -0.5882
vn 0.9142 0.3234 -0.2443
vn 0.6670 0.1276 -0.7340
vn -0.4802 0.4269 -0.7663
vn 0.4830 0.7339 -0.4776
vn -0.0383 0.8108 -0.5840
vn -0.6803 0.6335 -0.3686
vn 0.6335 0.7679 0.0953
vn 0.9647 0.1506 0.2162
vn -0.2439 0.9602 -0.1365
vn -0.9087 0.3950 -0.1349
vn 0.2486 0.0217 0.9684
vn 0.8005 -0.0678 0.5955
vn 0.4992 0.6226 0.6026
vn -0.2847 -0.0609 0.9567
vn -0.6534 0.4738 0.5904
vn -0.5246 0.8509 -0.0263
vn 0.0128 0.8234 0.5673
vn -0.3841 0.7823 0.4904
vn -0.0202 -0.5208 -0.8534
vn 0.0310 -0.2105 -0.9771
vn -0.1414 0.2792 -0.9498
vn 0.0306 -0.0152 -0.9994
vn 0.0793 -0.0224 -0.9966
vn -0.0978 -0.3200 -0.9423
vn -0.1020 -0.4575 -0.8833
vn 0.1577 -0.0343 -0.9869
vn -0.0030 0.1006 -0.9949
vn 0.0611 0.0596 -0.9963
vn -0.0752 -0.2885 -0.9545
vn -0.0259 -0.2751 -0.9611
vn 0.1933 0.2659 -0.9444
vn 0.2342 0.6064 -0.7599
vn -0.1239 -0.3485 -0.9291
vn -0.1215 -0.4980 -0.8586
vn -0.0162 -0.3946 -0.9187
vn -0.5025 -0.4626 -0.7304
vn 0.1068 0.1404 -0.9843
vn 0.3464 0.3844 -0.8557
vn -0.4792 0.3825 -0.7900
vn -0.6079 -0.1721 -0.7752
vn -0.7016 0.0642 -0.7097
vn -0.2120 -0.8918 -0.3996
vn -0.3423 -0.9296 0.1364
vn -0.1364 -0.9812 -0.1364
vn -0.0043 -0.7169 -0.6972
vn -0.2456 -0.8443 0.4762
vn -0.1546 -0.8637 0.4798
vn -0.4190 -0.8600 -0.2913
vn 0.0438 -0.1625 -0.9857
vn -0.5533 -0.4204 -0.7191
vn -0.5917 -0.0940 -0.8006
vn -0.9617 -0.1653 -0.2188
vn -0.9959 0.0735 0.0518
vn -0.7098 -0.6472 0.2780
vn -0.1699 0.1923 -0.9665
vn -0.7679 0.3329 -0.5472
vn -0.4877 0.0644 -0.8706
vn -0.7211 -0.0607 -0.6901
vn -0.6608 0.0750 -0.7468
vn -0.9351 -0.2360 -0.2644
vn -0.9389 -0.1442 -0.3126
vn -0.9863 0.1224 0.1106
vn -0.9689 0.1247 0.2139
vn -0.9382 -0.3459 -0.0109
vn -0.9565 0.1212 0.2652
vn -0.7039 0.0876 0.7049
vn -0.1476 -0.5551 0.8186
vn -0.1286 -0.2445 0.9611
vn -0.5503 -0.3109 0.7749
vn -0.4087 0.0447 0.9116
vn -0.1945 0.1781 0.9646
vn -0.3429 -0.0475 0.9382
vn -0.1129 0.2049 0.9722
vn -0.0873 0.3820 0.9200
vn -0.5819 0.4813 0.6555
vn -0.6577 0.2605 0.7068
vn -0.8035 0.2229 0.5521
vn 0.3365 0.8145 -0.4726
vn 0.4917 0.6593 -0.5688
vn 0.5910 0.8041 0.0651
vn 0.3781 0.5046 -0.7762
vn 0.5806 0.7611 -0.2892
vn 0.3352 0.7483 0.5724
vn 0.1521 0.5084 0.8476
vn 0.3157 0.7660 0.5599
vn -0.3576 0.4017 0.8431
vn -0.4227 0.6497 0.6318
vn 0.0265 0.9920 0.1233
vn -0.9829 -0.1561 -0.0979
vn -0.9741 0.2249 -0.0253
vn -0.9924 0.0779 -0.0949
vn -0.7040 0.0878 0.7047
vn -0.6424 -0.2757 0.7150
vn -0.9542 0.2959 0.0443
vn -0.1477 0.8230 -0.5485
vn -0.7921 0.6086 -0.0474
vn -0.1290 0.2853 0.9497
vn -0.2199 0.0974 0.9707
vn -0.2033 -0.2543 0.9455
vn -0.5273 -0.2309 0.8177
vn 0.0302 0.2996 0.9536
vn 0.9374 -0.1676 0.3054
vn 0.9743 -0.2017 0.1007
vn 0.9896 -0.0148 0.1434
vt 0.063311 0.625188
vt 0.079844 0.523218
vt 0.071710 0.642525
vt 0.043624 0.588707
vt 0.050296 0.525500
vt 0.076783 0.517764
vt 0.085042 0.502592
vt 0.092846 0.423888
vt 0.050702 0.517266
vt 0.034202 0.519742
vt 0.046990 0.480391
vt 0.088185 0.400161
vt 0.109323 0.290822
vt 0.069049 0.305393
vt 0.057471 0.249254
vt 0.034911 0.355726
vt 0.067693 0.668895
vt 0.085168 0.670331
vt 0.117730 0.627576
vt 0.083024 0.565240
vt 0.097479 0.669285
vt 0.131020 0.504053
vt 0.152400 0.588917
vt 0.139209 0.586388
vt 0.154804 0.701040
vt 0.159776 0.638606
vt 0.170619 0.606226
vt 0.165398 0.675829
vt 0.195774 0.600963
vt 0.185003 0.678408
vt 0.170768 0.542222
vt 0.172696 0.589891
vt 0.181718 0.523001
vt 0.183729 0.560212
vt 0.201993 0.586504
vt 0.204990 0.518670
vt 0.228824 0.596344
vt 0.136264 0.433502
vt 0.104294 0.383240
vt 0.189294 0.435730
vt 0.188839 0.496876
vt 0.225989 0.459987
vt 0.211508 0.400255
vt 0.247283 0.487272
vt 0.255809 0.391669
vt 0.058849 0.693035
vt 0.035169 0.689131
vt 0.019658 0.657758
vt 0.025001 0.587022
vt 0.351468 0.699685
vt 0.331650 0.720738
vt 0.357656 0.627806
vt 0.303998 0.748576
vt 0.316758 0.652520
vt 0.337133 0.635883
vt 0.018821 0.525245
vt 0.350429 0.566320
vt 0.300587 0.689734
vt 0.320207 0.576603
vt 0.286690 0.730296
vt 0.295092 0.633073
vt 0.307146 0.569586
vt 0.281943 0.713814
vt 0.264751 0.689195
vt 0.285631 0.626493
vt 0.294608 0.562771
vt 0.204747 0.680528
vt 0.235448 0.604527
vt 0.225303 0.710023
vt 0.254319 0.758728
vt 0.254408 0.605018
vt 0.268579 0.617749
vt 0.247014 0.591478
vt 0.269425 0.504393
vt 0.016558 0.512730
vt 0.020662 0.474584
vt 0.329386 0.549444
vt 0.349263 0.553648
vt 0.334184 0.512239
vt 0.352005 0.515501
vt 0.314782 0.512018
vt 0.294530 0.513661
vt 0.013139 0.395887
vt 0.344583 0.436633
vt 0.327390 0.347122
vt 0.286775 0.414903
vt 0.316428 0.368789
vt 0.340508 0.327384
vt 0.275739 0.524529
vt 0.268898 0.392640
vt 0.119471 0.229673
vt 0.150577 0.258002
vt 0.106391 0.227882
vt 0.126966 0.183175
vt 0.125970 0.130462
vt 0.156230 0.177430
vt 0.132744 0.135329
vt 0.150787 0.132347
vt 0.181029 0.136150
vt 0.105104 0.174785
vt 0.042461 0.251112
vt 0.066294 0.185432
vt 0.109131 0.106697
vt 0.067662 0.144134
vt 0.045009 0.165888
vt 0.028861 0.244044
vt 0.039033 0.193817
vt 0.024448 0.188530
vt 0.025025 0.154403
vt 0.494601 0.370559
vt 0.488085 0.316605
vt 0.510538 0.324604
vt 0.009578 0.127159
vt 0.215677 0.245861
vt 0.223181 0.313543
vt 0.202907 0.342927
vt 0.248599 0.328017
vt 0.245872 0.283413
vt 0.265015 0.291750
vt 0.278899 0.295681
vt 0.296807 0.335079
vt 0.211547 0.192481
vt 0.205743 0.264956
vt 0.216185 0.202934
vt 0.231226 0.128473
vt 0.247175 0.209246
vt 0.225006 0.131570
vt 0.299839 0.248828
vt 0.299361 0.182431
vt 0.316619 0.200581
vt 0.267888 0.228182
vt 0.284751 0.167630
vt 0.020536 0.264446
vt 0.008376 0.286552
vt 0.348150 0.250361
vt 0.321556 0.247404
vt 0.010132 0.209089
vt 0.334189 0.244170
vt 0.016903 0.156507
vt 0.355258 0.209885
vt 0.007062 0.167770
vt 0.334305 0.206681
vt 0.466020 0.367510
vt 0.464530 0.339231
vt 0.475965 0.353002
vt 0.452042 0.378805
vt 0.454635 0.352260
vt 0.442740 0.352125
vt 0.328214 0.169760
vt 0.625953 0.950027
vt 0.608762 0.954564
vt 0.625032 0.923465
vt 0.687898 0.897459
vt 0.602099 0.936229
vt 0.622777 0.912773
vt 0.605768 0.908685
vt 0.578718 0.865902
vt 0.587303 0.984046
vt 0.589268 0.965060
vt 0.574398 0.992327
vt 0.563152 0.965475
vt 0.544195 0.977408
vt 0.577862 0.921187
vt 0.565421 0.937589
vt 0.566511 0.902376
vt 0.535870 0.999733
vt 0.552415 0.992146
vt 0.661053 0.850267
vt 0.713781 0.811721
vt 0.743415 0.857692
vt 0.718156 0.762217
vt 0.677178 0.781160
vt 0.629916 0.828134
vt 0.670745 0.767427
vt 0.663822 0.863182
vt 0.545992 0.941626
vt 0.547488 0.902746
vt 0.537665 0.919435
vt 0.518164 0.951966
vt 0.534947 0.875766
vt 0.666888 0.723913
vt 0.697348 0.735678
vt 0.712995 0.884649
vt 0.697333 0.887526
vt 0.713848 0.901233
vt 0.738841 0.902692
vt 0.745487 0.910771
vt 0.760505 0.871070
vt 0.779639 0.862527
vt 0.768460 0.906590
vt 0.769301 0.854321
vt 0.808267 0.877115
vt 0.533677 0.953338
vt 0.713137 0.926604
vt 0.515066 0.992172
vt 0.512154 0.937938
vt 0.761588 0.929537
vt 0.511078 0.873338
vt 0.501085 0.955943
vt 0.491934 0.997807
vt 0.473045 0.960959
vt 0.789396 0.935446
vt 0.473062 0.886352
vt 0.565386 0.880723
vt 0.574027 0.868213
vt 0.561841 0.868282
vt 0.579325 0.835786
vt 0.563504 0.838545
vt 0.541736 0.857002
vt 0.562585 0.816854
vt 0.553692 0.815733
vt 0.523500 0.851154
vt 0.481612 0.824746
vt 0.507613 0.739107
vt 0.501211 0.744212
vt 0.575487 0.751212
vt 0.612403 0.786506
vt 0.476984 0.754480
vt 0.437718 0.757830
vt 0.454475 0.836376
vt 0.598086 0.743032
vt 0.626275 0.760773
vt 0.623723 0.773083
vt 0.741495 0.762299
vt 0.720885 0.752930
vt 0.762181 0.781474
vt 0.766402 0.823025
vt 0.770389 0.775335
vt 0.778167 0.756461
vt 0.789478 0.804778
vt 0.784794 0.783830
vt 0.746800 0.725763
vt 0.759959 0.735608
vt 0.788406 0.726447
vt 0.760867 0.713015
vt 0.743865 0.686255
vt 0.806680 0.779467
vt 0.806643 0.800144
vt 0.815443 0.710822
vt 0.845157 0.801626
vt 0.780609 0.834414
vt 0.798400 0.836593
vt 0.816675 0.835984
vt 0.804732 0.819222
vt 0.813553 0.824593
vt 0.838429 0.848473
vt 0.821410 0.808139
vt 0.837025 0.839599
vt 0.600244 0.810694
vt 0.637407 0.775817
vt 0.644382 0.752797
vt 0.667892 0.766385
vt 0.660402 0.733631
vt 0.648872 0.715616
vt 0.627961 0.711773
vt 0.612671 0.720925
vt 0.295484 0.936660
vt 0.307510 0.905959
vt 0.361444 0.975147
vt 0.562542 0.706632
vt 0.593568 0.714256
vt 0.595392 0.701186
vt 0.566191 0.691068
vt 0.578208 0.693360
vt 0.438114 0.927431
vt 0.425925 0.861538
vt 0.336213 0.901951
vt 0.392714 0.965602
vt 0.378827 0.909899
vt 0.402685 0.921539
vt 0.388525 0.858500
vt 0.407806 0.766499
vt 0.413097 0.864552
vt 0.384270 0.779818
vt 0.343057 0.865549
vt 0.397920 0.853814
vt 0.236607 0.998607
vt 0.236749 0.923223
vt 0.245783 0.902806
vt 0.209287 0.950676
vt 0.576288 0.665121
vt 0.581433 0.654024
vt 0.658261 0.684318
vt 0.475262 0.690927
vt 0.469219 0.698076
vt 0.439076 0.700302
vt 0.041201 0.850162
vt 0.033984 0.852146
vt 0.048901 0.767748
vt 0.051904 0.789820
vt 0.030255 0.777984
vt 0.016265 0.838926
vt 0.102969 0.889406
vt 0.125393 0.830807
vt 0.119213 0.877685
vt 0.138750 0.828919
vt 0.133863 0.816502
vt 0.065247 0.699589
vt 0.107868 0.737596
vt 0.178881 0.735439
vt 0.392171 0.678876
vt 0.553237 0.668696
vt 0.008984 0.767526
vt 0.000115 0.798738
vt 0.305359 0.859247
vt 0.293545 0.929778
vt 0.277663 0.888740
vt 0.265144 0.930725
vt 0.246948 0.999782
vt 0.255887 0.910187
vt 0.333698 0.846557
vt 0.292368 0.777619
vt 0.565303 0.649738
vt 0.559941 0.647383
vt 0.126021 0.886154
vt 0.139399 0.904139
vt 0.183687 0.867184
vt 0.170591 0.994280
vt 0.172321 0.824888
vt 0.201623 0.800074
vt 0.234735 0.773436
vt 0.343817 0.813633
vt 0.836694 0.892717
vt 0.401197 0.958463
vt 0.414638 0.910397
vt 0.140271 0.088739
vt 0.140066 0.025515
vt 0.187194 0.091848
vt 0.145663 0.056967
vt 0.178441 0.034721
vt 0.197332 0.057658
vt 0.146323 0.000217
vt 0.257793 0.036325
vt 0.516201 0.369636
vt 0.555616 0.356245
vt 0.567742 0.377631
vt 0.603261 0.318408
vt 0.537325 0.335641
vt 0.571402 0.318705
vt 0.639342 0.330955
vt 0.608477 0.282058
vt 0.645249 0.293407
vt 0.651529 0.306379
vt 0.656726 0.253521
vt 0.749736 0.001466
vt 0.677002 0.038424
vt 0.674708 0.000461
vt 0.745464 0.046086
vt 0.743503 0.073139
vt 0.680883 0.067117
vt 0.742896 0.063152
vt 0.760530 0.124415
vt 0.752653 0.120726
vt 0.682231 0.073242
vt 0.532450 0.313888
vt 0.511080 0.292926
vt 0.526350 0.265445
vt 0.494416 0.268868
vt 0.488368 0.295265
vt 0.548343 0.222429
vt 0.586631 0.215201
vt 0.496639 0.205027
vt 0.466985 0.246170
vt 0.478606 0.278609
vt 0.469975 0.267941
vt 0.457375 0.250708
vt 0.436280 0.228541
vt 0.459201 0.190346
vt 0.507758 0.188961
vt 0.545911 0.179626
vt 0.523777 0.181498
vt 0.500153 0.159856
vt 0.486581 0.165717
vt 0.514268 0.149981
vt 0.611067 0.207503
vt 0.602642 0.174762
vt 0.781145 0.065407
vt 0.631967 0.201131
vt 0.788559 0.046793
vt 0.734902 0.541166
vt 0.718926 0.525739
vt 0.724746 0.523627
vt 0.609329 0.166365
vt 0.628755 0.175116
vt 0.727746 0.554916
vt 0.715217 0.538910
vt 0.728626 0.568970
vt 0.692710 0.556962
vt 0.719745 0.471370
vt 0.789748 0.193126
vt 0.732616 0.407320
vt 0.745789 0.392679
vt 0.679875 0.493785
vt 0.624733 0.159182
vt 0.554065 0.144255
vt 0.582957 0.146724
vt 0.607956 0.128988
vt 0.642731 0.134914
vt 0.262227 0.099684
vt 0.237007 0.074694
vt 0.308657 0.128106
vt 0.321309 0.151881
vt 0.633994 0.536290
vt 0.547685 0.554420
vt 0.591551 0.501607
vt 0.616125 0.595651
vt 0.588333 0.574492
vt 0.561493 0.513280
vt 0.259366 0.017973
vt 0.667851 0.047885
vt 0.599241 0.605185
vt 0.540933 0.623048
vt 0.536311 0.576360
vt 0.512748 0.592178
vt 0.668141 0.166993
vt 0.666273 0.106992
vt 0.634462 0.060848
vt 0.467398 0.308489
vt 0.438676 0.326979
vt 0.424153 0.316419
vt 0.343225 0.169195
vt 0.415610 0.357703
vt 0.428329 0.332465
vt 0.397481 0.387009
vt 0.421098 0.375260
vt 0.556405 0.487909
vt 0.412613 0.340883
vt 0.531804 0.502941
vt 0.533649 0.483104
vt 0.414368 0.311101
vt 0.407630 0.296830
vt 0.429450 0.244413
vt 0.419393 0.231887
vt 0.394086 0.247393
vt 0.385826 0.274000
vt 0.467925 0.471503
vt 0.499366 0.498741
vt 0.486892 0.536986
vt 0.492751 0.451443
vt 0.478605 0.429178
vt 0.452172 0.431902
vt 0.461807 0.486028
vt 0.438815 0.496363
vt 0.440633 0.527066
vt 0.399762 0.464164
vt 0.396698 0.478066
vt 0.427695 0.503881
vt 0.417396 0.533775
vt 0.398202 0.507452
vt 0.694381 0.541997
vt 0.667811 0.540529
vt 0.663622 0.551965
vt 0.630934 0.049947
vt 0.487611 0.606601
vt 0.629607 0.038176
vt 0.652486 0.540780
vt 0.658801 0.569682
vt 0.646735 0.558018
vt 0.462960 0.613678
vt 0.445846 0.590615
vt 0.445350 0.609465
vt 0.653501 0.528298
vt 0.646275 0.495209
vt 0.597493 0.502285
vt 0.621998 0.447733
vt 0.408507 0.577398
vt 0.420012 0.605983
vt 0.375286 0.578576
vt 0.701694 0.582126
vt 0.623819 0.118855
vt 0.661688 0.118418
vt 0.637760 0.111765
vt 0.621011 0.091470
vt 0.672856 0.587219
vt 0.659456 0.101843
vt 0.437314 0.628069
vt 0.639951 0.089536
vt 0.798965 0.238909
vt 0.764527 0.239655
vt 0.788933 0.208291
vt 0.439752 0.565956
vt 0.405964 0.552591
vt 0.718091 0.198799
vt 0.771354 0.183563
vt 0.744261 0.234055
vt 0.774978 0.196316
vt 0.727427 0.397465
vt 0.751432 0.242941
vt 0.702862 0.336535
vt 0.700559 0.360655
vt 0.700351 0.368107
vt 0.692086 0.242175
vt 0.684873 0.233515
vt 0.681813 0.360795
vt 0.634804 0.337050
vt 0.666251 0.430238
vt 0.654213 0.197312
vt 0.659332 0.199235
vt 0.673708 0.238012
vt 0.574836 0.413915
vt 0.610770 0.427523
vt 0.616204 0.413178
vt 0.647677 0.374812
vt 0.610240 0.354323
vt 0.624405 0.368015
vt 0.627943 0.380607
vt 0.411640 0.145072
vt 0.429469 0.131713
vt 0.476077 0.156047
vt 0.493392 0.135913
vt 0.479412 0.139317
vt 0.493823 0.116565
vt 0.513583 0.125132
vt 0.442242 0.125963
vt 0.462866 0.112506
vt 0.455540 0.117316
vt 0.529303 0.131507
vt 0.544044 0.095166
vt 0.566846 0.105353
vt 0.589721 0.107972
vt 0.481813 0.101293
vt 0.487816 0.097795
vt 0.790889 0.408829
vt 0.808785 0.394266
vt 0.811161 0.419016
vt 0.822804 0.423185
vt 0.823446 0.391353
vt 0.782941 0.391827
vt 0.834354 0.347614
vt 0.870870 0.353655
vt 0.571493 0.079814
vt 0.868259 0.334073
vt 0.830464 0.333074
vt 0.804229 0.373091
vt 0.815522 0.352866
vt 0.402975 0.185178
vt 0.386009 0.215180
vt 0.391489 0.180910
vt 0.397325 0.160073
vt 0.431318 0.412058
vt 0.469852 0.402939
vt 0.363126 0.209452
vt 0.334727 0.141955
vt 0.370048 0.135079
vt 0.464485 0.099160
vt 0.386019 0.130111
vt 0.403387 0.115955
vt 0.363448 0.118826
vt 0.353906 0.109349
vt 0.344684 0.123557
vt 0.436251 0.105250
vt 0.425677 0.093344
vt 0.446277 0.095091
vt 0.466209 0.076262
vt 0.452750 0.078592
vt 0.439306 0.070411
vt 0.430637 0.078142
vt 0.402682 0.054530
vt 0.423538 0.034657
vt 0.422955 0.055523
vt 0.343932 0.101989
vt 0.402902 0.039988
vt 0.418436 0.421845
vt 0.407440 0.435351
vt 0.377016 0.392459
vt 0.364845 0.404265
vt 0.387971 0.506128
vt 0.388811 0.532327
vt 0.376228 0.494313
vt 0.361085 0.447735
vt 0.372837 0.481700
vt 0.348411 0.460452
vt 0.380869 0.013910
vt 0.379614 0.022248
vt 0.368641 0.050339
vt 0.418021 0.020630
vt 0.326582 0.120088
vt 0.342794 0.084312
vt 0.354167 0.430165
vt 0.599990 0.101992
vt 0.602933 0.083216
vt 0.865382 0.263071
vt 0.825368 0.272414
vt 0.827452 0.248473
vt 0.869000 0.289932
vt 0.847599 0.311968
vt 0.836323 0.295381
vt 0.804364 0.256539
vt 0.779983 0.257556
vt 0.806195 0.284775
vt 0.761248 0.295964
vt 0.789455 0.289916
vt 0.816471 0.294499
vt 0.763270 0.416458
vt 0.759639 0.368839
vt 0.719043 0.345074
vt 0.786945 0.329671
vt 0.435404 0.026864
vt 0.736487 0.310964
vt 0.727129 0.319930
vt 0.792114 0.302753
vt 0.833094 0.307962
vt 0.810994 0.302664
vt 0.373747 0.557852
vt 0.708552 0.261848
vt 0.702368 0.281441
vt 0.686315 0.279956
vt 0.717269 0.301836
vt 0.738188 0.252133
vt 0.713039 0.328140
vt 0.702787 0.327363
vt 0.373054 0.000087
vt 0.748656 0.269760
vt 0.429194 0.015063
vt 0.193566 0.347515
vt 0.143127 0.381572
vt 0.614381 0.844174
vt 0.708261 0.725100
vt 0.686581 0.692984
s 1
usemtl WoodSpoon_LowPoly
f 1/1/1 3/2/2 2/3/3
f 4/4/4 5/5/5 3/2/2
f 3/2/2 6/6/6 7/7/7
f 6/6/6 8/8/8 7/7/7
f 6/6/6 3/2/2 5/5/5
f 9/9/9 6/6/6 5/5/5
f 5/5/5 10/10/10 9/9/9
f 9/9/9 11/11/11 6/6/6
f 8/8/8 6/6/6 12/12/12
f 13/13/13 8/8/8 12/12/12
f 6/6/6 11/11/11 12/12/12
f 12/12/12 11/11/11 14/14/14
f 11/11/11 15/15/15 14/14/14
f 1/1/1 4/4/4 3/2/2
f 9/9/9 10/10/10 11/11/11
f 11/11/11 17/16/16 15/15/15
f 18/17/17 1/1/1 2/3/3
f 19/18/18 2/3/3 20/19/19
f 2/3/3 21/20/20 20/19/19
f 19/18/18 20/19/19 22/21/21
f 2/3/3 3/2/2 21/20/20
f 36/22/22 24/23/23 23/24/24
f 20/19/19 21/20/20 23/24/24
f 21/20/20 3/2/2 23/24/24
f 22/21/21 20/19/19 261/25/25
f 20/19/19 25/26/26 261/25/25
f 23/24/24 25/26/26 20/19/19
f 23/24/24 26/27/27 25/26/26
f 263/28/28 261/25/25 26/27/27
f 261/25/25 25/26/26 26/27/27
f 263/28/28 27/29/29 28/30/30
f 26/27/27 27/29/29 263/28/28
f 24/23/23 30/31/31 29/32/32
f 23/24/24 24/23/23 26/27/27
f 26/27/27 24/23/23 29/32/32
f 29/32/32 31/33/33 32/34/34
f 27/29/29 26/27/27 29/32/32
f 29/32/32 33/35/35 27/29/29
f 32/34/34 33/35/35 29/32/32
f 32/34/34 34/36/36 33/35/35
f 34/36/36 35/37/37 33/35/35
f 7/7/7 37/38/38 36/22/22
f 36/22/22 3/2/2 7/7/7
f 3/2/2 36/22/22 23/24/24
f 8/8/8 37/38/38 7/7/7
f 8/8/8 38/39/39 37/38/38
f 36/22/22 37/38/38 39/40/40
f 36/22/22 30/31/31 24/23/23
f 30/31/31 31/33/33 29/32/32
f 36/22/22 39/40/40 30/31/31
f 39/40/40 40/41/41 31/33/33
f 30/31/31 39/40/40 31/33/33
f 40/41/41 34/36/36 31/33/33
f 32/34/34 31/33/33 34/36/36
f 41/42/42 35/37/37 34/36/36
f 42/43/43 34/36/36 40/41/41
f 35/37/37 41/42/42 43/44/44
f 41/42/42 106/45/45 43/44/44
f 34/36/36 42/43/43 41/42/42
f 16/46/46 44/47/47 1/1/1
f 44/47/47 4/4/4 1/1/1
f 44/47/47 45/48/48 4/4/4
f 45/48/48 46/49/49 4/4/4
f 45/50/48 47/51/50 46/52/49
f 48/53/51 49/54/52 47/51/50
f 47/51/50 49/54/52 50/55/53
f 50/55/53 46/52/49 47/51/50
f 46/49/49 51/56/54 4/4/4
f 4/4/4 10/10/10 5/5/5
f 4/4/4 51/56/54 10/10/10
f 46/52/49 50/55/53 51/57/54
f 49/54/52 52/58/55 53/59/56
f 49/54/52 51/57/54 50/55/53
f 53/59/56 51/57/54 49/54/52
f 57/60/57 58/61/58 52/58/55
f 58/61/58 54/62/59 52/58/55
f 57/60/57 59/63/60 58/61/58
f 59/63/60 60/64/61 55/65/62
f 59/63/60 55/65/62 58/61/58
f 54/62/59 53/59/56 52/58/55
f 58/61/58 56/66/63 54/62/59
f 58/61/58 55/65/62 56/66/63
f 61/67/64 62/68/65 63/69/66
f 65/70/67 64/71/68 60/64/61
f 65/70/67 63/69/66 64/71/68
f 62/68/65 64/71/68 63/69/66
f 60/64/61 64/71/68 66/72/69
f 28/30/30 27/29/29 61/67/64
f 62/68/65 61/67/64 27/29/29
f 62/68/65 35/37/37 64/71/68
f 35/37/37 67/73/70 64/71/68
f 68/74/71 55/65/62 66/72/69
f 68/74/71 66/72/69 64/71/68
f 68/74/71 64/71/68 67/73/70
f 33/35/35 35/37/37 27/29/29
f 35/37/37 62/68/65 27/29/29
f 66/72/69 55/65/62 60/64/61
f 51/56/54 69/75/72 10/10/10
f 69/75/72 70/76/73 10/10/10
f 10/10/10 70/76/73 11/11/11
f 53/59/56 71/77/74 51/57/54
f 69/78/72 51/57/54 71/77/74
f 72/79/75 70/80/73 69/78/72
f 71/77/74 72/79/75 69/78/72
f 73/81/76 72/79/75 71/77/74
f 54/62/59 73/81/76 53/59/56
f 56/66/63 55/65/62 74/82/77
f 53/59/56 73/81/76 71/77/74
f 54/62/59 56/66/63 73/81/76
f 11/11/11 70/76/73 17/16/16
f 70/76/73 75/83/78 17/16/16
f 72/79/75 75/84/78 70/80/73
f 72/79/75 73/81/76 75/84/78
f 56/66/63 76/85/79 73/81/76
f 74/82/77 77/86/80 78/87/81
f 56/66/63 74/82/77 78/87/81
f 56/66/63 78/87/81 76/85/79
f 73/81/76 76/85/79 79/88/82
f 35/37/37 43/44/44 67/73/70
f 67/73/70 43/44/44 68/74/71
f 68/74/71 80/89/83 55/65/62
f 55/65/62 80/89/83 74/82/77
f 74/82/77 80/89/83 68/74/71
f 81/90/84 77/86/80 68/74/71
f 43/44/44 106/45/45 81/90/84
f 81/90/84 68/74/71 43/44/44
f 74/82/77 68/74/71 77/86/80
f 13/13/13 38/39/39 8/8/8
f 13/13/13 12/12/12 82/91/85
f 38/39/39 13/13/13 83/92/86
f 13/13/13 82/91/85 83/92/86
f 12/12/12 14/14/14 84/93/87
f 85/94/88 82/91/85 84/93/87
f 85/94/88 84/93/87 86/95/89
f 82/91/85 85/94/88 83/92/86
f 83/92/86 85/94/88 87/96/90
f 88/97/91 89/98/92 85/94/88
f 85/94/88 86/95/89 88/97/91
f 85/94/88 91/99/93 87/96/90
f 85/94/88 89/98/92 91/99/93
f 82/91/85 12/12/12 84/93/87
f 84/93/87 14/14/14 90/100/94
f 15/15/15 92/101/95 93/102/96
f 84/93/87 90/100/94 86/95/89
f 14/14/14 15/15/15 90/100/94
f 15/15/15 93/102/96 90/100/94
f 90/100/94 93/102/96 94/103/97
f 93/102/96 95/104/98 94/103/97
f 96/105/99 95/104/98 93/102/96
f 15/15/15 17/16/16 92/101/95
f 97/106/100 98/107/101 92/101/95
f 98/107/101 96/105/99 93/102/96
f 92/101/95 98/107/101 93/102/96
f 98/107/101 99/108/102 96/105/99
f 96/105/99 99/108/102 100/109/103
f 96/110/99 101/111/104 102/112/105
f 100/109/103 101/113/104 96/105/99
f 119/114/106 104/115/107 103/116/108
f 39/40/40 103/116/108 40/41/41
f 103/116/108 42/43/43 40/41/41
f 42/43/43 103/116/108 104/115/107
f 42/43/43 105/117/109 41/42/42
f 42/43/43 104/115/107 105/117/109
f 41/42/42 105/117/109 106/45/45
f 107/118/110 108/119/111 105/117/109
f 104/115/107 107/118/110 105/117/109
f 109/120/112 106/45/45 105/117/109
f 109/120/112 105/117/109 108/119/111
f 109/120/112 81/90/84 106/45/45
f 109/120/112 110/121/113 81/90/84
f 111/122/114 112/123/115 83/92/86
f 111/122/114 113/124/116 112/123/115
f 87/96/90 111/122/114 83/92/86
f 87/96/90 91/99/93 111/122/114
f 113/124/116 337/125/117 114/126/118
f 111/122/114 337/125/117 113/124/116
f 111/122/114 115/127/119 337/125/117
f 116/128/120 117/129/121 118/130/122
f 112/123/115 113/124/116 119/114/106
f 104/115/107 119/114/106 107/118/110
f 107/118/110 119/114/106 120/131/123
f 107/118/110 120/131/123 108/119/111
f 108/119/111 116/128/120 109/120/112
f 108/119/111 117/129/121 116/128/120
f 119/114/106 114/126/118 120/131/123
f 113/124/116 114/126/118 119/114/106
f 120/131/123 117/129/121 108/119/111
f 120/131/123 121/132/124 117/129/121
f 73/81/76 79/88/82 75/84/78
f 77/86/80 110/121/113 78/87/81
f 75/83/78 92/101/95 17/16/16
f 92/101/95 75/83/78 122/133/125
f 75/83/78 79/134/82 122/133/125
f 79/88/82 76/85/79 123/135/126
f 110/121/113 124/136/127 78/87/81
f 77/86/80 81/90/84 110/121/113
f 122/133/125 97/106/100 92/101/95
f 79/134/82 123/137/126 122/133/125
f 99/108/102 98/107/101 97/106/100
f 97/106/100 122/133/125 99/108/102
f 122/133/125 123/137/126 99/108/102
f 78/87/81 124/136/127 76/85/79
f 110/121/113 116/128/120 124/136/127
f 76/85/79 125/138/128 123/135/126
f 76/85/79 124/136/127 125/138/128
f 99/108/102 123/137/126 126/139/129
f 125/138/128 127/140/130 123/135/126
f 123/137/126 127/141/130 126/139/129
f 125/138/128 128/142/131 127/140/130
f 99/108/102 126/139/129 100/109/103
f 127/143/130 129/144/132 126/145/129
f 127/143/130 128/146/131 130/147/133
f 130/147/133 129/144/132 127/143/130
f 124/136/127 128/142/131 125/138/128
f 118/130/122 124/136/127 116/128/120
f 118/130/122 128/142/131 124/136/127
f 128/146/131 131/148/134 130/147/133
f 118/130/122 132/149/135 128/142/131
f 110/121/113 109/120/112 116/128/120
f 133/150/136 134/151/137 135/152/138
f 135/152/138 159/153/139 133/150/136
f 135/152/138 136/154/140 137/155/141
f 137/155/141 136/154/140 138/156/142
f 138/156/142 139/157/143 137/155/141
f 134/151/137 140/158/144 141/159/145
f 133/150/136 140/158/144 134/151/137
f 140/158/144 142/160/146 141/159/145
f 141/159/145 142/160/146 143/161/147
f 142/160/146 144/162/148 143/161/147
f 134/151/137 136/154/140 135/152/138
f 134/151/137 141/159/145 136/154/140
f 141/159/145 145/163/149 136/154/140
f 136/154/140 145/163/149 138/156/142
f 143/161/147 146/164/150 141/159/145
f 146/164/150 145/163/149 141/159/145
f 146/164/150 147/165/151 145/163/149
f 142/160/146 149/166/152 148/167/153
f 148/167/153 144/162/148 142/160/146
f 140/168/144 152/169/154 150/170/155
f 153/171/156 152/169/154 151/172/157
f 133/173/136 159/174/139 151/172/157
f 133/173/136 151/172/157 140/168/144
f 135/152/138 137/155/141 159/153/139
f 140/168/144 150/170/155 142/175/146
f 143/161/147 154/176/158 146/164/150
f 146/164/150 155/177/159 147/165/151
f 154/176/158 156/178/160 146/164/150
f 154/176/158 157/179/161 156/178/160
f 146/164/150 156/178/160 155/177/159
f 156/178/160 158/180/162 155/177/159
f 159/174/139 153/171/156 151/172/157
f 501/181/163 160/182/164 159/174/139
f 140/168/144 151/172/157 152/169/154
f 142/175/146 161/183/165 149/184/152
f 142/175/146 150/170/155 161/183/165
f 162/185/166 149/184/152 161/183/165
f 161/183/165 163/186/167 162/185/166
f 162/185/166 163/186/167 164/187/168
f 163/186/167 161/183/165 165/188/169
f 163/186/167 165/188/169 164/187/168
f 161/183/165 150/170/155 165/188/169
f 165/188/169 167/189/170 164/187/168
f 168/190/171 164/187/168 167/189/170
f 165/188/169 150/170/155 169/191/172
f 170/192/173 168/190/171 167/189/170
f 144/162/148 154/176/158 143/161/147
f 148/167/153 149/166/152 144/162/148
f 149/166/152 157/179/161 144/162/148
f 144/162/148 157/179/161 171/193/174
f 162/185/166 172/194/175 149/184/152
f 172/195/175 157/179/161 149/166/152
f 144/162/148 171/193/174 154/176/158
f 154/176/158 171/193/174 157/179/161
f 157/179/161 173/196/176 156/178/160
f 172/194/175 162/185/166 164/187/168
f 172/194/175 164/187/168 166/197/177
f 156/178/160 173/196/176 174/198/178
f 157/179/161 175/199/179 173/196/176
f 172/195/175 166/200/177 175/199/179
f 166/200/177 176/201/180 175/199/179
f 168/190/171 170/192/173 176/202/180
f 175/199/179 157/179/161 172/195/175
f 177/203/181 175/199/179 176/201/180
f 178/204/182 179/205/183 138/156/142
f 139/157/143 138/156/142 179/205/183
f 178/204/182 138/156/142 145/163/149
f 145/163/149 147/165/151 178/204/182
f 180/206/184 179/205/183 178/204/182
f 139/157/143 181/207/185 137/155/141
f 179/205/183 182/208/186 139/157/143
f 179/205/183 180/206/184 182/208/186
f 139/157/143 182/208/186 181/207/185
f 182/208/186 180/206/184 183/209/187
f 155/177/159 183/209/187 147/165/151
f 155/177/159 158/180/162 183/209/187
f 147/165/151 183/209/187 178/204/182
f 178/204/182 183/209/187 180/206/184
f 184/210/188 181/207/185 185/211/189
f 181/207/185 182/208/186 185/211/189
f 185/211/189 182/208/186 186/212/190
f 182/208/186 183/209/187 186/212/190
f 186/212/190 158/180/162 174/198/178
f 158/180/162 186/212/190 183/209/187
f 156/178/160 174/198/178 158/180/162
f 174/198/178 187/213/191 186/212/190
f 185/211/189 188/214/192 184/210/188
f 189/215/193 185/211/189 186/212/190
f 188/214/192 185/211/189 189/215/193
f 184/210/188 190/216/194 191/217/195
f 186/212/190 187/213/191 192/218/196
f 192/218/196 187/213/191 193/219/197
f 173/196/176 177/203/181 174/198/178
f 174/198/178 177/203/181 187/213/191
f 177/203/181 173/196/176 175/199/179
f 187/213/191 177/203/181 194/220/198
f 193/219/197 187/213/191 194/220/198
f 196/221/199 197/222/200 195/223/201
f 199/224/202 152/169/154 153/171/156
f 198/225/203 199/224/202 153/171/156
f 199/224/202 200/226/204 152/169/154
f 152/169/154 200/226/204 201/227/205
f 200/226/204 199/224/202 202/228/206
f 199/224/202 203/229/207 202/228/206
f 200/226/204 204/230/208 201/227/205
f 202/228/206 205/231/209 200/226/204
f 203/229/207 205/231/209 202/228/206
f 200/226/204 205/231/209 204/230/208
f 160/182/164 198/225/203 159/174/139
f 160/182/164 206/232/210 198/225/203
f 159/174/139 198/225/203 153/171/156
f 198/225/203 207/233/211 199/224/202
f 206/232/210 207/233/211 198/225/203
f 207/233/211 203/229/207 199/224/202
f 207/233/211 208/234/212 203/229/207
f 206/232/210 208/234/212 207/233/211
f 209/235/213 208/234/212 206/232/210
f 206/232/210 210/236/214 209/235/213
f 208/234/212 211/237/215 203/229/207
f 211/237/215 213/238/216 203/229/207
f 203/229/207 213/238/216 205/231/209
f 208/234/212 212/239/217 211/237/215
f 211/237/215 212/239/217 214/240/218
f 201/227/205 150/170/155 152/169/154
f 150/170/155 201/227/205 169/191/172
f 201/227/205 215/241/219 169/191/172
f 165/188/169 169/191/172 167/189/170
f 216/242/220 167/189/170 169/191/172
f 216/242/220 169/191/172 215/241/219
f 167/189/170 217/243/221 170/192/173
f 204/230/208 215/241/219 201/227/205
f 218/244/222 215/241/219 204/230/208
f 205/231/209 213/238/216 204/230/208
f 204/230/208 213/238/216 218/244/222
f 218/244/222 216/242/220 215/241/219
f 218/244/222 219/245/223 216/242/220
f 216/242/220 219/245/223 217/243/221
f 213/238/216 219/245/223 218/244/222
f 167/189/170 216/242/220 217/243/221
f 170/192/173 217/243/221 220/246/224
f 221/247/225 211/237/215 214/240/218
f 211/237/215 221/247/225 213/238/216
f 221/247/225 217/243/221 219/245/223
f 213/238/216 221/247/225 219/245/223
f 221/247/225 214/240/218 217/243/221
f 214/240/218 222/248/226 217/243/221
f 217/243/221 222/248/226 220/246/224
f 184/210/188 191/217/195 223/249/227
f 210/250/214 191/217/195 195/223/201
f 210/250/214 195/223/201 197/222/200
f 197/222/200 224/251/228 210/250/214
f 224/251/228 209/252/213 210/250/214
f 209/252/213 224/251/228 212/253/217
f 209/235/213 212/239/217 208/234/212
f 224/251/228 225/254/229 212/253/217
f 190/216/194 195/223/201 191/217/195
f 195/223/201 190/216/194 196/221/199
f 197/222/200 226/255/230 224/251/228
f 197/222/200 227/256/231 226/255/230
f 226/255/230 225/254/229 224/251/228
f 212/257/217 225/258/229 214/259/218
f 184/210/188 188/214/192 190/216/194
f 190/216/194 188/214/192 228/260/232
f 197/222/200 196/221/199 229/261/233
f 197/222/200 229/261/233 227/256/231
f 196/221/199 228/260/232 229/261/233
f 190/216/194 228/260/232 196/221/199
f 229/261/233 228/260/232 230/262/234
f 228/260/232 231/263/235 232/264/236
f 230/262/234 228/260/232 232/264/236
f 233/265/237 177/203/181 176/201/180
f 177/203/181 233/265/237 234/266/238
f 214/259/218 225/258/229 236/267/239
f 236/267/239 222/268/226 214/259/218
f 236/267/239 235/269/240 222/268/226
f 235/269/240 237/270/241 222/268/226
f 238/271/242 237/270/241 235/269/240
f 177/203/181 234/266/238 194/220/198
f 234/266/238 240/272/243 194/220/198
f 239/273/244 241/274/245 234/266/238
f 235/269/240 242/275/246 238/271/242
f 236/267/239 242/275/246 235/269/240
f 241/274/245 239/273/244 243/276/247
f 238/277/242 244/278/248 245/279/249
f 244/278/248 238/277/242 242/280/246
f 227/256/231 229/261/233 230/262/234
f 230/262/234 232/264/236 246/281/250
f 227/256/231 230/262/234 226/255/230
f 226/255/230 247/282/251 225/254/229
f 247/282/251 236/283/239 225/254/229
f 18/17/17 16/46/46 1/1/1
f 188/214/192 189/215/193 248/284/252
f 189/215/193 249/285/253 248/284/252
f 192/218/196 249/285/253 189/215/193
f 192/218/196 250/286/254 249/285/253
f 186/212/190 192/218/196 189/215/193
f 248/287/252 249/288/253 251/289/255
f 248/287/252 251/289/255 252/290/256
f 249/288/253 253/291/257 251/289/255
f 249/288/253 250/292/254 253/291/257
f 254/293/258 257/294/259 256/295/260
f 256/295/260 257/294/259 258/296/261
f 257/294/259 259/297/262 258/296/261
f 252/290/256 16/46/46 262/298/263
f 262/298/263 260/299/264 252/290/256
f 16/46/46 18/17/17 262/298/263
f 18/17/17 19/18/18 262/298/263
f 18/17/17 2/3/3 19/18/18
f 262/298/263 19/18/18 22/21/21
f 262/298/263 22/21/21 260/299/264
f 22/21/21 261/25/25 260/299/264
f 260/299/264 261/25/25 257/294/259
f 257/294/259 261/25/25 259/297/262
f 258/296/261 259/297/262 263/28/28
f 261/25/25 263/28/28 259/297/262
f 263/28/28 28/30/30 264/300/265
f 248/284/252 228/260/232 188/214/192
f 193/219/197 265/301/266 192/218/196
f 248/284/252 254/302/258 228/260/232
f 228/260/232 254/302/258 231/263/235
f 248/287/252 252/290/256 257/294/259
f 252/290/256 260/299/264 257/294/259
f 192/218/196 265/301/266 250/286/254
f 250/292/254 266/303/267 253/291/257
f 265/304/266 266/303/267 250/292/254
f 248/287/252 257/294/259 254/293/258
f 194/220/198 240/272/243 193/219/197
f 240/272/243 265/301/266 193/219/197
f 268/305/268 240/306/243 267/307/269
f 234/266/238 241/274/245 240/272/243
f 240/306/243 241/308/245 267/307/269
f 243/309/247 269/310/270 241/308/245
f 269/310/270 243/309/247 238/277/242
f 245/279/249 269/310/270 238/277/242
f 240/306/243 268/305/268 265/311/266
f 268/305/268 270/312/271 48/53/51
f 267/307/269 270/312/271 268/305/268
f 241/308/245 270/312/271 267/307/269
f 241/308/245 269/310/270 270/312/271
f 244/278/248 65/70/67 245/279/249
f 269/310/270 57/60/57 270/312/271
f 231/263/235 246/281/250 232/264/236
f 246/281/250 231/263/235 254/302/258
f 246/281/250 254/302/258 255/313/272
f 247/282/251 246/281/250 255/313/272
f 230/262/234 247/282/251 226/255/230
f 230/262/234 246/281/250 247/282/251
f 256/314/260 255/313/272 254/302/258
f 256/295/260 258/296/261 255/315/272
f 258/296/261 247/316/251 255/315/272
f 272/317/273 236/318/239 247/316/251
f 247/316/251 271/319/274 272/317/273
f 236/318/239 272/317/273 242/280/246
f 258/296/261 271/319/274 247/316/251
f 272/317/273 273/320/275 242/280/246
f 271/319/274 273/320/275 272/317/273
f 242/280/246 273/320/275 244/278/248
f 273/320/275 274/321/276 244/278/248
f 274/321/276 65/70/67 244/278/248
f 252/290/256 251/289/255 16/46/46
f 251/289/255 253/291/257 44/47/47
f 253/291/257 266/303/267 45/48/48
f 266/322/267 265/311/266 47/51/50
f 251/289/255 44/47/47 16/46/46
f 253/291/257 45/48/48 44/47/47
f 47/51/50 45/50/48 266/322/267
f 268/305/268 48/53/51 265/311/266
f 245/279/249 59/63/60 269/310/270
f 245/279/249 65/70/67 59/63/60
f 269/310/270 59/63/60 57/60/57
f 48/53/51 47/51/50 265/311/266
f 57/60/57 52/58/55 270/312/271
f 48/53/51 52/58/55 49/54/52
f 270/312/271 52/58/55 48/53/51
f 258/296/261 263/28/28 264/300/265
f 258/296/261 264/300/265 271/319/274
f 273/320/275 63/69/66 274/321/276
f 271/319/274 264/300/265 273/320/275
f 61/67/64 63/69/66 273/320/275
f 274/321/276 63/69/66 65/70/67
f 28/30/30 61/67/64 264/300/265
f 264/300/265 61/67/64 273/320/275
f 65/70/67 60/64/61 59/63/60
f 164/187/168 168/190/171 166/197/177
f 168/190/171 176/202/180 166/197/177
f 176/202/180 220/246/224 233/323/237
f 170/192/173 220/246/224 176/202/180
f 222/268/226 237/270/241 220/324/224
f 233/265/237 239/273/244 234/266/238
f 275/325/277 239/273/244 233/265/237
f 220/324/224 237/270/241 275/325/277
f 220/324/224 275/325/277 233/265/237
f 237/270/241 238/271/242 275/325/277
f 275/325/277 243/276/247 239/273/244
f 275/325/277 238/271/242 243/276/247
f 88/97/91 86/95/89 276/326/278
f 88/97/91 276/326/278 89/98/92
f 86/95/89 277/327/279 276/326/278
f 86/95/89 94/103/97 277/327/279
f 276/326/278 278/328/280 89/98/92
f 276/326/278 277/327/279 279/329/281
f 276/326/278 279/329/281 278/328/280
f 279/329/281 277/327/279 280/330/282
f 279/329/281 280/330/282 281/331/283
f 277/327/279 282/332/284 280/330/282
f 280/330/282 282/332/284 283/333/285
f 86/95/89 90/100/94 94/103/97
f 95/334/98 284/335/286 94/336/97
f 284/335/286 285/337/287 94/336/97
f 95/334/98 286/338/288 284/335/286
f 286/338/288 95/334/98 96/110/99
f 286/338/288 287/339/289 284/335/286
f 94/336/97 285/337/287 277/340/279
f 284/335/286 287/339/289 285/337/287
f 285/337/287 287/339/289 288/341/290
f 289/342/291 285/337/287 288/341/290
f 285/337/287 289/342/291 277/340/279
f 277/340/279 289/342/291 282/343/284
f 288/341/290 292/344/292 289/342/291
f 292/344/292 282/343/284 289/342/291
f 282/345/284 291/346/293 290/347/294
f 282/345/284 292/348/292 291/346/293
f 294/349/295 348/350/296 293/351/297
f 296/352/298 295/353/299 294/349/295
f 348/350/296 294/349/295 295/353/299
f 295/353/299 297/354/300 348/350/296
f 96/110/99 102/112/105 286/338/288
f 102/112/105 298/355/301 286/338/288
f 102/112/105 299/356/302 298/355/301
f 286/338/288 298/355/301 287/339/289
f 298/355/301 299/356/302 300/357/303
f 299/356/302 302/358/304 300/357/303
f 101/111/104 299/356/302 102/112/105
f 299/356/302 101/111/104 301/359/305
f 299/356/302 301/359/305 302/358/304
f 300/357/303 304/360/306 287/339/289
f 287/339/289 305/361/307 288/341/290
f 304/360/306 305/361/307 287/339/289
f 298/355/301 300/357/303 287/339/289
f 300/357/303 306/362/308 304/360/306
f 302/358/304 307/363/309 300/357/303
f 301/359/305 303/364/310 302/358/304
f 302/358/304 303/364/310 307/363/309
f 308/365/311 307/363/309 303/364/310
f 309/366/312 307/363/309 308/365/311
f 309/366/312 310/367/313 307/363/309
f 306/362/308 307/363/309 310/367/313
f 306/362/308 310/367/313 311/368/314
f 307/363/309 306/362/308 300/357/303
f 306/362/308 312/369/315 304/360/306
f 313/370/316 304/360/306 312/369/315
f 312/369/315 314/371/317 313/370/316
f 312/369/315 315/372/318 314/371/317
f 315/372/318 312/369/315 316/373/319
f 315/372/318 317/374/320 314/371/317
f 317/374/320 313/370/316 314/371/317
f 305/361/307 318/375/321 288/341/290
f 288/341/290 318/375/321 292/344/292
f 305/361/307 319/376/322 318/375/321
f 320/377/323 294/349/295 293/351/297
f 318/375/321 321/378/324 292/344/292
f 292/348/292 320/377/323 293/351/297
f 292/348/292 321/379/324 320/377/323
f 321/380/324 322/381/325 320/382/323
f 321/378/324 323/383/326 324/384/327
f 318/375/321 319/376/322 321/378/324
f 321/378/324 319/376/322 323/383/326
f 324/385/327 325/386/328 321/380/324
f 322/381/325 321/380/324 325/386/328
f 324/385/327 326/387/329 327/388/330
f 294/349/295 320/377/323 296/352/298
f 322/381/325 328/389/331 320/382/323
f 296/352/298 320/377/323 329/390/332
f 320/382/323 330/391/333 329/392/332
f 330/391/333 320/382/323 328/389/331
f 328/389/331 322/381/325 332/393/334
f 304/360/306 313/370/316 305/361/307
f 313/370/316 319/376/322 305/361/307
f 324/384/327 323/383/326 326/394/329
f 319/376/322 333/395/335 334/396/336
f 323/383/326 319/376/322 334/396/336
f 313/370/316 333/395/335 319/376/322
f 334/396/336 335/397/337 323/383/326
f 323/383/326 335/397/337 326/394/329
f 335/397/337 336/398/338 326/394/329
f 278/328/280 91/99/93 89/98/92
f 91/99/93 278/328/280 115/127/119
f 91/99/93 115/127/119 111/122/114
f 337/125/117 338/399/339 114/126/118
f 278/328/280 339/400/340 115/127/119
f 115/127/119 339/400/340 337/125/117
f 279/329/281 281/331/283 278/328/280
f 281/331/283 339/400/340 278/328/280
f 337/125/117 339/400/340 283/333/285
f 338/399/339 337/125/117 283/333/285
f 281/331/283 283/333/285 339/400/340
f 281/331/283 280/330/282 283/333/285
f 338/399/339 120/131/123 114/126/118
f 338/399/339 121/132/124 120/131/123
f 121/132/124 340/401/341 341/402/342
f 121/132/124 338/399/339 340/401/341
f 341/402/342 117/129/121 121/132/124
f 117/129/121 132/149/135 118/130/122
f 117/129/121 341/402/342 132/149/135
f 338/403/339 342/404/343 340/405/341
f 283/406/285 343/407/344 338/403/339
f 338/403/339 343/407/344 342/404/343
f 340/405/341 342/404/343 344/408/345
f 282/332/284 290/409/294 283/333/285
f 292/348/292 293/351/297 291/346/293
f 291/346/293 348/350/296 345/410/346
f 291/346/293 293/351/297 348/350/296
f 283/406/285 290/411/294 343/407/344
f 291/346/293 345/410/346 290/347/294
f 343/407/344 290/411/294 345/412/346
f 343/407/344 346/413/347 342/404/343
f 343/407/344 345/412/346 346/413/347
f 345/412/346 347/414/348 346/413/347
f 295/353/299 349/415/349 297/354/300
f 297/354/300 350/416/350 348/350/296
f 351/417/351 348/350/296 350/416/350
f 100/109/103 126/139/129 101/113/104
f 126/145/129 129/144/132 101/111/104
f 301/359/305 101/111/104 352/418/352
f 129/144/132 352/418/352 101/111/104
f 129/144/132 353/419/353 352/418/352
f 301/359/305 352/418/352 303/364/310
f 352/418/352 354/420/354 303/364/310
f 132/149/135 341/402/342 131/421/134
f 128/142/131 132/149/135 131/421/134
f 356/422/355 355/423/356 131/148/134
f 340/424/341 356/422/355 341/425/342
f 341/425/342 356/422/355 131/148/134
f 340/405/341 344/408/345 356/426/355
f 356/422/355 357/427/357 355/423/356
f 356/426/355 358/428/358 357/429/357
f 353/419/353 129/144/132 130/147/133
f 355/423/356 130/147/133 131/148/134
f 355/423/356 353/419/353 130/147/133
f 352/418/352 353/419/353 354/420/354
f 354/420/354 353/419/353 355/423/356
f 355/423/356 357/427/357 359/430/359
f 355/423/356 359/430/359 354/420/354
f 356/426/355 344/408/345 358/428/358
f 309/366/312 308/365/311 360/431/360
f 303/364/310 354/420/354 308/365/311
f 354/420/354 359/430/359 308/365/311
f 359/430/359 360/431/360 308/365/311
f 361/432/361 362/433/362 310/367/313
f 361/432/361 363/434/363 362/433/362
f 309/366/312 361/432/361 310/367/313
f 309/366/312 360/431/360 361/432/361
f 361/432/361 364/435/364 363/434/363
f 364/435/364 361/432/361 360/431/360
f 358/428/358 365/436/365 357/429/357
f 342/404/343 366/437/366 344/408/345
f 344/408/345 366/437/366 358/428/358
f 358/428/358 366/437/366 365/436/365
f 366/437/366 346/413/347 367/438/367
f 342/404/343 346/413/347 366/437/366
f 359/430/359 357/427/357 360/431/360
f 357/429/357 365/436/365 360/439/360
f 360/439/360 365/436/365 364/440/364
f 364/440/364 365/436/365 368/441/368
f 366/437/366 369/442/369 365/436/365
f 366/437/366 367/438/367 369/442/369
f 370/443/370 369/442/369 371/444/371
f 369/442/369 370/443/370 372/445/372
f 373/446/373 370/443/370 374/447/374
f 374/447/374 370/443/370 371/444/371
f 374/447/374 375/448/375 466/449/376
f 325/386/328 324/385/327 376/450/377
f 322/381/325 325/386/328 376/450/377
f 324/385/327 327/388/330 376/450/377
f 376/450/377 377/451/378 322/381/325
f 376/450/377 327/388/330 377/451/378
f 377/451/378 327/388/330 378/452/379
f 348/350/296 379/453/380 345/410/346
f 347/414/348 345/412/346 380/454/381
f 379/453/380 380/455/381 345/410/346
f 377/451/378 378/452/379 379/456/380
f 327/388/330 381/457/382 378/452/379
f 379/456/380 378/452/379 380/458/381
f 378/452/379 381/457/382 380/458/381
f 381/459/382 382/460/383 380/454/381
f 347/414/348 380/454/381 382/460/383
f 382/460/383 381/459/382 383/461/384
f 351/462/351 384/463/385 332/393/334
f 322/381/325 351/462/351 332/393/334
f 348/350/296 351/417/351 379/453/380
f 350/464/350 385/465/386 351/462/351
f 351/462/351 385/465/386 384/463/385
f 322/381/325 377/451/378 351/462/351
f 377/451/378 379/456/380 351/462/351
f 383/461/384 386/466/387 382/460/383
f 386/466/387 387/467/388 388/468/389
f 326/387/329 336/469/338 327/388/330
f 336/398/338 335/397/337 389/470/390
f 327/388/330 336/469/338 381/457/382
f 336/398/338 389/470/390 390/471/391
f 389/470/390 391/472/392 390/471/391
f 389/470/390 392/473/393 391/472/392
f 336/469/338 390/474/391 381/457/382
f 390/471/391 391/472/392 387/475/388
f 390/476/391 383/461/384 381/459/382
f 390/476/391 387/467/388 383/461/384
f 383/461/384 387/467/388 386/466/387
f 391/472/392 393/477/394 387/475/388
f 391/472/392 392/473/393 393/477/394
f 393/478/394 388/479/389 387/480/388
f 346/413/347 347/414/348 367/438/367
f 394/481/395 367/438/367 347/414/348
f 347/414/348 382/460/383 394/481/395
f 394/481/395 371/444/371 367/438/367
f 369/442/369 367/438/367 371/444/371
f 371/444/371 375/448/375 374/447/374
f 395/482/396 375/448/375 371/444/371
f 394/481/395 395/482/396 371/444/371
f 394/481/395 382/460/383 395/482/396
f 382/460/383 386/466/387 395/482/396
f 396/483/397 397/484/398 398/485/399
f 397/484/398 396/483/397 295/353/299
f 296/352/298 397/484/398 295/353/299
f 296/352/298 329/390/332 397/484/398
f 397/484/398 329/390/332 399/486/400
f 399/486/400 398/485/399 397/484/398
f 329/392/332 330/391/333 331/487/401
f 399/486/400 400/488/402 398/485/399
f 400/488/402 399/486/400 329/390/332
f 329/392/332 331/487/401 400/489/402
f 400/489/402 331/487/401 401/490/403
f 401/490/403 331/487/401 402/491/404
f 403/492/405 404/493/406 398/485/399
f 396/483/397 398/485/399 404/493/406
f 398/485/399 400/488/402 403/492/405
f 402/491/404 405/494/407 401/490/403
f 400/489/402 401/490/403 405/494/407
f 400/489/402 405/494/407 403/495/405
f 328/389/331 331/487/401 330/391/333
f 331/487/401 406/496/408 402/491/404
f 328/389/331 406/496/408 331/487/401
f 396/483/397 349/415/349 295/353/299
f 297/354/300 408/497/409 350/416/350
f 349/415/349 408/497/409 297/354/300
f 408/497/409 349/415/349 409/498/410
f 396/483/397 409/498/410 349/415/349
f 404/493/406 410/499/411 409/498/410
f 404/493/406 409/498/410 396/483/397
f 409/498/410 410/499/411 408/497/409
f 408/500/409 385/465/386 350/464/350
f 408/500/409 411/501/412 385/465/386
f 406/496/408 412/502/413 407/503/414
f 412/502/413 408/500/409 410/504/411
f 411/501/412 408/500/409 412/502/413
f 411/501/412 412/502/413 385/465/386
f 404/493/406 403/492/405 410/499/411
f 403/495/405 405/494/407 413/505/415
f 405/494/407 407/503/414 413/505/415
f 406/496/408 407/503/414 402/491/404
f 405/494/407 402/491/404 407/503/414
f 403/495/405 413/505/415 410/504/411
f 414/506/416 413/505/415 407/503/414
f 410/504/411 413/505/415 414/506/416
f 410/504/411 414/506/416 412/502/413
f 412/502/413 414/506/416 407/503/414
f 332/393/334 406/496/408 328/389/331
f 332/393/334 384/463/385 406/496/408
f 384/463/385 385/465/386 406/496/408
f 412/502/413 406/496/408 385/465/386
f 310/367/313 415/507/417 311/368/314
f 416/508/418 306/362/308 311/368/314
f 306/362/308 416/508/418 312/369/315
f 415/507/417 416/508/418 311/368/314
f 316/373/319 312/369/315 416/508/418
f 416/508/418 417/509/419 316/373/319
f 315/372/318 418/510/420 317/374/320
f 417/509/419 418/510/420 316/373/319
f 419/511/421 418/510/420 417/509/419
f 316/373/319 418/510/420 315/372/318
f 317/374/320 420/512/422 421/513/423
f 317/374/320 418/510/420 420/512/422
f 417/509/419 422/514/424 419/511/421
f 418/510/420 419/511/421 423/515/425
f 420/512/422 418/510/420 423/515/425
f 422/514/424 424/516/426 419/511/421
f 425/517/427 333/395/335 313/370/316
f 425/517/427 313/370/316 317/374/320
f 421/513/423 425/517/427 317/374/320
f 425/517/427 426/518/428 333/395/335
f 333/395/335 427/519/429 334/396/336
f 335/397/337 334/396/336 428/520/430
f 334/396/336 427/519/429 428/520/430
f 420/512/422 429/521/431 430/522/432
f 420/512/422 430/522/432 421/513/423
f 430/523/432 431/524/433 421/525/423
f 431/524/433 425/526/427 421/525/423
f 425/526/427 431/524/433 426/527/428
f 430/523/432 432/528/434 431/524/433
f 427/519/429 333/395/335 426/518/428
f 426/527/428 433/529/435 427/530/429
f 427/519/429 434/531/436 428/520/430
f 427/530/429 433/529/435 434/532/436
f 433/529/435 435/533/437 434/532/436
f 432/528/434 436/534/438 431/524/433
f 426/527/428 431/524/433 436/534/438
f 436/534/438 433/529/435 426/527/428
f 437/535/439 433/529/435 436/534/438
f 437/535/439 435/533/437 433/529/435
f 362/433/362 438/536/440 310/367/313
f 363/434/363 439/537/441 362/433/362
f 438/536/440 362/433/362 439/537/441
f 438/536/440 439/537/441 440/538/442
f 310/367/313 438/536/440 415/507/417
f 438/536/440 441/539/443 415/507/417
f 440/538/442 441/539/443 438/536/440
f 364/440/364 442/540/444 363/541/363
f 439/537/441 363/434/363 442/542/444
f 368/441/368 442/540/444 364/440/364
f 439/537/441 442/542/444 440/538/442
f 440/538/442 445/543/445 444/544/446
f 442/542/444 445/543/445 440/538/442
f 416/508/418 422/514/424 417/509/419
f 424/516/426 423/515/425 419/511/421
f 423/515/425 429/521/431 420/512/422
f 446/545/447 429/521/431 423/515/425
f 415/507/417 447/546/448 448/547/449
f 440/538/442 444/544/446 441/539/443
f 441/539/443 447/546/448 415/507/417
f 444/544/446 447/546/448 441/539/443
f 449/548/450 450/549/451 448/547/449
f 444/544/446 449/548/450 447/546/448
f 447/546/448 449/548/450 448/547/449
f 444/544/446 445/543/445 451/550/452
f 449/548/450 444/544/446 451/550/452
f 449/548/450 451/550/452 450/549/451
f 415/507/417 448/547/449 416/508/418
f 422/514/424 416/508/418 452/551/453
f 424/516/426 422/514/424 452/551/453
f 416/508/418 448/547/449 452/551/453
f 452/551/453 448/547/449 453/552/454
f 448/547/449 450/549/451 453/552/454
f 424/516/426 452/551/453 423/515/425
f 423/515/425 454/553/455 446/545/447
f 452/551/453 454/553/455 423/515/425
f 429/521/431 446/545/447 455/554/456
f 456/555/457 446/545/447 454/553/455
f 452/551/453 453/552/454 454/553/455
f 454/553/455 457/556/458 456/555/457
f 453/552/454 458/557/459 454/553/455
f 453/552/454 459/558/460 458/557/459
f 454/553/455 458/557/459 457/556/458
f 458/557/459 459/558/460 457/556/458
f 457/556/458 460/559/461 456/555/457
f 450/549/451 459/558/460 453/552/454
f 457/556/458 459/558/460 461/560/462
f 457/556/458 461/560/462 460/559/461
f 450/549/451 462/561/463 459/558/460
f 459/558/460 463/562/464 461/560/462
f 461/560/462 463/562/464 460/559/461
f 368/441/368 443/563/465 442/540/444
f 365/436/365 464/564/466 368/441/368
f 464/564/466 443/563/465 368/441/368
f 443/563/465 445/565/445 442/540/444
f 464/564/466 465/566/467 443/563/465
f 365/436/365 369/442/369 464/564/466
f 369/442/369 372/445/372 464/564/466
f 370/443/370 373/446/373 372/445/372
f 374/447/374 466/449/376 373/446/373
f 468/567/468 466/449/376 467/568/469
f 466/449/376 468/567/468 469/569/470
f 373/446/373 470/570/471 372/445/372
f 373/446/373 469/569/470 471/571/472
f 373/446/373 466/449/376 469/569/470
f 373/446/373 471/571/472 470/570/471
f 470/570/471 471/571/472 472/572/473
f 469/573/470 463/562/464 471/574/472
f 471/574/472 463/562/464 472/575/473
f 463/562/464 469/573/470 473/576/474
f 443/563/465 465/566/467 445/565/445
f 445/543/445 465/577/467 451/550/452
f 451/550/452 465/577/467 462/561/463
f 465/577/467 474/578/475 462/561/463
f 451/550/452 462/561/463 450/549/451
f 372/445/372 465/566/467 464/564/466
f 372/445/372 474/579/475 465/566/467
f 372/445/372 470/570/471 474/579/475
f 474/579/475 470/570/471 472/572/473
f 462/561/463 472/575/473 459/558/460
f 472/575/473 463/562/464 459/558/460
f 474/578/475 472/575/473 462/561/463
f 429/521/431 455/554/456 430/522/432
f 428/520/430 475/580/476 335/397/337
f 335/397/337 475/580/476 389/470/390
f 475/580/476 428/520/430 476/581/477
f 392/473/393 389/470/390 475/580/476
f 475/582/476 477/583/478 392/584/393
f 428/520/430 434/531/436 476/581/477
f 475/582/476 476/585/477 477/583/478
f 478/586/479 479/587/480 476/585/477
f 476/585/477 479/587/480 477/583/478
f 477/583/478 480/588/481 392/584/393
f 392/584/393 480/588/481 393/478/394
f 393/478/394 480/588/481 388/479/389
f 480/588/481 481/589/482 388/479/389
f 480/588/481 482/590/483 481/589/482
f 483/591/484 481/589/482 484/592/485
f 477/583/478 482/590/483 480/588/481
f 477/583/478 485/593/486 482/590/483
f 430/523/432 455/594/456 432/528/434
f 455/554/456 446/545/447 456/555/457
f 455/594/456 486/595/487 432/528/434
f 432/528/434 486/595/487 436/534/438
f 456/555/457 460/559/461 455/554/456
f 487/596/488 486/595/487 455/594/456
f 486/595/487 437/535/439 436/534/438
f 486/595/487 488/597/489 437/535/439
f 455/554/456 460/559/461 487/598/488
f 486/595/487 489/599/490 488/597/489
f 487/596/488 490/600/491 486/595/487
f 476/585/477 434/532/436 478/586/479
f 434/532/436 435/533/437 478/586/479
f 437/535/439 488/597/489 435/533/437
f 488/597/489 491/601/492 435/533/437
f 478/586/479 492/602/493 479/587/480
f 492/602/493 478/586/479 435/533/437
f 492/602/493 485/593/486 479/587/480
f 435/533/437 493/603/494 492/602/493
f 435/533/437 491/601/492 493/603/494
f 482/590/483 484/592/485 481/589/482
f 488/597/489 489/599/490 491/601/492
f 477/583/478 479/587/480 485/593/486
f 492/602/493 493/603/494 485/593/486
f 485/593/486 493/603/494 484/592/485
f 493/603/494 491/601/492 484/592/485
f 485/593/486 484/592/485 482/590/483
f 466/449/376 375/448/375 467/568/469
f 375/448/375 494/604/495 467/568/469
f 494/604/495 375/448/375 395/482/396
f 467/605/469 495/606/496 468/607/468
f 386/466/387 388/468/389 395/482/396
f 388/468/389 494/604/495 395/482/396
f 495/606/496 467/605/469 497/608/497
f 467/605/469 494/609/495 497/608/497
f 496/610/498 473/611/474 495/606/496
f 469/573/470 468/612/468 473/576/474
f 495/606/496 473/611/474 468/607/468
f 497/608/497 496/610/498 495/606/496
f 494/609/495 498/613/499 497/608/497
f 494/609/495 388/479/389 498/613/499
f 481/589/482 498/613/499 388/479/389
f 483/591/484 498/613/499 481/589/482
f 487/598/488 460/559/461 473/576/474
f 473/576/474 496/614/498 487/598/488
f 490/600/491 487/596/488 496/610/498
f 497/608/497 490/600/491 496/610/498
f 463/562/464 473/576/474 460/559/461
f 497/608/497 489/599/490 490/600/491
f 497/608/497 498/613/499 489/599/490
f 498/613/499 483/591/484 489/599/490
f 490/600/491 489/599/490 486/595/487
f 489/599/490 484/592/485 491/601/492
f 484/592/485 489/599/490 483/591/484
f 83/92/86 500/615/500 499/616/501
f 83/92/86 112/123/115 500/615/500
f 38/39/39 499/616/501 37/38/38
f 37/38/38 499/616/501 39/40/40
f 83/92/86 499/616/501 38/39/39
f 500/615/500 103/116/108 39/40/40
f 500/615/500 112/123/115 103/116/108
f 112/123/115 119/114/106 103/116/108
f 500/615/500 39/40/40 499/616/501
f 137/155/141 501/617/163 159/153/139
f 137/155/141 181/207/185 501/617/163
f 181/207/185 223/249/227 501/617/163
f 223/249/227 181/207/185 184/210/188
f 160/182/164 501/181/163 502/618/502
f 160/182/164 502/618/502 206/232/210
f 206/232/210 502/618/502 210/236/214
f 501/181/163 210/236/214 502/618/502
f 501/181/163 223/619/227 210/236/214
f 223/249/227 191/217/195 210/250/214
