# Blender 4.1.1
# www.blender.org
mtllib MugCompleteVersion.mtl
o Cube
v 0.024655 0.109460 -0.024926
v 0.025481 0.006255 -0.025940
v 0.024653 0.109460 0.024889
v 0.025481 0.006255 0.025866
v -0.024635 0.109393 -0.024778
v -0.025557 0.005954 -0.027009
v -0.024633 0.109393 0.024739
v -0.024724 0.005876 0.027122
v 0.030790 0.119811 0.031145
v 0.030790 0.119811 -0.031191
v -0.030481 0.119618 0.031979
v -0.030478 0.119618 -0.032027
v 0.032965 0.022648 -0.033406
v 0.034042 0.098272 -0.034498
v 0.034042 0.098272 0.034447
v 0.032965 0.022648 0.033355
v -0.033375 0.098360 0.035307
v -0.030136 0.021808 0.034641
v -0.033797 0.098400 -0.035221
v -0.032745 0.022052 -0.034011
v 0.022734 0.045759 0.022914
v 0.017545 0.028753 0.017529
v 0.017547 0.028753 -0.017561
v 0.022736 0.045759 -0.022948
v -0.022734 0.045759 0.022914
v -0.017545 0.028753 0.017529
v -0.022736 0.045759 -0.022948
v -0.017547 0.028753 -0.017561
v -0.035022 0.059718 -0.034895
v 0.035036 0.059896 -0.035505
v -0.032768 0.059508 0.035584
v 0.035036 0.059896 0.035454
v 0.000000 0.119811 0.043290
v -0.000129 0.004609 0.031275
v 0.000000 0.119811 -0.043290
v -0.000240 0.004620 -0.031315
v 0.000000 0.109460 0.034596
v -0.000000 0.109460 -0.034596
v 0.000000 0.022438 -0.046284
v 0.000000 0.098272 -0.047880
v 0.000558 0.022386 0.046409
v 0.000112 0.098262 0.047906
v 0.000000 0.028212 0.022497
v 0.000000 0.045759 0.031855
v -0.000000 0.028212 -0.022511
v 0.000000 0.045759 -0.031855
v 0.000558 0.059792 0.049408
v 0.000000 0.059844 -0.049278
v 0.041738 0.119811 -0.000092
v 0.030349 0.004871 -0.000092
v 0.033383 0.109458 -0.000074
v -0.032831 0.109240 -0.000075
v 0.044619 0.023276 -0.000100
v 0.046158 0.098272 -0.000102
v 0.021886 0.028211 -0.000053
v 0.030774 0.045751 -0.000068
v -0.021886 0.028211 -0.000053
v -0.030774 0.045751 -0.000068
v 0.047506 0.060054 -0.000104
v -0.046584 0.059291 0.000506
v 0.000000 0.027129 -0.000054
v -0.000055 0.000886 -0.000105
v -0.037036 0.004035 -0.005558
v -0.036379 0.003971 0.005438
v -0.024612 0.000981 -0.000122
v -0.043440 0.014216 0.005877
v -0.045437 0.014405 -0.005414
v -0.046212 0.030341 0.000567
v -0.044419 0.122099 0.008885
v -0.044379 0.122067 -0.009929
v -0.038381 0.122374 -0.000107
v -0.048170 0.104087 -0.010736
v -0.048148 0.104122 0.009406
v -0.048126 0.087681 0.000036
v -0.076750 0.013525 -0.007298
v -0.076812 0.013512 0.006146
v -0.070177 0.025692 0.007117
v -0.070129 0.025610 -0.009007
v -0.063858 0.131645 0.006344
v -0.063666 0.131449 -0.011565
v -0.063021 0.119746 -0.014769
v -0.063234 0.120001 0.007269
v -0.058750 0.015149 0.007197
v -0.058995 0.015191 -0.006958
v -0.058874 0.002725 0.006928
v -0.058895 0.002747 -0.006724
v -0.095163 0.036924 -0.008603
v -0.095301 0.036840 0.007761
v -0.083714 0.043729 0.008610
v -0.083631 0.043433 -0.012184
v -0.096026 0.110959 -0.012644
v -0.096148 0.111082 0.008956
v -0.084720 0.107563 0.010256
v -0.084570 0.107409 -0.016924
v -0.102993 0.067839 0.007876
v -0.088095 0.072126 0.008925
v -0.088055 0.072020 -0.013393
v -0.102946 0.067832 -0.009811
v 0.039087 0.119811 -0.017041
v 0.028797 0.005127 0.015299
v 0.016934 0.119811 0.040194
v -0.015299 0.004811 0.029500
v -0.016895 0.119787 -0.040305
v 0.015158 0.004981 -0.029632
v 0.031275 0.109459 -0.013618
v 0.013565 0.109460 0.032122
v -0.031099 0.109278 0.013193
v -0.013564 0.109452 -0.032108
v 0.027565 0.121252 0.027859
v 0.027567 0.121252 -0.027901
v -0.027467 0.121074 0.027706
v -0.027467 0.121074 -0.027752
v -0.034548 0.038893 -0.034548
v 0.018141 0.022464 -0.043006
v 0.034765 0.080306 -0.035230
v -0.018690 0.098288 -0.044553
v -0.031814 0.038638 0.035335
v 0.034630 0.039667 0.035043
v -0.016462 0.022235 0.043464
v 0.018735 0.098271 0.044460
v 0.041806 0.023041 0.018121
v 0.043221 0.098272 -0.018848
v -0.029344 0.011052 -0.031214
v 0.029572 0.011408 -0.029988
v 0.032880 0.111650 -0.033319
v 0.032880 0.111650 0.033270
v 0.029572 0.011408 0.029934
v -0.032483 0.111548 -0.034621
v -0.032433 0.111543 0.034590
v -0.027657 0.010894 0.031558
v 0.020239 0.033401 0.020299
v 0.020575 0.028221 -0.010016
v 0.020242 0.033401 -0.020329
v 0.028833 0.045754 0.012440
v -0.020239 0.033401 0.020299
v 0.010065 0.028221 0.020919
v -0.012511 0.045760 0.029576
v -0.020242 0.033401 -0.020329
v -0.020574 0.028221 0.009941
v -0.028835 0.045754 -0.012537
v -0.010066 0.028221 -0.020936
v 0.012512 0.045760 -0.029580
v 0.023415 0.079795 -0.023658
v 0.023412 0.079795 0.023623
v -0.023410 0.079787 0.023604
v -0.023412 0.079787 -0.023639
v -0.034802 0.080636 -0.034778
v 0.034630 0.039667 -0.035093
v -0.033508 0.080515 0.035147
v 0.034765 0.080306 0.035179
v 0.044484 0.059995 -0.019398
v 0.019338 0.059844 0.045772
v -0.042719 0.059329 0.018893
v -0.019266 0.059828 -0.045685
v -0.016895 0.119787 0.040299
v 0.015172 0.004979 0.029573
v 0.016934 0.119811 -0.040200
v -0.015684 0.004847 -0.029480
v -0.013562 0.109452 0.032103
v 0.013566 0.109460 -0.032126
v -0.018114 0.022390 -0.043082
v 0.018721 0.098272 -0.044462
v 0.018211 0.022458 0.043014
v -0.018373 0.098258 0.044625
v -0.010065 0.028221 0.020919
v 0.012511 0.045760 0.029576
v 0.010066 0.028221 -0.020936
v -0.012512 0.045760 -0.029580
v -0.017659 0.059678 0.046078
v 0.019268 0.059851 -0.045761
v 0.000000 0.039516 -0.048696
v 0.000642 0.039456 0.048845
v 0.000000 0.033394 -0.028202
v 0.000000 0.033394 0.028202
v -0.000030 0.011058 -0.040957
v 0.000335 0.080268 0.048975
v 0.000000 0.080300 -0.048896
v 0.000305 0.011026 0.041018
v 0.000014 0.111649 0.046247
v 0.000000 0.079795 -0.032838
v 0.000000 0.027142 -0.011931
v 0.000000 0.079795 0.032838
v 0.000000 0.121252 -0.038723
v 0.000000 0.121252 0.038723
v -0.000463 0.001634 -0.016792
v 0.000000 0.111650 -0.046244
v 0.039086 0.119811 0.016909
v 0.028797 0.005127 -0.015436
v 0.031274 0.109459 0.013512
v -0.031099 0.109278 -0.013304
v 0.041806 0.023041 -0.018265
v 0.043221 0.098272 0.018702
v 0.020574 0.028221 0.009941
v 0.028835 0.045754 -0.012537
v -0.020575 0.028221 -0.010016
v -0.028833 0.045754 0.012440
v 0.044484 0.059995 0.019249
v -0.044300 0.059477 -0.017994
v 0.000000 0.027142 0.011857
v -0.000450 0.001632 0.016637
v 0.011579 0.027142 -0.000053
v 0.046945 0.040119 -0.000104
v 0.031699 0.079789 -0.000070
v -0.027326 0.033389 -0.000060
v 0.027326 0.033389 -0.000060
v 0.047138 0.080326 -0.000104
v 0.039504 0.011665 -0.000095
v -0.031630 0.079762 -0.000070
v -0.011579 0.027142 -0.000053
v 0.037348 0.121251 -0.000083
v 0.016504 0.001760 -0.000097
v 0.044581 0.111650 -0.000099
v -0.028340 0.001446 -0.005400
v -0.035257 0.002070 -0.000114
v -0.028275 0.001439 0.005172
v -0.045050 0.025449 0.006502
v -0.045889 0.016243 0.000286
v -0.046348 0.025571 -0.005526
v -0.041485 0.009244 -0.007575
v -0.039661 0.009070 0.007747
v -0.029754 0.004544 -0.018077
v -0.015802 0.000864 -0.000111
v -0.038625 0.020264 0.021299
v -0.029061 0.004477 0.018082
v -0.041338 0.020519 -0.020611
v -0.045979 0.040545 0.000601
v -0.039933 0.122248 0.005429
v -0.045372 0.124626 -0.000616
v -0.039926 0.122246 -0.005731
v -0.047911 0.092649 -0.006516
v -0.049801 0.103521 -0.000904
v -0.047736 0.092636 0.006323
v -0.046605 0.114736 -0.014319
v -0.046666 0.114802 0.012835
v -0.038652 0.119566 0.020186
v -0.042554 0.099377 0.021957
v -0.035659 0.121045 -0.000087
v -0.038641 0.119562 -0.020415
v -0.042812 0.099397 -0.022074
v -0.047331 0.077786 0.000240
v -0.078024 0.011244 -0.000507
v -0.068910 0.027926 -0.001015
v -0.073429 0.019561 -0.010925
v -0.073505 0.019608 0.009403
v -0.063881 0.133736 -0.002397
v -0.063008 0.117685 -0.003964
v -0.063306 0.125556 -0.016912
v -0.063584 0.125865 0.010552
v -0.052377 0.128229 0.006094
v -0.052248 0.128101 -0.009592
v -0.064395 0.019266 0.007094
v -0.052583 0.013973 -0.006186
v -0.054182 0.114466 -0.011431
v -0.054319 0.114633 0.006632
v -0.067940 0.006293 0.006466
v -0.067883 0.006299 -0.006980
v -0.051603 0.013866 0.006733
v -0.064368 0.019262 -0.007792
v -0.048164 0.002452 0.006491
v -0.048446 0.002495 -0.006225
v -0.058970 0.008975 -0.009448
v -0.058887 0.000404 0.000099
v -0.058787 0.008931 0.009669
v -0.058870 0.017501 0.000122
v -0.097399 0.035626 -0.000165
v -0.081505 0.044837 -0.002043
v -0.089376 0.040159 -0.013877
v -0.089528 0.040304 0.011669
v -0.077374 0.033728 0.007853
v -0.077308 0.033510 -0.010745
v -0.086528 0.024213 -0.007940
v -0.086634 0.024157 0.006883
v -0.098232 0.111683 -0.001565
v -0.082500 0.106823 -0.003613
v -0.090272 0.109158 -0.019357
v -0.090460 0.109349 0.014179
v -0.102750 0.089723 0.008622
v -0.086898 0.056316 0.008722
v -0.086841 0.056096 -0.012696
v -0.100486 0.050716 -0.009045
v -0.080664 0.125724 -0.012784
v -0.074731 0.117526 -0.016851
v -0.074939 0.117760 0.009035
v -0.080845 0.125906 0.007833
v -0.100583 0.050662 0.007835
v -0.088343 0.090749 0.009844
v -0.088264 0.090658 -0.015246
v -0.102687 0.089658 -0.011312
v -0.105762 0.067041 -0.000730
v -0.095493 0.069915 -0.015353
v -0.085282 0.072867 -0.002471
v -0.095552 0.069993 0.012151
v 0.018083 0.111650 -0.042944
v -0.044136 0.082087 0.017348
v 0.041746 0.111650 0.018063
v 0.015795 0.002338 -0.016319
v 0.034982 0.121252 -0.015244
v 0.015164 0.121252 0.035954
v -0.041047 0.111793 -0.023042
v -0.015152 0.121230 -0.035941
v -0.012883 0.079794 0.030486
v -0.010975 0.027155 -0.011173
v -0.029677 0.079769 -0.012886
v 0.012884 0.079795 -0.030493
v -0.017993 0.111634 0.043110
v -0.018250 0.001767 0.014572
v -0.015477 0.010984 0.038513
v 0.037117 0.011550 0.016450
v 0.019119 0.080300 -0.045406
v -0.018166 0.080252 0.045580
v 0.044139 0.080318 0.019099
v 0.016451 0.011135 -0.038184
v 0.025625 0.033393 -0.011112
v 0.011153 0.033396 0.026187
v -0.025624 0.033393 0.011026
v -0.011154 0.033396 -0.026191
v 0.029697 0.079792 0.012824
v 0.043962 0.039949 0.019027
v -0.017170 0.039264 0.045607
v -0.042050 0.036467 0.017607
v 0.019046 0.039535 -0.045224
v -0.019036 0.039438 -0.045156
v 0.019126 0.039528 0.045237
v 0.011154 0.033396 -0.026191
v -0.011153 0.033396 0.026187
v -0.016488 0.011079 -0.038298
v 0.019161 0.080297 0.045411
v -0.019123 0.080342 -0.045350
v 0.016493 0.011131 0.038175
v 0.018084 0.111650 0.042938
v -0.012884 0.079794 -0.030491
v 0.010975 0.027155 -0.011173
v 0.012883 0.079795 0.030489
v 0.015165 0.121252 -0.035960
v -0.015152 0.121230 0.035935
v -0.034913 0.010230 0.020667
v -0.018033 0.111638 -0.043106
v -0.044186 0.036667 -0.016573
v 0.010975 0.027155 0.011100
v 0.043962 0.039949 -0.019175
v 0.029699 0.079792 -0.012925
v -0.025625 0.033393 -0.011112
v 0.025624 0.033393 0.011026
v 0.044139 0.080318 -0.019248
v -0.044889 0.082157 -0.017006
v 0.037117 0.011550 -0.016587
v -0.036805 0.010408 -0.020355
v -0.029675 0.079769 0.012784
v -0.010975 0.027155 0.011100
v -0.035216 0.121332 0.013832
v 0.034981 0.121252 0.015125
v 0.015797 0.002337 0.016174
v 0.041746 0.111650 -0.018205
v -0.035213 0.121332 -0.013985
v -0.031714 0.001379 -0.000126
v -0.046252 0.021531 0.000441
v -0.063720 0.021696 -0.000367
v -0.018334 0.001776 -0.014727
v -0.041801 0.122463 -0.000210
v -0.048584 0.096758 -0.000249
v -0.052069 0.130632 -0.001635
v -0.041029 0.111798 0.022768
v -0.075609 0.035388 -0.001618
v -0.053184 0.121366 -0.013729
v -0.054688 0.112163 -0.002536
v -0.066176 0.012780 0.009436
v -0.068573 0.003864 -0.000240
v -0.053370 0.121570 0.009562
v -0.066118 0.012781 -0.010042
v -0.050633 0.008248 -0.008609
v -0.047594 0.000327 0.000106
v -0.049765 0.008145 0.009015
v -0.052804 0.016065 0.000299
v -0.095560 0.090251 0.013454
v -0.081902 0.028846 -0.012475
v -0.088313 0.022416 -0.000356
v -0.082020 0.028957 0.010501
v -0.085601 0.090894 -0.002955
v -0.095462 0.090143 -0.017500
v -0.105421 0.089500 -0.001091
v -0.077661 0.121586 -0.019178
v -0.073725 0.116111 -0.004177
v -0.077928 0.121872 0.012794
v -0.081864 0.127348 -0.002207
v -0.103097 0.049654 -0.000346
v -0.093649 0.053390 -0.014461
v -0.084307 0.057240 -0.002246
v -0.093755 0.053504 0.011869
vn 0.0022 0.6497 -0.7602
vn 0.0031 0.2261 -0.9741
vn 0.3601 0.2270 -0.9049
vn 0.2814 0.6470 -0.7087
vn 0.0017 0.0868 -0.9962
vn 0.3682 0.0890 -0.9255
vn 0.7202 0.0893 -0.6880
vn 0.7041 0.2270 -0.6729
vn 0.5548 0.6427 -0.5283
vn -0.7300 -0.0258 0.6830
vn -0.9278 -0.0370 0.3711
vn -0.9284 -0.0450 0.3687
vn -0.7241 -0.0082 0.6897
vn -0.9986 -0.0329 0.0424
vn -0.9973 -0.0684 0.0277
vn -0.9960 -0.0879 0.0165
vn -0.9781 -0.0815 0.1913
vn -0.9474 -0.0395 0.3177
vn -0.8758 0.0041 0.4827
vn -0.6964 0.0397 0.7165
vn 0.7661 0.6427 -0.0001
vn 0.9757 0.2189 -0.0002
vn 0.9186 0.2218 0.3271
vn 0.7229 0.6422 0.2551
vn 0.9964 0.0854 -0.0002
vn 0.9386 0.0868 0.3338
vn 0.7221 0.0895 0.6860
vn 0.7057 0.2270 0.6712
vn 0.5562 0.6425 0.5271
vn 0.0214 -0.9998 -0.0002
vn 0.1354 -0.9908 -0.0001
vn 0.1295 -0.9845 -0.1185
vn 0.0124 -0.9916 -0.1290
vn 0.4368 -0.8995 -0.0001
vn 0.4318 -0.8887 -0.1545
vn 0.3831 -0.8536 -0.3529
vn 0.1729 -0.8980 -0.4045
vn 0.0034 -0.9123 -0.4095
vn -0.9819 0.1897 0.0002
vn -0.9247 0.1937 0.3277
vn -0.4563 0.8740 0.1671
vn -0.5011 0.8654 0.0002
vn -0.7092 0.2004 0.6759
vn -0.3345 0.8854 0.3229
vn 0.7224 0.6423 -0.2562
vn 0.0004 0.1975 -0.9803
vn -0.3625 0.1991 -0.9105
vn -0.1784 0.8776 -0.4449
vn 0.0003 0.8729 -0.4879
vn -0.7109 0.2003 -0.6742
vn -0.3351 0.8854 -0.3221
vn 0.2823 0.6469 0.7084
vn 0.0021 0.6498 0.7601
vn 0.1576 0.8454 -0.5104
vn -0.8074 0.2588 -0.5302
vn -0.8042 0.2271 -0.5493
vn -0.5387 0.7269 -0.4259
vn -0.9430 -0.0386 -0.3306
vn -0.8732 0.0144 -0.4871
vn -0.6949 0.0543 -0.7171
vn -0.6540 0.2311 -0.7203
vn -0.5048 0.6719 -0.5420
vn 0.0004 0.1975 0.9803
vn 0.3647 0.1988 0.9097
vn 0.1795 0.8755 0.4486
vn 0.0003 0.8728 0.4880
vn 0.7175 0.1964 0.6683
vn 0.3507 0.8775 0.3271
vn -0.2654 0.6587 -0.7040
vn 0.3658 0.1987 -0.9092
vn 0.3712 0.0436 -0.9275
vn 0.0002 0.0440 -0.9990
vn 0.7192 0.1961 -0.6666
vn 0.7268 0.0420 -0.6855
vn 0.7160 0.1499 -0.6818
vn 0.3655 0.1516 -0.9184
vn -0.0000 0.1518 -0.9884
vn -0.0000 1.0000 -0.0000
vn 0.0562 0.9984 -0.0000
vn 0.0624 0.9962 0.0603
vn -0.0000 0.9985 0.0555
vn 0.4685 0.8835 -0.0000
vn 0.4631 0.8712 0.1629
vn 0.4075 0.8273 0.3866
vn 0.1782 0.8751 0.4499
vn -0.0000 0.8881 0.4597
vn 0.9864 0.1646 0.0001
vn 0.9347 0.1792 0.3070
vn 0.9434 0.0381 0.3294
vn 0.9994 0.0356 0.0002
vn 0.7252 0.0421 0.6872
vn 0.7144 0.1500 0.6835
vn 0.9318 0.1459 0.3322
vn 0.9896 0.1437 0.0002
vn -0.3613 0.1991 0.9109
vn -0.3685 0.0444 0.9286
vn 0.0002 0.0440 0.9990
vn -0.7225 0.0444 0.6899
vn -0.7141 0.1503 0.6838
vn -0.3642 0.1517 0.9189
vn -0.0000 0.1517 0.9884
vn 0.0031 0.2268 0.9739
vn -0.3436 0.2260 0.9115
vn -0.2669 0.6583 0.7039
vn 0.0030 0.0885 0.9961
vn -0.3612 0.0720 0.9297
vn -0.6593 0.2243 0.7176
vn -0.5091 0.6699 0.5404
vn -0.3517 -0.8419 0.4093
vn -0.1453 -0.8991 0.4129
vn -0.0888 -0.9842 0.1531
vn -0.4171 -0.8549 0.3084
vn 0.0053 -0.9142 0.4052
vn 0.0128 -0.9917 0.1276
vn -0.0125 -0.9999 -0.0003
vn -0.0309 -0.9995 -0.0005
vn -0.1433 -0.9805 0.1348
vn -0.1895 -0.8738 0.4479
vn 0.0101 -0.2722 0.9622
vn 0.0082 -0.6149 0.7885
vn -0.2684 -0.5879 0.7631
vn -0.3466 -0.2526 0.9034
vn -0.5698 -0.5344 0.6243
vn -0.6846 -0.2174 0.6957
vn 0.9655 -0.2605 -0.0002
vn 0.8081 -0.5890 -0.0001
vn 0.7767 -0.5771 0.2525
vn 0.9125 -0.2596 0.3162
vn 0.4318 -0.8888 0.1537
vn 0.3837 -0.8542 0.3508
vn 0.6016 -0.5699 0.5596
vn 0.7027 -0.2620 0.6615
vn -0.0017 -0.0050 -1.0000
vn 0.3697 -0.0049 -0.9292
vn 0.3694 0.0377 -0.9285
vn -0.0006 0.0363 -0.9993
vn 0.7232 -0.0049 -0.6906
vn 0.7226 0.0379 -0.6902
vn 0.0055 -0.0037 1.0000
vn -0.3813 -0.0104 0.9244
vn -0.3756 0.0233 0.9265
vn 0.0037 0.0384 0.9993
vn 1.0000 -0.0048 -0.0002
vn 0.9423 -0.0048 0.3349
vn 0.9416 0.0369 0.3348
vn 0.9993 0.0362 -0.0002
vn 0.7257 -0.0047 0.6880
vn 0.7248 0.0382 0.6879
vn 0.0016 -0.2696 -0.9630
vn 0.0031 -0.6109 -0.7917
vn 0.2863 -0.5938 -0.7520
vn 0.3533 -0.2672 -0.8965
vn 0.6000 -0.5692 -0.5621
vn 0.7003 -0.2618 -0.6642
vn -0.4685 0.8835 -0.0000
vn -0.4631 0.8712 0.1629
vn -0.8369 0.4670 0.2855
vn -0.8785 0.4778 0.0001
vn -0.4075 0.8273 0.3866
vn -0.6415 0.4613 0.6130
vn -0.9316 0.1464 0.3328
vn -0.9895 0.1444 0.0002
vn -0.0000 0.8885 -0.4589
vn -0.1786 0.8755 -0.4491
vn -0.3141 0.4779 -0.8203
vn -0.0000 0.4911 -0.8711
vn -0.4083 0.8275 -0.3854
vn -0.6429 0.4612 -0.6115
vn -0.7157 0.1502 -0.6821
vn -0.3653 0.1517 -0.9184
vn 0.4634 0.8712 -0.1623
vn 0.8374 0.4669 -0.2843
vn 0.8785 0.4778 0.0001
vn 0.4083 0.8275 -0.3854
vn 0.6429 0.4612 -0.6115
vn 0.9324 0.1457 -0.3308
vn 0.3132 0.4776 0.8208
vn -0.0000 0.4907 0.8713
vn 0.6415 0.4613 0.6130
vn 0.3644 0.1516 0.9188
vn -0.9252 0.1935 -0.3263
vn -0.9418 0.0428 -0.3336
vn -0.9991 0.0420 0.0002
vn -0.7241 0.0443 -0.6882
vn -0.9321 0.1463 -0.3314
vn 0.9395 -0.0815 0.3326
vn 0.9967 -0.0809 -0.0002
vn 0.7239 -0.0829 0.6850
vn -0.3759 -0.0768 0.9235
vn 0.0079 -0.0822 0.9966
vn -0.7265 -0.0698 0.6836
vn -0.8604 -0.2181 0.4606
vn -0.9236 -0.0614 0.3785
vn -0.9123 -0.2084 0.3524
vn -0.9607 -0.0583 0.2713
vn -0.9962 0.0319 0.0810
vn -0.9982 0.0048 0.0590
vn 0.3682 -0.0830 -0.9260
vn -0.0008 -0.0819 -0.9966
vn 0.7212 -0.0829 -0.6877
vn -0.6836 -0.2241 -0.6946
vn -0.3443 -0.2534 -0.9040
vn -0.3749 -0.0745 -0.9241
vn -0.7344 -0.0589 -0.6761
vn -0.3813 -0.0059 -0.9244
vn -0.7399 -0.0101 -0.6726
vn 0.3605 -0.2689 0.8932
vn 0.3761 -0.0830 0.9228
vn 0.3765 -0.0038 0.9264
vn -0.1782 0.8751 0.4499
vn -0.3132 0.4776 0.8208
vn 0.1786 0.8755 -0.4491
vn 0.3141 0.4779 -0.8203
vn -0.5502 -0.5555 -0.6235
vn -0.2619 -0.5896 -0.7641
vn -0.3304 -0.8514 -0.4074
vn -0.1431 -0.8988 -0.4144
vn 0.3741 0.0394 0.9265
vn 0.3708 0.0904 0.9243
vn -0.3746 0.0289 -0.9267
vn -0.7298 0.0103 -0.6836
vn -0.3586 0.0765 -0.9303
vn 0.2908 -0.5965 0.7481
vn 0.1741 -0.8992 0.4013
vn 0.3615 0.2276 0.9042
vn 0.3700 0.0437 0.9280
vn -0.0562 0.9984 -0.0000
vn -0.0624 0.9962 0.0603
vn -0.3696 0.0443 -0.9281
vn -0.1781 0.8774 0.4454
vn 0.1799 0.8757 -0.4480
vn 0.3511 0.8776 -0.3263
vn -0.7350 -0.5204 0.4347
vn -0.7653 -0.5253 0.3720
vn -0.3410 0.2280 -0.9120
vn -0.9921 -0.0246 -0.1227
vn -0.9488 -0.0374 -0.3136
vn -0.9549 -0.1868 -0.2306
vn -0.8721 -0.2191 -0.4376
vn -0.9481 -0.0195 -0.3173
vn -0.0623 0.9963 -0.0600
vn -0.4634 0.8712 -0.1623
vn -0.0000 0.9985 -0.0552
vn 0.9120 -0.2597 -0.3176
vn 0.9390 -0.0816 -0.3341
vn 0.9417 -0.0048 -0.3363
vn -0.9413 0.0429 0.3349
vn 0.8369 0.4670 0.2855
vn -0.8374 0.4669 -0.2843
vn 0.9411 0.0369 -0.3362
vn 0.9381 0.0869 -0.3353
vn -0.9394 -0.0315 -0.3413
vn -0.9822 -0.0838 -0.1681
vn 0.7763 -0.5771 -0.2536
vn -0.7482 -0.5578 -0.3593
vn -0.7115 -0.5574 -0.4278
vn -0.1907 -0.8801 -0.4349
vn -0.3884 -0.8719 -0.2981
vn 0.9351 0.1789 -0.3058
vn 0.9439 0.0380 -0.3280
vn 0.0623 0.9963 -0.0600
vn 0.5771 0.8124 -0.0829
vn 0.7554 0.6553 0.0002
vn -0.5594 0.7176 0.4149
vn 0.0097 0.8415 0.5401
vn 0.1934 0.9778 0.0811
vn 0.1771 0.9842 -0.0001
vn -0.4571 0.8737 -0.1665
vn 0.1296 -0.9846 0.1176
vn 0.9180 0.2220 -0.3286
vn 0.5801 0.8102 0.0838
vn 0.2069 0.9751 -0.0799
vn -0.0926 -0.9957 -0.0017
vn -0.1954 -0.9807 0.0029
vn -0.1410 -0.9810 -0.1331
vn -0.9854 -0.1035 0.1351
vn -0.9897 -0.0650 0.1275
vn 0.3556 0.6041 -0.7132
vn 0.4566 0.8897 0.0030
vn 0.7039 0.7103 0.0004
vn 0.5357 0.4743 -0.6986
vn 0.2774 0.6175 0.7360
vn 0.4601 0.5237 0.7170
vn 0.5468 0.4662 0.6954
vn 0.7585 0.6517 -0.0061
vn 0.5777 0.4055 -0.7084
vn -0.0874 -0.9842 -0.1537
vn 0.4921 0.8705 0.0065
vn 0.1899 0.9818 0.0040
vn -0.9940 -0.1090 -0.0060
vn -0.9961 -0.0874 0.0122
vn 0.4640 0.8858 -0.0023
vn 0.4398 0.7182 -0.5393
vn 0.3349 0.7426 0.5800
vn 0.0125 0.8296 0.5582
vn -0.0243 0.9997 -0.0102
vn 0.0566 0.8476 -0.5276
vn -0.8178 0.2188 0.5323
vn -0.8319 0.2487 0.4961
vn 0.8067 0.5908 -0.0104
vn 0.5909 0.3321 -0.7353
vn 0.6047 0.3985 0.6897
vn 0.6830 0.2609 0.6822
vn 0.9262 0.3769 -0.0092
vn 0.6298 0.2029 -0.7498
vn -0.7259 -0.4575 -0.5136
vn -0.0802 0.0242 -0.9965
vn 0.1848 0.1352 -0.9734
vn -0.4510 -0.5543 -0.6996
vn 0.1774 0.2118 -0.9611
vn 0.0914 -0.6576 -0.7478
vn -0.7963 -0.3528 0.4914
vn -0.8718 -0.4895 0.0170
vn -0.7394 -0.6732 -0.0055
vn -0.6390 -0.5048 0.5804
vn -0.1962 -0.9806 -0.0054
vn -0.0599 -0.7455 0.6638
vn 0.0110 -0.0475 0.9988
vn -0.0402 -0.0524 0.9978
vn -0.1404 -0.6923 0.7078
vn -0.3893 -0.6172 0.6837
vn -0.5013 -0.5486 0.6691
vn -0.0097 -0.0685 0.9976
vn -0.1826 -0.9832 0.0016
vn -0.4982 -0.8671 -0.0017
vn -0.1090 -0.6979 -0.7079
vn -0.3480 -0.6397 -0.6853
vn -0.4945 -0.5712 -0.6551
vn -0.6805 -0.7327 -0.0045
vn -0.4100 0.0651 0.9098
vn -0.1259 0.1206 0.9847
vn 0.0810 0.1243 0.9889
vn 0.0757 -0.0522 -0.9958
vn 0.0475 -0.0932 -0.9945
vn 0.0118 -0.1364 -0.9906
vn 0.1075 -0.1113 -0.9879
vn 0.0911 0.0087 -0.9958
vn 0.0837 -0.6675 -0.7399
vn 0.0345 0.6632 -0.7477
vn 0.1223 0.6944 -0.7091
vn 0.0750 -0.9972 -0.0055
vn 0.0878 -0.6855 0.7227
vn 0.0543 0.6061 0.7935
vn 0.1279 -0.1407 0.9817
vn 0.0883 -0.0121 0.9960
vn 0.1025 0.6790 0.7270
vn -0.0197 0.9988 0.0452
vn 0.1101 0.9939 0.0080
vn 0.7709 0.0134 0.6368
vn -0.0739 -0.0364 0.9966
vn -0.1237 -0.0035 0.9923
vn 0.7741 -0.1072 0.6239
vn -0.7916 -0.0615 0.6079
vn -0.8186 0.1110 0.5635
vn -0.7428 0.4318 0.5117
vn -0.1058 0.1378 0.9848
vn 0.7066 -0.3621 0.6080
vn -0.0639 -0.1792 -0.9817
vn -0.6038 -0.5178 -0.6060
vn -0.1660 -0.1611 -0.9729
vn -0.7181 -0.3935 -0.5740
vn -0.7804 -0.6252 -0.0006
vn -0.5732 -0.4997 0.6494
vn -0.8849 -0.4659 0.0038
vn -0.6805 -0.3702 0.6323
vn 0.0016 -0.0986 0.9951
vn -0.0509 -0.0863 0.9950
vn 0.7215 -0.0195 -0.6921
vn 0.9994 0.0351 -0.0016
vn 0.9946 -0.1033 0.0005
vn 0.7143 -0.1446 -0.6848
vn 0.8907 -0.4545 0.0035
vn 0.6178 -0.3707 -0.6935
vn -0.8247 -0.0837 -0.5593
vn -0.2046 -0.0811 -0.9755
vn -0.2605 -0.0310 -0.9650
vn -0.8509 0.0975 -0.5161
vn -0.2464 0.1459 -0.9581
vn -0.7751 0.4263 -0.4664
vn -0.9973 -0.0730 0.0032
vn -0.9893 0.1455 0.0020
vn -0.8672 0.4980 -0.0029
vn -0.0484 0.2295 -0.9721
vn -0.4660 0.7632 -0.4476
vn 0.4039 -0.5905 -0.6987
vn 0.4881 -0.8728 0.0048
vn 0.4505 -0.6611 0.6000
vn 0.0448 0.1568 0.9866
vn -0.4409 0.7531 0.4883
vn -0.5349 0.8449 -0.0078
vn -0.9663 -0.2573 0.0047
vn -0.7586 -0.1962 0.6213
vn -0.7924 -0.2233 -0.5676
vn -0.2074 -0.0992 -0.9732
vn 0.6855 0.0784 -0.7239
vn 0.9892 0.1464 -0.0045
vn 0.7430 0.1139 0.6596
vn -0.0781 -0.0393 0.9962
vt 0.322451 0.707881
vt 0.303274 0.709083
vt 0.301539 0.656304
vt 0.320006 0.655509
vt 0.280263 0.709636
vt 0.279656 0.656648
vt 0.279093 0.605727
vt 0.300431 0.605523
vt 0.318557 0.604997
vt 0.207533 0.194034
vt 0.194128 0.122266
vt 0.247337 0.104897
vt 0.248081 0.185994
vt 0.179058 0.044050
vt 0.220136 0.036348
vt 0.194128 0.122266
vt 0.261213 0.028645
vt 0.281616 0.048009
vt 0.302019 0.067373
vt 0.289127 0.124740
vt 0.283189 0.187811
vt 0.248081 0.185994
vt 0.289127 0.124740
vt 0.319176 0.506574
vt 0.301305 0.506544
vt 0.300892 0.457103
vt 0.318827 0.457423
vt 0.279616 0.506507
vt 0.279421 0.456960
vt 0.279329 0.406892
vt 0.300678 0.407130
vt 0.318810 0.407730
vt 0.000000 0.651346
vt 0.049806 0.578808
vt 0.088157 0.615303
vt 0.066510 0.674100
vt 0.099611 0.506270
vt 0.113804 0.573212
vt 0.127337 0.607076
vt 0.120354 0.640199
vt 0.110789 0.686501
vt 0.372334 0.506649
vt 0.372801 0.553318
vt 0.338040 0.554925
vt 0.338054 0.506598
vt 0.374080 0.600545
vt 0.338529 0.603784
vt 0.318701 0.555571
vt 0.319176 0.506574
vt 0.380105 0.314083
vt 0.376431 0.363902
vt 0.340457 0.358847
vt 0.343472 0.307119
vt 0.374314 0.412412
vt 0.338778 0.409030
vt 0.318810 0.407730
vt 0.320406 0.357079
vt 0.323097 0.304747
vt 0.356919 0.919257
vt 0.328585 0.932089
vt 0.317285 0.877774
vt 0.343132 0.873950
vt 0.300251 0.944921
vt 0.288104 0.888716
vt 0.281997 0.825952
vt 0.308986 0.821247
vt 0.331917 0.818842
vt 0.379520 0.698845
vt 0.385636 0.750362
vt 0.347500 0.759630
vt 0.342838 0.705633
vt 0.395957 0.803759
vt 0.356560 0.816568
vt 0.331917 0.818842
vt 0.325558 0.762595
vt 0.322451 0.707881
vt 0.380105 0.314084
vt 0.386499 0.262721
vt 0.452420 0.281770
vt 0.444676 0.328478
vt 0.397111 0.209406
vt 0.464130 0.234154
vt 0.536383 0.261487
vt 0.523623 0.303354
vt 0.514754 0.344911
vt 0.617531 0.507000
vt 0.655825 0.507044
vt 0.653205 0.551256
vt 0.616791 0.554233
vt 0.699963 0.507168
vt 0.690644 0.545144
vt 0.681326 0.583121
vt 0.648182 0.596178
vt 0.615038 0.609235
vt 0.402490 0.922912
vt 0.409290 0.859159
vt 0.479083 0.827609
vt 0.495640 0.876789
vt 0.395957 0.803759
vt 0.463214 0.779259
vt 0.535715 0.752182
vt 0.553884 0.793916
vt 0.588790 0.830666
vt 0.379520 0.698845
vt 0.376049 0.648967
vt 0.439054 0.638992
vt 0.444185 0.684728
vt 0.374080 0.600545
vt 0.435703 0.594273
vt 0.502532 0.587078
vt 0.507455 0.627556
vt 0.514370 0.668583
vt 0.323097 0.304747
vt 0.303905 0.303468
vt 0.306102 0.248367
vt 0.326597 0.250215
vt 0.280816 0.303132
vt 0.281415 0.247616
vt 0.283188 0.187811
vt 0.310476 0.191700
vt 0.333343 0.194071
vt 0.099090 0.248134
vt 0.102906 0.278999
vt 0.055754 0.267621
vt 0.074268 0.227645
vt 0.111304 0.325673
vt 0.066770 0.338106
vt 0.000000 0.360992
vt 0.003909 0.287315
vt 0.066770 0.338106
vt 0.007819 0.213638
vt 0.026052 0.205503
vt 0.003909 0.287315
vt 0.044286 0.197368
vt 0.074268 0.227645
vt 0.164205 0.314732
vt 0.140697 0.319111
vt 0.131663 0.277339
vt 0.155357 0.270689
vt 0.111304 0.325673
vt 0.116584 0.238593
vt 0.139027 0.224719
vt 0.162669 0.506298
vt 0.134666 0.506237
vt 0.139349 0.453112
vt 0.165171 0.455242
vt 0.114085 0.438987
vt 0.127829 0.404880
vt 0.145675 0.405455
vt 0.168651 0.405806
vt 0.220802 0.707066
vt 0.223053 0.655694
vt 0.252707 0.656462
vt 0.251908 0.709137
vt 0.223502 0.605798
vt 0.252690 0.605747
vt 0.279093 0.605727
vt 0.279656 0.656648
vt 0.280263 0.709636
vt 0.221201 0.306853
vt 0.216364 0.254383
vt 0.250485 0.249254
vt 0.252325 0.304277
vt 0.207533 0.194034
vt 0.248081 0.185994
vt 0.283189 0.187811
vt 0.281415 0.247616
vt 0.222434 0.506420
vt 0.223060 0.456580
vt 0.252732 0.456858
vt 0.252598 0.506467
vt 0.223818 0.406784
vt 0.252927 0.406886
vt 0.279329 0.406892
vt 0.279421 0.456960
vt 0.279616 0.506507
vt 0.163371 0.698404
vt 0.139936 0.693415
vt 0.144916 0.650020
vt 0.167587 0.652722
vt 0.110789 0.686501
vt 0.120354 0.640199
vt 0.145055 0.606532
vt 0.167993 0.606326
vt 0.548175 0.506903
vt 0.549471 0.544548
vt 0.528609 0.544782
vt 0.527561 0.506889
vt 0.550045 0.578867
vt 0.531712 0.582885
vt 0.502532 0.587078
vt 0.500050 0.546926
vt 0.499436 0.506861
vt 0.560198 0.357849
vt 0.555176 0.396228
vt 0.537006 0.391847
vt 0.543922 0.352787
vt 0.550154 0.434607
vt 0.531858 0.430638
vt 0.502708 0.426362
vt 0.507731 0.385854
vt 0.619117 0.219027
vt 0.600018 0.251456
vt 0.583748 0.237811
vt 0.604512 0.200952
vt 0.580919 0.283886
vt 0.565812 0.275222
vt 0.536383 0.261487
vt 0.554770 0.219697
vt 0.589907 0.182877
vt 0.559916 0.655795
vt 0.570194 0.692904
vt 0.552681 0.699938
vt 0.543597 0.660814
vt 0.580472 0.730014
vt 0.565256 0.738554
vt 0.535715 0.752182
vt 0.523117 0.710256
vt 0.514370 0.668583
vt 0.372334 0.506649
vt 0.372913 0.459852
vt 0.433882 0.463040
vt 0.433184 0.506751
vt 0.374314 0.412412
vt 0.435912 0.418919
vt 0.502708 0.426362
vt 0.500136 0.466684
vt 0.165171 0.455242
vt 0.193314 0.455974
vt 0.191926 0.506363
vt 0.168651 0.405806
vt 0.195096 0.406337
vt 0.155357 0.270689
vt 0.183518 0.262084
vt 0.191009 0.310568
vt 0.139027 0.224719
vt 0.168684 0.207334
vt 0.139027 0.224719
vt 0.112269 0.177569
vt 0.140414 0.138601
vt 0.077859 0.137612
vt 0.086855 0.111992
vt 0.095852 0.086373
vt 0.137455 0.065211
vt 0.086855 0.111992
vt 0.207533 0.194034
vt 0.168684 0.207334
vt 0.163371 0.698404
vt 0.193869 0.654357
vt 0.190383 0.703173
vt 0.167993 0.606326
vt 0.194589 0.606039
vt 0.140024 0.795691
vt 0.155310 0.745744
vt 0.183454 0.754916
vt 0.169634 0.813541
vt 0.190383 0.703173
vt 0.220802 0.707066
vt 0.216080 0.761971
vt 0.207965 0.824839
vt 0.168536 0.359248
vt 0.194574 0.358064
vt 0.164205 0.314732
vt 0.191009 0.310568
vt 0.221201 0.306853
vt 0.223437 0.357075
vt 0.554981 0.617331
vt 0.536773 0.621666
vt 0.507455 0.627556
vt 0.570559 0.320868
vt 0.553104 0.313773
vt 0.523623 0.303354
vt 0.117043 0.779138
vt 0.131442 0.737563
vt 0.155310 0.745744
vt 0.099066 0.767146
vt 0.102559 0.734481
vt 0.252991 0.356259
vt 0.252325 0.304277
vt 0.280816 0.303132
vt 0.279983 0.355883
vt 0.249838 0.765544
vt 0.247720 0.829940
vt 0.251908 0.709137
vt 0.280263 0.709636
vt 0.280437 0.765726
vt 0.281997 0.825952
vt 0.145758 0.361742
vt 0.120895 0.371621
vt 0.301914 0.356195
vt 0.320406 0.357079
vt 0.280816 0.303132
vt 0.303905 0.303468
vt 0.323097 0.304747
vt 0.385636 0.750362
vt 0.451730 0.731571
vt 0.523117 0.710256
vt 0.548175 0.506903
vt 0.580923 0.506951
vt 0.581426 0.550157
vt 0.549471 0.544548
vt 0.582542 0.594051
vt 0.376431 0.363902
vt 0.439388 0.374142
vt 0.507731 0.385854
vt 0.376049 0.648967
vt 0.340054 0.653854
vt 0.342838 0.705633
vt 0.322451 0.707881
vt 0.320006 0.655509
vt 0.397111 0.209406
vt 0.386499 0.262721
vt 0.348470 0.253292
vt 0.357872 0.196439
vt 0.343472 0.307119
vt 0.323098 0.304747
vt 0.326597 0.250215
vt 0.333343 0.194071
vt 0.091624 0.202564
vt 0.112269 0.177569
vt 0.061072 0.167490
vt 0.305020 0.764420
vt 0.325558 0.762595
vt 0.280437 0.765726
vt 0.280263 0.709636
vt 0.303274 0.709083
vt 0.097805 0.944421
vt 0.089068 0.917893
vt 0.142744 0.886009
vt 0.141382 0.960497
vt 0.080331 0.891365
vt 0.114051 0.846241
vt 0.140024 0.795691
vt 0.169634 0.813541
vt 0.114051 0.846241
vt 0.207965 0.824839
vt 0.196418 0.897976
vt 0.169634 0.813541
vt 0.184958 0.976573
vt 0.141382 0.960497
vt 0.196418 0.897976
vt 0.582655 0.419486
vt 0.581483 0.463631
vt 0.549529 0.469156
vt 0.615157 0.404364
vt 0.616846 0.459641
vt 0.164850 0.557214
vt 0.193057 0.556628
vt 0.222882 0.556146
vt 0.372801 0.553318
vt 0.433782 0.550342
vt 0.599366 0.762348
vt 0.582994 0.775919
vt 0.618259 0.794682
vt 0.603525 0.812674
vt 0.553884 0.793916
vt 0.549529 0.469156
vt 0.528680 0.468894
vt 0.500136 0.466684
vt 0.252592 0.555949
vt 0.279291 0.555908
vt 0.248483 0.910703
vt 0.224901 0.979752
vt 0.207965 0.824839
vt 0.247720 0.829940
vt 0.196418 0.897976
vt 0.281997 0.825952
vt 0.247720 0.829940
vt 0.282547 0.963926
vt 0.288104 0.888716
vt 0.264844 0.982931
vt 0.224901 0.979752
vt 0.139029 0.559206
vt 0.164850 0.557214
vt 0.113804 0.573212
vt 0.062149 0.853518
vt 0.092489 0.817055
vt 0.114051 0.846241
vt 0.043968 0.815671
vt 0.074251 0.787467
vt 0.410684 0.153873
vt 0.480228 0.185712
vt 0.404129 0.089787
vt 0.497018 0.136332
vt 0.554770 0.219697
vt 0.648276 0.417473
vt 0.653252 0.462687
vt 0.681395 0.430581
vt 0.690679 0.468874
vt 0.410684 0.153873
vt 0.373866 0.131892
vt 0.399278 0.085184
vt 0.357872 0.196439
vt 0.410684 0.153873
vt 0.333343 0.194071
vt 0.344788 0.138801
vt 0.357872 0.196439
vt 0.358712 0.093165
vt 0.376570 0.086873
vt 0.344788 0.138801
vt 0.394427 0.080581
vt 0.376569 0.086873
vt 0.372913 0.459852
vt 0.338161 0.458131
vt 0.318827 0.457423
vt 0.111304 0.325673
vt 0.120895 0.371621
vt 0.088415 0.396780
vt 0.114085 0.438987
vt 0.049806 0.433631
vt 0.300764 0.555828
vt 0.318701 0.555572
vt 0.279291 0.555908
vt 0.395957 0.803759
vt 0.409290 0.859159
vt 0.372290 0.880932
vt 0.356560 0.816568
vt 0.397610 0.927486
vt 0.392730 0.932061
vt 0.374824 0.925659
vt 0.397610 0.927486
vt 0.343132 0.873950
vt 0.331917 0.818842
vt 0.356560 0.816568
vt 0.811538 0.633074
vt 0.840478 0.628679
vt 0.841377 0.637170
vt 0.827356 0.643612
vt 0.869418 0.624284
vt 0.856296 0.639217
vt 0.843173 0.654151
vt 0.827356 0.643612
vt 0.906922 0.575850
vt 0.935195 0.565468
vt 0.937698 0.575700
vt 0.924813 0.586008
vt 0.963468 0.555086
vt 0.953086 0.575626
vt 0.942704 0.596165
vt 0.969602 0.510279
vt 0.933347 0.512161
vt 0.934782 0.487423
vt 0.973904 0.487598
vt 0.901047 0.516641
vt 0.899664 0.489620
vt 0.898773 0.461117
vt 0.937180 0.460169
vt 0.978205 0.464917
vt 0.025819 0.807434
vt 0.055477 0.745260
vt 0.007669 0.799198
vt 0.003835 0.725272
vt 0.025819 0.807434
vt 0.110789 0.686501
vt 0.102559 0.734481
vt 0.066510 0.674100
vt 0.074251 0.787467
vt 0.102559 0.734481
vt 0.839452 0.071711
vt 0.809075 0.071008
vt 0.811381 0.057653
vt 0.826850 0.055621
vt 0.780965 0.059054
vt 0.797606 0.049292
vt 0.809075 0.071008
vt 0.814247 0.039530
vt 0.930112 0.061375
vt 0.906944 0.067043
vt 0.905528 0.051212
vt 0.917793 0.045010
vt 0.880287 0.060790
vt 0.892880 0.044718
vt 0.906944 0.067043
vt 0.905473 0.028645
vt 0.917793 0.045010
vt 0.809075 0.071008
vt 0.804674 0.097004
vt 0.779760 0.091822
vt 0.829404 0.099369
vt 0.823654 0.137459
vt 0.800371 0.135718
vt 0.776434 0.132635
vt 0.318939 0.135008
vt 0.330365 0.080269
vt 0.939803 0.425822
vt 0.989103 0.425917
vt 0.896588 0.426512
vt 0.894439 0.389176
vt 0.941504 0.388178
vt 1.000000 0.386917
vt 0.739107 0.031215
vt 0.760036 0.045134
vt 0.757663 0.085023
vt 0.737253 0.077634
vt 0.754423 0.128454
vt 0.735399 0.124053
vt 0.911989 0.095337
vt 0.877077 0.097471
vt 0.952362 0.091224
vt 0.974612 0.121073
vt 0.918712 0.130629
vt 0.874558 0.135585
vt 0.901047 0.516641
vt 0.875618 0.525064
vt 0.871466 0.495003
vt 0.852934 0.534416
vt 0.847118 0.501617
vt 0.841692 0.468883
vt 0.867702 0.464447
vt 0.898773 0.461117
vt 0.828554 0.541195
vt 0.822878 0.507362
vt 0.803679 0.544336
vt 0.798404 0.512083
vt 0.792664 0.479052
vt 0.817301 0.473564
vt 0.859870 0.066251
vt 0.851448 0.099128
vt 0.845506 0.137631
vt 0.803679 0.544336
vt 0.780625 0.543645
vt 0.774151 0.516247
vt 0.761794 0.539348
vt 0.750255 0.520584
vt 0.738716 0.501819
vt 0.766604 0.486642
vt 0.792665 0.479052
vt 0.811538 0.633074
vt 0.786818 0.610588
vt 0.784370 0.575392
vt 0.808336 0.583030
vt 0.762098 0.588102
vt 0.761946 0.563725
vt 0.869418 0.624284
vt 0.834397 0.582056
vt 0.859595 0.574392
vt 0.828554 0.541195
vt 0.852934 0.534416
vt 0.906922 0.575850
vt 0.888170 0.600067
vt 0.881373 0.560633
vt 0.904542 0.546883
vt 0.875618 0.525064
vt 0.933816 0.538365
vt 0.966535 0.532682
vt 0.891478 0.314864
vt 0.855115 0.320888
vt 0.850558 0.280781
vt 0.886107 0.272031
vt 0.826454 0.326108
vt 0.823679 0.287569
vt 0.821571 0.241001
vt 0.845872 0.234830
vt 0.879780 0.225869
vt 0.759339 0.448102
vt 0.786662 0.439568
vt 0.730669 0.458852
vt 0.722622 0.415884
vt 0.752225 0.407045
vt 0.780996 0.399438
vt 0.811880 0.433902
vt 0.836544 0.430340
vt 0.786662 0.439568
vt 0.780996 0.399438
vt 0.807084 0.394455
vt 0.832204 0.391638
vt 0.863265 0.427985
vt 0.859477 0.390128
vt 0.894439 0.389176
vt 0.989275 0.310219
vt 0.938606 0.310108
vt 0.935991 0.263991
vt 0.994638 0.256707
vt 0.886107 0.272031
vt 0.931984 0.216220
vt 1.000000 0.203194
vt 0.772924 0.329366
vt 0.740662 0.328753
vt 0.741403 0.281131
vt 0.771152 0.287286
vt 0.699963 0.332083
vt 0.709533 0.273089
vt 0.719103 0.214096
vt 0.745040 0.229071
vt 0.771241 0.237881
vt 0.800413 0.328869
vt 0.798150 0.289736
vt 0.772923 0.329366
vt 0.771152 0.287286
vt 0.771241 0.237881
vt 0.797066 0.242018
vt 0.749760 0.177277
vt 0.773244 0.183680
vt 0.727251 0.169074
vt 0.754423 0.128454
vt 0.776434 0.132635
vt 0.925528 0.171500
vt 0.987306 0.162134
vt 0.875527 0.179218
vt 0.874558 0.135585
vt 0.918712 0.130629
vt 0.843772 0.184829
vt 0.875527 0.179218
vt 0.821257 0.187711
vt 0.823655 0.137459
vt 0.845506 0.137631
vt 0.797755 0.187290
vt 0.773244 0.183680
vt 0.776434 0.132635
vt 0.800371 0.135718
vt 0.803330 0.361342
vt 0.829081 0.358586
vt 0.776298 0.364519
vt 0.745263 0.368741
vt 0.776298 0.364519
vt 0.711293 0.373984
vt 0.940740 0.350416
vt 0.994638 0.348568
vt 0.893533 0.352861
vt 0.857456 0.355704
vt 0.893533 0.352861
s 1
f 35/1/1 157/4/4 293/3/3 186/2/2
f 186/2/2 293/3/3 162/6/6 40/5/5
f 293/3/3 125/8/8 14/7/7 162/6/6
f 157/4/4 10/9/9 125/8/8 293/3/3
f 31/10/10 149/13/13 294/12/12 153/11/11
f 60/14/14 153/16/11 294/12/12 240/15/15
f 74/17/16 240/15/15 294/12/12 232/18/17
f 73/19/18 232/18/17 294/12/12 236/20/19
f 17/21/20 236/23/19 294/12/12 149/22/13
f 49/24/21 187/27/24 295/26/23 212/25/22
f 212/25/22 295/26/23 192/29/26 54/28/25
f 295/26/23 126/31/28 15/30/27 192/29/26
f 187/27/24 9/32/29 126/31/28 295/26/23
f 62/33/30 185/36/33 296/35/32 211/34/31
f 211/34/31 296/35/32 188/38/35 50/37/34
f 296/35/32 104/40/37 2/39/36 188/38/35
f 185/36/33 36/41/38 104/40/37 296/35/32
f 51/42/39 210/45/42 297/44/41 105/43/40
f 105/43/40 297/44/41 110/47/44 1/46/43
f 297/44/41 99/48/45 10/9/9 110/47/44
f 210/45/42 49/49/21 99/48/45 297/44/41
f 37/50/46 184/53/49 298/52/48 106/51/47
f 106/51/47 298/52/48 109/55/51 3/54/50
f 298/52/48 101/57/52 9/56/29 109/55/51
f 184/53/49 33/58/53 101/57/52 298/52/48
f 70/59/54 238/62/57 299/61/56 233/60/55
f 233/60/55 299/61/56 239/64/59 72/63/58
f 299/61/56 128/66/61 19/65/60 239/64/59
f 238/62/57 12/67/62 128/66/61 299/61/56
f 38/68/63 183/71/66 300/70/65 108/69/64
f 108/69/64 300/70/65 112/73/68 5/72/67
f 300/70/65 103/75/69 12/74/62 112/73/68
f 183/71/66 35/76/1 103/75/69 300/70/65
f 37/77/46 182/80/72 301/79/71 159/78/70
f 159/78/70 301/79/71 145/82/74 7/81/73
f 301/79/71 137/84/76 25/83/75 145/82/74
f 182/80/72 44/85/77 137/84/76 301/79/71
f 61/86/78 181/89/81 302/88/80 209/87/79
f 209/87/79 302/88/80 195/91/83 57/90/82
f 302/88/80 141/93/85 28/92/84 195/91/83
f 181/89/81 45/94/86 141/93/85 302/88/80
f 52/95/87 208/98/90 303/97/89 190/96/88
f 190/96/88 303/97/89 146/100/91 5/99/67
f 303/97/89 140/102/93 27/101/92 146/100/91
f 208/98/90 58/103/94 140/102/93 303/97/89
f 38/104/63 180/107/97 304/106/96 160/105/95
f 160/105/95 304/106/96 143/109/98 1/108/43
f 304/106/96 142/111/100 24/110/99 143/109/98
f 180/107/97 46/112/101 142/111/100 304/106/96
f 33/113/53 155/116/104 305/115/103 179/114/102
f 179/114/102 305/115/103 164/118/106 42/117/105
f 305/115/103 129/120/107 17/119/20 164/118/106
f 155/116/104 11/121/108 129/120/107 305/115/103
f 8/122/109 224/125/112 306/124/111 102/123/110
f 34/126/113 102/123/110 306/124/111 200/127/114
f 62/128/30 200/130/114 306/124/111 222/129/115
f 65/131/116 222/133/115 306/124/111 215/132/117
f 64/134/118 215/132/117 306/124/111 224/135/112
f 41/136/119 119/139/122 307/138/121 178/137/120
f 178/137/120 307/138/121 102/123/110 34/140/113
f 307/138/121 130/141/123 8/122/109 102/123/110
f 119/139/122 18/142/124 130/141/123 307/138/121
f 53/143/125 121/146/128 308/145/127 207/144/126
f 207/144/126 308/145/127 100/147/129 50/37/34
f 308/145/127 127/149/131 4/148/130 100/147/129
f 121/146/128 16/150/132 127/149/131 308/145/127
f 48/151/133 177/154/136 309/153/135 170/152/134
f 170/152/134 309/153/135 115/156/138 30/155/137
f 309/153/135 162/158/6 14/157/7 115/156/138
f 177/154/136 40/159/5 162/158/6 309/153/135
f 47/160/139 176/163/142 310/162/141 169/161/140
f 169/161/140 310/162/141 149/165/13 31/164/10
f 310/162/141 164/167/106 17/166/20 149/165/13
f 176/163/142 42/117/105 164/167/106 310/162/141
f 59/168/143 206/171/146 311/170/145 197/169/144
f 197/169/144 311/170/145 150/173/148 32/172/147
f 311/170/145 192/175/26 15/174/27 150/173/148
f 206/171/146 54/176/25 192/175/26 311/170/145
f 39/177/149 114/180/152 312/179/151 175/178/150
f 175/178/150 312/179/151 104/182/37 36/181/38
f 312/179/151 124/183/153 2/39/36 104/182/37
f 114/180/152 13/184/154 124/183/153 312/179/151
f 55/185/155 205/188/158 313/187/157 132/186/156
f 132/186/156 313/187/157 133/190/160 23/189/159
f 313/187/157 194/192/161 24/191/99 133/190/160
f 205/188/158 56/193/162 194/192/161 313/187/157
f 43/194/163 174/197/166 314/196/165 136/195/164
f 136/195/164 314/196/165 131/199/168 22/198/167
f 314/196/165 166/201/170 21/200/169 131/199/168
f 174/197/166 44/85/77 166/201/170 314/196/165
f 57/202/82 204/205/173 315/204/172 139/203/171
f 139/203/171 315/204/172 135/207/175 26/206/174
f 315/204/172 196/209/176 25/208/75 135/207/175
f 204/205/173 58/210/94 196/209/176 315/204/172
f 45/211/86 173/214/178 316/213/177 141/212/85
f 141/212/85 316/213/177 138/216/179 28/215/84
f 316/213/177 168/218/180 27/217/92 138/216/179
f 173/214/178 46/219/101 168/218/180 316/213/177
f 51/220/39 203/223/183 317/222/182 189/221/181
f 189/221/181 317/222/182 144/225/184 3/224/50
f 317/222/182 134/227/185 21/226/169 144/225/184
f 203/223/183 56/193/162 134/227/185 317/222/182
f 53/143/125 202/230/187 318/229/186 121/228/128
f 121/228/128 318/229/186 118/232/188 16/231/132
f 318/229/186 197/169/144 32/172/147 118/232/188
f 202/230/187 59/168/143 197/169/144 318/229/186
f 41/136/119 172/235/190 319/234/189 119/233/122
f 119/233/122 319/234/189 117/237/191 18/236/124
f 319/234/189 169/161/140 31/164/10 117/237/191
f 172/235/190 47/160/139 169/161/140 319/234/189
f 18/238/124 117/237/191 320/240/193 223/239/192
f 66/241/194 223/239/192 320/240/193 216/242/195
f 68/243/196 216/245/195 320/240/193 226/244/197
f 60/14/14 226/244/197 320/240/193 153/16/11
f 31/246/10 153/16/11 320/240/193 117/247/191
f 39/248/149 171/250/199 321/249/198 114/180/152
f 114/180/152 321/249/198 148/252/200 13/251/154
f 321/249/198 170/152/134 30/155/137 148/252/200
f 171/250/199 48/151/133 170/152/134 321/249/198
f 20/253/201 113/256/204 322/255/203 161/254/202
f 161/254/202 322/255/203 171/257/199 39/177/149
f 322/255/203 154/259/205 48/258/133 171/257/199
f 113/256/204 29/260/206 154/259/205 322/255/203
f 16/231/132 118/232/188 323/262/208 163/261/207
f 163/261/207 323/262/208 172/264/190 41/263/119
f 323/262/208 152/266/209 47/265/139 172/264/190
f 118/232/188 32/172/147 152/266/209 323/262/208
f 23/189/159 133/190/160 324/268/211 167/267/210
f 167/267/210 324/268/211 173/214/178 45/211/86
f 324/268/211 142/269/100 46/219/101 173/214/178
f 133/190/160 24/191/99 142/269/100 324/268/211
f 26/206/174 135/207/175 325/271/213 165/270/212
f 165/270/212 325/271/213 174/197/166 43/194/163
f 325/271/213 137/272/76 44/85/77 174/197/166
f 135/207/175 25/208/75 137/272/76 325/271/213
f 20/253/201 161/275/202 326/274/215 123/273/214
f 123/273/214 326/274/215 158/277/217 6/276/216
f 326/274/215 175/178/150 36/181/38 158/277/217
f 161/275/202 39/177/149 175/178/150 326/274/215
f 32/172/147 150/173/148 327/278/218 152/266/209
f 152/266/209 327/278/218 176/279/142 47/265/139
f 327/278/218 120/281/219 42/280/105 176/279/142
f 150/173/148 15/174/27 120/281/219 327/278/218
f 29/260/206 147/283/221 328/282/220 154/259/205
f 154/259/205 328/282/220 177/284/136 48/258/133
f 328/282/220 116/286/222 40/285/5 177/284/136
f 147/283/221 19/287/60 116/286/222 328/282/220
f 16/150/132 163/261/207 329/288/223 127/149/131
f 127/149/131 329/288/223 156/289/224 4/148/130
f 329/288/223 178/137/120 34/140/113 156/289/224
f 163/261/207 41/136/119 178/137/120 329/288/223
f 9/32/29 101/291/52 330/290/225 126/31/28
f 126/31/28 330/290/225 120/281/219 15/30/27
f 330/290/225 179/293/102 42/292/105 120/281/219
f 101/291/52 33/294/53 179/293/102 330/290/225
f 5/99/67 146/100/91 331/296/226 108/295/64
f 108/295/64 331/296/226 180/107/97 38/104/63
f 331/296/226 168/297/180 46/112/101 180/107/97
f 146/100/91 27/101/92 168/297/180 331/296/226
f 55/298/155 132/301/156 332/300/228 201/299/227
f 201/299/227 332/300/228 181/89/81 61/86/78
f 332/300/228 167/302/210 45/94/86 181/89/81
f 132/301/156 23/189/159 167/302/210 332/300/228
f 3/224/50 144/225/184 333/304/229 106/303/47
f 106/303/47 333/304/229 182/80/72 37/77/46
f 333/304/229 166/305/170 44/85/77 182/80/72
f 144/225/184 21/226/169 166/305/170 333/304/229
f 1/46/43 110/47/44 334/307/230 160/306/95
f 160/306/95 334/307/230 183/308/66 38/68/63
f 334/307/230 157/310/4 35/309/1 183/308/66
f 110/47/44 10/9/9 157/310/4 334/307/230
f 7/311/73 111/314/232 335/313/231 159/312/70
f 159/312/70 335/313/231 184/315/49 37/50/46
f 335/313/231 155/317/104 33/316/53 184/315/49
f 111/314/232 11/318/108 155/317/104 335/313/231
f 18/142/124 223/320/192 336/319/233 130/141/123
f 130/141/123 336/319/233 224/125/112 8/122/109
f 336/319/233 220/321/234 64/134/118 224/125/112
f 223/320/192 66/241/194 220/321/234 336/319/233
f 12/67/62 103/323/69 337/322/235 128/66/61
f 128/66/61 337/322/235 116/324/222 19/65/60
f 337/322/235 186/326/2 40/325/5 116/324/222
f 103/323/69 35/76/1 186/326/2 337/322/235
f 68/327/196 226/330/197 338/329/237 218/328/236
f 67/331/238 218/328/236 338/329/237 225/332/239
f 20/333/201 225/335/239 338/329/237 113/334/204
f 29/336/206 113/338/204 338/329/237 198/337/240
f 60/339/14 198/341/240 338/329/237 226/340/197
f 22/198/167 193/344/242 339/343/241 136/342/164
f 136/342/164 339/343/241 199/346/243 43/345/163
f 339/343/241 201/299/227 61/86/78 199/346/243
f 193/344/242 55/298/155 201/299/227 339/343/241
f 13/251/154 148/252/200 340/348/245 191/347/244
f 191/347/244 340/348/245 202/230/187 53/143/125
f 340/348/245 151/349/246 59/168/143 202/230/187
f 148/252/200 30/155/137 151/349/246 340/348/245
f 1/108/43 143/109/98 341/351/247 105/350/40
f 105/350/40 341/351/247 203/223/183 51/220/39
f 341/351/247 194/192/161 56/193/162 203/223/183
f 143/109/98 24/110/99 194/192/161 341/351/247
f 28/215/84 138/216/179 342/353/248 195/352/83
f 195/352/83 342/353/248 204/355/173 57/354/82
f 342/353/248 140/356/93 58/103/94 204/355/173
f 138/216/179 27/217/92 140/356/93 342/353/248
f 22/198/167 131/199/168 343/358/249 193/357/242
f 193/357/242 343/358/249 205/188/158 55/185/155
f 343/358/249 134/359/185 56/193/162 205/188/158
f 131/199/168 21/200/169 134/359/185 343/358/249
f 30/155/137 115/156/138 344/360/250 151/349/246
f 151/349/246 344/360/250 206/171/146 59/168/143
f 344/360/250 122/361/251 54/176/25 206/171/146
f 115/156/138 14/157/7 122/361/251 344/360/250
f 60/339/14 240/363/15 345/362/252 198/341/240
f 29/364/206 198/366/240 345/362/252 147/365/221
f 19/367/60 147/368/221 345/362/252 239/64/59
f 72/63/58 239/370/59 345/362/252 230/369/253
f 74/371/16 230/369/253 345/362/252 240/372/15
f 13/184/154 191/374/244 346/373/254 124/183/153
f 124/183/153 346/373/254 188/375/35 2/39/36
f 346/373/254 207/144/126 50/37/34 188/375/35
f 191/374/244 53/143/125 207/144/126 346/373/254
f 67/331/238 225/378/239 347/377/256 219/376/255
f 219/376/255 347/377/256 221/380/258 63/379/257
f 347/377/256 123/273/214 6/276/216 221/380/258
f 225/378/239 20/253/201 123/273/214 347/377/256
f 7/81/73 145/82/74 348/382/260 107/381/259
f 107/381/259 348/382/260 208/384/90 52/383/87
f 348/382/260 196/385/176 58/210/94 208/384/90
f 145/82/74 25/83/75 196/385/176 348/382/260
f 43/345/163 199/346/243 349/387/261 165/386/212
f 165/386/212 349/387/261 139/389/171 26/388/174
f 349/387/261 209/87/79 57/90/82 139/389/171
f 199/346/243 61/86/78 209/87/79 349/387/261
f 52/383/87 237/392/263 350/391/262 107/390/259
f 7/81/73 107/394/259 350/391/262 111/393/232
f 11/395/108 111/397/232 350/391/262 235/396/264
f 69/398/265 235/400/264 350/391/262 227/399/266
f 71/401/267 227/402/266 350/391/262 237/392/263
f 3/54/50 109/55/51 351/404/268 189/403/181
f 189/403/181 351/404/268 210/45/42 51/42/39
f 351/404/268 187/405/24 49/49/21 210/45/42
f 109/55/51 9/56/29 187/405/24 351/404/268
f 34/406/113 200/130/114 352/408/269 156/407/224
f 156/407/224 352/408/269 100/409/129 4/148/130
f 352/408/269 211/410/31 50/37/34 100/409/129
f 200/130/114 62/128/30 211/410/31 352/408/269
f 10/9/9 99/412/45 353/411/270 125/8/8
f 125/8/8 353/411/270 122/413/251 14/7/7
f 353/411/270 212/25/22 54/28/25 122/413/251
f 99/412/45 49/24/21 212/25/22 353/411/270
f 5/414/67 112/417/68 354/416/271 190/415/88
f 52/95/87 190/96/88 354/416/271 237/418/263
f 71/419/267 237/421/263 354/416/271 229/420/272
f 70/59/54 229/420/272 354/416/271 238/422/57
f 12/423/62 238/422/57 354/416/271 112/424/68
f 63/425/257 213/428/275 355/427/274 214/426/273
f 64/429/118 214/426/273 355/427/274 215/430/117
f 65/431/116 215/430/117 355/427/274 213/432/275
f 66/433/194 216/436/195 356/435/277 217/434/276
f 67/437/238 217/434/276 356/435/277 218/438/236
f 68/439/196 218/438/236 356/435/277 216/436/195
f 84/440/278 258/443/281 357/442/280 264/441/279
f 264/441/279 357/442/280 251/445/283 83/444/282
f 357/442/280 242/447/285 77/446/284 251/445/283
f 258/443/281 78/448/286 242/447/285 357/442/280
f 63/379/257 221/380/258 358/450/287 213/449/275
f 65/451/116 213/453/275 358/450/287 222/452/115
f 62/33/30 222/452/115 358/450/287 185/36/33
f 36/454/38 185/456/33 358/450/287 158/455/217
f 6/276/216 158/458/217 358/450/287 221/457/258
f 69/459/265 227/462/266 359/461/289 228/460/288
f 70/463/54 228/465/288 359/461/289 229/464/272
f 71/466/267 229/464/272 359/461/289 227/462/266
f 72/467/58 230/470/253 360/469/291 231/468/290
f 73/471/18 231/473/290 360/469/291 232/472/17
f 74/474/16 232/472/17 360/469/291 230/475/253
f 70/463/54 250/478/293 361/477/292 228/476/288
f 228/476/288 361/477/292 249/479/294 69/459/265
f 361/477/292 245/481/296 79/480/295 249/479/294
f 250/478/293 80/482/297 245/481/296 361/477/292
f 11/121/108 235/396/264 362/483/298 129/120/107
f 129/120/107 362/483/298 236/23/19 17/119/20
f 362/483/298 234/484/299 73/19/18 236/23/19
f 235/396/264 69/398/265 234/484/299 362/483/298
f 78/448/286 270/486/301 363/485/300 242/447/285
f 242/447/285 363/485/300 269/487/302 77/446/284
f 363/485/300 266/489/304 89/488/303 269/487/302
f 270/486/301 90/490/305 266/489/304 363/485/300
f 72/491/306 253/494/309 364/493/308 233/492/307
f 233/492/307 364/493/308 250/478/293 70/463/54
f 364/493/308 247/495/310 80/482/297 250/478/293
f 253/494/309 81/496/311 247/495/310 364/493/308
f 73/471/312 254/498/315 365/497/314 231/473/313
f 231/473/313 365/497/314 253/499/309 72/467/306
f 365/497/314 246/501/316 81/500/311 253/499/309
f 254/498/315 82/502/317 246/501/316 365/497/314
f 83/503/282 251/445/283 366/505/319 263/504/318
f 263/504/318 366/505/319 255/507/321 85/506/320
f 366/505/319 244/509/323 76/508/322 255/507/321
f 251/445/283 77/510/284 244/509/323 366/505/319
f 85/506/320 255/507/321 367/512/325 262/511/324
f 262/511/324 367/512/325 256/514/327 86/513/326
f 367/512/325 241/516/329 75/515/328 256/514/327
f 255/507/321 76/508/322 241/516/329 367/512/325
f 69/459/265 249/479/294 368/518/331 234/517/330
f 234/517/330 368/518/331 254/498/315 73/471/312
f 368/518/331 248/519/332 82/502/317 254/498/315
f 249/479/294 79/480/295 248/519/332 368/518/331
f 86/520/326 256/514/327 369/522/334 261/521/333
f 261/521/333 369/522/334 258/524/281 84/523/278
f 369/522/334 243/526/335 78/525/286 258/524/281
f 256/514/327 75/527/328 243/526/335 369/522/334
f 63/528/257 260/531/338 370/530/337 219/529/336
f 219/529/336 370/530/337 252/533/340 67/532/339
f 370/530/337 261/521/333 84/523/278 252/533/340
f 260/531/338 86/520/326 261/521/333 370/530/337
f 64/534/118 259/536/342 371/535/341 214/426/273
f 214/426/273 371/535/341 260/531/338 63/528/257
f 371/535/341 262/537/324 86/520/326 260/531/338
f 259/536/342 85/538/320 262/537/324 371/535/341
f 66/539/343 257/542/346 372/541/345 220/540/344
f 220/540/344 372/541/345 259/536/342 64/534/118
f 372/541/345 263/543/318 85/538/320 259/536/342
f 257/542/346 83/444/282 263/543/318 372/541/345
f 67/437/339 252/545/340 373/544/348 217/434/347
f 217/434/347 373/544/348 257/542/346 66/539/343
f 373/544/348 264/441/279 83/444/282 257/542/346
f 252/545/340 84/440/278 264/441/279 373/544/348
f 96/546/349 286/549/352 374/548/351 292/547/350
f 292/547/350 374/548/351 277/551/354 95/550/353
f 374/548/351 276/553/356 92/552/355 277/551/354
f 286/549/352 93/554/357 276/553/356 374/548/351
f 75/527/328 271/556/359 375/555/358 243/526/335
f 243/526/335 375/555/358 270/557/301 78/525/286
f 375/555/358 267/559/360 90/558/305 270/557/301
f 271/556/359 87/560/361 267/559/360 375/555/358
f 76/508/322 272/562/363 376/561/362 241/516/329
f 241/516/329 376/561/362 271/563/359 75/515/328
f 376/561/362 265/565/364 87/564/361 271/563/359
f 272/562/363 88/566/365 265/565/364 376/561/362
f 77/510/284 269/487/302 377/567/366 244/509/323
f 244/509/323 377/567/366 272/562/363 76/508/322
f 377/567/366 268/568/367 88/566/365 272/562/363
f 269/487/302 89/569/303 268/568/367 377/567/366
f 97/570/368 287/573/371 378/572/370 291/571/369
f 291/571/369 378/572/370 286/574/352 96/546/349
f 378/572/370 274/575/372 93/554/357 286/574/352
f 287/573/371 94/576/373 274/575/372 378/572/370
f 98/577/374 288/580/377 379/579/376 290/578/375
f 290/578/375 379/579/376 287/582/371 97/581/368
f 379/579/376 275/584/378 94/583/373 287/582/371
f 288/580/377 91/585/379 275/584/378 379/579/376
f 95/550/353 277/551/354 380/587/381 289/586/380
f 289/586/380 380/587/381 288/589/377 98/588/374
f 380/587/381 273/591/382 91/590/379 288/589/377
f 277/551/354 92/552/355 273/591/382 380/587/381
f 91/585/379 281/593/384 381/592/383 275/584/378
f 275/584/378 381/592/383 282/594/385 94/583/373
f 381/592/383 247/595/310 81/496/311 282/594/385
f 281/593/384 80/596/297 247/595/310 381/592/383
f 94/576/373 282/598/385 382/597/386 274/575/372
f 274/575/372 382/597/386 283/599/387 93/554/357
f 382/597/386 246/601/316 82/600/317 283/599/387
f 282/598/385 81/500/311 246/601/316 382/597/386
f 93/554/357 283/603/387 383/602/388 276/553/356
f 276/553/356 383/602/388 284/604/389 92/552/355
f 383/602/388 248/606/332 79/605/295 284/604/389
f 283/603/387 82/600/317 248/606/332 383/602/388
f 92/552/355 284/604/389 384/607/390 273/591/382
f 273/591/382 384/607/390 281/608/384 91/590/379
f 384/607/390 245/610/296 80/609/297 281/608/384
f 284/604/389 79/605/295 245/610/296 384/607/390
f 88/566/365 285/612/392 385/611/391 265/565/364
f 265/565/364 385/611/391 280/613/393 87/564/361
f 385/611/391 289/586/380 98/588/374 280/613/393
f 285/612/392 95/550/353 289/586/380 385/611/391
f 87/560/361 280/615/393 386/614/394 267/559/360
f 267/559/360 386/614/394 279/616/395 90/558/305
f 386/614/394 290/578/375 97/581/368 279/616/395
f 280/615/393 98/577/374 290/578/375 386/614/394
f 90/490/305 279/618/395 387/617/396 266/489/304
f 266/489/304 387/617/396 278/619/397 89/488/303
f 387/617/396 291/571/369 96/546/349 278/619/397
f 279/618/395 97/570/368 291/571/369 387/617/396
f 89/569/303 278/621/397 388/620/398 268/568/367
f 268/568/367 388/620/398 285/612/392 88/566/365
f 388/620/398 292/547/350 95/550/353 285/612/392
f 278/621/397 96/546/349 292/547/350 388/620/398
