# Generated with Agisoft Metashape
mtllib WoodCup_LowPoly.mtl
usemtl WoodCup_LowPoly
v 0.006841 -0.022778 0.011850 0.133333 0.113725 0.094118
v 0.014664 -0.030385 0.015621 0.152941 0.133333 0.105882
v 0.007844 -0.025869 0.020530 0.141176 0.121569 0.098039
v 0.016276 -0.028724 0.009064 0.156863 0.137255 0.109804
v 0.018674 -0.027643 0.005909 0.156863 0.133333 0.098039
v 0.019976 -0.030469 0.008068 0.129412 0.117647 0.098039
v 0.020343 -0.033961 0.019275 0.152941 0.137255 0.113725
v 0.025148 -0.034421 0.012553 0.164706 0.141176 0.113725
v 0.012211 -0.023167 0.005896 0.160784 0.137255 0.113725
v 0.024778 -0.030293 0.004315 0.160784 0.141176 0.117647
v 0.012829 -0.019079 0.002604 0.196078 0.160784 0.125490
v 0.033182 -0.029245 0.001916 0.270588 0.227451 0.188235
v 0.033915 -0.033524 0.006887 0.176471 0.149020 0.121569
v 0.026839 -0.027022 0.001376 0.294118 0.250980 0.207843
v 0.037598 -0.009843 -0.000639 0.262745 0.227451 0.184314
v 0.042447 -0.016139 -0.000528 0.247059 0.211765 0.172549
v 0.055525 -0.020535 0.000947 0.294118 0.227451 0.152941
v 0.059869 -0.017781 -0.000051 0.294118 0.243137 0.192157
v 0.042784 -0.025156 0.000917 0.282353 0.239216 0.184314
v 0.052983 -0.024947 0.001437 0.305882 0.250980 0.200000
v 0.061335 -0.023415 0.005141 0.231373 0.184314 0.133333
v 0.070554 -0.017274 0.009499 0.176471 0.152941 0.129412
v 0.061974 -0.026905 0.012249 0.168627 0.141176 0.105882
v 0.065363 -0.017496 0.003328 0.219608 0.180392 0.149020
v 0.055417 -0.029707 0.016529 0.188235 0.141176 0.090196
v 0.054928 -0.028730 0.007148 0.203922 0.164706 0.125490
v 0.058966 -0.029391 0.018157 0.172549 0.137255 0.098039
v 0.069120 -0.006432 0.000041 0.309804 0.270588 0.231373
v 0.044930 -0.031931 0.005729 0.215686 0.172549 0.129412
v 0.052368 -0.031370 0.009618 0.184314 0.149020 0.113725
v 0.045834 -0.035008 0.014314 0.184314 0.149020 0.109804
v 0.037644 -0.035121 0.011398 0.192157 0.152941 0.105882
v 0.034584 -0.036401 0.019356 0.152941 0.125490 0.101961
v 0.036301 -0.034969 0.017790 0.223529 0.172549 0.105882
v 0.041326 -0.036755 0.025538 0.243137 0.184314 0.121569
v 0.053672 -0.032742 0.017502 0.172549 0.141176 0.105882
v 0.071692 0.025460 0.009218 0.113725 0.086275 0.054902
v 0.073415 0.021722 0.006681 0.176471 0.137255 0.098039
v 0.066330 0.023972 0.004616 0.125490 0.098039 0.062745
v 0.074854 0.019928 0.003590 0.243137 0.207843 0.164706
v 0.067485 0.021413 -0.000576 0.258824 0.215686 0.176471
v 0.071238 0.009160 -0.000489 0.250980 0.219608 0.184314
v 0.057079 -0.003925 -0.001200 0.317647 0.270588 0.215686
v 0.067320 -0.004069 -0.000905 0.384314 0.356863 0.333333
v 0.079984 0.025231 0.050217 0.258824 0.211765 0.164706
v 0.077826 0.029802 0.051908 0.258824 0.215686 0.176471
v 0.082175 0.020767 0.049091 0.231373 0.184314 0.133333
v 0.080352 0.022234 0.035174 0.254902 0.211765 0.160784
v 0.068653 -0.009317 0.066505 0.274510 0.223529 0.164706
v 0.071726 -0.007903 0.065306 0.211765 0.176471 0.141176
v 0.075606 -0.009336 0.065778 0.301961 0.258824 0.211765
v 0.072732 -0.005748 0.055311 0.137255 0.113725 0.086275
v 0.077787 -0.008739 0.060434 0.250980 0.211765 0.168627
v 0.077264 0.014341 0.049771 0.352941 0.286275 0.207843
v 0.080128 0.013548 0.050621 0.235294 0.188235 0.141176
v 0.083611 0.014632 0.047705 0.215686 0.176471 0.141176
v 0.073830 0.014356 0.051563 0.247059 0.203922 0.156863
v 0.082890 0.013881 0.042116 0.180392 0.145098 0.109804
v 0.083075 0.009032 0.040908 0.231373 0.188235 0.137255
v 0.075551 0.007700 0.051554 0.305882 0.258824 0.196078
v 0.071908 0.007782 0.050374 0.098039 0.082353 0.062745
v 0.078557 0.007258 0.048899 0.286275 0.231373 0.172549
v 0.074897 0.004149 0.050454 0.184314 0.149020 0.109804
v 0.081132 0.001717 0.047486 0.239216 0.192157 0.145098
v 0.074139 0.005202 0.046762 0.066667 0.054902 0.031373
v 0.073937 0.006776 0.042389 0.074510 0.058824 0.039216
v 0.075018 -0.004311 0.052300 0.188235 0.156863 0.121569
v 0.079498 -0.001449 0.049683 0.243137 0.207843 0.164706
v 0.081281 -0.000592 0.046692 0.227451 0.184314 0.141176
v 0.076978 -0.000598 0.049473 0.203922 0.164706 0.121569
v 0.073011 -0.002881 0.044888 0.101961 0.078431 0.047059
v 0.078814 -0.006605 0.047343 0.200000 0.156863 0.117647
v 0.081682 0.003715 0.042180 0.247059 0.200000 0.145098
v 0.070052 -0.012099 0.048231 0.082353 0.062745 0.039216
v 0.079254 -0.005841 0.034672 0.180392 0.152941 0.121569
v 0.076803 0.030723 0.031495 0.196078 0.160784 0.129412
v 0.081814 0.014545 0.032275 0.278431 0.235294 0.192157
v 0.076930 0.028324 0.014855 0.258824 0.215686 0.156863
v 0.080695 0.016296 0.014848 0.250980 0.200000 0.152941
v 0.077604 0.021313 0.009150 0.196078 0.160784 0.121569
v 0.082460 0.008438 0.036454 0.305882 0.250980 0.176471
v 0.083739 0.003951 0.039470 0.333333 0.270588 0.192157
v 0.081550 0.002091 0.035594 0.278431 0.231373 0.168627
v 0.071790 -0.001860 0.037620 0.090196 0.070588 0.043137
v 0.080034 0.001460 0.013806 0.200000 0.164706 0.137255
v 0.080858 0.010536 0.014625 0.227451 0.180392 0.137255
v 0.077519 0.006621 0.005922 0.219608 0.180392 0.149020
v 0.075449 -0.010885 0.013033 0.184314 0.160784 0.133333
v 0.071691 -0.014342 0.068620 0.349020 0.290196 0.219608
v 0.067937 -0.022402 0.071071 0.298039 0.235294 0.160784
v 0.065909 -0.020450 0.070812 0.415686 0.345098 0.258824
v 0.067353 -0.017330 0.061723 0.098039 0.078431 0.047059
v 0.072936 -0.010153 0.006100 0.184314 0.172549 0.152941
v 0.000824 -0.016357 0.060094 0.266667 0.239216 0.203922
v -0.000209 -0.017545 0.047102 0.215686 0.196078 0.172549
v 0.001422 -0.017149 0.071252 0.254902 0.235294 0.207843
v 0.065798 0.032566 0.054774 0.254902 0.215686 0.164706
v 0.060816 0.036870 0.054200 0.247059 0.203922 0.172549
v 0.058061 0.038644 0.052160 0.207843 0.168627 0.129412
v 0.061435 0.034895 0.042849 0.094118 0.066667 0.043137
v 0.064107 0.040123 0.053912 0.309804 0.258824 0.200000
v 0.072867 0.036370 0.053219 0.270588 0.227451 0.192157
v 0.066245 0.043204 0.047747 0.290196 0.235294 0.172549
v 0.076278 0.026005 0.053249 0.290196 0.239216 0.184314
v 0.072464 0.021779 0.052380 0.192157 0.152941 0.109804
v 0.073292 0.036311 0.038703 0.200000 0.164706 0.125490
v 0.067292 0.029077 0.045162 0.094118 0.070588 0.043137
v 0.069081 0.020983 0.035053 0.094118 0.070588 0.043137
v 0.074091 0.013633 0.047739 0.066667 0.054902 0.035294
v 0.061578 0.029666 0.031492 0.117647 0.090196 0.054902
v 0.063475 0.019891 0.026798 0.145098 0.109804 0.070588
v 0.074414 0.033869 0.017676 0.203922 0.168627 0.133333
v 0.074051 0.027036 0.007455 0.160784 0.137255 0.113725
v 0.029215 -0.001430 0.020039 0.266667 0.200000 0.121569
v 0.033785 -0.005283 0.020882 0.274510 0.207843 0.121569
v 0.029763 0.003696 0.020431 0.286275 0.215686 0.137255
v 0.036948 0.001245 0.020064 0.305882 0.235294 0.145098
v 0.071661 0.014986 0.036770 0.090196 0.066667 0.043137
v 0.070040 0.009979 0.030936 0.113725 0.086275 0.050980
v 0.055182 0.022135 0.023416 0.184314 0.137255 0.086275
v 0.068959 -0.000638 0.030419 0.121569 0.090196 0.054902
v 0.066297 0.004949 0.026741 0.145098 0.105882 0.066667
v 0.067228 -0.013707 0.037469 0.090196 0.066667 0.039216
v 0.063776 -0.010646 0.028953 0.113725 0.082353 0.050980
v 0.047166 0.006999 0.021054 0.227451 0.176471 0.105882
v 0.055678 -0.001783 0.022508 0.141176 0.109804 0.078431
v 0.060896 0.008394 0.023826 0.188235 0.141176 0.086275
v 0.031761 0.006452 0.020137 0.290196 0.223529 0.141176
v 0.040065 -0.008384 0.020893 0.250980 0.188235 0.117647
v 0.047304 -0.012976 0.022399 0.160784 0.117647 0.074510
v 0.061261 -0.008417 0.025461 0.133333 0.101961 0.066667
v 0.006359 -0.022197 0.073993 0.458824 0.400000 0.333333
v 0.010142 -0.021031 0.073240 0.376471 0.317647 0.239216
v 0.004864 -0.016354 0.072698 0.411765 0.356863 0.301961
v 0.004823 -0.016970 0.068354 0.235294 0.192157 0.149020
v 0.011630 -0.023345 0.062374 0.125490 0.105882 0.078431
v 0.004924 -0.022561 0.065474 0.301961 0.278431 0.247059
v 0.008823 -0.025231 0.069541 0.309804 0.290196 0.278431
v 0.010918 -0.025411 0.063674 0.380392 0.356863 0.333333
v 0.022794 -0.021163 0.068597 0.301961 0.250980 0.188235
v 0.024434 -0.019180 0.066384 0.168627 0.141176 0.105882
v 0.017433 -0.020774 0.065533 0.180392 0.149020 0.109804
v 0.021029 -0.028007 0.070175 0.364706 0.298039 0.227451
v 0.026575 -0.031933 0.073091 0.305882 0.254902 0.188235
v 0.023868 -0.020652 0.064125 0.054902 0.047059 0.027451
v 0.027097 -0.028115 0.069198 0.047059 0.039216 0.027451
v 0.025107 -0.035113 0.073650 0.494118 0.439216 0.380392
v 0.015973 -0.032642 0.065709 0.227451 0.180392 0.141176
v 0.025649 -0.030134 0.066132 0.058824 0.047059 0.027451
v 0.024737 -0.031255 0.064060 0.070588 0.058824 0.039216
v 0.034559 -0.036739 0.072546 0.239216 0.207843 0.160784
v 0.030067 -0.033274 0.065774 0.172549 0.129412 0.078431
v 0.003008 -0.015331 0.049353 0.137255 0.117647 0.086275
v 0.013695 -0.025121 0.059975 0.078431 0.066667 0.043137
v 0.007335 -0.026513 0.052372 0.141176 0.129412 0.109804
v 0.016748 -0.027272 0.061247 0.054902 0.047059 0.031373
v 0.012947 -0.031223 0.058515 0.227451 0.184314 0.133333
v 0.007388 -0.019893 0.050121 0.094118 0.074510 0.047059
v 0.011636 -0.023401 0.046263 0.098039 0.074510 0.047059
v 0.022469 -0.028887 0.049266 0.105882 0.078431 0.050980
v 0.021868 -0.035566 0.040204 0.235294 0.192157 0.145098
v 0.032208 -0.031627 0.052703 0.121569 0.094118 0.062745
v 0.066417 -0.017815 0.065642 0.235294 0.188235 0.129412
v 0.059536 -0.025115 0.067066 0.203922 0.149020 0.090196
v 0.063897 -0.025837 0.071352 0.415686 0.356863 0.278431
v 0.047225 -0.032496 0.075676 0.486275 0.411765 0.309804
v 0.053301 -0.029718 0.075503 0.552941 0.474510 0.368627
v 0.041664 -0.034803 0.076210 0.462745 0.400000 0.313725
v 0.036940 -0.035692 0.075881 0.556863 0.482353 0.368627
v 0.045503 -0.035551 0.074060 0.388235 0.325490 0.250980
v 0.047863 -0.037284 0.073741 0.298039 0.250980 0.192157
v 0.034611 -0.034298 0.066866 0.266667 0.203922 0.117647
v 0.042970 -0.033979 0.069095 0.211765 0.164706 0.109804
v 0.052980 -0.029147 0.067705 0.168627 0.129412 0.086275
v 0.043484 -0.033610 0.059809 0.129412 0.101961 0.062745
v 0.047388 -0.032242 0.062101 0.156863 0.117647 0.074510
v 0.055826 -0.028101 0.065546 0.203922 0.156863 0.101961
v 0.056754 -0.026114 0.072927 0.309804 0.250980 0.184314
v 0.059365 -0.029007 0.073931 0.427451 0.356863 0.258824
v 0.055615 -0.033015 0.075316 0.443137 0.388235 0.309804
v 0.062218 -0.029223 0.073568 0.352941 0.294118 0.227451
v 0.056793 -0.033184 0.068546 0.192157 0.160784 0.121569
v 0.062289 -0.029627 0.061187 0.180392 0.149020 0.109804
v 0.061004 -0.023737 0.053422 0.105882 0.078431 0.047059
v 0.065482 -0.018004 0.047749 0.086275 0.066667 0.047059
v 0.052249 -0.029334 0.052001 0.113725 0.082353 0.050980
v 0.038220 -0.033937 0.059526 0.145098 0.113725 0.070588
v 0.048194 -0.037522 0.064517 0.152941 0.129412 0.105882
v 0.041009 -0.032004 0.048913 0.101961 0.078431 0.050980
v 0.039763 -0.039009 0.076209 0.454902 0.388235 0.294118
v 0.054139 -0.034558 0.053430 0.188235 0.152941 0.117647
v 0.053051 -0.028468 0.040712 0.094118 0.070588 0.043137
v 0.046765 -0.036411 0.034246 0.215686 0.176471 0.133333
v 0.025998 -0.036846 0.071752 0.294118 0.243137 0.192157
v 0.027670 -0.037613 0.065869 0.247059 0.200000 0.141176
v 0.036510 -0.038740 0.075072 0.474510 0.419608 0.341176
v 0.001085 -0.019664 0.041228 0.133333 0.113725 0.086275
v 0.002700 -0.018802 0.042487 0.325490 0.313725 0.298039
v 0.008639 -0.019573 0.040138 0.105882 0.082353 0.050980
v 0.019051 -0.026341 0.040961 0.105882 0.078431 0.047059
v 0.013072 -0.031284 0.041759 0.200000 0.160784 0.117647
v 0.007585 -0.016402 0.035700 0.239216 0.168627 0.078431
v 0.018128 -0.023347 0.032351 0.125490 0.086275 0.047059
v 0.011677 -0.017334 0.030810 0.247059 0.180392 0.094118
v 0.007008 -0.026236 0.035020 0.145098 0.121569 0.094118
v 0.033093 -0.031682 0.043345 0.105882 0.078431 0.047059
v 0.027751 -0.028517 0.035128 0.125490 0.090196 0.050980
v 0.031268 -0.027052 0.030347 0.125490 0.090196 0.054902
v 0.036133 -0.029727 0.034566 0.105882 0.078431 0.047059
v 0.019068 -0.033768 0.025695 0.152941 0.125490 0.098039
v 0.015788 -0.014993 0.025655 0.227451 0.164706 0.094118
v 0.030845 -0.018828 0.022732 0.141176 0.105882 0.070588
v 0.024016 -0.010187 0.022170 0.282353 0.219608 0.133333
v 0.026745 -0.022847 0.026382 0.113725 0.090196 0.058824
v 0.037046 -0.023843 0.025573 0.145098 0.105882 0.062745
v 0.024970 -0.035894 0.025698 0.172549 0.141176 0.105882
v 0.058463 -0.024141 0.040028 0.090196 0.070588 0.043137
v 0.058320 -0.019630 0.031123 0.109804 0.082353 0.050980
v 0.049990 -0.026578 0.032924 0.101961 0.078431 0.047059
v 0.041912 -0.030961 0.041400 0.094118 0.070588 0.047059
v 0.039598 -0.036051 0.032317 0.231373 0.180392 0.121569
v 0.037530 -0.037892 0.039251 0.184314 0.149020 0.117647
v 0.061144 -0.029414 0.032320 0.188235 0.149020 0.109804
v 0.054330 -0.017942 0.026512 0.129412 0.098039 0.062745
v 0.041392 -0.018618 0.023220 0.160784 0.121569 0.074510
v -0.038881 0.007539 0.016836 0.141176 0.137255 0.121569
v -0.022978 0.009954 0.019471 0.133333 0.117647 0.094118
v -0.021312 0.010128 0.008145 0.133333 0.129412 0.113725
v -0.001602 0.027305 0.016946 0.125490 0.109804 0.090196
v 0.006552 0.037323 0.016672 0.141176 0.125490 0.101961
v 0.006123 0.033630 0.008317 0.156863 0.133333 0.105882
v 0.002685 0.027164 0.006713 0.113725 0.101961 0.082353
v 0.013344 0.036637 0.003214 0.156863 0.133333 0.105882
v -0.004621 0.016423 0.011755 0.090196 0.086275 0.070588
v -0.000019 0.016490 0.005540 0.098039 0.090196 0.074510
v 0.007315 0.023951 0.001246 0.145098 0.129412 0.109804
v 0.005948 0.017773 0.001745 0.168627 0.141176 0.121569
v 0.006393 0.015105 0.003508 0.070588 0.066667 0.054902
v -0.029796 0.005576 0.006304 0.176471 0.156863 0.145098
v -0.005604 0.012272 0.013096 0.039216 0.039216 0.031373
v -0.021334 0.006667 0.003410 0.196078 0.172549 0.156863
v -0.010839 0.007886 0.002209 0.215686 0.188235 0.168627
v -0.005602 0.016854 0.016913 0.062745 0.058824 0.050980
v -0.000816 0.012443 0.009513 0.039216 0.039216 0.027451
v 0.003646 0.010122 0.004463 0.117647 0.109804 0.090196
v 0.003762 0.011890 0.010065 0.050980 0.039216 0.027451
v 0.006345 0.014347 0.007424 0.090196 0.078431 0.058824
v -0.015485 -0.003417 0.001479 0.278431 0.243137 0.207843
v -0.005166 -0.001762 0.001930 0.247059 0.211765 0.176471
v 0.006410 -0.002199 0.005128 0.094118 0.078431 0.058824
v -0.040996 0.003921 0.014197 0.160784 0.152941 0.133333
v -0.034311 -0.005266 0.008490 0.160784 0.149020 0.137255
v -0.042547 -0.005331 0.016443 0.168627 0.152941 0.129412
v -0.039670 -0.010456 0.019601 0.203922 0.176471 0.152941
v -0.026971 -0.007907 0.009041 0.258824 0.203922 0.149020
v -0.023064 -0.008919 0.018414 0.176471 0.145098 0.117647
v -0.010110 -0.007868 0.014051 0.152941 0.129412 0.098039
v -0.025874 -0.004725 0.004367 0.223529 0.196078 0.168627
v -0.006864 -0.004693 0.004638 0.145098 0.125490 0.105882
v -0.002612 -0.006953 0.011865 0.062745 0.058824 0.043137
v 0.001825 -0.004759 0.006474 0.082353 0.070588 0.050980
v -0.014768 -0.004933 0.019511 0.113725 0.098039 0.082353
v -0.005905 -0.003488 0.019589 0.074510 0.066667 0.050980
v -0.004372 -0.006262 0.017483 0.039216 0.035294 0.023529
v 0.000575 -0.015848 0.013694 0.113725 0.098039 0.082353
v 0.004358 -0.015034 0.006617 0.149020 0.125490 0.090196
v 0.010084 -0.000786 0.001515 0.239216 0.200000 0.156863
v 0.004545 -0.008403 0.003795 0.192157 0.156863 0.129412
v 0.014179 0.003631 0.000477 0.176471 0.149020 0.117647
v 0.014320 -0.013971 0.001337 0.243137 0.200000 0.164706
v 0.030322 -0.002170 -0.000564 0.301961 0.262745 0.219608
v 0.003973 -0.021346 0.018679 0.113725 0.098039 0.078431
v 0.013175 0.042622 0.052515 0.270588 0.215686 0.164706
v 0.015887 0.041575 0.053764 0.254902 0.203922 0.149020
v 0.006352 0.036694 0.049643 0.298039 0.243137 0.184314
v 0.010271 0.037308 0.048614 0.211765 0.160784 0.105882
v 0.014609 0.044578 0.025143 0.164706 0.145098 0.117647
v -0.001485 0.027646 0.047250 0.235294 0.196078 0.152941
v 0.007051 0.033566 0.049876 0.290196 0.254902 0.215686
v 0.006743 0.032373 0.045669 0.200000 0.156863 0.098039
v 0.002286 0.024115 0.047506 0.247059 0.207843 0.164706
v -0.005857 0.006178 0.050721 0.286275 0.219608 0.145098
v -0.002040 0.008255 0.051228 0.305882 0.258824 0.207843
v -0.005824 0.009358 0.051644 0.309804 0.258824 0.203922
v -0.001020 0.006210 0.049690 0.349020 0.274510 0.172549
v -0.000713 0.010985 0.046855 0.164706 0.137255 0.105882
v -0.000839 0.001372 0.055257 0.239216 0.207843 0.164706
v 0.015474 0.038407 0.042261 0.109804 0.082353 0.050980
v 0.007951 0.028743 0.034143 0.105882 0.078431 0.050980
v -0.005359 0.020549 0.041010 0.125490 0.113725 0.094118
v 0.001884 0.020187 0.042044 0.117647 0.098039 0.074510
v 0.003203 0.020225 0.034894 0.090196 0.074510 0.054902
v 0.000602 0.030990 0.023798 0.129412 0.109804 0.094118
v -0.003450 0.022905 0.021817 0.074510 0.066667 0.050980
v -0.005254 0.018894 0.036321 0.105882 0.094118 0.078431
v -0.003599 0.019437 0.028591 0.109804 0.113725 0.101961
v 0.005466 0.020161 0.030576 0.101961 0.078431 0.054902
v 0.010998 0.026495 0.028276 0.152941 0.113725 0.070588
v 0.000615 0.018203 0.035820 0.113725 0.109804 0.098039
v -0.005981 0.011793 0.047317 0.180392 0.152941 0.121569
v -0.007104 0.006476 0.042299 0.137255 0.117647 0.094118
v -0.006361 0.013019 0.037725 0.117647 0.101961 0.082353
v 0.000097 0.011789 0.038549 0.074510 0.062745 0.047059
v 0.000015 -0.002353 0.037669 0.125490 0.090196 0.050980
v -0.002272 0.016154 0.031013 0.211765 0.200000 0.180392
v -0.004209 0.016183 0.030540 0.117647 0.105882 0.094118
v 0.002529 0.012954 0.032343 0.078431 0.066667 0.043137
v -0.006501 0.016009 0.027161 0.109804 0.101961 0.086275
v -0.000356 0.019193 0.033084 0.117647 0.117647 0.105882
v 0.000247 0.018595 0.028280 0.317647 0.317647 0.305882
v 0.005051 0.013572 0.027899 0.098039 0.082353 0.062745
v 0.002545 -0.001403 0.030356 0.090196 0.078431 0.058824
v -0.001687 0.019640 0.023196 0.078431 0.066667 0.050980
v -0.003823 0.018507 0.021371 0.058824 0.054902 0.043137
v -0.023379 0.005656 0.025390 0.200000 0.164706 0.129412
v -0.028952 0.009049 0.024711 0.164706 0.141176 0.117647
v -0.017987 0.006680 0.021514 0.180392 0.149020 0.117647
v -0.007557 0.008005 0.018478 0.082353 0.082353 0.074510
v 0.002826 0.016641 0.027267 0.062745 0.058824 0.043137
v 0.010386 0.017189 0.024882 0.141176 0.125490 0.101961
v 0.009916 0.012558 0.024909 0.149020 0.117647 0.078431
v -0.007348 0.002169 0.026710 0.082353 0.078431 0.066667
v -0.006930 0.001024 0.033727 0.074510 0.070588 0.058824
v -0.014402 0.002591 0.020569 0.207843 0.168627 0.125490
v 0.032592 0.050729 0.009723 0.152941 0.133333 0.109804
v 0.028548 0.046996 0.005378 0.149020 0.129412 0.105882
v 0.022387 0.049278 0.016347 0.156863 0.137255 0.109804
v 0.019544 0.044762 0.007971 0.168627 0.145098 0.113725
v 0.018798 0.045863 0.018899 0.152941 0.121569 0.090196
v 0.042536 0.051188 0.010610 0.156863 0.141176 0.117647
v 0.038982 0.047181 0.003618 0.149020 0.133333 0.113725
v 0.041031 0.047466 0.004831 0.129412 0.113725 0.094118
v 0.048517 0.046313 0.004061 0.180392 0.156863 0.129412
v 0.041030 0.042412 -0.000201 0.145098 0.129412 0.113725
v 0.051163 0.041261 -0.000133 0.227451 0.192157 0.156863
v 0.019579 0.041274 0.003002 0.172549 0.145098 0.117647
v 0.030853 0.042470 -0.000007 0.211765 0.180392 0.149020
v 0.019389 0.036950 0.000417 0.207843 0.176471 0.141176
v 0.026042 0.032309 -0.000202 0.188235 0.172549 0.141176
v 0.026916 0.026818 0.002201 0.101961 0.090196 0.066667
v 0.038528 0.038841 -0.000305 0.117647 0.105882 0.090196
v 0.029034 0.029839 -0.000196 0.227451 0.196078 0.156863
v 0.051307 0.049819 0.011448 0.168627 0.149020 0.121569
v 0.056837 0.044573 0.005309 0.168627 0.141176 0.109804
v 0.060840 0.046724 0.009546 0.172549 0.149020 0.121569
v 0.060600 0.036221 0.000274 0.223529 0.188235 0.152941
v 0.066201 0.039773 0.008365 0.176471 0.149020 0.121569
v 0.060453 0.032868 -0.000459 0.188235 0.160784 0.137255
v 0.059626 0.030795 0.003115 0.156863 0.129412 0.094118
v 0.050749 0.031164 -0.000820 0.207843 0.172549 0.129412
v 0.058709 0.025980 0.003530 0.098039 0.082353 0.062745
v 0.058494 0.023752 0.001890 0.082353 0.066667 0.050980
v 0.047523 0.027319 -0.000785 0.196078 0.164706 0.129412
v 0.058073 0.022776 -0.001060 0.113725 0.098039 0.074510
v 0.067844 0.031227 0.001667 0.192157 0.164706 0.141176
v 0.072169 0.032022 0.007647 0.200000 0.164706 0.125490
v 0.062848 0.028635 0.002619 0.109804 0.090196 0.066667
v 0.069376 0.026657 0.008914 0.145098 0.113725 0.078431
v 0.062830 0.024390 -0.000766 0.156863 0.129412 0.109804
v 0.012758 0.015749 0.000918 0.156863 0.133333 0.105882
v 0.013930 0.008347 0.000726 0.176471 0.152941 0.133333
v 0.019157 0.013752 0.001922 0.164706 0.129412 0.090196
v 0.021424 0.012178 0.000250 0.211765 0.180392 0.152941
v 0.041227 0.012412 -0.000599 0.325490 0.270588 0.203922
v 0.008816 0.010891 0.006278 0.054902 0.047059 0.031373
v 0.009607 0.010976 0.001884 0.105882 0.094118 0.082353
v 0.006906 0.007104 0.005087 0.047059 0.043137 0.031373
v 0.008914 0.001222 0.005791 0.058824 0.050980 0.039216
v -0.004525 0.001145 0.055308 0.376471 0.321569 0.254902
v -0.005725 -0.003870 0.047087 0.176471 0.137255 0.094118
v -0.000427 -0.004360 0.056822 0.254902 0.231373 0.196078
v -0.000718 -0.004202 0.045385 0.180392 0.149020 0.109804
v -0.004083 -0.007404 0.052009 0.152941 0.125490 0.101961
v -0.045276 0.006586 0.041656 0.227451 0.196078 0.168627
v -0.049992 0.006279 0.039261 0.192157 0.168627 0.145098
v -0.049182 0.005336 0.043350 0.223529 0.200000 0.172549
v -0.049944 0.005985 0.032658 0.164706 0.152941 0.129412
v -0.057954 0.003619 0.038522 0.215686 0.203922 0.184314
v -0.061333 -0.002026 0.039678 0.219608 0.203922 0.188235
v -0.061945 -0.002694 0.038344 0.172549 0.164706 0.152941
v -0.052530 0.002208 0.031860 0.192157 0.172549 0.152941
v -0.048920 -0.005024 0.039669 0.184314 0.152941 0.117647
v -0.048051 -0.010468 0.042054 0.239216 0.203922 0.168627
v -0.031835 0.007692 0.044053 0.274510 0.243137 0.207843
v -0.029635 0.005813 0.042394 0.196078 0.172549 0.141176
v -0.040630 0.007115 0.040878 0.250980 0.211765 0.168627
v -0.034312 0.003375 0.043274 0.305882 0.254902 0.200000
v -0.040937 0.000471 0.044436 0.254902 0.211765 0.168627
v -0.039990 -0.006062 0.044824 0.203922 0.168627 0.137255
v -0.030861 -0.001160 0.044882 0.309804 0.258824 0.207843
v -0.039473 0.002162 0.041299 0.258824 0.211765 0.152941
v -0.030767 -0.008830 0.044893 0.290196 0.247059 0.203922
v -0.033903 0.008590 0.034947 0.164706 0.145098 0.121569
v -0.028360 0.005768 0.032256 0.168627 0.145098 0.113725
v -0.029827 0.007639 0.030764 0.133333 0.117647 0.090196
v -0.044033 -0.011830 0.040885 0.250980 0.203922 0.149020
v -0.059127 -0.007947 0.039465 0.321569 0.274510 0.231373
v -0.054351 -0.008953 0.033444 0.160784 0.149020 0.133333
v -0.056589 -0.011568 0.037972 0.211765 0.192157 0.168627
v -0.048169 -0.012337 0.039254 0.211765 0.176471 0.137255
v -0.049318 -0.012086 0.032225 0.262745 0.231373 0.188235
v -0.037104 -0.012233 0.041497 0.215686 0.180392 0.141176
v -0.040338 -0.012014 0.042526 0.231373 0.200000 0.168627
v -0.030443 -0.011577 0.042444 0.227451 0.192157 0.156863
v -0.032282 -0.011422 0.035505 0.196078 0.160784 0.121569
v -0.048781 -0.008233 0.027186 0.160784 0.145098 0.121569
v -0.043450 -0.011999 0.027836 0.278431 0.231373 0.184314
v -0.031261 -0.010754 0.028359 0.176471 0.145098 0.117647
v -0.028333 -0.008729 0.044236 0.215686 0.200000 0.168627
v -0.028353 -0.007270 0.036763 0.129412 0.113725 0.090196
v -0.004853 -0.006049 0.042991 0.266667 0.231373 0.176471
v -0.004251 -0.008494 0.046723 0.172549 0.149020 0.113725
v 0.000497 -0.007046 0.040446 0.101961 0.078431 0.050980
v -0.001046 -0.013388 0.041370 0.176471 0.149020 0.121569
v -0.005465 -0.004939 0.028524 0.074510 0.070588 0.058824
v 0.004948 -0.008038 0.030277 0.149020 0.109804 0.062745
v 0.003069 -0.011894 0.039690 0.121569 0.094118 0.066667
v -0.026747 -0.006746 0.031183 0.149020 0.137255 0.109804
v -0.022670 -0.005666 0.024774 0.145098 0.133333 0.113725
v -0.005336 -0.000862 0.029375 0.047059 0.047059 0.043137
v -0.001484 -0.016126 0.038835 0.113725 0.101961 0.082353
v 0.026889 0.050302 0.057937 0.458824 0.380392 0.270588
v 0.031081 0.053740 0.056269 0.356863 0.301961 0.227451
v 0.030805 0.052967 0.053052 0.301961 0.243137 0.164706
v 0.026514 0.047527 0.058945 0.498039 0.431373 0.345098
v 0.023881 0.050519 0.056925 0.388235 0.317647 0.227451
v 0.036670 0.053877 0.053111 0.262745 0.211765 0.152941
v 0.038873 0.050944 0.053730 0.282353 0.235294 0.184314
v 0.046425 0.051373 0.048178 0.262745 0.207843 0.152941
v 0.040634 0.045850 0.050914 0.196078 0.160784 0.121569
v 0.044268 0.044737 0.047058 0.215686 0.172549 0.129412
v 0.044331 0.053240 0.045944 0.270588 0.223529 0.168627
v 0.038117 0.054029 0.036729 0.227451 0.180392 0.133333
v 0.051699 0.050844 0.044904 0.250980 0.196078 0.141176
v 0.047972 0.043031 0.046619 0.129412 0.101961 0.066667
v 0.055881 0.042620 0.051843 0.274510 0.223529 0.176471
v 0.017708 0.044923 0.056455 0.380392 0.309804 0.219608
v 0.025207 0.045199 0.057956 0.360784 0.290196 0.203922
v 0.026283 0.045048 0.052797 0.121569 0.094118 0.058824
v 0.033490 0.045025 0.056497 0.266667 0.219608 0.164706
v 0.030249 0.043744 0.054477 0.113725 0.090196 0.062745
v 0.034257 0.045601 0.048730 0.094118 0.070588 0.047059
v 0.021510 0.049394 0.028486 0.184314 0.156863 0.125490
v 0.023859 0.043471 0.044336 0.113725 0.086275 0.050980
v 0.035076 0.045653 0.051886 0.129412 0.101961 0.066667
v 0.035770 0.044069 0.041113 0.101961 0.074510 0.043137
v 0.040348 0.044225 0.038160 0.101961 0.074510 0.047059
v 0.052936 0.045839 0.050138 0.325490 0.262745 0.176471
v 0.055941 0.049229 0.041798 0.250980 0.200000 0.145098
v 0.058575 0.044751 0.049226 0.211765 0.168627 0.125490
v 0.060518 0.041561 0.051933 0.301961 0.243137 0.184314
v 0.060943 0.045520 0.043589 0.156863 0.125490 0.094118
v 0.063952 0.045426 0.039736 0.184314 0.156863 0.121569
v 0.054523 0.040204 0.048660 0.152941 0.113725 0.074510
v 0.029406 0.052327 0.025285 0.192157 0.160784 0.129412
v 0.046799 0.052360 0.019593 0.180392 0.152941 0.125490
v 0.026816 0.041980 0.036257 0.219608 0.152941 0.078431
v 0.013179 0.035378 0.035567 0.117647 0.090196 0.054902
v 0.029359 0.040275 0.030553 0.278431 0.200000 0.105882
v 0.022697 0.036649 0.028679 0.254902 0.184314 0.101961
v 0.048018 0.040327 0.033440 0.117647 0.086275 0.050980
v 0.035826 0.038870 0.028287 0.235294 0.176471 0.101961
v 0.045885 0.035328 0.026238 0.156863 0.113725 0.074510
v 0.053166 0.051014 0.022429 0.172549 0.145098 0.121569
v 0.038239 0.052712 0.016598 0.168627 0.141176 0.117647
v 0.027086 0.032302 0.023054 0.274510 0.211765 0.129412
v 0.015027 0.043979 0.011854 0.149020 0.133333 0.113725
v 0.033320 0.033851 0.023683 0.301961 0.231373 0.133333
v 0.031503 0.027491 0.020831 0.243137 0.180392 0.105882
v 0.038333 0.032585 0.024029 0.192157 0.145098 0.094118
v 0.046124 0.029008 0.023050 0.180392 0.141176 0.090196
v 0.036061 0.026359 0.022509 0.172549 0.133333 0.086275
v 0.068725 0.041430 0.034113 0.211765 0.168627 0.125490
v 0.059854 0.047558 0.020346 0.180392 0.156863 0.125490
v 0.053615 0.036134 0.031318 0.141176 0.101961 0.062745
v 0.054947 0.029175 0.025847 0.156863 0.121569 0.078431
v 0.058446 0.047214 0.012536 0.152941 0.129412 0.101961
v 0.069441 0.039771 0.015551 0.172549 0.152941 0.129412
v 0.015837 0.024755 0.024566 0.219608 0.164706 0.105882
v 0.022527 0.023509 0.020879 0.168627 0.129412 0.090196
v 0.015638 0.015200 0.022769 0.207843 0.156863 0.101961
v 0.019277 0.012221 0.020156 0.254902 0.200000 0.125490
v 0.024736 0.016651 0.019669 0.223529 0.172549 0.109804
v 0.031586 0.022601 0.020111 0.243137 0.184314 0.109804
v 0.039955 0.022584 0.022204 0.262745 0.200000 0.121569
v 0.046582 0.021731 0.021460 0.270588 0.203922 0.121569
v 0.029083 0.017082 0.021095 0.196078 0.152941 0.105882
v 0.039844 0.013732 0.020432 0.282353 0.215686 0.129412
v 0.025699 0.010839 0.021083 0.262745 0.200000 0.121569
v 0.013951 0.004380 0.022058 0.211765 0.164706 0.101961
v 0.007302 -0.000420 0.025199 0.152941 0.121569 0.082353
v 0.020078 -0.003274 0.021414 0.270588 0.203922 0.125490
v 0.021420 0.002732 0.020015 0.247059 0.188235 0.117647
v 0.030215 -0.037659 0.047219 0.200000 0.164706 0.125490
v 0.074663 -0.013994 0.067536 0.215686 0.184314 0.149020
v 0.075862 -0.012886 0.044476 0.117647 0.113725 0.105882
v 0.074878 -0.013697 0.018218 0.168627 0.149020 0.125490
v 0.072469 -0.017704 0.041582 0.113725 0.109804 0.098039
v 0.067758 -0.024395 0.055440 0.176471 0.149020 0.113725
v 0.066335 -0.024436 0.017504 0.172549 0.145098 0.117647
v 0.065679 -0.025915 0.036483 0.180392 0.145098 0.105882
vt 0.426443 0.579575
vt 0.361461 0.478097
vt 0.469109 0.506356
vt 0.469337 0.429247
vt 0.389046 0.403892
vt 0.496281 0.349555
vt 0.556936 0.528760
vt 0.537110 0.449578
vt 0.421098 0.332955
vt 0.413703 0.158768
vt 0.388209 0.033553
vt 0.441511 0.056919
vt 0.489049 0.571560
vt 0.374733 0.135290
vt 0.345845 0.171434
vt 0.331848 0.019961
vt 0.420386 0.420031
vt 0.318368 0.425077
vt 0.541744 0.401488
vt 0.542612 0.039036
vt 0.549275 0.133610
vt 0.496479 0.109007
vt 0.579177 0.273303
vt 0.539748 0.275584
vt 0.560815 0.173307
vt 0.381541 0.059173
vt 0.384747 0.590151
vt 0.335361 0.552486
vt 0.402362 0.220412
vt 0.361857 0.255646
vt 0.495627 0.238022
vt 0.460130 0.258143
vt 0.461367 0.151273
vt 0.543038 0.158759
vt 0.519493 0.248659
vt 0.499453 0.178673
vt 0.459190 0.085603
vt 0.594953 0.228757
vt 0.608350 0.177839
vt 0.433384 0.218059
vt 0.367809 0.366896
vt 0.321590 0.492986
vt 0.409444 0.275775
vt 0.580681 0.530168
vt 0.553851 0.415514
vt 0.571424 0.435243
vt 0.542234 0.373081
vt 0.540207 0.331731
vt 0.483394 0.058822
vt 0.345033 0.605049
vt 0.327320 0.404834
vt 0.356930 0.293885
vt 0.328902 0.382293
vt 0.341840 0.334173
vt 0.393940 0.334175
vt 0.437151 0.024563
vt 0.459561 0.001058
vt 0.449892 0.304314
vt 0.488921 0.327221
vt 0.502715 0.276524
vt 0.421938 0.312237
vt 0.379523 0.308965
vt 0.517471 0.061847
vt 0.502862 0.048189
vt 0.400331 0.025876
vt 0.526007 0.307174
vt 0.568371 0.296938
vt 0.457857 0.288115
vt 0.482349 0.305205
vt 0.551020 0.450251
vt 0.343987 0.023613
vt 0.561418 0.510819
vt 0.437686 0.293345
vt 0.427595 0.245183
vt 0.520250 0.034426
vt 0.570774 0.409756
vt 0.558681 0.373219
vt 0.605378 0.166705
vt 0.405318 0.012497
vt 0.308281 0.486591
vt 0.613518 0.402600
vt 0.583719 0.399995
vt 0.590782 0.386927
vt 0.559343 0.328844
vt 0.555529 0.353322
vt 0.376271 0.001006
vt 0.476602 0.018681
vt 0.575512 0.384690
vt 0.590743 0.264608
vt 0.514043 0.024494
vt 0.487018 0.043148
vt 0.409925 0.594904
vt 0.541211 0.025170
vt 0.476962 0.000034
vt 0.598635 0.409945
vt 0.739145 0.289669
vt 0.637325 0.318211
vt 0.606757 0.254532
vt 0.659163 0.360365
vt 0.789669 0.322914
vt 0.773129 0.364399
vt 0.682461 0.414014
vt 0.720694 0.212076
vt 0.717615 0.252297
vt 0.614611 0.216974
vt 0.671027 0.174347
vt 0.718132 0.435773
vt 0.881962 0.229943
vt 0.929138 0.324190
vt 0.880422 0.313642
vt 0.629185 0.147659
vt 0.738660 0.132762
vt 0.858922 0.176181
vt 0.892887 0.124425
vt 0.891592 0.216003
vt 0.726070 0.103265
vt 0.753619 0.171578
vt 0.811134 0.366840
vt 0.793766 0.274320
vt 0.785597 0.196038
vt 0.763607 0.241754
vt 0.853579 0.251489
vt 0.848842 0.332277
vt 0.857258 0.384378
vt 0.742653 0.073788
vt 0.781025 0.115820
vt 0.609158 0.188211
vt 0.828434 0.313564
vt 0.841533 0.277712
vt 0.841872 0.204849
vt 0.847630 0.122256
vt 0.846941 0.162668
vt 0.782270 0.032840
vt 0.782960 0.082279
vt 0.806282 0.251956
vt 0.761474 0.264997
vt 0.809478 0.213272
vt 0.877603 0.083987
vt 0.803143 0.080807
vt 0.816854 0.052840
vt 0.860740 0.085377
vt 0.868056 0.055009
vt 0.880768 0.360100
vt 0.816884 0.099443
vt 0.907709 0.138295
vt 0.832172 0.249492
vt 0.781164 0.155101
vt 0.817070 0.172173
vt 0.842936 0.027115
vt 0.818037 0.133022
vt 0.813477 0.163175
vt 0.913789 0.085776
vt 0.896179 0.019023
vt 0.909162 0.016239
vt 0.931504 0.072708
vt 0.894808 0.068659
vt 0.880675 0.033296
vt 0.894262 0.083450
vt 0.912910 0.346191
vt 0.894941 0.333009
vt 0.906706 0.051470
vt 0.925874 0.346934
vt 0.921357 0.090097
vt 0.929806 0.094365
vt 0.883122 0.026192
vt 0.880850 0.379210
vt 0.616503 0.295514
vt 0.912766 0.378258
vt 0.900011 0.341457
vt 0.886412 0.001177
vt 0.864399 0.014096
vt 0.869316 0.399046
vt 0.599288 0.240997
vt 0.601433 0.215433
vt 0.429418 0.837271
vt 0.284618 0.898405
vt 0.369283 0.820872
vt 0.231075 0.728281
vt 0.151556 0.801822
vt 0.133443 0.746635
vt 0.297505 0.740105
vt 0.183136 0.684445
vt 0.089567 0.693616
vt 0.316053 0.810744
vt 0.174566 0.863260
vt 0.220434 0.808263
vt 0.251722 0.868945
vt 0.323331 0.676834
vt 0.331413 0.761676
vt 0.040505 0.594106
vt 0.130467 0.575470
vt 0.066574 0.637041
vt 0.162469 0.623868
vt 0.075908 0.659007
vt 0.171715 0.650757
vt 0.233771 0.667997
vt 0.233117 0.700019
vt 0.356718 0.711373
vt 0.107825 0.511290
vt 0.170318 0.533132
vt 0.096650 0.551205
vt 0.038076 0.568075
vt 0.013248 0.547754
vt 0.171014 0.899363
vt 0.172383 0.592993
vt 0.047194 0.694925
vt 0.079849 0.760595
vt 0.463656 0.682033
vt 0.402166 0.707462
vt 0.421050 0.625772
vt 0.045820 0.768537
vt 0.008442 0.710417
vt 0.377761 0.743395
vt 0.134988 0.609753
vt 0.370871 0.670479
vt 0.370411 0.776911
vt 0.287321 0.664391
vt 0.166431 0.836104
vt 0.503181 0.714818
vt 0.472824 0.747976
vt 0.227752 0.779063
vt 0.422667 0.717640
vt 0.457193 0.736264
vt 0.007356 0.655209
vt 0.030788 0.633606
vt 0.167413 0.934595
vt 0.223317 0.902346
vt 0.108516 0.745725
vt 0.218551 0.643550
vt 0.106924 0.782662
vt 0.103040 0.833423
vt 0.137135 0.829126
vt 0.407110 0.808508
vt 0.083547 0.807989
vt 0.000241 0.593819
vt 0.429035 0.735729
vt 0.450503 0.791001
vt 0.423656 0.790273
vt 0.068793 0.831804
vt 0.131092 0.909076
vt 0.094349 0.871812
vt 0.124860 0.864532
vt 0.478042 0.805975
vt 0.483894 0.771522
vt 0.141259 0.875644
vt 0.434138 0.819774
vt 0.178888 0.613722
vt 0.201835 0.579296
vt 0.212310 0.606422
vt 0.398157 0.772169
vt 0.258291 0.649287
vt 0.164190 0.852230
vt 0.252752 0.899860
vt 0.198058 0.932800
vt 0.010410 0.612561
vt 0.409451 0.763022
vt 0.366966 0.702010
vt 0.207865 0.939345
vt 0.196147 0.633387
vt 0.373387 0.642010
vt 0.446832 0.832215
vt 0.401637 0.739680
vt 0.342692 0.654216
vt 0.338652 0.678391
vt 0.315182 0.659379
vt 0.278333 0.644688
vt 0.331745 0.638664
vt 0.078093 0.854374
vt 0.187088 0.580763
vt 0.376383 0.724933
vt 0.387298 0.750893
vt 0.217111 0.633309
vt 0.183638 0.554985
vt 0.237737 0.634511
vt 0.232837 0.611924
vt 0.253194 0.622022
vt 0.232225 0.642903
vt 0.223229 0.596385
vt 0.491374 0.848628
vt 0.449634 0.844720
vt 0.461230 0.832905
vt 0.181680 0.633875
vt 0.424522 0.806848
vt 0.310060 0.010310
vt 0.323745 0.059385
vt 0.269378 0.091854
vt 0.284496 0.175310
vt 0.276572 0.127686
vt 0.336364 0.085482
vt 0.033393 0.201227
vt 0.101691 0.250324
vt 0.036427 0.265032
vt 0.196005 0.207832
vt 0.181520 0.133901
vt 0.224094 0.149492
vt 0.147173 0.052757
vt 0.157480 0.105281
vt 0.100004 0.128816
vt 0.135003 0.164141
vt 0.244414 0.090849
vt 0.211348 0.063454
vt 0.241790 0.038644
vt 0.213172 0.319238
vt 0.249036 0.352935
vt 0.201171 0.384009
vt 0.269010 0.057390
vt 0.244036 0.287044
vt 0.277083 0.289237
vt 0.175920 0.313240
vt 0.168443 0.192464
vt 0.097451 0.212162
vt 0.046818 0.145954
vt 0.001569 0.116229
vt 0.049947 0.089244
vt 0.186409 0.036327
vt 0.290654 0.381000
vt 0.222979 0.427374
vt 0.232212 0.387976
vt 0.077313 0.114778
vt 0.231900 0.227528
vt 0.197184 0.264990
vt 0.198472 0.088259
vt 0.085588 0.174604
vt 0.318258 0.312060
vt 0.275243 0.333739
vt 0.238049 0.179738
vt 0.053207 0.331028
vt 0.072751 0.289671
vt 0.223974 0.125297
vt 0.096651 0.067662
vt 0.113977 0.275982
vt 0.104159 0.325893
vt 0.165168 0.231759
vt 0.258395 0.434247
vt 0.300198 0.267620
vt 0.019478 0.174236
vt 0.129749 0.202321
vt 0.248483 0.242657
vt 0.276006 0.237066
vt 0.165813 0.040177
vt 0.109108 0.347881
vt 0.083235 0.349746
vt 0.217042 0.286539
vt 0.000456 0.150414
vt 0.270740 0.179782
vt 0.237931 0.139440
vt 0.166370 0.015475
vt 0.173599 0.369160
vt 0.145660 0.346156
vt 0.257011 0.468717
vt 0.209294 0.547442
vt 0.206063 0.518782
vt 0.136223 0.285890
vt 0.134905 0.242042
vt 0.252332 0.194760
vt 0.128303 0.386458
vt 0.308292 0.353073
vt 0.146768 0.304373
vt 0.249420 0.125084
vt 0.224977 0.097560
vt 0.198157 0.418779
vt 0.154112 0.403147
vt 0.161524 0.267658
vt 0.327304 0.225457
vt 0.323864 0.254909
vt 0.301798 0.207780
vt 0.172871 0.286158
vt 0.052108 0.067318
vt 0.008629 0.080959
vt 0.293850 0.417653
vt 0.301670 0.235079
vt 0.193901 0.551850
vt 0.190342 0.525634
vt 0.101348 0.375214
vt 0.115357 0.045638
vt 0.318523 0.266448
vt 0.308724 0.381132
vt 0.317842 0.420115
vt 0.250909 0.150540
vt 0.125465 0.311531
vt 0.223672 0.447706
vt 0.273406 0.153752
vt 0.227643 0.477656
vt 0.118822 0.028209
vt 0.172086 0.432389
vt 0.262506 0.108708
vt 0.314758 0.203220
vt 0.147113 0.006313
vt 0.328743 0.298260
vt 0.336788 0.265589
vt 0.132910 0.412895
vt 0.076185 0.051013
vt 0.273421 0.209392
vt 0.284599 0.228576
vt 0.234806 0.117126
vt 0.194764 0.459402
vt 0.058147 0.046011
vt 0.299651 0.249570
vt 0.323011 0.365888
vt 0.210385 0.491776
vt 0.194583 0.499399
vt 0.185300 0.470145
vt 0.217424 0.109777
vt 0.188981 0.439110
vt 0.324991 0.323907
vt 0.077051 0.034426
vt 0.197503 0.469470
vt 0.116265 0.016183
vt 0.152505 0.431919
vt 0.181842 0.549103
vt 0.202293 0.504287
vt 0.209933 0.444442
vt 0.329882 0.251652
vt 0.560097 0.972454
vt 0.647603 0.922601
vt 0.644340 0.978115
vt 0.683074 0.917578
vt 0.756456 0.892174
vt 0.721825 0.946598
vt 0.591616 0.919743
vt 0.530325 0.953349
vt 0.491907 0.994200
vt 0.483959 0.933686
vt 0.607895 0.836471
vt 0.625101 0.895840
vt 0.577202 0.882423
vt 0.703841 0.984877
vt 0.785958 0.897360
vt 0.815794 0.905129
vt 0.774833 0.941809
vt 0.535173 0.818399
vt 0.558149 0.838111
vt 0.537397 0.888931
vt 0.660466 0.893131
vt 0.656782 0.836992
vt 0.692994 0.834200
vt 0.527984 0.924691
vt 0.474866 0.883477
vt 0.514341 0.867626
vt 0.574079 0.838086
vt 0.689360 0.891275
vt 0.628390 0.831091
vt 0.552853 0.990077
vt 0.646068 0.999670
vt 0.698989 0.867936
vt 0.725336 0.832212
vt 0.732865 0.876578
vt 0.518517 0.934834
vt 0.550442 0.913355
vt 0.573800 0.892388
vt 0.565945 0.863017
vt 0.471596 0.899877
vt 0.495398 0.998574
vt 0.519758 0.979711
vt 0.738021 0.967397
vt 0.622979 0.910156
vt 0.591690 0.808737
vt 0.567652 0.828100
vt 0.557830 0.885225
vt 0.527147 0.892173
vt 0.845378 0.519300
vt 0.905516 0.507256
vt 0.869049 0.574717
vt 0.976547 0.495098
vt 0.987185 0.585692
vt 0.947378 0.572325
vt 0.891830 0.720642
vt 0.866961 0.684636
vt 0.920638 0.639766
vt 0.918979 0.571268
vt 0.880189 0.628984
vt 0.965156 0.735448
vt 0.933372 0.794358
vt 0.907002 0.735163
vt 0.929543 0.522542
vt 0.868208 0.769403
vt 0.986712 0.648917
vt 0.945891 0.619490
vt 0.980295 0.689377
vt 0.925871 0.699177
vt 0.939123 0.656403
vt 0.926096 0.488527
vt 0.944103 0.443691
vt 0.903238 0.537414
vt 0.916229 0.457656
vt 0.880552 0.489762
vt 0.874226 0.450911
vt 0.853181 0.616524
vt 0.852203 0.656306
vt 0.944790 0.436336
vt 0.857451 0.717295
vt 0.836764 0.689772
vt 0.867208 0.746539
vt 0.911579 0.474057
vt 0.844816 0.585911
vt 0.849882 0.551535
vt 0.842975 0.700594
vt 0.863601 0.498160
vt 0.850833 0.506470
vt 0.832951 0.490230
vt 0.870974 0.482137
vt 0.906199 0.823604
vt 0.960704 0.820993
vt 0.879913 0.897026
vt 0.948826 0.869351
vt 0.928412 0.888314
vt 0.908608 0.923752
vt 0.981405 0.915280
vt 0.941029 0.791184
vt 0.987048 0.879440
vt 0.930477 0.978886
vt 0.954098 0.999627
vt 0.858484 0.982121
vt 0.861188 0.938637
vt 0.879571 0.965630
vt 0.883114 0.946714
vt 0.896219 0.957775
vt 0.881675 0.864759
vt 0.906490 0.945813
vt 0.860141 0.843819
vt 0.888940 0.829698
vt 0.858399 0.822628
vt 0.965530 0.791587
vt 0.931387 0.943910
vt 0.881004 0.825560
vt 0.850684 0.803437
vt 0.955698 0.892875
vt 0.842746 0.589363
vt 0.770697 0.611587
vt 0.796965 0.545395
vt 0.762156 0.758592
vt 0.716721 0.713450
vt 0.774225 0.700783
vt 0.663222 0.563756
vt 0.713147 0.545702
vt 0.696517 0.620237
vt 0.673580 0.704044
vt 0.676310 0.761011
vt 0.623834 0.741073
vt 0.599979 0.691714
vt 0.559233 0.722849
vt 0.774842 0.833850
vt 0.745701 0.868722
vt 0.719394 0.812390
vt 0.750116 0.679764
vt 0.719389 0.646451
vt 0.650966 0.623950
vt 0.612367 0.763634
vt 0.549947 0.789128
vt 0.558588 0.751625
vt 0.580188 0.647613
vt 0.531381 0.660147
vt 0.737831 0.450528
vt 0.686244 0.477548
vt 0.653947 0.444398
vt 0.844267 0.526675
vt 0.637971 0.409806
vt 0.593092 0.455544
vt 0.630830 0.552706
vt 0.589707 0.605769
vt 0.589086 0.552090
vt 0.637777 0.476018
vt 0.646114 0.523603
vt 0.720586 0.768587
vt 0.615587 0.639393
vt 0.651927 0.661983
vt 0.746988 0.577840
vt 0.755225 0.517695
vt 0.540165 0.683532
vt 0.693220 0.526973
vt 0.596422 0.504346
vt 0.818523 0.498175
vt 0.617377 0.790174
vt 0.812050 0.630327
vt 0.743738 0.783918
vt 0.794364 0.808305
vt 0.694818 0.662959
vt 0.604977 0.410512
vt 0.622656 0.600801
vt 0.722254 0.601985
vt 0.775734 0.479353
vt 0.733537 0.504896
vt 0.831540 0.657538
vt 0.838418 0.716392
vt 0.802028 0.698933
vt 0.809666 0.787086
vt 0.636991 0.702527
vt 0.548859 0.624251
vt 0.697625 0.427468
vt 0.521946 0.721340
vt 0.530934 0.685709
vt 0.795551 0.733017
vt 0.565688 0.737895
vt 0.524987 0.774346
vt 0.819478 0.761757
vt 0.692147 0.734389
vt 0.671495 0.644476
vt 0.681642 0.789680
vt 0.793766 0.662998
vt 0.498842 0.645125
vt 0.504254 0.674481
vt 0.784019 0.871141
vt 0.805026 0.855252
vt 0.781074 0.640929
vt 0.576874 0.803582
vt 0.807994 0.896157
vt 0.697046 0.806100
vt 0.651621 0.755847
vt 0.649473 0.781789
vt 0.816754 0.663865
vt 0.681623 0.831034
vt 0.670380 0.803924
vt 0.628165 0.806070
vt 0.766294 0.859998
vt 0.531000 0.809201
vt 0.522728 0.642513
vt 0.515822 0.689301
vt 0.504632 0.713160
vt 0.772946 0.881209
vt 0.695613 0.830067
vt 0.533189 0.743125
vt 0.530683 0.794426
vt 0.764404 0.891230
vt 0.647822 0.791255
vt 0.759401 0.873754
vt 0.656899 0.806637
vt 0.511705 0.725735
f 1/60 2/32 3/31
f 1/60 4/68 2/32
f 2/32 4/68 5/58
f 5/58 6/73 7/74
f 6/73 8/43 7/74
f 9/69 4/68 1/60
f 5/58 10/61 6/73
f 11/59 10/61 5/58
f 10/61 12/55 13/62
f 11/59 14/9 10/61
f 10/61 14/9 12/55
f 6/73 10/61 8/43
f 10/61 13/62 8/43
f 17/51 16/5 15/17
f 14/9 16/5 19/41
f 17/51 20/53 16/5
f 19/41 16/5 20/53
f 21/231 22/230 23/232
f 21/231 24/234 22/230
f 25/252 26/242 27/218
f 26/242 23/232 27/218
f 21/231 23/232 26/242
f 28/211 24/234 18/239
f 24/234 21/231 18/239
f 17/268 18/239 21/231
f 17/268 21/231 20/241
f 20/241 21/231 26/242
f 29/240 30/245 31/204
f 8/43 32/52 33/30
f 33/258 32/226 34/254
f 13/62 32/52 8/43
f 34/254 32/226 35/227
f 32/226 31/204 35/227
f 31/204 32/226 29/240
f 29/54 32/52 13/62
f 14/9 19/41 12/55
f 20/53 29/54 19/41
f 12/55 29/54 13/62
f 19/41 29/54 12/55
f 36/185 30/245 25/252
f 31/204 30/245 36/185
f 25/252 30/245 26/242
f 26/242 30/245 29/240
f 29/240 20/241 26/242
f 39/161 37/165 38/153
f 40/50 42/28 41/27
f 41/27 42/28 43/2
f 15/17 18/18 17/51
f 15/17 43/2 18/18
f 42/28 44/42 43/2
f 43/2 44/42 18/18
f 44/42 28/80 18/18
f 51/265 52/266 50/267
f 45/347 54/384 47/388
f 47/273 55/248 56/269
f 54/384 55/408 47/388
f 57/375 54/384 45/347
f 45/200 58/205 48/191
f 58/205 45/200 47/273
f 47/273 56/269 58/205
f 58/205 56/269 59/247
f 57/375 60/406 54/384
f 55/408 54/384 60/406
f 57/375 61/392 60/406
f 60/278 62/249 55/248
f 61/392 63/397 60/406
f 62/249 60/278 63/275
f 55/248 59/247 56/269
f 59/247 55/248 62/249
f 52/266 51/265 67/251
f 51/265 53/217 67/251
f 63/275 64/272 62/249
f 63/275 68/277 64/272
f 69/229 64/272 68/277
f 70/274 71/276 67/251
f 67/251 68/277 70/274
f 68/277 67/251 72/196
f 63/275 70/274 68/277
f 65/368 71/369 63/397
f 70/274 63/275 71/276
f 68/277 72/196 69/229
f 64/272 73/259 62/249
f 69/229 73/259 64/272
f 67/251 71/276 52/266
f 67/251 53/217 72/196
f 69/229 72/196 75/182
f 52/557 71/589 74/555
f 45/200 48/191 76/201
f 76/201 48/191 78/190
f 77/214 79/192 48/191
f 78/190 48/191 79/192
f 78/190 79/192 80/225
f 48/191 58/205 77/214
f 58/205 81/193 77/214
f 59/247 81/193 58/205
f 59/247 62/249 73/259
f 59/247 82/282 81/193
f 59/247 73/259 82/282
f 73/259 83/195 82/282
f 82/282 83/195 81/193
f 77/214 81/193 79/192
f 66/314 84/313 65/368
f 65/368 84/313 71/369
f 73/259 69/229 83/195
f 69/229 75/182 83/195
f 75/182 85/183 83/195
f 79/192 81/193 86/194
f 81/193 85/183 86/194
f 81/193 83/195 85/183
f 79/192 86/194 87/206
f 86/194 85/183 87/206
f 89/264 91/257 90/198
f 50/578 52/557 92/558
f 52/557 74/555 92/558
f 80/170 40/154 38/153
f 80/225 79/192 87/206
f 87/206 40/224 80/225
f 40/224 87/206 42/212
f 87/206 28/211 42/212
f 44/42 42/28 28/80
f 88/228 93/207 85/183
f 87/206 85/183 93/207
f 87/206 93/207 28/211
f 22/230 93/207 88/228
f 93/207 22/230 24/234
f 93/207 24/234 28/211
f 94/605 95/613 96/615
f 97/322 98/403 99/329
f 99/329 100/294 97/322
f 101/360 98/403 97/322
f 103/300 101/360 102/301
f 101/360 97/322 102/301
f 97/322 104/340 102/301
f 102/301 46/315 106/302
f 46/315 102/301 104/340
f 46/315 104/340 45/347
f 97/322 105/296 104/340
f 103/300 102/301 106/302
f 97/322 100/294 107/297
f 106/302 46/315 45/347
f 97/322 107/297 105/296
f 105/296 107/297 108/298
f 57/375 104/340 105/296
f 57/375 45/347 104/340
f 105/296 109/330 57/375
f 57/375 109/330 61/392
f 65/368 61/392 109/330
f 65/368 109/330 66/314
f 61/392 65/368 63/397
f 106/199 45/200 76/201
f 107/297 110/299 108/298
f 107/297 100/294 110/299
f 108/298 110/299 111/323
f 78/190 112/202 76/201
f 78/190 80/225 113/255
f 80/170 38/153 113/171
f 113/171 38/153 37/165
f 114/599 115/604 116/610
f 115/604 117/574 116/610
f 108/298 118/319 105/296
f 105/296 118/319 109/330
f 108/298 119/312 118/319
f 109/330 118/319 66/314
f 66/314 118/319 119/312
f 111/323 119/312 108/298
f 119/312 121/344 84/313
f 111/323 122/336 119/312
f 119/312 84/313 66/314
f 84/553 123/554 74/555
f 84/553 74/555 71/589
f 119/312 122/336 121/344
f 84/553 121/581 123/554
f 121/581 124/582 123/554
f 125/528 126/530 127/556
f 127/290 111/323 120/311
f 111/323 127/290 122/336
f 128/327 125/292 488/328
f 125/528 129/529 126/530
f 117/574 129/529 125/528
f 128/583 117/574 125/528
f 117/574 115/604 129/529
f 126/530 122/572 127/556
f 126/530 131/568 122/572
f 131/568 121/581 122/572
f 126/530 130/567 131/568
f 131/568 124/582 121/581
f 132/75 133/90 134/93
f 134/93 96/20 132/75
f 133/594 135/549 134/622
f 134/622 135/549 96/615
f 135/549 94/605 96/615
f 133/594 136/550 135/549
f 132/75 96/20 137/63
f 138/64 133/90 132/75
f 133/90 138/64 139/49
f 133/90 139/49 136/91
f 140/57 141/94 142/87
f 140/57 143/56 144/79
f 140/618 145/590 141/627
f 146/617 145/590 140/618
f 143/56 147/65 144/79
f 139/49 147/65 143/56
f 139/49 143/56 140/57
f 139/49 148/12 147/65
f 146/617 140/618 144/601
f 145/590 146/617 149/591
f 146/617 144/601 149/591
f 149/591 144/601 150/569
f 151/600 152/552 144/601
f 144/601 152/552 150/569
f 135/549 153/573 94/605
f 96/20 95/21 155/22
f 137/63 96/20 155/22
f 139/49 140/57 142/87
f 139/49 142/87 136/91
f 154/593 136/550 145/590
f 132/75 137/63 138/64
f 137/63 155/22 138/64
f 155/22 139/49 138/64
f 155/22 148/12 139/49
f 148/12 155/22 157/37
f 94/605 153/573 95/613
f 153/573 135/549 158/548
f 158/548 135/549 136/550
f 154/593 159/539 158/548
f 136/550 154/593 158/548
f 154/593 156/541 159/539
f 142/621 141/627 145/590
f 145/590 136/550 142/621
f 154/593 145/590 156/541
f 145/590 149/591 156/541
f 149/591 150/569 156/541
f 156/541 150/569 160/540
f 160/540 150/569 152/552
f 160/540 159/539 156/541
f 162/551 160/540 152/552
f 49/263 163/215 89/264
f 92/260 49/263 50/267
f 92/260 163/215 49/263
f 91/257 89/264 163/215
f 164/209 165/270 91/257
f 165/270 90/198 91/257
f 91/257 163/215 164/209
f 171/233 166/238 170/283
f 168/246 172/243 169/261
f 152/552 151/600 172/616
f 174/236 173/237 166/238
f 168/246 170/283 173/237
f 172/243 168/246 173/237
f 173/237 170/283 166/238
f 174/236 176/223 173/237
f 177/222 176/223 174/236
f 178/262 167/256 179/271
f 179/271 167/256 180/250
f 181/213 178/262 179/271
f 178/262 181/213 165/270
f 166/238 180/250 167/256
f 180/250 182/216 179/271
f 171/233 180/250 166/238
f 164/209 174/236 178/262
f 174/236 167/256 178/262
f 174/236 164/209 177/222
f 178/262 165/270 164/209
f 165/270 181/213 90/198
f 179/271 182/216 181/213
f 181/213 182/216 183/189
f 174/236 166/238 167/256
f 180/250 171/233 182/216
f 171/233 188/177 182/216
f 163/215 184/210 164/209
f 163/215 92/260 184/210
f 92/558 185/562 184/571
f 92/558 74/555 185/562
f 172/243 173/237 187/244
f 172/616 187/588 152/552
f 176/223 175/220 173/237
f 173/237 175/220 187/244
f 189/219 187/244 175/220
f 152/552 187/588 162/551
f 187/588 189/560 162/551
f 176/223 186/208 175/220
f 189/219 175/220 186/208
f 190/175 222/176 188/177
f 186/208 164/209 184/210
f 182/216 188/177 191/184
f 182/216 191/184 183/189
f 164/209 186/208 177/222
f 177/222 186/208 176/223
f 191/184 223/186 183/189
f 184/571 192/559 186/561
f 192/559 189/560 186/561
f 188/177 193/187 191/184
f 148/12 194/11 147/65
f 147/65 151/86 144/79
f 147/65 194/11 151/86
f 194/11 195/26 196/71
f 148/12 157/37 161/10
f 161/10 194/11 148/12
f 194/11 161/10 195/26
f 168/246 169/261 190/175
f 169/261 196/280 190/175
f 169/261 151/281 196/280
f 168/246 171/233 170/283
f 168/246 190/175 171/233
f 194/279 196/280 151/281
f 169/261 172/243 151/281
f 190/16 196/71 195/26
f 190/175 188/177 171/233
f 155/22 95/21 197/34
f 158/548 198/609 153/573
f 95/613 153/573 197/624
f 153/573 198/609 197/624
f 158/548 199/608 198/609
f 199/608 158/548 159/539
f 159/539 160/540 200/587
f 155/22 201/33 157/37
f 199/608 202/538 198/609
f 159/539 202/538 199/608
f 203/537 202/538 159/539
f 202/538 203/537 204/596
f 155/22 197/34 205/36
f 205/36 201/33 155/22
f 157/37 201/33 161/10
f 160/540 162/551 206/565
f 200/587 203/537 159/539
f 200/587 207/566 203/537
f 203/537 207/566 208/597
f 207/566 209/547 208/597
f 200/587 160/540 207/566
f 160/540 206/565 207/566
f 206/565 209/547 207/566
f 211/532 212/546 213/545
f 211/532 214/577 212/546
f 129/529 115/604 213/545
f 213/545 212/546 129/529
f 205/36 3/31 201/33
f 3/31 2/32 201/33
f 204/596 203/537 211/532
f 211/532 203/537 214/577
f 208/597 214/577 203/537
f 208/597 215/536 214/577
f 210/40 216/29 201/33
f 216/29 161/10 201/33
f 210/40 7/74 216/29
f 210/40 201/33 2/32
f 5/58 210/40 2/32
f 210/40 5/58 7/74
f 216/29 8/43 33/30
f 216/29 7/74 8/43
f 185/562 74/555 123/554
f 184/571 217/563 192/559
f 185/562 217/563 184/571
f 185/562 123/554 217/563
f 217/563 123/554 218/570
f 123/554 124/582 218/570
f 217/563 219/534 192/559
f 218/570 219/534 217/563
f 189/560 192/559 220/579
f 189/560 206/565 162/551
f 189/560 220/579 206/565
f 209/547 206/565 220/579
f 188/177 222/176 193/187
f 220/579 219/534 209/547
f 219/534 220/579 192/559
f 193/187 222/176 221/253
f 221/253 35/227 193/187
f 191/184 36/185 223/186
f 193/187 36/185 191/184
f 129/529 130/567 126/530
f 224/535 130/567 225/580
f 224/535 225/580 215/536
f 219/534 224/535 215/536
f 129/529 225/580 130/567
f 212/546 225/580 129/529
f 212/546 215/536 225/580
f 130/567 224/535 131/568
f 218/570 124/582 224/535
f 124/582 131/568 224/535
f 224/535 219/534 218/570
f 215/536 209/547 219/534
f 208/597 209/547 215/536
f 212/546 214/577 215/536
f 222/15 216/29 33/30
f 221/253 222/176 34/254
f 34/254 222/176 33/258
f 34/254 35/227 221/253
f 35/227 31/204 193/187
f 223/186 36/185 25/252
f 193/187 31/204 36/185
f 27/218 223/186 25/252
f 226/416 227/417 228/419
f 229/118 230/100 231/128
f 231/128 232/123 229/118
f 232/123 234/124 229/118
f 232/123 235/143 234/124
f 236/110 235/143 232/123
f 235/143 236/110 237/160
f 226/416 228/419 239/427
f 227/417 240/418 228/419
f 239/427 228/419 241/455
f 242/430 241/455 228/419
f 234/124 244/166 240/172
f 240/418 244/428 228/419
f 228/419 245/429 242/430
f 228/419 244/428 245/429
f 234/124 235/143 244/166
f 246/168 244/166 235/143
f 235/143 247/159 246/168
f 237/160 238/169 235/143
f 235/143 238/169 247/159
f 242/472 245/473 249/474
f 250/476 249/474 245/473
f 239/427 251/444 226/416
f 239/477 252/478 251/465
f 251/465 252/478 253/466
f 254/470 255/469 256/471
f 256/471 255/469 257/468
f 241/479 258/481 239/477
f 239/477 258/481 252/478
f 241/479 248/480 258/481
f 248/480 241/479 242/472
f 248/480 255/469 258/481
f 259/467 255/469 248/480
f 257/468 259/467 260/491
f 259/467 261/493 260/491
f 257/468 262/489 256/471
f 263/492 257/468 264/497
f 257/468 260/491 264/497
f 264/23 260/67 265/24
f 242/472 249/474 248/480
f 259/467 248/480 249/474
f 259/467 250/476 261/493
f 259/467 249/474 250/476
f 259/467 257/468 255/469
f 266/66 265/24 260/67
f 268/48 261/84 250/85
f 250/85 267/47 268/48
f 260/67 261/84 268/48
f 270/6 267/47 269/19
f 267/47 270/6 268/48
f 268/48 266/66 260/67
f 266/66 268/48 11/59
f 266/66 11/59 9/69
f 268/48 270/6 11/59
f 265/24 1/60 272/35
f 265/24 266/66 1/60
f 1/60 266/66 9/69
f 274/324 273/405 276/357
f 276/357 273/405 275/399
f 275/99 273/97 277/96
f 275/399 279/377 280/316
f 276/357 275/399 280/316
f 281/370 279/377 278/378
f 279/377 275/399 278/378
f 279/377 281/370 280/316
f 282/623 283/625 284/619
f 283/625 282/623 285/543
f 283/625 286/614 284/619
f 276/357 280/316 288/325
f 275/99 277/96 230/100
f 278/378 290/350 281/370
f 290/350 291/334 281/370
f 281/370 291/334 280/316
f 291/334 292/317 280/316
f 280/316 292/317 289/318
f 278/102 293/101 290/107
f 294/352 295/383 290/350
f 290/350 229/351 294/352
f 296/400 295/383 294/352
f 292/317 297/361 289/318
f 298/305 289/318 297/361
f 290/350 299/381 291/334
f 295/383 299/381 290/350
f 300/602 301/606 284/619
f 284/619 301/606 282/623
f 300/602 302/603 301/606
f 286/614 303/542 300/602
f 300/602 284/619 286/614
f 283/625 285/543 286/614
f 286/614 285/543 303/542
f 303/542 285/543 304/544
f 299/381 295/383 305/396
f 295/383 306/407 305/396
f 295/383 296/400 306/407
f 306/521 307/522 305/525
f 306/521 308/502 302/518
f 299/381 292/317 291/334
f 305/396 309/412 299/381
f 299/381 309/412 292/317
f 309/412 310/404 292/317
f 310/404 297/361 292/317
f 309/412 305/396 310/404
f 306/521 303/520 307/522
f 302/518 303/520 306/521
f 300/602 303/542 302/603
f 302/518 308/502 301/504
f 303/542 304/544 307/576
f 304/544 312/575 307/576
f 275/99 230/100 293/101
f 293/101 229/118 290/107
f 294/352 313/411 296/400
f 294/352 314/401 313/411
f 230/100 229/118 293/101
f 294/352 243/373 314/401
f 229/351 243/373 294/352
f 229/351 234/372 243/373
f 315/434 227/417 316/415
f 227/417 317/441 240/418
f 315/434 317/441 227/417
f 317/441 318/447 240/418
f 296/400 308/402 306/407
f 296/400 314/401 308/402
f 313/411 314/401 296/400
f 314/401 243/373 308/402
f 310/404 305/396 319/385
f 311/409 319/385 305/396
f 310/404 319/385 297/361
f 319/385 320/362 297/361
f 319/385 311/409 321/391
f 305/525 307/522 311/526
f 319/385 321/391 320/362
f 308/502 318/503 301/504
f 301/504 322/505 323/506
f 318/503 322/505 301/504
f 311/586 307/576 312/575
f 243/373 234/372 240/410
f 308/502 243/509 318/503
f 240/523 318/503 243/509
f 317/441 324/445 318/447
f 325/120 326/137 327/121
f 328/135 329/136 326/137
f 330/147 331/148 325/120
f 326/137 325/120 331/148
f 332/151 331/148 330/147
f 333/150 332/151 330/147
f 332/151 333/150 335/131
f 332/151 335/131 334/132
f 336/146 328/135 326/137
f 331/148 337/130 326/137
f 337/130 336/146 326/137
f 338/122 336/146 337/130
f 338/122 233/129 336/146
f 338/122 337/130 339/108
f 331/148 341/113 337/130
f 332/151 341/113 331/148
f 334/132 341/113 332/151
f 342/7 340/72 339/44
f 333/150 343/126 344/144
f 333/150 344/144 335/131
f 345/139 346/141 344/144
f 346/141 335/131 344/144
f 348/138 349/158 350/114
f 350/114 349/158 351/152
f 335/131 350/114 334/132
f 350/114 335/131 348/138
f 346/141 348/138 335/131
f 350/114 351/152 353/145
f 351/152 352/163 353/145
f 352/163 354/164 353/145
f 345/139 347/140 346/141
f 346/141 347/140 355/142
f 356/149 355/142 347/140
f 357/156 355/142 358/157
f 348/138 346/141 355/142
f 348/138 355/142 357/156
f 349/158 348/138 357/156
f 356/149 358/157 355/142
f 39/161 357/156 358/157
f 351/152 357/156 39/161
f 349/158 357/156 351/152
f 39/161 359/155 351/152
f 351/152 359/155 352/163
f 352/163 359/155 354/164
f 233/129 338/122 236/110
f 236/110 232/123 233/129
f 339/108 236/110 338/122
f 339/108 360/109 236/110
f 238/169 237/160 247/159
f 247/159 237/160 360/109
f 236/110 360/109 237/160
f 339/44 361/45 360/46
f 362/70 361/45 339/44
f 339/44 340/72 362/70
f 362/70 340/72 363/8
f 363/8 361/45 362/70
f 342/7 363/8 340/72
f 342/7 364/3 363/8
f 363/8 364/3 271/4
f 246/168 247/159 365/162
f 244/81 246/95 365/82
f 244/81 365/82 245/83
f 360/109 365/162 247/159
f 365/82 360/46 366/76
f 365/82 367/88 245/83
f 366/76 361/45 368/77
f 365/82 366/76 367/88
f 366/76 368/77 367/88
f 360/46 361/45 366/76
f 269/19 368/77 361/45
f 245/83 367/88 250/85
f 367/88 368/77 250/85
f 368/77 267/47 250/85
f 269/19 267/47 368/77
f 363/8 269/19 361/45
f 269/19 363/8 271/4
f 271/4 270/6 269/19
f 353/13 364/3 342/7
f 282/514 369/516 287/515
f 369/516 282/514 370/507
f 282/514 287/515 285/513
f 371/517 287/515 369/516
f 287/515 371/517 372/511
f 369/516 373/519 371/517
f 374/437 375/421 376/448
f 378/454 379/422 375/421
f 378/454 380/453 379/422
f 381/443 380/453 378/454
f 375/421 382/423 376/448
f 383/452 376/448 382/423
f 378/454 375/421 377/414
f 377/414 381/443 378/454
f 386/449 387/459 384/450
f 387/459 385/426 384/450
f 391/433 388/460 389/439
f 389/439 388/460 374/437
f 387/459 390/451 385/426
f 391/433 390/451 387/459
f 391/433 392/432 390/451
f 386/449 384/450 393/420
f 386/449 374/437 391/433
f 374/437 386/449 393/420
f 393/420 375/421 374/437
f 393/420 377/414 375/421
f 384/450 385/426 394/425
f 395/456 384/450 394/425
f 386/449 391/433 387/459
f 393/420 384/450 395/456
f 374/437 388/460 391/433
f 376/448 396/438 374/437
f 374/437 396/438 389/439
f 375/421 379/422 382/423
f 397/485 382/487 379/490
f 379/490 380/483 397/485
f 380/483 399/494 397/485
f 397/485 400/486 382/487
f 397/485 399/494 400/486
f 402/431 392/432 391/433
f 376/448 383/452 396/438
f 382/487 400/486 383/501
f 396/498 403/499 389/500
f 383/501 400/486 396/498
f 396/498 400/486 403/499
f 400/486 402/461 403/499
f 391/433 389/439 402/431
f 389/500 403/499 402/461
f 402/431 405/457 404/458
f 399/494 401/462 400/486
f 400/486 401/462 402/461
f 381/443 377/414 251/444
f 395/456 316/415 393/420
f 393/420 316/415 377/414
f 377/414 316/415 226/416
f 226/416 251/444 377/414
f 316/415 227/417 226/416
f 381/464 251/465 253/466
f 381/464 398/482 380/483
f 380/483 398/482 399/494
f 401/462 399/494 398/482
f 406/475 398/482 381/464
f 406/475 401/462 398/482
f 405/496 402/461 408/463
f 402/461 401/462 408/463
f 407/484 408/463 401/462
f 381/464 253/466 406/475
f 254/470 401/462 406/475
f 254/470 407/484 401/462
f 406/475 253/466 254/470
f 385/426 390/451 409/440
f 390/451 392/432 409/440
f 385/426 409/440 410/424
f 410/424 394/425 385/426
f 282/514 301/504 370/507
f 373/519 369/516 370/507
f 287/515 372/511 285/513
f 372/511 304/512 285/513
f 372/511 373/519 370/507
f 371/517 373/519 372/511
f 370/507 411/524 372/511
f 411/620 412/611 413/607
f 411/524 304/512 372/511
f 413/607 412/611 414/612
f 412/611 421/626 414/612
f 301/504 323/506 370/507
f 370/507 323/506 415/508
f 370/507 415/508 411/524
f 416/564 312/575 304/544
f 411/620 413/607 304/544
f 413/607 414/612 417/598
f 413/607 416/564 304/544
f 412/78 411/39 421/25
f 415/38 421/25 411/39
f 404/458 409/440 392/432
f 402/431 404/458 392/432
f 409/440 405/457 410/424
f 404/458 405/457 409/440
f 395/456 394/425 315/434
f 418/442 394/425 410/424
f 316/415 395/456 315/434
f 315/434 394/425 419/435
f 418/442 419/435 394/425
f 418/495 408/463 419/488
f 315/434 324/445 317/441
f 324/445 315/434 262/436
f 408/463 256/471 419/488
f 315/434 419/435 262/436
f 419/488 256/471 262/489
f 322/505 420/527 323/506
f 322/505 415/508 420/527
f 322/505 263/510 415/508
f 323/506 420/527 415/508
f 415/38 264/23 421/25
f 322/505 318/503 263/510
f 324/445 263/446 318/447
f 324/445 262/436 263/446
f 262/489 257/468 263/492
f 263/89 264/23 415/38
f 264/23 265/24 421/25
f 410/424 405/457 418/442
f 418/495 405/496 408/463
f 407/484 254/470 408/463
f 256/471 408/463 254/470
f 422/173 423/174 424/105
f 422/413 425/365 423/364
f 424/105 426/98 422/173
f 423/364 425/365 428/366
f 427/127 424/105 423/174
f 427/387 423/364 428/366
f 427/387 428/366 429/345
f 428/366 430/393 431/355
f 432/111 433/106 427/127
f 429/345 432/287 427/387
f 432/287 429/345 434/382
f 428/366 431/355 429/345
f 429/345 435/326 436/346
f 435/326 429/345 431/355
f 438/376 437/389 274/324
f 437/167 426/98 273/97
f 426/390 425/365 422/413
f 437/389 425/365 426/390
f 437/389 438/376 425/365
f 438/376 440/371 425/365
f 438/376 441/398 440/371
f 438/376 439/335 441/398
f 274/324 439/335 438/376
f 439/335 442/339 441/398
f 273/405 274/324 437/389
f 277/96 273/97 426/98
f 439/335 444/308 442/339
f 274/324 444/308 439/335
f 274/324 288/325 444/308
f 274/324 276/357 288/325
f 425/365 440/371 428/366
f 440/371 445/394 428/366
f 445/394 430/393 428/366
f 441/398 445/394 440/371
f 441/398 442/339 445/394
f 445/394 442/339 430/393
f 444/308 446/338 442/339
f 442/339 446/338 431/355
f 442/339 431/355 430/393
f 446/338 447/320 431/355
f 431/355 447/320 435/326
f 434/382 429/345 448/379
f 448/379 449/288 434/382
f 448/379 429/345 436/346
f 448/379 450/359 449/288
f 436/346 450/359 448/379
f 436/346 451/395 450/359
f 451/395 103/300 450/359
f 450/359 452/386 449/288
f 450/359 453/286 452/386
f 452/386 453/286 449/288
f 454/295 99/329 436/346
f 435/326 454/295 436/346
f 426/98 455/103 443/104
f 424/105 455/103 426/98
f 433/106 424/105 427/127
f 424/105 433/106 455/103
f 432/111 456/112 433/106
f 432/111 464/116 456/112
f 426/98 443/104 277/96
f 444/308 457/307 446/338
f 288/325 458/304 444/308
f 458/304 457/307 444/308
f 280/316 458/304 288/325
f 443/104 327/121 277/96
f 457/307 459/343 447/320
f 460/303 457/307 458/304
f 460/303 458/304 298/305
f 459/343 457/307 460/303
f 457/307 447/320 446/338
f 447/320 461/293 435/326
f 459/343 462/321 447/320
f 461/293 447/320 462/321
f 463/333 461/293 462/321
f 443/104 455/103 327/121
f 455/103 325/120 327/121
f 326/137 329/136 327/121
f 455/103 465/117 325/120
f 456/112 330/147 465/117
f 456/112 343/126 330/147
f 465/117 330/147 325/120
f 327/121 329/136 277/96
f 460/303 466/309 459/343
f 298/305 466/309 460/303
f 277/96 329/136 467/119
f 277/96 467/119 230/100
f 329/136 328/135 467/119
f 466/309 468/367 459/343
f 468/367 462/321 459/343
f 466/309 469/358 468/367
f 468/367 470/363 462/321
f 463/333 462/321 470/363
f 468/367 469/358 470/363
f 470/363 471/354 463/333
f 469/358 472/353 470/363
f 472/353 471/354 470/363
f 434/382 449/288 432/287
f 453/286 103/300 473/306
f 432/287 449/288 464/289
f 464/289 449/288 453/286
f 453/286 474/285 464/289
f 461/293 454/295 435/326
f 461/293 100/294 454/295
f 475/310 100/294 461/293
f 461/293 463/333 475/310
f 476/337 475/310 463/333
f 476/337 110/299 475/310
f 464/116 474/125 456/112
f 474/125 478/133 477/134
f 456/112 474/125 343/126
f 474/125 477/134 343/126
f 330/147 343/126 333/150
f 477/134 344/144 343/126
f 345/139 344/144 477/134
f 478/133 347/140 477/134
f 347/140 345/139 477/134
f 356/149 347/140 478/133
f 463/333 471/354 476/337
f 476/337 471/354 120/311
f 458/304 280/316 289/318
f 289/318 298/305 458/304
f 479/348 466/309 298/305
f 479/348 480/349 466/309
f 298/305 297/361 320/362
f 298/305 320/362 479/348
f 320/362 481/356 479/348
f 320/362 321/391 481/356
f 480/349 479/348 481/356
f 480/349 481/356 482/374
f 480/349 482/374 483/341
f 466/309 480/349 469/358
f 469/358 484/380 472/353
f 483/341 469/358 480/349
f 484/380 469/358 483/341
f 485/331 486/291 472/353
f 472/353 484/380 485/331
f 484/380 487/332 485/331
f 485/331 487/332 488/328
f 488/328 486/291 485/331
f 483/341 487/332 484/380
f 487/332 483/341 488/328
f 321/391 482/374 481/356
f 321/595 490/592 482/584
f 311/586 491/531 321/595
f 321/595 491/531 490/592
f 490/592 493/585 482/584
f 490/592 492/533 493/585
f 482/374 489/342 483/341
f 489/342 482/374 128/327
f 483/341 489/342 488/328
f 489/342 128/327 488/328
f 128/583 482/584 493/585
f 116/610 128/583 493/585
f 472/353 486/291 471/354
f 471/354 486/291 120/311
f 413/607 417/598 416/564
f 491/531 311/586 312/575
f 491/531 492/533 490/592
f 312/575 416/564 491/531
f 211/532 491/531 416/564
f 421/25 265/24 272/35
f 271/4 15/17 16/5
f 270/6 16/5 14/9
f 9/69 5/58 4/68
f 5/58 9/69 11/59
f 358/157 356/149 113/171
f 358/157 37/165 39/161
f 39/161 38/153 359/155
f 38/153 40/154 359/155
f 359/92 40/50 41/27
f 354/1 41/27 43/2
f 271/4 364/3 43/2
f 43/2 15/17 271/4
f 103/300 106/302 473/306
f 101/360 451/395 98/403
f 101/360 103/300 451/395
f 451/395 99/329 98/403
f 476/337 120/311 111/323
f 356/235 112/202 78/190
f 78/190 113/255 356/235
f 113/171 37/165 358/157
f 127/290 120/311 486/291
f 127/290 486/291 125/292
f 414/612 198/609 417/598
f 417/598 198/609 202/538
f 416/564 204/596 211/532
f 213/545 114/599 492/533
f 114/599 213/545 115/604
f 211/532 213/545 492/533
f 197/34 272/35 205/36
f 3/31 205/36 272/35
f 3/31 272/35 1/60
f 271/4 16/5 270/6
f 270/6 14/9 11/59
f 275/99 293/101 278/102
f 359/92 41/27 354/1
f 353/13 354/1 364/3
f 354/1 43/2 364/3
f 197/624 198/609 414/612
f 421/626 197/624 414/612
f 450/359 103/300 453/286
f 436/346 99/329 451/395
f 454/295 100/294 99/329
f 433/106 456/112 465/117
f 433/106 465/117 455/103
f 100/294 475/310 110/299
f 476/337 111/323 110/299
f 478/203 112/202 356/235
f 128/583 116/610 117/574
f 493/585 114/599 116/610
f 493/585 492/533 114/599
f 125/292 486/291 488/328
f 202/538 416/564 417/598
f 204/596 416/564 202/538
f 491/531 211/532 492/533
f 197/34 421/25 272/35
f 76/201 112/202 106/199
f 195/26 494/14 190/16
f 494/14 222/15 190/16
f 494/14 216/29 222/15
f 161/10 216/29 195/26
f 195/26 216/29 494/14
f 467/119 231/128 230/100
f 233/129 232/123 231/128
f 253/466 252/478 254/470
f 254/470 252/478 255/469
f 252/478 258/481 255/469
f 328/135 336/146 467/119
f 467/119 233/129 231/128
f 336/146 233/129 467/119
f 337/130 341/113 342/115
f 334/132 350/114 341/113
f 337/130 342/115 339/108
f 341/113 350/114 342/115
f 350/114 353/145 342/115
f 478/284 474/285 453/286
f 453/286 473/306 478/284
f 473/306 106/302 478/284
f 106/199 112/202 478/203
f 49/263 495/188 50/267
f 53/217 496/197 72/196
f 72/196 496/197 497/180
f 75/182 72/196 497/180
f 75/182 497/180 85/183
f 496/197 498/178 497/180
f 88/228 85/183 497/180
f 89/264 495/188 49/263
f 50/267 495/188 51/265
f 495/188 89/264 90/198
f 51/265 495/188 53/217
f 495/188 496/197 53/217
f 495/188 498/178 496/197
f 90/198 499/181 495/188
f 495/188 499/181 498/178
f 499/181 500/179 498/178
f 499/181 501/221 500/179
f 498/178 500/179 497/180
f 500/179 88/228 497/180
f 88/228 500/179 22/230
f 500/179 23/232 22/230
f 183/189 499/181 181/213
f 181/213 499/181 90/198
f 499/181 223/186 501/221
f 499/181 183/189 223/186
f 501/221 223/186 500/179
f 500/179 223/186 27/218
f 27/218 23/232 500/179
